<?xml version="1.0" encoding="UTF-8" standalone="no"?><svg xmlns="http://www.w3.org/2000/svg" xmlns:xlink="http://www.w3.org/1999/xlink" clip-rule="evenodd" stroke-miterlimit="4.00" viewBox="0 0 1024 768"><desc>SVG generated by Keynote</desc><defs></defs><g transform="matrix(1.00, 0.00, -0.00, -1.00, 0.0, 768.0)"><path d="M 0.0 768.0 L 1024.0 768.0 L 1024.0 0.0 L 0.0 0.0 Z M 0.0 768.0 " fill="#000000"></path><image xlink:href="../../3D76DF7E-B68D-4710-A1FF-6AA336D972DE/assets/C65CED9BEB75711B5444F937F4494EF4.jpeg" width="1024.00" height="435.00" transform="matrix(1.00, 0.00, -0.00, -1.00, 0.0, 602.0)"></image><text xml:space="preserve" font-family="Arial-Black" font-weight="bold" font-size="60.0" fill="#FEFFFF" transform="matrix(1.00, 0.00, -0.00, -1.00, 28.0, 670.0)">P</text><text xml:space="preserve" font-family="Arial-Black" font-weight="bold" font-size="60.0" fill="#FEFFFF" transform="matrix(1.00, 0.00, -0.00, -1.00, 70.3, 670.0)">a</text><text xml:space="preserve" font-family="Arial-Black" font-weight="bold" font-size="60.0" fill="#FEFFFF" transform="matrix(1.00, 0.00, -0.00, -1.00, 110.3, 670.0)">c</text><text xml:space="preserve" font-family="Arial-Black" font-weight="bold" font-size="60.0" fill="#FEFFFF" transform="matrix(1.00, 0.00, -0.00, -1.00, 149.3, 670.0)">k</text><text xml:space="preserve" font-family="Arial-Black" font-weight="bold" font-size="60.0" fill="#FEFFFF" transform="matrix(1.00, 0.00, -0.00, -1.00, 189.3, 670.0)">a</text><text xml:space="preserve" font-family="Arial-Black" font-weight="bold" font-size="60.0" fill="#FEFFFF" transform="matrix(1.00, 0.00, -0.00, -1.00, 230.3, 670.0)">g</text><text xml:space="preserve" font-family="Arial-Black" font-weight="bold" font-size="60.0" fill="#FEFFFF" transform="matrix(1.00, 0.00, -0.00, -1.00, 270.4, 670.0)">e</text><text xml:space="preserve" font-family="Arial-Black" font-weight="bold" font-size="60.0" fill="#FEFFFF" transform="matrix(1.00, 0.00, -0.00, -1.00, 51.0, 70.0)">M</text><text xml:space="preserve" font-family="Arial-Black" font-weight="bold" font-size="60.0" fill="#FEFFFF" transform="matrix(1.00, 0.00, -0.00, -1.00, 107.6, 70.0)">o</text><text xml:space="preserve" font-family="Arial-Black" font-weight="bold" font-size="60.0" fill="#FEFFFF" transform="matrix(1.00, 0.00, -0.00, -1.00, 147.6, 70.0)">d</text><text xml:space="preserve" font-family="Arial-Black" font-weight="bold" font-size="60.0" fill="#FEFFFF" transform="matrix(1.00, 0.00, -0.00, -1.00, 187.7, 70.0)">u</text><text xml:space="preserve" font-family="Arial-Black" font-weight="bold" font-size="60.0" fill="#FEFFFF" transform="matrix(1.00, 0.00, -0.00, -1.00, 227.7, 70.0)">l</text><text xml:space="preserve" font-family="Arial-Black" font-weight="bold" font-size="60.0" fill="#FEFFFF" transform="matrix(1.00, 0.00, -0.00, -1.00, 247.7, 70.0)">e</text><text xml:space="preserve" font-family="Futura-Medium" font-size="37.0" fill="#FEFFFF" transform="matrix(1.00, 0.00, -0.00, -1.00, 388.5, 704.2)">•</text><text xml:space="preserve" font-family="Futura-Medium" font-size="37.0" fill="#FEFFFF" transform="matrix(1.00, 0.00, -0.00, -1.00, 416.0, 704.0)">d</text><text xml:space="preserve" font-family="Futura-Medium" font-size="37.0" fill="#FEFFFF" transform="matrix(1.00, 0.00, -0.00, -1.00, 438.2, 704.0)">i</text><text xml:space="preserve" font-family="Futura-Medium" font-size="37.0" fill="#FEFFFF" transform="matrix(1.00, 0.00, -0.00, -1.00, 447.4, 704.0)">r</text><text xml:space="preserve" font-family="Futura-Medium" font-size="37.0" fill="#FEFFFF" transform="matrix(1.00, 0.00, -0.00, -1.00, 461.0, 704.0)">e</text><text xml:space="preserve" font-family="Futura-Medium" font-size="37.0" fill="#FEFFFF" transform="matrix(1.00, 0.00, -0.00, -1.00, 481.4, 704.0)">c</text><text xml:space="preserve" font-family="Futura-Medium" font-size="37.0" fill="#FEFFFF" transform="matrix(1.00, 0.00, -0.00, -1.00, 499.1, 704.0)">t</text><text xml:space="preserve" font-family="Futura-Medium" font-size="37.0" fill="#FEFFFF" transform="matrix(1.00, 0.00, -0.00, -1.00, 509.5, 704.0)">o</text><text xml:space="preserve" font-family="Futura-Medium" font-size="37.0" fill="#FEFFFF" transform="matrix(1.00, 0.00, -0.00, -1.00, 531.7, 704.0)">r</text><text xml:space="preserve" font-family="Futura-Medium" font-size="37.0" fill="#FEFFFF" transform="matrix(1.00, 0.00, -0.00, -1.00, 547.2, 704.0)">y</text><text xml:space="preserve" font-family="Futura-Medium" font-size="37.0" fill="#FEFFFF" transform="matrix(1.00, 0.00, -0.00, -1.00, 567.3, 704.0)">/</text><text xml:space="preserve" font-family="Futura-Medium" font-size="37.0" fill="#FEFFFF" transform="matrix(1.00, 0.00, -0.00, -1.00, 586.5, 704.0)">t</text><text xml:space="preserve" font-family="Futura-Medium" font-size="37.0" fill="#FEFFFF" transform="matrix(1.00, 0.00, -0.00, -1.00, 596.9, 704.0)">a</text><text xml:space="preserve" font-family="Futura-Medium" font-size="37.0" fill="#FEFFFF" transform="matrix(1.00, 0.00, -0.00, -1.00, 619.1, 704.0)">r</text><text xml:space="preserve" font-family="Futura-Medium" font-size="37.0" fill="#FEFFFF" transform="matrix(1.00, 0.00, -0.00, -1.00, 632.9, 704.0)">b</text><text xml:space="preserve" font-family="Futura-Medium" font-size="37.0" fill="#FEFFFF" transform="matrix(1.00, 0.00, -0.00, -1.00, 655.1, 704.0)">a</text><text xml:space="preserve" font-family="Futura-Medium" font-size="37.0" fill="#FEFFFF" transform="matrix(1.00, 0.00, -0.00, -1.00, 677.3, 704.0)">l</text><text xml:space="preserve" font-family="Futura-Medium" font-size="37.0" fill="#FEFFFF" transform="matrix(1.00, 0.00, -0.00, -1.00, 686.5, 704.0)">l</text><text xml:space="preserve" font-family="Futura-Medium" font-size="37.0" fill="#FEFFFF" transform="matrix(1.00, 0.00, -0.00, -1.00, 695.7, 704.0)"> </text><text xml:space="preserve" font-family="Futura-Medium" font-size="37.0" fill="#FEFFFF" transform="matrix(1.00, 0.00, -0.00, -1.00, 707.1, 704.0)">+</text><text xml:space="preserve" font-family="Futura-Medium" font-size="37.0" fill="#FEFFFF" transform="matrix(1.00, 0.00, -0.00, -1.00, 729.9, 704.0)"> </text><text xml:space="preserve" font-family="Futura-Medium" font-size="37.0" fill="#FEFFFF" transform="matrix(1.00, 0.00, -0.00, -1.00, 741.3, 704.0)">m</text><text xml:space="preserve" font-family="Futura-Medium" font-size="37.0" fill="#FEFFFF" transform="matrix(1.00, 0.00, -0.00, -1.00, 770.6, 704.0)">e</text><text xml:space="preserve" font-family="Futura-Medium" font-size="37.0" fill="#FEFFFF" transform="matrix(1.00, 0.00, -0.00, -1.00, 791.4, 704.0)">t</text><text xml:space="preserve" font-family="Futura-Medium" font-size="37.0" fill="#FEFFFF" transform="matrix(1.00, 0.00, -0.00, -1.00, 801.9, 704.0)">a</text><text xml:space="preserve" font-family="Futura-Medium" font-size="37.0" fill="#FEFFFF" transform="matrix(1.00, 0.00, -0.00, -1.00, 824.0, 704.0)">d</text><text xml:space="preserve" font-family="Futura-Medium" font-size="37.0" fill="#FEFFFF" transform="matrix(1.00, 0.00, -0.00, -1.00, 846.2, 704.0)">a</text><text xml:space="preserve" font-family="Futura-Medium" font-size="37.0" fill="#FEFFFF" transform="matrix(1.00, 0.00, -0.00, -1.00, 868.4, 704.0)">t</text><text xml:space="preserve" font-family="Futura-Medium" font-size="37.0" fill="#FEFFFF" transform="matrix(1.00, 0.00, -0.00, -1.00, 878.8, 704.0)">a</text><text xml:space="preserve" font-family="Futura-Medium" font-size="37.0" fill="#FEFFFF" transform="matrix(1.00, 0.00, -0.00, -1.00, 901.0, 704.0)"> </text><text xml:space="preserve" font-family="Futura-Medium" font-size="37.0" fill="#FEFFFF" transform="matrix(1.00, 0.00, -0.00, -1.00, 388.5, 655.2)">•</text><text xml:space="preserve" font-family="Futura-Medium" font-size="37.0" fill="#FEFFFF" transform="matrix(1.00, 0.00, -0.00, -1.00, 416.0, 655.0)">y</text><text xml:space="preserve" font-family="Futura-Medium" font-size="37.0" fill="#FEFFFF" transform="matrix(1.00, 0.00, -0.00, -1.00, 435.4, 655.0)">o</text><text xml:space="preserve" font-family="Futura-Medium" font-size="37.0" fill="#FEFFFF" transform="matrix(1.00, 0.00, -0.00, -1.00, 457.7, 655.0)">u</text><text xml:space="preserve" font-family="Futura-Medium" font-size="37.0" fill="#FEFFFF" transform="matrix(1.00, 0.00, -0.00, -1.00, 477.8, 655.0)"> </text><text xml:space="preserve" font-family="Futura-Medium" font-size="37.0" fill="#FEFFFF" transform="matrix(1.00, 0.00, -0.00, -1.00, 489.2, 655.0)">p</text><text xml:space="preserve" font-family="Futura-Medium" font-size="37.0" fill="#FEFFFF" transform="matrix(1.00, 0.00, -0.00, -1.00, 511.4, 655.0)">u</text><text xml:space="preserve" font-family="Futura-Medium" font-size="37.0" fill="#FEFFFF" transform="matrix(1.00, 0.00, -0.00, -1.00, 531.6, 655.0)">b</text><text xml:space="preserve" font-family="Futura-Medium" font-size="37.0" fill="#FEFFFF" transform="matrix(1.00, 0.00, -0.00, -1.00, 553.7, 655.0)">l</text><text xml:space="preserve" font-family="Futura-Medium" font-size="37.0" fill="#FEFFFF" transform="matrix(1.00, 0.00, -0.00, -1.00, 562.9, 655.0)">i</text><text xml:space="preserve" font-family="Futura-Medium" font-size="37.0" fill="#FEFFFF" transform="matrix(1.00, 0.00, -0.00, -1.00, 572.2, 655.0)">s</text><text xml:space="preserve" font-family="Futura-Medium" font-size="37.0" fill="#FEFFFF" transform="matrix(1.00, 0.00, -0.00, -1.00, 587.2, 655.0)">h</text><text xml:space="preserve" font-family="Futura-Medium" font-size="37.0" fill="#FEFFFF" transform="matrix(1.00, 0.00, -0.00, -1.00, 607.5, 655.0)"> </text><text xml:space="preserve" font-family="Futura-Medium" font-size="37.0" fill="#FEFFFF" transform="matrix(1.00, 0.00, -0.00, -1.00, 618.9, 655.0)">a</text><text xml:space="preserve" font-family="Futura-Medium" font-size="37.0" fill="#FEFFFF" transform="matrix(1.00, 0.00, -0.00, -1.00, 641.0, 655.0)">n</text><text xml:space="preserve" font-family="Futura-Medium" font-size="37.0" fill="#FEFFFF" transform="matrix(1.00, 0.00, -0.00, -1.00, 661.3, 655.0)">d</text><text xml:space="preserve" font-family="Futura-Medium" font-size="37.0" fill="#FEFFFF" transform="matrix(1.00, 0.00, -0.00, -1.00, 683.5, 655.0)"> </text><text xml:space="preserve" font-family="Futura-Medium" font-size="37.0" fill="#FEFFFF" transform="matrix(1.00, 0.00, -0.00, -1.00, 694.9, 655.0)">i</text><text xml:space="preserve" font-family="Futura-Medium" font-size="37.0" fill="#FEFFFF" transform="matrix(1.00, 0.00, -0.00, -1.00, 704.1, 655.0)">n</text><text xml:space="preserve" font-family="Futura-Medium" font-size="37.0" fill="#FEFFFF" transform="matrix(1.00, 0.00, -0.00, -1.00, 724.4, 655.0)">s</text><text xml:space="preserve" font-family="Futura-Medium" font-size="37.0" fill="#FEFFFF" transform="matrix(1.00, 0.00, -0.00, -1.00, 739.4, 655.0)">t</text><text xml:space="preserve" font-family="Futura-Medium" font-size="37.0" fill="#FEFFFF" transform="matrix(1.00, 0.00, -0.00, -1.00, 749.9, 655.0)">a</text><text xml:space="preserve" font-family="Futura-Medium" font-size="37.0" fill="#FEFFFF" transform="matrix(1.00, 0.00, -0.00, -1.00, 772.1, 655.0)">l</text><text xml:space="preserve" font-family="Futura-Medium" font-size="37.0" fill="#FEFFFF" transform="matrix(1.00, 0.00, -0.00, -1.00, 781.3, 655.0)">l</text><text xml:space="preserve" font-family="Futura-Medium" font-size="37.0" fill="#FEFFFF" transform="matrix(1.00, 0.00, -0.00, -1.00, 790.5, 655.0)"> </text><text xml:space="preserve" font-family="Futura-Medium" font-size="37.0" fill="#FEFFFF" transform="matrix(1.00, 0.00, -0.00, -1.00, 801.9, 655.0)">t</text><text xml:space="preserve" font-family="Futura-Medium" font-size="37.0" fill="#FEFFFF" transform="matrix(1.00, 0.00, -0.00, -1.00, 812.8, 655.0)">h</text><text xml:space="preserve" font-family="Futura-Medium" font-size="37.0" fill="#FEFFFF" transform="matrix(1.00, 0.00, -0.00, -1.00, 833.1, 655.0)">e</text><text xml:space="preserve" font-family="Futura-Medium" font-size="37.0" fill="#FEFFFF" transform="matrix(1.00, 0.00, -0.00, -1.00, 853.5, 655.0)">s</text><text xml:space="preserve" font-family="Futura-Medium" font-size="37.0" fill="#FEFFFF" transform="matrix(1.00, 0.00, -0.00, -1.00, 868.5, 655.0)">e</text></g></svg>