<?xml version="1.0" encoding="UTF-8" standalone="no"?><svg xmlns="http://www.w3.org/2000/svg" xmlns:xlink="http://www.w3.org/1999/xlink" clip-rule="evenodd" stroke-miterlimit="4.00" viewBox="0 0 1024 768"><desc>SVG generated by Keynote</desc><defs></defs><g transform="matrix(1.00, 0.00, -0.00, -1.00, 0.0, 768.0)"><path d="M 0.0 768.0 L 1024.0 768.0 L 1024.0 0.0 L 0.0 0.0 Z M 0.0 768.0 " fill="#000000"></path><g><clipPath id="clip-163"><path d="M -134.0 771.0 L 1703.0 771.0 L 1703.0 -3.0 L -134.0 -3.0 Z M -133.7 771.3 "></path></clipPath><g clip-path="url(#clip-163)"><image xlink:href="../../42B962AB-3E13-45C3-98CD-852D8DC4419C/assets/C7936235D7C6D7AD25778C0633A5EE86.jpeg" width="1366.00" height="576.00" transform="matrix(1.34, 0.00, -0.00, -1.34, -134.0, 771.0)"></image></g></g><text xml:space="preserve" font-family="Arial-Black" font-weight="bold" font-size="49.0" fill="#FEFFFF" transform="matrix(1.00, 0.00, -0.00, -1.00, 251.0, 713.0)">L</text><text xml:space="preserve" font-family="Arial-Black" font-weight="bold" font-size="49.0" fill="#FEFFFF" transform="matrix(1.00, 0.00, -0.00, -1.00, 283.7, 713.0)">e</text><text xml:space="preserve" font-family="Arial-Black" font-weight="bold" font-size="49.0" fill="#FEFFFF" transform="matrix(1.00, 0.00, -0.00, -1.00, 316.4, 713.0)">t</text><text xml:space="preserve" font-family="Arial-Black" font-weight="bold" font-size="49.0" fill="#FEFFFF" transform="matrix(1.00, 0.00, -0.00, -1.00, 338.1, 713.0)">’</text><text xml:space="preserve" font-family="Arial-Black" font-weight="bold" font-size="49.0" fill="#FEFFFF" transform="matrix(1.00, 0.00, -0.00, -1.00, 350.4, 713.0)">s</text><text xml:space="preserve" font-family="Arial-Black" font-weight="bold" font-size="49.0" fill="#FEFFFF" transform="matrix(1.00, 0.00, -0.00, -1.00, 380.4, 713.0)"> </text><text xml:space="preserve" font-family="Arial-Black" font-weight="bold" font-size="49.0" fill="#FEFFFF" transform="matrix(1.00, 0.00, -0.00, -1.00, 396.7, 713.0)">t</text><text xml:space="preserve" font-family="Arial-Black" font-weight="bold" font-size="49.0" fill="#FEFFFF" transform="matrix(1.00, 0.00, -0.00, -1.00, 418.5, 713.0)">a</text><text xml:space="preserve" font-family="Arial-Black" font-weight="bold" font-size="49.0" fill="#FEFFFF" transform="matrix(1.00, 0.00, -0.00, -1.00, 451.2, 713.0)">l</text><text xml:space="preserve" font-family="Arial-Black" font-weight="bold" font-size="49.0" fill="#FEFFFF" transform="matrix(1.00, 0.00, -0.00, -1.00, 467.5, 713.0)">k</text><text xml:space="preserve" font-family="Arial-Black" font-weight="bold" font-size="49.0" fill="#FEFFFF" transform="matrix(1.00, 0.00, -0.00, -1.00, 500.2, 713.0)"> </text><text xml:space="preserve" font-family="Arial-Black" font-weight="bold" font-size="49.0" fill="#FEFFFF" transform="matrix(1.00, 0.00, -0.00, -1.00, 516.5, 713.0)">a</text><text xml:space="preserve" font-family="Arial-Black" font-weight="bold" font-size="49.0" fill="#FEFFFF" transform="matrix(1.00, 0.00, -0.00, -1.00, 549.7, 713.0)">b</text><text xml:space="preserve" font-family="Arial-Black" font-weight="bold" font-size="49.0" fill="#FEFFFF" transform="matrix(1.00, 0.00, -0.00, -1.00, 582.4, 713.0)">o</text><text xml:space="preserve" font-family="Arial-Black" font-weight="bold" font-size="49.0" fill="#FEFFFF" transform="matrix(1.00, 0.00, -0.00, -1.00, 615.0, 713.0)">u</text><text xml:space="preserve" font-family="Arial-Black" font-weight="bold" font-size="49.0" fill="#FEFFFF" transform="matrix(1.00, 0.00, -0.00, -1.00, 647.7, 713.0)">t</text><text xml:space="preserve" font-family="Arial-Black" font-weight="bold" font-size="49.0" fill="#FEFFFF" transform="matrix(1.00, 0.00, -0.00, -1.00, 669.5, 713.0)"> </text><text xml:space="preserve" font-family="Arial-Black" font-weight="bold" font-size="49.0" fill="#FEFFFF" transform="matrix(1.00, 0.00, -0.00, -1.00, 685.8, 713.0)">t</text><text xml:space="preserve" font-family="Arial-Black" font-weight="bold" font-size="49.0" fill="#FEFFFF" transform="matrix(1.00, 0.00, -0.00, -1.00, 707.6, 713.0)">h</text><text xml:space="preserve" font-family="Arial-Black" font-weight="bold" font-size="49.0" fill="#FEFFFF" transform="matrix(1.00, 0.00, -0.00, -1.00, 740.3, 713.0)">e</text><text xml:space="preserve" font-family="Arial-Black" font-weight="bold" font-size="49.0" fill="#FEFFFF" transform="matrix(1.00, 0.00, -0.00, -1.00, 772.9, 713.0)"> </text><text xml:space="preserve" font-family="Arial-Black" font-weight="bold" font-size="49.0" fill="#FEFFFF" transform="matrix(1.00, 0.00, -0.00, -1.00, 207.0, 644.0)">O</text><text xml:space="preserve" font-family="Arial-Black" font-weight="bold" font-size="49.0" fill="#FEFFFF" transform="matrix(1.00, 0.00, -0.00, -1.00, 247.8, 644.0)">p</text><text xml:space="preserve" font-family="Arial-Black" font-weight="bold" font-size="49.0" fill="#FEFFFF" transform="matrix(1.00, 0.00, -0.00, -1.00, 280.5, 644.0)">e</text><text xml:space="preserve" font-family="Arial-Black" font-weight="bold" font-size="49.0" fill="#FEFFFF" transform="matrix(1.00, 0.00, -0.00, -1.00, 313.2, 644.0)">n</text><text xml:space="preserve" font-family="Arial-Black" font-weight="bold" font-size="49.0" fill="#FEFFFF" transform="matrix(1.00, 0.00, -0.00, -1.00, 345.9, 644.0)"> </text><text xml:space="preserve" font-family="Arial-Black" font-weight="bold" font-size="49.0" fill="#FEFFFF" transform="matrix(1.00, 0.00, -0.00, -1.00, 362.2, 644.0)">S</text><text xml:space="preserve" font-family="Arial-Black" font-weight="bold" font-size="49.0" fill="#FEFFFF" transform="matrix(1.00, 0.00, -0.00, -1.00, 397.6, 644.0)">o</text><text xml:space="preserve" font-family="Arial-Black" font-weight="bold" font-size="49.0" fill="#FEFFFF" transform="matrix(1.00, 0.00, -0.00, -1.00, 430.3, 644.0)">u</text><text xml:space="preserve" font-family="Arial-Black" font-weight="bold" font-size="49.0" fill="#FEFFFF" transform="matrix(1.00, 0.00, -0.00, -1.00, 463.0, 644.0)">r</text><text xml:space="preserve" font-family="Arial-Black" font-weight="bold" font-size="49.0" fill="#FEFFFF" transform="matrix(1.00, 0.00, -0.00, -1.00, 485.6, 644.0)">c</text><text xml:space="preserve" font-family="Arial-Black" font-weight="bold" font-size="49.0" fill="#FEFFFF" transform="matrix(1.00, 0.00, -0.00, -1.00, 518.3, 644.0)">e</text><text xml:space="preserve" font-family="Arial-Black" font-weight="bold" font-size="49.0" fill="#FEFFFF" transform="matrix(1.00, 0.00, -0.00, -1.00, 550.9, 644.0)"> </text><text xml:space="preserve" font-family="Arial-Black" font-weight="bold" font-size="49.0" fill="#FEFFFF" transform="matrix(1.00, 0.00, -0.00, -1.00, 567.3, 644.0)">W</text><text xml:space="preserve" font-family="Arial-Black" font-weight="bold" font-size="49.0" fill="#FEFFFF" transform="matrix(1.00, 0.00, -0.00, -1.00, 615.0, 644.0)">o</text><text xml:space="preserve" font-family="Arial-Black" font-weight="bold" font-size="49.0" fill="#FEFFFF" transform="matrix(1.00, 0.00, -0.00, -1.00, 647.7, 644.0)">r</text><text xml:space="preserve" font-family="Arial-Black" font-weight="bold" font-size="49.0" fill="#FEFFFF" transform="matrix(1.00, 0.00, -0.00, -1.00, 671.1, 644.0)">k</text><text xml:space="preserve" font-family="Arial-Black" font-weight="bold" font-size="49.0" fill="#FEFFFF" transform="matrix(1.00, 0.00, -0.00, -1.00, 703.8, 644.0)">f</text><text xml:space="preserve" font-family="Arial-Black" font-weight="bold" font-size="49.0" fill="#FEFFFF" transform="matrix(1.00, 0.00, -0.00, -1.00, 722.8, 644.0)">l</text><text xml:space="preserve" font-family="Arial-Black" font-weight="bold" font-size="49.0" fill="#FEFFFF" transform="matrix(1.00, 0.00, -0.00, -1.00, 739.2, 644.0)">o</text><text xml:space="preserve" font-family="Arial-Black" font-weight="bold" font-size="49.0" fill="#FEFFFF" transform="matrix(1.00, 0.00, -0.00, -1.00, 771.0, 644.0)">w</text></g></svg>