<?xml version="1.0" encoding="UTF-8" standalone="no"?><svg xmlns="http://www.w3.org/2000/svg" xmlns:xlink="http://www.w3.org/1999/xlink" clip-rule="evenodd" stroke-miterlimit="4.00" viewBox="0 0 1024 768"><desc>SVG generated by Keynote</desc><defs></defs><g transform="matrix(1.00, 0.00, -0.00, -1.00, 0.0, 768.0)"><path d="M 0.0 768.0 L 1024.0 768.0 L 1024.0 0.0 L 0.0 0.0 Z M 0.0 768.0 " fill="#000000"></path><image xlink:href="../../ACA96662-F166-4760-8AE8-9EBA25DC9C03/assets/B973A9B3FD369B78700C7CEF3E57C32A.jpeg" width="800.00" height="341.00" transform="matrix(2.15, 0.00, -0.00, -2.15, -170.0, 729.0)"></image><text xml:space="preserve" font-family="Arial-Black" font-weight="bold" font-size="65.0" fill="#DCDDE0" transform="matrix(1.00, 0.00, -0.00, -1.00, 21.0, 696.0)">L</text><text xml:space="preserve" font-family="Arial-Black" font-weight="bold" font-size="65.0" fill="#DCDDE0" transform="matrix(1.00, 0.00, -0.00, -1.00, 64.4, 696.0)">e</text><text xml:space="preserve" font-family="Arial-Black" font-weight="bold" font-size="65.0" fill="#DCDDE0" transform="matrix(1.00, 0.00, -0.00, -1.00, 107.7, 696.0)">t</text><text xml:space="preserve" font-family="Arial-Black" font-weight="bold" font-size="65.0" fill="#DCDDE0" transform="matrix(1.00, 0.00, -0.00, -1.00, 136.5, 696.0)">’</text><text xml:space="preserve" font-family="Arial-Black" font-weight="bold" font-size="65.0" fill="#DCDDE0" transform="matrix(1.00, 0.00, -0.00, -1.00, 152.9, 696.0)">s</text><text xml:space="preserve" font-family="Arial-Black" font-weight="bold" font-size="65.0" fill="#DCDDE0" transform="matrix(1.00, 0.00, -0.00, -1.00, 192.6, 696.0)"> </text><text xml:space="preserve" font-family="Arial-Black" font-weight="bold" font-size="65.0" fill="#DCDDE0" transform="matrix(1.00, 0.00, -0.00, -1.00, 214.3, 696.0)">t</text><text xml:space="preserve" font-family="Arial-Black" font-weight="bold" font-size="65.0" fill="#DCDDE0" transform="matrix(1.00, 0.00, -0.00, -1.00, 243.2, 696.0)">a</text><text xml:space="preserve" font-family="Arial-Black" font-weight="bold" font-size="65.0" fill="#DCDDE0" transform="matrix(1.00, 0.00, -0.00, -1.00, 286.5, 696.0)">l</text><text xml:space="preserve" font-family="Arial-Black" font-weight="bold" font-size="65.0" fill="#DCDDE0" transform="matrix(1.00, 0.00, -0.00, -1.00, 308.2, 696.0)">k</text><text xml:space="preserve" font-family="Arial-Black" font-weight="bold" font-size="65.0" fill="#DCDDE0" transform="matrix(1.00, 0.00, -0.00, -1.00, 351.5, 696.0)"> </text><text xml:space="preserve" font-family="Arial-Black" font-weight="bold" font-size="65.0" fill="#DCDDE0" transform="matrix(1.00, 0.00, -0.00, -1.00, 373.2, 696.0)">a</text><text xml:space="preserve" font-family="Arial-Black" font-weight="bold" font-size="65.0" fill="#DCDDE0" transform="matrix(1.00, 0.00, -0.00, -1.00, 417.2, 696.0)">b</text><text xml:space="preserve" font-family="Arial-Black" font-weight="bold" font-size="65.0" fill="#DCDDE0" transform="matrix(1.00, 0.00, -0.00, -1.00, 460.6, 696.0)">o</text><text xml:space="preserve" font-family="Arial-Black" font-weight="bold" font-size="65.0" fill="#DCDDE0" transform="matrix(1.00, 0.00, -0.00, -1.00, 503.9, 696.0)">u</text><text xml:space="preserve" font-family="Arial-Black" font-weight="bold" font-size="65.0" fill="#DCDDE0" transform="matrix(1.00, 0.00, -0.00, -1.00, 547.3, 696.0)">t</text><text xml:space="preserve" font-family="Arial-Black" font-weight="bold" font-size="65.0" fill="#DCDDE0" transform="matrix(1.00, 0.00, -0.00, -1.00, 576.1, 696.0)"> </text><text xml:space="preserve" font-family="Arial-Black" font-weight="bold" font-size="65.0" fill="#DCDDE0" transform="matrix(1.00, 0.00, -0.00, -1.00, 597.8, 696.0)">t</text><text xml:space="preserve" font-family="Arial-Black" font-weight="bold" font-size="65.0" fill="#DCDDE0" transform="matrix(1.00, 0.00, -0.00, -1.00, 626.7, 696.0)">e</text><text xml:space="preserve" font-family="Arial-Black" font-weight="bold" font-size="65.0" fill="#DCDDE0" transform="matrix(1.00, 0.00, -0.00, -1.00, 670.0, 696.0)">s</text><text xml:space="preserve" font-family="Arial-Black" font-weight="bold" font-size="65.0" fill="#DCDDE0" transform="matrix(1.00, 0.00, -0.00, -1.00, 709.7, 696.0)">t</text><text xml:space="preserve" font-family="Arial-Black" font-weight="bold" font-size="65.0" fill="#DCDDE0" transform="matrix(1.00, 0.00, -0.00, -1.00, 738.5, 696.0)">s</text><text xml:space="preserve" font-family="Futura-Medium" font-size="63.0" fill="#DCDDE0" transform="matrix(1.00, 0.00, -0.00, -1.00, 30.0, 594.0)">F</text><text xml:space="preserve" font-family="Futura-Medium" font-size="63.0" fill="#DCDDE0" transform="matrix(1.00, 0.00, -0.00, -1.00, 61.4, 594.0)">r</text><text xml:space="preserve" font-family="Futura-Medium" font-size="63.0" fill="#DCDDE0" transform="matrix(1.00, 0.00, -0.00, -1.00, 84.6, 594.0)">a</text><text xml:space="preserve" font-family="Futura-Medium" font-size="63.0" fill="#DCDDE0" transform="matrix(1.00, 0.00, -0.00, -1.00, 122.3, 594.0)">m</text><text xml:space="preserve" font-family="Futura-Medium" font-size="63.0" fill="#DCDDE0" transform="matrix(1.00, 0.00, -0.00, -1.00, 172.1, 594.0)">e</text><text xml:space="preserve" font-family="Futura-Medium" font-size="63.0" fill="#DCDDE0" transform="matrix(1.00, 0.00, -0.00, -1.00, 206.1, 594.0)">w</text><text xml:space="preserve" font-family="Futura-Medium" font-size="63.0" fill="#DCDDE0" transform="matrix(1.00, 0.00, -0.00, -1.00, 253.7, 594.0)">o</text><text xml:space="preserve" font-family="Futura-Medium" font-size="63.0" fill="#DCDDE0" transform="matrix(1.00, 0.00, -0.00, -1.00, 291.5, 594.0)">r</text><text xml:space="preserve" font-family="Futura-Medium" font-size="63.0" fill="#DCDDE0" transform="matrix(1.00, 0.00, -0.00, -1.00, 316.1, 594.0)">k</text><text xml:space="preserve" font-family="Futura-Medium" font-size="63.0" fill="#DCDDE0" transform="matrix(1.00, 0.00, -0.00, -1.00, 347.4, 594.0)">s</text><text xml:space="preserve" font-family="Futura-Medium" font-size="63.0" fill="#DCDDE0" transform="matrix(1.00, 0.00, -0.00, -1.00, 373.0, 594.0)"> </text><text xml:space="preserve" font-family="Futura-Medium" font-size="63.0" fill="#DCDDE0" transform="matrix(1.00, 0.00, -0.00, -1.00, 30.1, 510.9)">•</text><text xml:space="preserve" font-family="Futura-Medium" font-size="63.0" fill="#DCDDE0" transform="matrix(1.00, 0.00, -0.00, -1.00, 78.0, 511.0)">r</text><text xml:space="preserve" font-family="Futura-Medium" font-size="63.0" fill="#DCDDE0" transform="matrix(1.00, 0.00, -0.00, -1.00, 102.5, 511.0)">u</text><text xml:space="preserve" font-family="Futura-Medium" font-size="63.0" fill="#DCDDE0" transform="matrix(1.00, 0.00, -0.00, -1.00, 136.8, 511.0)">n</text><text xml:space="preserve" font-family="Futura-Medium" font-size="63.0" fill="#DCDDE0" transform="matrix(1.00, 0.00, -0.00, -1.00, 171.4, 511.0)">n</text><text xml:space="preserve" font-family="Futura-Medium" font-size="63.0" fill="#DCDDE0" transform="matrix(1.00, 0.00, -0.00, -1.00, 206.0, 511.0)">e</text><text xml:space="preserve" font-family="Futura-Medium" font-size="63.0" fill="#DCDDE0" transform="matrix(1.00, 0.00, -0.00, -1.00, 240.8, 511.0)">r</text><text xml:space="preserve" font-family="Futura-Medium" font-size="63.0" fill="#DCDDE0" transform="matrix(1.00, 0.00, -0.00, -1.00, 264.4, 511.0)"> </text><text xml:space="preserve" font-family="Futura-Medium" font-size="63.0" fill="#DCDDE0" transform="matrix(1.00, 0.00, -0.00, -1.00, 30.1, 427.9)">•</text><text xml:space="preserve" font-family="Futura-Medium" font-size="63.0" fill="#DCDDE0" transform="matrix(1.00, 0.00, -0.00, -1.00, 78.0, 428.0)">A</text><text xml:space="preserve" font-family="Futura-Medium" font-size="63.0" fill="#DCDDE0" transform="matrix(1.00, 0.00, -0.00, -1.00, 124.6, 428.0)">P</text><text xml:space="preserve" font-family="Futura-Medium" font-size="63.0" fill="#DCDDE0" transform="matrix(1.00, 0.00, -0.00, -1.00, 158.7, 428.0)">I</text><text xml:space="preserve" font-family="Futura-Medium" font-size="63.0" fill="#DCDDE0" transform="matrix(1.00, 0.00, -0.00, -1.00, 177.2, 428.0)"> </text><text xml:space="preserve" font-family="Futura-Medium" font-size="63.0" fill="#DCDDE0" transform="matrix(1.00, 0.00, -0.00, -1.00, 30.1, 344.9)">•</text><text xml:space="preserve" font-family="Futura-Medium" font-size="63.0" fill="#DCDDE0" transform="matrix(1.00, 0.00, -0.00, -1.00, 78.0, 345.0)">a</text><text xml:space="preserve" font-family="Futura-Medium" font-size="63.0" fill="#DCDDE0" transform="matrix(1.00, 0.00, -0.00, -1.00, 115.8, 345.0)">s</text><text xml:space="preserve" font-family="Futura-Medium" font-size="63.0" fill="#DCDDE0" transform="matrix(1.00, 0.00, -0.00, -1.00, 141.3, 345.0)">s</text><text xml:space="preserve" font-family="Futura-Medium" font-size="63.0" fill="#DCDDE0" transform="matrix(1.00, 0.00, -0.00, -1.00, 166.9, 345.0)">e</text><text xml:space="preserve" font-family="Futura-Medium" font-size="63.0" fill="#DCDDE0" transform="matrix(1.00, 0.00, -0.00, -1.00, 201.7, 345.0)">r</text><text xml:space="preserve" font-family="Futura-Medium" font-size="63.0" fill="#DCDDE0" transform="matrix(1.00, 0.00, -0.00, -1.00, 227.6, 345.0)">t</text><text xml:space="preserve" font-family="Futura-Medium" font-size="63.0" fill="#DCDDE0" transform="matrix(1.00, 0.00, -0.00, -1.00, 244.8, 345.0)">i</text><text xml:space="preserve" font-family="Futura-Medium" font-size="63.0" fill="#DCDDE0" transform="matrix(1.00, 0.00, -0.00, -1.00, 260.5, 345.0)">o</text><text xml:space="preserve" font-family="Futura-Medium" font-size="63.0" fill="#DCDDE0" transform="matrix(1.00, 0.00, -0.00, -1.00, 298.4, 345.0)">n</text><text xml:space="preserve" font-family="Futura-Medium" font-size="63.0" fill="#DCDDE0" transform="matrix(1.00, 0.00, -0.00, -1.00, 332.9, 345.0)">s</text><text xml:space="preserve" font-family="Futura-Medium" font-size="63.0" fill="#DCDDE0" transform="matrix(1.00, 0.00, -0.00, -1.00, 358.5, 345.0)"> </text><text xml:space="preserve" font-family="Futura-Medium" font-size="63.0" fill="#DCDDE0" transform="matrix(1.00, 0.00, -0.00, -1.00, 30.1, 261.9)">•</text><text xml:space="preserve" font-family="Futura-Medium" font-size="63.0" fill="#DCDDE0" transform="matrix(1.00, 0.00, -0.00, -1.00, 78.0, 262.0)">m</text><text xml:space="preserve" font-family="Futura-Medium" font-size="63.0" fill="#DCDDE0" transform="matrix(1.00, 0.00, -0.00, -1.00, 127.8, 262.0)">o</text><text xml:space="preserve" font-family="Futura-Medium" font-size="63.0" fill="#DCDDE0" transform="matrix(1.00, 0.00, -0.00, -1.00, 165.7, 262.0)">c</text><text xml:space="preserve" font-family="Futura-Medium" font-size="63.0" fill="#DCDDE0" transform="matrix(1.00, 0.00, -0.00, -1.00, 197.3, 262.0)">k</text><text xml:space="preserve" font-family="Futura-Medium" font-size="63.0" fill="#DCDDE0" transform="matrix(1.00, 0.00, -0.00, -1.00, 228.7, 262.0)">s</text><text xml:space="preserve" font-family="Futura-Medium" font-size="32.0" fill="#DCDDE0" transform="matrix(1.00, 0.00, -0.00, -1.00, 411.0, 629.0)">R</text><text xml:space="preserve" font-family="Futura-Medium" font-size="32.0" fill="#DCDDE0" transform="matrix(1.00, 0.00, -0.00, -1.00, 429.8, 629.0)">u</text><text xml:space="preserve" font-family="Futura-Medium" font-size="32.0" fill="#DCDDE0" transform="matrix(1.00, 0.00, -0.00, -1.00, 447.2, 629.0)">n</text><text xml:space="preserve" font-family="Futura-Medium" font-size="32.0" fill="#DCDDE0" transform="matrix(1.00, 0.00, -0.00, -1.00, 464.8, 629.0)">n</text><text xml:space="preserve" font-family="Futura-Medium" font-size="32.0" fill="#DCDDE0" transform="matrix(1.00, 0.00, -0.00, -1.00, 482.3, 629.0)">e</text><text xml:space="preserve" font-family="Futura-Medium" font-size="32.0" fill="#DCDDE0" transform="matrix(1.00, 0.00, -0.00, -1.00, 500.0, 629.0)">r</text><text xml:space="preserve" font-family="Futura-Medium" font-size="32.0" fill="#DCDDE0" transform="matrix(1.00, 0.00, -0.00, -1.00, 512.0, 629.0)"> </text><text xml:space="preserve" font-family="Futura-Medium" font-size="32.0" fill="#DCDDE0" transform="matrix(1.00, 0.00, -0.00, -1.00, 521.9, 629.0)">+</text><text xml:space="preserve" font-family="Futura-Medium" font-size="32.0" fill="#DCDDE0" transform="matrix(1.00, 0.00, -0.00, -1.00, 541.6, 629.0)"> </text><text xml:space="preserve" font-family="Futura-Medium" font-size="32.0" fill="#DCDDE0" transform="matrix(1.00, 0.00, -0.00, -1.00, 551.5, 629.0)">A</text><text xml:space="preserve" font-family="Futura-Medium" font-size="32.0" fill="#DCDDE0" transform="matrix(1.00, 0.00, -0.00, -1.00, 575.2, 629.0)">P</text><text xml:space="preserve" font-family="Futura-Medium" font-size="32.0" fill="#DCDDE0" transform="matrix(1.00, 0.00, -0.00, -1.00, 592.5, 629.0)">I</text><text xml:space="preserve" font-family="Futura-Medium" font-size="32.0" fill="#DCDDE0" transform="matrix(1.00, 0.00, -0.00, -1.00, 601.9, 629.0)"> </text><g><clipPath id="clip-72"><path d="M 410.1 623.5 L 602.0 623.5 L 602.0 628.0 L 410.1 628.0 Z M 410.1 623.5 "></path></clipPath><g clip-path="url(#clip-72)"><path d="M 4.0 39.9 L 194.9 39.9 " fill="none" stroke="#DCDDE0" stroke-width="2.50" stroke-miterlimit="0.00" transform="matrix(1.00, 0.00, 0.00, -1.00, 407.1, 665.7)"></path></g></g><text xml:space="preserve" font-family="Futura-Medium" font-size="32.0" fill="#DCDDE0" transform="matrix(1.00, 0.00, -0.00, -1.00, 411.1, 586.9)">•</text><text xml:space="preserve" font-family="Futura-Medium" font-size="32.0" fill="#DCDDE0" transform="matrix(1.00, 0.00, -0.00, -1.00, 435.0, 587.0)">m</text><text xml:space="preserve" font-family="Futura-Medium" font-size="32.0" fill="#DCDDE0" transform="matrix(1.00, 0.00, -0.00, -1.00, 460.3, 587.0)">o</text><text xml:space="preserve" font-family="Futura-Medium" font-size="32.0" fill="#DCDDE0" transform="matrix(1.00, 0.00, -0.00, -1.00, 479.6, 587.0)">c</text><text xml:space="preserve" font-family="Futura-Medium" font-size="32.0" fill="#DCDDE0" transform="matrix(1.00, 0.00, -0.00, -1.00, 495.6, 587.0)">h</text><text xml:space="preserve" font-family="Futura-Medium" font-size="32.0" fill="#DCDDE0" transform="matrix(1.00, 0.00, -0.00, -1.00, 513.2, 587.0)">a</text><text xml:space="preserve" font-family="Futura-Medium" font-size="32.0" fill="#DCDDE0" transform="matrix(1.00, 0.00, -0.00, -1.00, 532.3, 587.0)"> </text><text xml:space="preserve" font-family="Futura-Medium" font-size="32.0" fill="#DCDDE0" transform="matrix(1.00, 0.00, -0.00, -1.00, 411.1, 544.9)">•</text><text xml:space="preserve" font-family="Futura-Medium" font-size="32.0" fill="#DCDDE0" transform="matrix(1.00, 0.00, -0.00, -1.00, 435.0, 545.0)">l</text><text xml:space="preserve" font-family="Futura-Medium" font-size="32.0" fill="#DCDDE0" transform="matrix(1.00, 0.00, -0.00, -1.00, 443.0, 545.0)">a</text><text xml:space="preserve" font-family="Futura-Medium" font-size="32.0" fill="#DCDDE0" transform="matrix(1.00, 0.00, -0.00, -1.00, 462.1, 545.0)">b</text><text xml:space="preserve" font-family="Futura-Medium" font-size="32.0" fill="#DCDDE0" transform="matrix(1.00, 0.00, -0.00, -1.00, 481.3, 545.0)"> </text><text xml:space="preserve" font-family="Futura-Medium" font-size="32.0" fill="#DCDDE0" transform="matrix(1.00, 0.00, -0.00, -1.00, 411.1, 502.9)">•</text><text xml:space="preserve" font-family="Futura-Medium" font-size="32.0" fill="#DCDDE0" transform="matrix(1.00, 0.00, -0.00, -1.00, 435.0, 503.0)">t</text><text xml:space="preserve" font-family="Futura-Medium" font-size="32.0" fill="#DCDDE0" transform="matrix(1.00, 0.00, -0.00, -1.00, 444.0, 503.0)">a</text><text xml:space="preserve" font-family="Futura-Medium" font-size="32.0" fill="#DCDDE0" transform="matrix(1.00, 0.00, -0.00, -1.00, 463.2, 503.0)">p</text><text xml:space="preserve" font-family="Futura-Medium" font-size="32.0" fill="#DCDDE0" transform="matrix(1.00, 0.00, -0.00, -1.00, 482.4, 503.0)">e</text><text xml:space="preserve" font-family="Futura-Medium" font-size="32.0" fill="#DCDDE0" transform="matrix(1.00, 0.00, -0.00, -1.00, 635.0, 629.0)">A</text><text xml:space="preserve" font-family="Futura-Medium" font-size="32.0" fill="#DCDDE0" transform="matrix(1.00, 0.00, -0.00, -1.00, 658.7, 629.0)">s</text><text xml:space="preserve" font-family="Futura-Medium" font-size="32.0" fill="#DCDDE0" transform="matrix(1.00, 0.00, -0.00, -1.00, 671.7, 629.0)">s</text><text xml:space="preserve" font-family="Futura-Medium" font-size="32.0" fill="#DCDDE0" transform="matrix(1.00, 0.00, -0.00, -1.00, 684.6, 629.0)">e</text><text xml:space="preserve" font-family="Futura-Medium" font-size="32.0" fill="#DCDDE0" transform="matrix(1.00, 0.00, -0.00, -1.00, 702.4, 629.0)">r</text><text xml:space="preserve" font-family="Futura-Medium" font-size="32.0" fill="#DCDDE0" transform="matrix(1.00, 0.00, -0.00, -1.00, 715.5, 629.0)">t</text><text xml:space="preserve" font-family="Futura-Medium" font-size="32.0" fill="#DCDDE0" transform="matrix(1.00, 0.00, -0.00, -1.00, 724.2, 629.0)">i</text><text xml:space="preserve" font-family="Futura-Medium" font-size="32.0" fill="#DCDDE0" transform="matrix(1.00, 0.00, -0.00, -1.00, 732.2, 629.0)">o</text><text xml:space="preserve" font-family="Futura-Medium" font-size="32.0" fill="#DCDDE0" transform="matrix(1.00, 0.00, -0.00, -1.00, 751.5, 629.0)">n</text><text xml:space="preserve" font-family="Futura-Medium" font-size="32.0" fill="#DCDDE0" transform="matrix(1.00, 0.00, -0.00, -1.00, 769.0, 629.0)">s</text><text xml:space="preserve" font-family="Futura-Medium" font-size="32.0" fill="#DCDDE0" transform="matrix(1.00, 0.00, -0.00, -1.00, 782.0, 629.0)"> </text><g><clipPath id="clip-73"><path d="M 633.7 623.5 L 781.7 623.5 L 781.7 628.0 L 633.7 628.0 Z M 633.7 623.5 "></path></clipPath><g clip-path="url(#clip-73)"><path d="M 4.0 39.9 L 151.0 39.9 " fill="none" stroke="#DCDDE0" stroke-width="2.50" stroke-miterlimit="0.00" transform="matrix(1.00, 0.00, 0.00, -1.00, 630.7, 665.7)"></path></g></g><text xml:space="preserve" font-family="Futura-Medium" font-size="32.0" fill="#DCDDE0" transform="matrix(1.00, 0.00, -0.00, -1.00, 634.7, 586.9)">•</text><text xml:space="preserve" font-family="Futura-Medium" font-size="32.0" fill="#DCDDE0" transform="matrix(1.00, 0.00, -0.00, -1.00, 659.0, 587.0)">c</text><text xml:space="preserve" font-family="Futura-Medium" font-size="32.0" fill="#DCDDE0" transform="matrix(1.00, 0.00, -0.00, -1.00, 675.1, 587.0)">h</text><text xml:space="preserve" font-family="Futura-Medium" font-size="32.0" fill="#DCDDE0" transform="matrix(1.00, 0.00, -0.00, -1.00, 692.6, 587.0)">a</text><text xml:space="preserve" font-family="Futura-Medium" font-size="32.0" fill="#DCDDE0" transform="matrix(1.00, 0.00, -0.00, -1.00, 711.8, 587.0)">i</text><text xml:space="preserve" font-family="Futura-Medium" font-size="32.0" fill="#DCDDE0" transform="matrix(1.00, 0.00, -0.00, -1.00, 719.8, 587.0)"> </text><text xml:space="preserve" font-family="Futura-Medium" font-size="32.0" fill="#DCDDE0" transform="matrix(1.00, 0.00, -0.00, -1.00, 634.7, 544.9)">•</text><text xml:space="preserve" font-family="Futura-Medium" font-size="32.0" fill="#DCDDE0" transform="matrix(1.00, 0.00, -0.00, -1.00, 659.0, 545.0)">s</text><text xml:space="preserve" font-family="Futura-Medium" font-size="32.0" fill="#DCDDE0" transform="matrix(1.00, 0.00, -0.00, -1.00, 672.0, 545.0)">h</text><text xml:space="preserve" font-family="Futura-Medium" font-size="32.0" fill="#DCDDE0" transform="matrix(1.00, 0.00, -0.00, -1.00, 689.5, 545.0)">o</text><text xml:space="preserve" font-family="Futura-Medium" font-size="32.0" fill="#DCDDE0" transform="matrix(1.00, 0.00, -0.00, -1.00, 708.8, 545.0)">u</text><text xml:space="preserve" font-family="Futura-Medium" font-size="32.0" fill="#DCDDE0" transform="matrix(1.00, 0.00, -0.00, -1.00, 726.2, 545.0)">l</text><text xml:space="preserve" font-family="Futura-Medium" font-size="32.0" fill="#DCDDE0" transform="matrix(1.00, 0.00, -0.00, -1.00, 734.2, 545.0)">d</text><text xml:space="preserve" font-family="Futura-Medium" font-size="32.0" fill="#DCDDE0" transform="matrix(1.00, 0.00, -0.00, -1.00, 753.3, 545.0)"> </text><text xml:space="preserve" font-family="Futura-Medium" font-size="32.0" fill="#DCDDE0" transform="matrix(1.00, 0.00, -0.00, -1.00, 634.7, 502.9)">•</text><text xml:space="preserve" font-family="Futura-Medium" font-size="32.0" fill="#DCDDE0" transform="matrix(1.00, 0.00, -0.00, -1.00, 659.0, 503.0)">c</text><text xml:space="preserve" font-family="Futura-Medium" font-size="32.0" fill="#DCDDE0" transform="matrix(1.00, 0.00, -0.00, -1.00, 674.2, 503.0)">o</text><text xml:space="preserve" font-family="Futura-Medium" font-size="32.0" fill="#DCDDE0" transform="matrix(1.00, 0.00, -0.00, -1.00, 693.5, 503.0)">d</text><text xml:space="preserve" font-family="Futura-Medium" font-size="32.0" fill="#DCDDE0" transform="matrix(1.00, 0.00, -0.00, -1.00, 712.7, 503.0)">e</text><text xml:space="preserve" font-family="Futura-Medium" font-size="32.0" fill="#DCDDE0" transform="matrix(1.00, 0.00, -0.00, -1.00, 413.0, 413.0)">A</text><text xml:space="preserve" font-family="Futura-Medium" font-size="32.0" fill="#DCDDE0" transform="matrix(1.00, 0.00, -0.00, -1.00, 436.7, 413.0)">l</text><text xml:space="preserve" font-family="Futura-Medium" font-size="32.0" fill="#DCDDE0" transform="matrix(1.00, 0.00, -0.00, -1.00, 444.7, 413.0)">l</text><text xml:space="preserve" font-family="Futura-Medium" font-size="32.0" fill="#DCDDE0" transform="matrix(1.00, 0.00, -0.00, -1.00, 452.6, 413.0)">-</text><text xml:space="preserve" font-family="Futura-Medium" font-size="32.0" fill="#DCDDE0" transform="matrix(1.00, 0.00, -0.00, -1.00, 459.6, 413.0)">i</text><text xml:space="preserve" font-family="Futura-Medium" font-size="32.0" fill="#DCDDE0" transform="matrix(1.00, 0.00, -0.00, -1.00, 467.6, 413.0)">n</text><text xml:space="preserve" font-family="Futura-Medium" font-size="32.0" fill="#DCDDE0" transform="matrix(1.00, 0.00, -0.00, -1.00, 485.1, 413.0)">-</text><text xml:space="preserve" font-family="Futura-Medium" font-size="32.0" fill="#DCDDE0" transform="matrix(1.00, 0.00, -0.00, -1.00, 492.1, 413.0)">o</text><text xml:space="preserve" font-family="Futura-Medium" font-size="32.0" fill="#DCDDE0" transform="matrix(1.00, 0.00, -0.00, -1.00, 511.3, 413.0)">n</text><text xml:space="preserve" font-family="Futura-Medium" font-size="32.0" fill="#DCDDE0" transform="matrix(1.00, 0.00, -0.00, -1.00, 528.9, 413.0)">e</text><text xml:space="preserve" font-family="Futura-Medium" font-size="32.0" fill="#DCDDE0" transform="matrix(1.00, 0.00, -0.00, -1.00, 546.6, 413.0)"> </text><g><clipPath id="clip-74"><path d="M 412.0 407.4 L 546.6 407.4 L 546.6 411.9 L 412.0 411.9 Z M 412.0 407.4 "></path></clipPath><g clip-path="url(#clip-74)"><path d="M 4.0 39.9 L 137.6 39.9 " fill="none" stroke="#DCDDE0" stroke-width="2.50" stroke-miterlimit="0.00" transform="matrix(1.00, 0.00, 0.00, -1.00, 409.0, 449.5)"></path></g></g><text xml:space="preserve" font-family="Futura-Medium" font-size="32.0" fill="#DCDDE0" transform="matrix(1.00, 0.00, -0.00, -1.00, 413.0, 370.8)">•</text><text xml:space="preserve" font-family="Futura-Medium" font-size="32.0" fill="#DCDDE0" transform="matrix(1.00, 0.00, -0.00, -1.00, 437.0, 371.0)">a</text><text xml:space="preserve" font-family="Futura-Medium" font-size="32.0" fill="#DCDDE0" transform="matrix(1.00, 0.00, -0.00, -1.00, 456.5, 371.0)">v</text><text xml:space="preserve" font-family="Futura-Medium" font-size="32.0" fill="#DCDDE0" transform="matrix(1.00, 0.00, -0.00, -1.00, 472.0, 371.0)">a</text><text xml:space="preserve" font-family="Futura-Medium" font-size="32.0" fill="#DCDDE0" transform="matrix(1.00, 0.00, -0.00, -1.00, 491.2, 371.0)"> </text><text xml:space="preserve" font-family="Futura-Medium" font-size="32.0" fill="#DCDDE0" transform="matrix(1.00, 0.00, -0.00, -1.00, 413.0, 328.8)">•</text><text xml:space="preserve" font-family="Futura-Medium" font-size="32.0" fill="#DCDDE0" transform="matrix(1.00, 0.00, -0.00, -1.00, 437.0, 329.0)">t</text><text xml:space="preserve" font-family="Futura-Medium" font-size="32.0" fill="#DCDDE0" transform="matrix(1.00, 0.00, -0.00, -1.00, 446.0, 329.0)">a</text><text xml:space="preserve" font-family="Futura-Medium" font-size="32.0" fill="#DCDDE0" transform="matrix(1.00, 0.00, -0.00, -1.00, 465.2, 329.0)">p</text><text xml:space="preserve" font-family="Futura-Medium" font-size="32.0" fill="#DCDDE0" transform="matrix(1.00, 0.00, -0.00, -1.00, 484.4, 329.0)"> </text><text xml:space="preserve" font-family="Futura-Medium" font-size="32.0" fill="#DCDDE0" transform="matrix(1.00, 0.00, -0.00, -1.00, 413.0, 286.8)">•</text><text xml:space="preserve" font-family="Futura-Medium" font-size="32.0" fill="#DCDDE0" transform="matrix(1.00, 0.00, -0.00, -1.00, 437.0, 287.0)">j</text><text xml:space="preserve" font-family="Futura-Medium" font-size="32.0" fill="#DCDDE0" transform="matrix(1.00, 0.00, -0.00, -1.00, 445.0, 287.0)">a</text><text xml:space="preserve" font-family="Futura-Medium" font-size="32.0" fill="#DCDDE0" transform="matrix(1.00, 0.00, -0.00, -1.00, 464.1, 287.0)">s</text><text xml:space="preserve" font-family="Futura-Medium" font-size="32.0" fill="#DCDDE0" transform="matrix(1.00, 0.00, -0.00, -1.00, 477.1, 287.0)">m</text><text xml:space="preserve" font-family="Futura-Medium" font-size="32.0" fill="#DCDDE0" transform="matrix(1.00, 0.00, -0.00, -1.00, 502.4, 287.0)">i</text><text xml:space="preserve" font-family="Futura-Medium" font-size="32.0" fill="#DCDDE0" transform="matrix(1.00, 0.00, -0.00, -1.00, 510.4, 287.0)">n</text><text xml:space="preserve" font-family="Futura-Medium" font-size="32.0" fill="#DCDDE0" transform="matrix(1.00, 0.00, -0.00, -1.00, 528.0, 287.0)">e</text><text xml:space="preserve" font-family="Futura-Medium" font-size="32.0" fill="#DCDDE0" transform="matrix(1.00, 0.00, -0.00, -1.00, 638.0, 414.0)">M</text><text xml:space="preserve" font-family="Futura-Medium" font-size="32.0" fill="#DCDDE0" transform="matrix(1.00, 0.00, -0.00, -1.00, 668.8, 414.0)">o</text><text xml:space="preserve" font-family="Futura-Medium" font-size="32.0" fill="#DCDDE0" transform="matrix(1.00, 0.00, -0.00, -1.00, 688.0, 414.0)">c</text><text xml:space="preserve" font-family="Futura-Medium" font-size="32.0" fill="#DCDDE0" transform="matrix(1.00, 0.00, -0.00, -1.00, 704.1, 414.0)">k</text><text xml:space="preserve" font-family="Futura-Medium" font-size="32.0" fill="#DCDDE0" transform="matrix(1.00, 0.00, -0.00, -1.00, 720.0, 414.0)">s</text><text xml:space="preserve" font-family="Futura-Medium" font-size="32.0" fill="#DCDDE0" transform="matrix(1.00, 0.00, -0.00, -1.00, 733.0, 414.0)"> </text><g><clipPath id="clip-75"><path d="M 637.3 408.4 L 733.3 408.4 L 733.3 412.9 L 637.3 412.9 Z M 637.3 408.4 "></path></clipPath><g clip-path="url(#clip-75)"><path d="M 4.0 39.9 L 99.0 39.9 " fill="none" stroke="#DCDDE0" stroke-width="2.50" stroke-miterlimit="0.00" transform="matrix(1.00, 0.00, 0.00, -1.00, 634.3, 450.5)"></path></g></g><text xml:space="preserve" font-family="Futura-Medium" font-size="32.0" fill="#DCDDE0" transform="matrix(1.00, 0.00, -0.00, -1.00, 638.3, 371.8)">•</text><text xml:space="preserve" font-family="Futura-Medium" font-size="32.0" fill="#DCDDE0" transform="matrix(1.00, 0.00, -0.00, -1.00, 662.0, 372.0)">n</text><text xml:space="preserve" font-family="Futura-Medium" font-size="32.0" fill="#DCDDE0" transform="matrix(1.00, 0.00, -0.00, -1.00, 679.6, 372.0)">o</text><text xml:space="preserve" font-family="Futura-Medium" font-size="32.0" fill="#DCDDE0" transform="matrix(1.00, 0.00, -0.00, -1.00, 698.8, 372.0)">c</text><text xml:space="preserve" font-family="Futura-Medium" font-size="32.0" fill="#DCDDE0" transform="matrix(1.00, 0.00, -0.00, -1.00, 714.9, 372.0)">k</text><text xml:space="preserve" font-family="Futura-Medium" font-size="32.0" fill="#DCDDE0" transform="matrix(1.00, 0.00, -0.00, -1.00, 730.8, 372.0)"> </text><text xml:space="preserve" font-family="Futura-Medium" font-size="32.0" fill="#DCDDE0" transform="matrix(1.00, 0.00, -0.00, -1.00, 638.3, 329.8)">•</text><text xml:space="preserve" font-family="Futura-Medium" font-size="32.0" fill="#DCDDE0" transform="matrix(1.00, 0.00, -0.00, -1.00, 662.0, 330.0)">s</text><text xml:space="preserve" font-family="Futura-Medium" font-size="32.0" fill="#DCDDE0" transform="matrix(1.00, 0.00, -0.00, -1.00, 675.0, 330.0)">i</text><text xml:space="preserve" font-family="Futura-Medium" font-size="32.0" fill="#DCDDE0" transform="matrix(1.00, 0.00, -0.00, -1.00, 682.9, 330.0)">n</text><text xml:space="preserve" font-family="Futura-Medium" font-size="32.0" fill="#DCDDE0" transform="matrix(1.00, 0.00, -0.00, -1.00, 700.5, 330.0)">o</text><text xml:space="preserve" font-family="Futura-Medium" font-size="32.0" fill="#DCDDE0" transform="matrix(1.00, 0.00, -0.00, -1.00, 719.7, 330.0)">n</text></g></svg>