<?xml version="1.0" encoding="UTF-8" standalone="no"?><svg xmlns="http://www.w3.org/2000/svg" xmlns:xlink="http://www.w3.org/1999/xlink" clip-rule="evenodd" stroke-miterlimit="4.00" viewBox="0 0 1024 768"><desc>SVG generated by Keynote</desc><defs></defs><g transform="matrix(1.00, 0.00, -0.00, -1.00, 0.0, 768.0)"><path d="M 0.0 768.0 L 1024.0 768.0 L 1024.0 0.0 L 0.0 0.0 Z M 0.0 768.0 " fill="#000000"></path><image xlink:href="../../17723EFF-55C9-4024-A6CF-5FCC1C17D41F/assets/63B508F1D80E79BE3B0B7AB8DD9F83C5.jpeg" width="701.00" height="394.00" transform="matrix(1.97, 0.00, -0.00, -1.97, -1.0, 772.0)"></image><text xml:space="preserve" font-family="Arial-Black" font-weight="bold" font-size="65.0" fill="#603704" transform="matrix(1.00, 0.00, -0.00, -1.00, 21.0, 703.0)">H</text><text xml:space="preserve" font-family="Arial-Black" font-weight="bold" font-size="65.0" fill="#603704" transform="matrix(1.00, 0.00, -0.00, -1.00, 75.1, 703.0)">o</text><text xml:space="preserve" font-family="Arial-Black" font-weight="bold" font-size="65.0" fill="#603704" transform="matrix(1.00, 0.00, -0.00, -1.00, 117.3, 703.0)">w</text><text xml:space="preserve" font-family="Arial-Black" font-weight="bold" font-size="65.0" fill="#603704" transform="matrix(1.00, 0.00, -0.00, -1.00, 178.7, 703.0)"> </text><text xml:space="preserve" font-family="Arial-Black" font-weight="bold" font-size="65.0" fill="#603704" transform="matrix(1.00, 0.00, -0.00, -1.00, 200.4, 703.0)">t</text><text xml:space="preserve" font-family="Arial-Black" font-weight="bold" font-size="65.0" fill="#603704" transform="matrix(1.00, 0.00, -0.00, -1.00, 229.2, 703.0)">o</text><text xml:space="preserve" font-family="Arial-Black" font-weight="bold" font-size="65.0" fill="#603704" transform="matrix(1.00, 0.00, -0.00, -1.00, 272.6, 703.0)"> </text><text xml:space="preserve" font-family="Arial-Black" font-weight="bold" font-size="65.0" fill="#603704" transform="matrix(1.00, 0.00, -0.00, -1.00, 294.3, 703.0)">c</text><text xml:space="preserve" font-family="Arial-Black" font-weight="bold" font-size="65.0" fill="#603704" transform="matrix(1.00, 0.00, -0.00, -1.00, 337.6, 703.0)">r</text><text xml:space="preserve" font-family="Arial-Black" font-weight="bold" font-size="65.0" fill="#603704" transform="matrix(1.00, 0.00, -0.00, -1.00, 367.5, 703.0)">e</text><text xml:space="preserve" font-family="Arial-Black" font-weight="bold" font-size="65.0" fill="#603704" transform="matrix(1.00, 0.00, -0.00, -1.00, 410.9, 703.0)">a</text><text xml:space="preserve" font-family="Arial-Black" font-weight="bold" font-size="65.0" fill="#603704" transform="matrix(1.00, 0.00, -0.00, -1.00, 453.1, 703.0)">t</text><text xml:space="preserve" font-family="Arial-Black" font-weight="bold" font-size="65.0" fill="#603704" transform="matrix(1.00, 0.00, -0.00, -1.00, 482.0, 703.0)">e</text><text xml:space="preserve" font-family="Arial-Black" font-weight="bold" font-size="65.0" fill="#603704" transform="matrix(1.00, 0.00, -0.00, -1.00, 525.3, 703.0)"> </text><text xml:space="preserve" font-family="Arial-Black" font-weight="bold" font-size="65.0" fill="#603704" transform="matrix(1.00, 0.00, -0.00, -1.00, 547.0, 703.0)">a</text><text xml:space="preserve" font-family="Arial-Black" font-weight="bold" font-size="65.0" fill="#603704" transform="matrix(1.00, 0.00, -0.00, -1.00, 590.4, 703.0)"> </text><text xml:space="preserve" font-family="Inconsolata" font-size="65.0" fill="#603704" transform="matrix(1.00, 0.00, -0.00, -1.00, 21.0, 611.0)">p</text><text xml:space="preserve" font-family="Inconsolata" font-size="65.0" fill="#603704" transform="matrix(1.00, 0.00, -0.00, -1.00, 53.5, 611.0)">a</text><text xml:space="preserve" font-family="Inconsolata" font-size="65.0" fill="#603704" transform="matrix(1.00, 0.00, -0.00, -1.00, 86.0, 611.0)">c</text><text xml:space="preserve" font-family="Inconsolata" font-size="65.0" fill="#603704" transform="matrix(1.00, 0.00, -0.00, -1.00, 118.5, 611.0)">k</text><text xml:space="preserve" font-family="Inconsolata" font-size="65.0" fill="#603704" transform="matrix(1.00, 0.00, -0.00, -1.00, 151.0, 611.0)">a</text><text xml:space="preserve" font-family="Inconsolata" font-size="65.0" fill="#603704" transform="matrix(1.00, 0.00, -0.00, -1.00, 183.5, 611.0)">g</text><text xml:space="preserve" font-family="Inconsolata" font-size="65.0" fill="#603704" transform="matrix(1.00, 0.00, -0.00, -1.00, 216.0, 611.0)">e</text><text xml:space="preserve" font-family="Inconsolata" font-size="65.0" fill="#603704" transform="matrix(1.00, 0.00, -0.00, -1.00, 248.5, 611.0)">.</text><text xml:space="preserve" font-family="Inconsolata" font-size="65.0" fill="#603704" transform="matrix(1.00, 0.00, -0.00, -1.00, 281.0, 611.0)">j</text><text xml:space="preserve" font-family="Inconsolata" font-size="65.0" fill="#603704" transform="matrix(1.00, 0.00, -0.00, -1.00, 313.5, 611.0)">s</text><text xml:space="preserve" font-family="Inconsolata" font-size="65.0" fill="#603704" transform="matrix(1.00, 0.00, -0.00, -1.00, 346.0, 611.0)">o</text><text xml:space="preserve" font-family="Inconsolata" font-size="65.0" fill="#603704" transform="matrix(1.00, 0.00, -0.00, -1.00, 378.5, 611.0)">n</text><text xml:space="preserve" font-family="Arial-Black" font-weight="bold" font-size="65.0" fill="#603704" transform="matrix(1.00, 0.00, -0.00, -1.00, 411.0, 611.0)"> </text><text xml:space="preserve" font-family="Arial-Black" font-weight="bold" font-size="65.0" fill="#603704" transform="matrix(1.00, 0.00, -0.00, -1.00, 432.7, 611.0)">f</text><text xml:space="preserve" font-family="Arial-Black" font-weight="bold" font-size="65.0" fill="#603704" transform="matrix(1.00, 0.00, -0.00, -1.00, 458.0, 611.0)">i</text><text xml:space="preserve" font-family="Arial-Black" font-weight="bold" font-size="65.0" fill="#603704" transform="matrix(1.00, 0.00, -0.00, -1.00, 479.7, 611.0)">l</text><text xml:space="preserve" font-family="Arial-Black" font-weight="bold" font-size="65.0" fill="#603704" transform="matrix(1.00, 0.00, -0.00, -1.00, 501.3, 611.0)">e</text><text xml:space="preserve" font-family="Arial-Black" font-weight="bold" font-size="65.0" fill="#603704" transform="matrix(1.00, 0.00, -0.00, -1.00, 544.7, 611.0)">?</text><image xlink:href="../../35564CA7-ECF3-49EA-BA8A-16EAAD5CA90F/assets/5AAC3AEEA2BFE80C43F1BE8F2B653114.png" width="960.00" height="138.00" transform="matrix(1.07, 0.00, -0.00, -1.07, 0.0, 419.0)"></image><text xml:space="preserve" font-family="Arial-Black" font-weight="bold" font-size="99.0" fill="#000000" transform="matrix(1.00, 0.00, -0.00, -1.00, 158.0, 478.0)">s</text><text xml:space="preserve" font-family="Arial-Black" font-weight="bold" font-size="99.0" fill="#000000" transform="matrix(1.00, 0.00, -0.00, -1.00, 218.5, 478.0)">c</text><text xml:space="preserve" font-family="Arial-Black" font-weight="bold" font-size="99.0" fill="#000000" transform="matrix(1.00, 0.00, -0.00, -1.00, 284.5, 478.0)">r</text><text xml:space="preserve" font-family="Arial-Black" font-weight="bold" font-size="99.0" fill="#000000" transform="matrix(1.00, 0.00, -0.00, -1.00, 328.4, 478.0)">i</text><text xml:space="preserve" font-family="Arial-Black" font-weight="bold" font-size="99.0" fill="#000000" transform="matrix(1.00, 0.00, -0.00, -1.00, 361.4, 478.0)">p</text><text xml:space="preserve" font-family="Arial-Black" font-weight="bold" font-size="99.0" fill="#000000" transform="matrix(1.00, 0.00, -0.00, -1.00, 427.4, 478.0)">t</text><text xml:space="preserve" font-family="Arial-Black" font-weight="bold" font-size="99.0" fill="#000000" transform="matrix(1.00, 0.00, -0.00, -1.00, 471.3, 478.0)">s</text><text xml:space="preserve" font-family="Arial-Black" font-weight="bold" font-size="99.0" fill="#000000" transform="matrix(1.00, 0.00, -0.00, -1.00, 531.9, 478.0)"> </text><text xml:space="preserve" font-family="Arial-Black" font-weight="bold" font-size="99.0" fill="#000000" transform="matrix(1.00, 0.00, -0.00, -1.00, 564.9, 478.0)">=</text><g><clipPath id="clip-21"><path d="M 157.1 462.1 L 531.9 462.1 L 531.9 470.1 L 157.1 470.1 Z M 157.1 462.1 "></path></clipPath><g clip-path="url(#clip-21)"><path d="M 4.0 125.7 L 377.9 125.7 " fill="none" stroke="#000000" stroke-width="5.95" stroke-miterlimit="0.00" transform="matrix(1.00, 0.00, 0.00, -1.00, 154.1, 591.8)"></path></g></g><path d="M 637.1 648.6 L 1015.6 648.6 L 1015.6 453.7 L 637.1 453.7 Z M 637.1 648.6 " fill="#000000"></path><g><clipPath id="clip-22"><path d="M 629.4 444.9 L 1399.2 444.9 L 1399.2 656.3 L 629.4 656.3 Z M 629.4 444.9 "></path></clipPath><g clip-path="url(#clip-22)"><text xml:space="preserve" font-family="Futura-Medium" font-size="36.0" fill="#FEFFFF" transform="matrix(1.00, 0.00, -0.00, -1.00, 641.1, 608.0)">•</text><text xml:space="preserve" font-family="Futura-Medium" font-size="36.0" fill="#FEFFFF" transform="matrix(1.00, 0.00, -0.00, -1.00, 668.0, 608.0)">r</text><text xml:space="preserve" font-family="Futura-Medium" font-size="36.0" fill="#FEFFFF" transform="matrix(1.00, 0.00, -0.00, -1.00, 682.0, 608.0)">u</text><text xml:space="preserve" font-family="Futura-Medium" font-size="36.0" fill="#FEFFFF" transform="matrix(1.00, 0.00, -0.00, -1.00, 701.6, 608.0)">n</text><text xml:space="preserve" font-family="Futura-Medium" font-size="36.0" fill="#FEFFFF" transform="matrix(1.00, 0.00, -0.00, -1.00, 721.4, 608.0)"> </text><text xml:space="preserve" font-family="Futura-Medium" font-size="36.0" fill="#FEFFFF" transform="matrix(1.00, 0.00, -0.00, -1.00, 732.5, 608.0)">C</text><text xml:space="preserve" font-family="Futura-Medium" font-size="36.0" fill="#FEFFFF" transform="matrix(1.00, 0.00, -0.00, -1.00, 757.7, 608.0)">L</text><text xml:space="preserve" font-family="Futura-Medium" font-size="36.0" fill="#FEFFFF" transform="matrix(1.00, 0.00, -0.00, -1.00, 773.7, 608.0)">I</text><text xml:space="preserve" font-family="Futura-Medium" font-size="36.0" fill="#FEFFFF" transform="matrix(1.00, 0.00, -0.00, -1.00, 784.3, 608.0)"> </text><text xml:space="preserve" font-family="Futura-Medium" font-size="36.0" fill="#FEFFFF" transform="matrix(1.00, 0.00, -0.00, -1.00, 795.4, 608.0)">p</text><text xml:space="preserve" font-family="Futura-Medium" font-size="36.0" fill="#FEFFFF" transform="matrix(1.00, 0.00, -0.00, -1.00, 816.9, 608.0)">r</text><text xml:space="preserve" font-family="Futura-Medium" font-size="36.0" fill="#FEFFFF" transform="matrix(1.00, 0.00, -0.00, -1.00, 830.1, 608.0)">o</text><text xml:space="preserve" font-family="Futura-Medium" font-size="36.0" fill="#FEFFFF" transform="matrix(1.00, 0.00, -0.00, -1.00, 851.7, 608.0)">g</text><text xml:space="preserve" font-family="Futura-Medium" font-size="36.0" fill="#FEFFFF" transform="matrix(1.00, 0.00, -0.00, -1.00, 873.3, 608.0)">r</text><text xml:space="preserve" font-family="Futura-Medium" font-size="36.0" fill="#FEFFFF" transform="matrix(1.00, 0.00, -0.00, -1.00, 886.5, 608.0)">a</text><text xml:space="preserve" font-family="Futura-Medium" font-size="36.0" fill="#FEFFFF" transform="matrix(1.00, 0.00, -0.00, -1.00, 908.1, 608.0)">m</text><text xml:space="preserve" font-family="Futura-Medium" font-size="36.0" fill="#FEFFFF" transform="matrix(1.00, 0.00, -0.00, -1.00, 936.5, 608.0)">s</text><text xml:space="preserve" font-family="Futura-Medium" font-size="36.0" fill="#FEFFFF" transform="matrix(1.00, 0.00, -0.00, -1.00, 951.1, 608.0)"> </text><text xml:space="preserve" font-family="Futura-Medium" font-size="36.0" fill="#FEFFFF" transform="matrix(1.00, 0.00, -0.00, -1.00, 641.1, 561.0)">•</text><text xml:space="preserve" font-family="Futura-Medium" font-size="36.0" fill="#FEFFFF" transform="matrix(1.00, 0.00, -0.00, -1.00, 668.0, 561.0)">i</text><text xml:space="preserve" font-family="Futura-Medium" font-size="36.0" fill="#FEFFFF" transform="matrix(1.00, 0.00, -0.00, -1.00, 677.0, 561.0)">n</text><text xml:space="preserve" font-family="Futura-Medium" font-size="36.0" fill="#FEFFFF" transform="matrix(1.00, 0.00, -0.00, -1.00, 696.7, 561.0)">c</text><text xml:space="preserve" font-family="Futura-Medium" font-size="36.0" fill="#FEFFFF" transform="matrix(1.00, 0.00, -0.00, -1.00, 713.9, 561.0)">l</text><text xml:space="preserve" font-family="Futura-Medium" font-size="36.0" fill="#FEFFFF" transform="matrix(1.00, 0.00, -0.00, -1.00, 722.8, 561.0)">u</text><text xml:space="preserve" font-family="Futura-Medium" font-size="36.0" fill="#FEFFFF" transform="matrix(1.00, 0.00, -0.00, -1.00, 742.4, 561.0)">d</text><text xml:space="preserve" font-family="Futura-Medium" font-size="36.0" fill="#FEFFFF" transform="matrix(1.00, 0.00, -0.00, -1.00, 764.0, 561.0)">e</text><text xml:space="preserve" font-family="Futura-Medium" font-size="36.0" fill="#FEFFFF" transform="matrix(1.00, 0.00, -0.00, -1.00, 783.9, 561.0)">s</text><text xml:space="preserve" font-family="Futura-Medium" font-size="36.0" fill="#FEFFFF" transform="matrix(1.00, 0.00, -0.00, -1.00, 798.5, 561.0)"> </text><text xml:space="preserve" font-family="Futura-Medium" font-size="36.0" fill="#FEFFFF" transform="matrix(1.00, 0.00, -0.00, -1.00, 809.6, 561.0)">d</text><text xml:space="preserve" font-family="Futura-Medium" font-size="36.0" fill="#FEFFFF" transform="matrix(1.00, 0.00, -0.00, -1.00, 831.2, 561.0)">e</text><text xml:space="preserve" font-family="Futura-Medium" font-size="36.0" fill="#FEFFFF" transform="matrix(1.00, 0.00, -0.00, -1.00, 851.1, 561.0)">p</text><text xml:space="preserve" font-family="Futura-Medium" font-size="36.0" fill="#FEFFFF" transform="matrix(1.00, 0.00, -0.00, -1.00, 872.7, 561.0)">e</text><text xml:space="preserve" font-family="Futura-Medium" font-size="36.0" fill="#FEFFFF" transform="matrix(1.00, 0.00, -0.00, -1.00, 892.6, 561.0)">n</text><text xml:space="preserve" font-family="Futura-Medium" font-size="36.0" fill="#FEFFFF" transform="matrix(1.00, 0.00, -0.00, -1.00, 912.4, 561.0)">d</text><text xml:space="preserve" font-family="Futura-Medium" font-size="36.0" fill="#FEFFFF" transform="matrix(1.00, 0.00, -0.00, -1.00, 933.9, 561.0)">e</text><text xml:space="preserve" font-family="Futura-Medium" font-size="36.0" fill="#FEFFFF" transform="matrix(1.00, 0.00, -0.00, -1.00, 953.9, 561.0)">n</text><text xml:space="preserve" font-family="Futura-Medium" font-size="36.0" fill="#FEFFFF" transform="matrix(1.00, 0.00, -0.00, -1.00, 973.6, 561.0)">c</text><text xml:space="preserve" font-family="Futura-Medium" font-size="36.0" fill="#FEFFFF" transform="matrix(1.00, 0.00, -0.00, -1.00, 990.8, 561.0)">y</text><text xml:space="preserve" font-family="LucidaGrande" font-size="36.0" fill="#FEFFFF" transform="matrix(1.00, 0.00, -0.00, -1.00, 1010.4, 561.0)"> </text><text xml:space="preserve" font-family="Futura-Medium" font-size="36.0" fill="#FEFFFF" transform="matrix(1.00, 0.00, -0.00, -1.00, 659.0, 514.0)">m</text><text xml:space="preserve" font-family="Futura-Medium" font-size="36.0" fill="#FEFFFF" transform="matrix(1.00, 0.00, -0.00, -1.00, 687.5, 514.0)">o</text><text xml:space="preserve" font-family="Futura-Medium" font-size="36.0" fill="#FEFFFF" transform="matrix(1.00, 0.00, -0.00, -1.00, 709.1, 514.0)">d</text><text xml:space="preserve" font-family="Futura-Medium" font-size="36.0" fill="#FEFFFF" transform="matrix(1.00, 0.00, -0.00, -1.00, 730.7, 514.0)">u</text><text xml:space="preserve" font-family="Futura-Medium" font-size="36.0" fill="#FEFFFF" transform="matrix(1.00, 0.00, -0.00, -1.00, 750.3, 514.0)">l</text><text xml:space="preserve" font-family="Futura-Medium" font-size="36.0" fill="#FEFFFF" transform="matrix(1.00, 0.00, -0.00, -1.00, 759.3, 514.0)">e</text><text xml:space="preserve" font-family="Futura-Medium" font-size="36.0" fill="#FEFFFF" transform="matrix(1.00, 0.00, -0.00, -1.00, 779.2, 514.0)">s</text><text xml:space="preserve" font-family="Futura-Medium" font-size="36.0" fill="#FEFFFF" transform="matrix(1.00, 0.00, -0.00, -1.00, 793.8, 514.0)"> </text><text xml:space="preserve" font-family="Futura-Medium" font-size="36.0" fill="#FEFFFF" transform="matrix(1.00, 0.00, -0.00, -1.00, 804.9, 514.0)">o</text><text xml:space="preserve" font-family="Futura-Medium" font-size="36.0" fill="#FEFFFF" transform="matrix(1.00, 0.00, -0.00, -1.00, 826.5, 514.0)">n</text><text xml:space="preserve" font-family="Futura-Medium" font-size="36.0" fill="#FEFFFF" transform="matrix(1.00, 0.00, -0.00, -1.00, 846.3, 514.0)"> </text><text xml:space="preserve" font-family="Futura-Medium" font-size="36.0" fill="#FEFFFF" transform="matrix(1.00, 0.00, -0.00, -1.00, 857.4, 514.0)">P</text><text xml:space="preserve" font-family="Futura-Medium" font-size="36.0" fill="#FEFFFF" transform="matrix(1.00, 0.00, -0.00, -1.00, 874.8, 514.0)">A</text><text xml:space="preserve" font-family="Futura-Medium" font-size="36.0" fill="#FEFFFF" transform="matrix(1.00, 0.00, -0.00, -1.00, 900.0, 514.0)">T</text><text xml:space="preserve" font-family="Futura-Medium" font-size="36.0" fill="#FEFFFF" transform="matrix(1.00, 0.00, -0.00, -1.00, 917.4, 514.0)">H</text><text xml:space="preserve" font-family="Futura-Medium" font-size="36.0" fill="#FEFFFF" transform="matrix(1.00, 0.00, -0.00, -1.00, 943.8, 514.0)">!</text><text xml:space="preserve" font-family="Futura-Medium" font-size="36.0" fill="#FEFFFF" transform="matrix(1.00, 0.00, -0.00, -1.00, 955.7, 514.0)"> </text><text xml:space="preserve" font-family="Futura-Medium" font-size="36.0" fill="#FEFFFF" transform="matrix(1.00, 0.00, -0.00, -1.00, 641.1, 467.0)">•</text><text xml:space="preserve" font-family="Futura-Medium" font-size="36.0" fill="#FEFFFF" transform="matrix(1.00, 0.00, -0.00, -1.00, 668.0, 467.0)">b</text><text xml:space="preserve" font-family="Futura-Medium" font-size="36.0" fill="#FEFFFF" transform="matrix(1.00, 0.00, -0.00, -1.00, 689.6, 467.0)">u</text><text xml:space="preserve" font-family="Futura-Medium" font-size="36.0" fill="#FEFFFF" transform="matrix(1.00, 0.00, -0.00, -1.00, 709.2, 467.0)">i</text><text xml:space="preserve" font-family="Futura-Medium" font-size="36.0" fill="#FEFFFF" transform="matrix(1.00, 0.00, -0.00, -1.00, 718.1, 467.0)">l</text><text xml:space="preserve" font-family="Futura-Medium" font-size="36.0" fill="#FEFFFF" transform="matrix(1.00, 0.00, -0.00, -1.00, 727.1, 467.0)">d</text><text xml:space="preserve" font-family="Futura-Medium" font-size="36.0" fill="#FEFFFF" transform="matrix(1.00, 0.00, -0.00, -1.00, 748.7, 467.0)"> </text><text xml:space="preserve" font-family="Futura-Medium" font-size="36.0" fill="#FEFFFF" transform="matrix(1.00, 0.00, -0.00, -1.00, 759.8, 467.0)">s</text><text xml:space="preserve" font-family="Futura-Medium" font-size="36.0" fill="#FEFFFF" transform="matrix(1.00, 0.00, -0.00, -1.00, 774.4, 467.0)">c</text><text xml:space="preserve" font-family="Futura-Medium" font-size="36.0" fill="#FEFFFF" transform="matrix(1.00, 0.00, -0.00, -1.00, 791.5, 467.0)">r</text><text xml:space="preserve" font-family="Futura-Medium" font-size="36.0" fill="#FEFFFF" transform="matrix(1.00, 0.00, -0.00, -1.00, 805.5, 467.0)">i</text><text xml:space="preserve" font-family="Futura-Medium" font-size="36.0" fill="#FEFFFF" transform="matrix(1.00, 0.00, -0.00, -1.00, 814.5, 467.0)">p</text><text xml:space="preserve" font-family="Futura-Medium" font-size="36.0" fill="#FEFFFF" transform="matrix(1.00, 0.00, -0.00, -1.00, 836.4, 467.0)">t</text><text xml:space="preserve" font-family="Futura-Medium" font-size="36.0" fill="#FEFFFF" transform="matrix(1.00, 0.00, -0.00, -1.00, 846.2, 467.0)">s</text></g></g><path d="M 165.7 177.5 L 930.8 177.5 L 930.8 123.5 L 165.7 123.5 Z M 165.7 177.5 " fill="#000000"></path><g><clipPath id="clip-23"><path d="M 158.1 112.6 L 938.5 112.6 L 938.5 185.2 L 158.1 185.2 Z M 158.1 112.6 "></path></clipPath><g clip-path="url(#clip-23)"><text xml:space="preserve" font-family="Futura-Medium" font-size="36.0" fill="#FEFFFF" transform="matrix(1.00, 0.00, -0.00, -1.00, 188.0, 137.0)">b</text><text xml:space="preserve" font-family="Futura-Medium" font-size="36.0" fill="#FEFFFF" transform="matrix(1.00, 0.00, -0.00, -1.00, 209.6, 137.0)">l</text><text xml:space="preserve" font-family="Futura-Medium" font-size="36.0" fill="#FEFFFF" transform="matrix(1.00, 0.00, -0.00, -1.00, 218.5, 137.0)">e</text><text xml:space="preserve" font-family="Futura-Medium" font-size="36.0" fill="#FEFFFF" transform="matrix(1.00, 0.00, -0.00, -1.00, 238.5, 137.0)">s</text><text xml:space="preserve" font-family="Futura-Medium" font-size="36.0" fill="#FEFFFF" transform="matrix(1.00, 0.00, -0.00, -1.00, 253.1, 137.0)">s</text><text xml:space="preserve" font-family="Futura-Medium" font-size="36.0" fill="#FEFFFF" transform="matrix(1.00, 0.00, -0.00, -1.00, 267.7, 137.0)">e</text><text xml:space="preserve" font-family="Futura-Medium" font-size="36.0" fill="#FEFFFF" transform="matrix(1.00, 0.00, -0.00, -1.00, 287.6, 137.0)">d</text><text xml:space="preserve" font-family="Futura-Medium" font-size="36.0" fill="#FEFFFF" transform="matrix(1.00, 0.00, -0.00, -1.00, 309.2, 137.0)"> </text><text xml:space="preserve" font-family="Futura-Medium" font-size="36.0" fill="#FEFFFF" transform="matrix(1.00, 0.00, -0.00, -1.00, 320.2, 137.0)">=</text><text xml:space="preserve" font-family="Futura-Medium" font-size="36.0" fill="#FEFFFF" transform="matrix(1.00, 0.00, -0.00, -1.00, 342.5, 137.0)"> </text><text xml:space="preserve" font-family="Futura-Medium" font-size="36.0" fill="#FEFFFF" transform="matrix(1.00, 0.00, -0.00, -1.00, 353.6, 137.0)">r</text><text xml:space="preserve" font-family="Futura-Medium" font-size="36.0" fill="#FEFFFF" transform="matrix(1.00, 0.00, -0.00, -1.00, 366.8, 137.0)">e</text><text xml:space="preserve" font-family="Futura-Medium" font-size="36.0" fill="#FEFFFF" transform="matrix(1.00, 0.00, -0.00, -1.00, 386.7, 137.0)">p</text><text xml:space="preserve" font-family="Futura-Medium" font-size="36.0" fill="#FEFFFF" transform="matrix(1.00, 0.00, -0.00, -1.00, 408.3, 137.0)">r</text><text xml:space="preserve" font-family="Futura-Medium" font-size="36.0" fill="#FEFFFF" transform="matrix(1.00, 0.00, -0.00, -1.00, 421.5, 137.0)">e</text><text xml:space="preserve" font-family="Futura-Medium" font-size="36.0" fill="#FEFFFF" transform="matrix(1.00, 0.00, -0.00, -1.00, 441.4, 137.0)">s</text><text xml:space="preserve" font-family="Futura-Medium" font-size="36.0" fill="#FEFFFF" transform="matrix(1.00, 0.00, -0.00, -1.00, 456.0, 137.0)">e</text><text xml:space="preserve" font-family="Futura-Medium" font-size="36.0" fill="#FEFFFF" transform="matrix(1.00, 0.00, -0.00, -1.00, 476.0, 137.0)">n</text><text xml:space="preserve" font-family="Futura-Medium" font-size="36.0" fill="#FEFFFF" transform="matrix(1.00, 0.00, -0.00, -1.00, 495.7, 137.0)">t</text><text xml:space="preserve" font-family="Futura-Medium" font-size="36.0" fill="#FEFFFF" transform="matrix(1.00, 0.00, -0.00, -1.00, 505.6, 137.0)">s</text><text xml:space="preserve" font-family="Futura-Medium" font-size="36.0" fill="#FEFFFF" transform="matrix(1.00, 0.00, -0.00, -1.00, 520.2, 137.0)"> </text><text xml:space="preserve" font-family="Futura-Medium" font-size="36.0" fill="#FEFFFF" transform="matrix(1.00, 0.00, -0.00, -1.00, 531.3, 137.0)">l</text><text xml:space="preserve" font-family="Futura-Medium" font-size="36.0" fill="#FEFFFF" transform="matrix(1.00, 0.00, -0.00, -1.00, 540.2, 137.0)">i</text><text xml:space="preserve" font-family="Futura-Medium" font-size="36.0" fill="#FEFFFF" transform="matrix(1.00, 0.00, -0.00, -1.00, 549.2, 137.0)">f</text><text xml:space="preserve" font-family="Futura-Medium" font-size="36.0" fill="#FEFFFF" transform="matrix(1.00, 0.00, -0.00, -1.00, 560.4, 137.0)">e</text><text xml:space="preserve" font-family="Futura-Medium" font-size="36.0" fill="#FEFFFF" transform="matrix(1.00, 0.00, -0.00, -1.00, 580.3, 137.0)">c</text><text xml:space="preserve" font-family="Futura-Medium" font-size="36.0" fill="#FEFFFF" transform="matrix(1.00, 0.00, -0.00, -1.00, 597.5, 137.0)">y</text><text xml:space="preserve" font-family="Futura-Medium" font-size="36.0" fill="#FEFFFF" transform="matrix(1.00, 0.00, -0.00, -1.00, 616.3, 137.0)">c</text><text xml:space="preserve" font-family="Futura-Medium" font-size="36.0" fill="#FEFFFF" transform="matrix(1.00, 0.00, -0.00, -1.00, 633.5, 137.0)">l</text><text xml:space="preserve" font-family="Futura-Medium" font-size="36.0" fill="#FEFFFF" transform="matrix(1.00, 0.00, -0.00, -1.00, 642.4, 137.0)">e</text><text xml:space="preserve" font-family="Futura-Medium" font-size="36.0" fill="#FEFFFF" transform="matrix(1.00, 0.00, -0.00, -1.00, 662.4, 137.0)"> </text><text xml:space="preserve" font-family="Futura-Medium" font-size="36.0" fill="#FEFFFF" transform="matrix(1.00, 0.00, -0.00, -1.00, 673.5, 137.0)">e</text><text xml:space="preserve" font-family="Futura-Medium" font-size="36.0" fill="#FEFFFF" transform="matrix(1.00, 0.00, -0.00, -1.00, 692.8, 137.0)">v</text><text xml:space="preserve" font-family="Futura-Medium" font-size="36.0" fill="#FEFFFF" transform="matrix(1.00, 0.00, -0.00, -1.00, 710.3, 137.0)">e</text><text xml:space="preserve" font-family="Futura-Medium" font-size="36.0" fill="#FEFFFF" transform="matrix(1.00, 0.00, -0.00, -1.00, 730.2, 137.0)">n</text><text xml:space="preserve" font-family="Futura-Medium" font-size="36.0" fill="#FEFFFF" transform="matrix(1.00, 0.00, -0.00, -1.00, 749.9, 137.0)">t</text><text xml:space="preserve" font-family="Futura-Medium" font-size="36.0" fill="#FEFFFF" transform="matrix(1.00, 0.00, -0.00, -1.00, 759.8, 137.0)">,</text><text xml:space="preserve" font-family="Futura-Medium" font-size="36.0" fill="#FEFFFF" transform="matrix(1.00, 0.00, -0.00, -1.00, 770.9, 137.0)"> </text><text xml:space="preserve" font-family="Inconsolata" font-size="36.0" fill="#FEFFFF" transform="matrix(1.00, 0.00, -0.00, -1.00, 782.0, 137.0)">n</text><text xml:space="preserve" font-family="Inconsolata" font-size="36.0" fill="#FEFFFF" transform="matrix(1.00, 0.00, -0.00, -1.00, 800.0, 137.0)">p</text><text xml:space="preserve" font-family="Inconsolata" font-size="36.0" fill="#FEFFFF" transform="matrix(1.00, 0.00, -0.00, -1.00, 818.0, 137.0)">m</text><text xml:space="preserve" font-family="Inconsolata" font-size="36.0" fill="#FEFFFF" transform="matrix(1.00, 0.00, -0.00, -1.00, 836.0, 137.0)"> </text><text xml:space="preserve" font-family="Inconsolata" font-size="36.0" fill="#FEFFFF" transform="matrix(1.00, 0.00, -0.00, -1.00, 854.0, 137.0)">t</text><text xml:space="preserve" font-family="Inconsolata" font-size="36.0" fill="#FEFFFF" transform="matrix(1.00, 0.00, -0.00, -1.00, 872.0, 137.0)">e</text><text xml:space="preserve" font-family="Inconsolata" font-size="36.0" fill="#FEFFFF" transform="matrix(1.00, 0.00, -0.00, -1.00, 890.0, 137.0)">s</text><text xml:space="preserve" font-family="Inconsolata" font-size="36.0" fill="#FEFFFF" transform="matrix(1.00, 0.00, -0.00, -1.00, 908.0, 137.0)">t</text></g></g><path d="M 104.3 37.8 L 104.3 57.2 L 168.3 28.6 L 104.3 0.0 L 104.3 19.5 L 0.0 19.5 L 0.0 37.8 Z M 104.3 37.8 " fill="none" stroke="#000000" stroke-width="5.00" transform="matrix(-0.60, 0.80, 0.80, 0.60, 176.4, 178.8)"></path></g></svg>