<?xml version="1.0" encoding="UTF-8" standalone="no"?><svg xmlns="http://www.w3.org/2000/svg" xmlns:xlink="http://www.w3.org/1999/xlink" clip-rule="evenodd" stroke-miterlimit="4.00" viewBox="0 0 1024 768"><desc>SVG generated by Keynote</desc><defs></defs><g transform="matrix(1.00, 0.00, -0.00, -1.00, 0.0, 768.0)"><path d="M 0.0 768.0 L 1024.0 768.0 L 1024.0 0.0 L 0.0 0.0 Z M 0.0 768.0 " fill="#000000"></path><image xlink:href="../../0B4E1BDF-216A-4715-8494-B558B15DFCF4/assets/091D558A280108201D96AB6BCBDD5E9C.png" width="1357.00" height="763.00" transform="matrix(1.00, 0.00, -0.00, -1.00, -139.0, 768.0)"></image><text xml:space="preserve" font-family="Arial-Black" font-weight="bold" font-size="65.0" fill="#FEFFFF" transform="matrix(1.00, 0.00, -0.00, -1.00, 21.0, 696.0)">L</text><text xml:space="preserve" font-family="Arial-Black" font-weight="bold" font-size="65.0" fill="#FEFFFF" transform="matrix(1.00, 0.00, -0.00, -1.00, 64.4, 696.0)">e</text><text xml:space="preserve" font-family="Arial-Black" font-weight="bold" font-size="65.0" fill="#FEFFFF" transform="matrix(1.00, 0.00, -0.00, -1.00, 107.7, 696.0)">t</text><text xml:space="preserve" font-family="Arial-Black" font-weight="bold" font-size="65.0" fill="#FEFFFF" transform="matrix(1.00, 0.00, -0.00, -1.00, 136.5, 696.0)">’</text><text xml:space="preserve" font-family="Arial-Black" font-weight="bold" font-size="65.0" fill="#FEFFFF" transform="matrix(1.00, 0.00, -0.00, -1.00, 152.9, 696.0)">s</text><text xml:space="preserve" font-family="Arial-Black" font-weight="bold" font-size="65.0" fill="#FEFFFF" transform="matrix(1.00, 0.00, -0.00, -1.00, 192.6, 696.0)"> </text><text xml:space="preserve" font-family="Arial-Black" font-weight="bold" font-size="65.0" fill="#FEFFFF" transform="matrix(1.00, 0.00, -0.00, -1.00, 214.3, 696.0)">t</text><text xml:space="preserve" font-family="Arial-Black" font-weight="bold" font-size="65.0" fill="#FEFFFF" transform="matrix(1.00, 0.00, -0.00, -1.00, 243.2, 696.0)">a</text><text xml:space="preserve" font-family="Arial-Black" font-weight="bold" font-size="65.0" fill="#FEFFFF" transform="matrix(1.00, 0.00, -0.00, -1.00, 286.5, 696.0)">l</text><text xml:space="preserve" font-family="Arial-Black" font-weight="bold" font-size="65.0" fill="#FEFFFF" transform="matrix(1.00, 0.00, -0.00, -1.00, 308.2, 696.0)">k</text><text xml:space="preserve" font-family="Arial-Black" font-weight="bold" font-size="65.0" fill="#FEFFFF" transform="matrix(1.00, 0.00, -0.00, -1.00, 351.5, 696.0)"> </text><text xml:space="preserve" font-family="Arial-Black" font-weight="bold" font-size="65.0" fill="#FEFFFF" transform="matrix(1.00, 0.00, -0.00, -1.00, 373.2, 696.0)">a</text><text xml:space="preserve" font-family="Arial-Black" font-weight="bold" font-size="65.0" fill="#FEFFFF" transform="matrix(1.00, 0.00, -0.00, -1.00, 417.2, 696.0)">b</text><text xml:space="preserve" font-family="Arial-Black" font-weight="bold" font-size="65.0" fill="#FEFFFF" transform="matrix(1.00, 0.00, -0.00, -1.00, 460.6, 696.0)">o</text><text xml:space="preserve" font-family="Arial-Black" font-weight="bold" font-size="65.0" fill="#FEFFFF" transform="matrix(1.00, 0.00, -0.00, -1.00, 503.9, 696.0)">u</text><text xml:space="preserve" font-family="Arial-Black" font-weight="bold" font-size="65.0" fill="#FEFFFF" transform="matrix(1.00, 0.00, -0.00, -1.00, 547.3, 696.0)">t</text><text xml:space="preserve" font-family="Arial-Black" font-weight="bold" font-size="65.0" fill="#FEFFFF" transform="matrix(1.00, 0.00, -0.00, -1.00, 576.1, 696.0)"> </text><text xml:space="preserve" font-family="Arial-Black" font-weight="bold" font-size="65.0" fill="#FEFFFF" transform="matrix(1.00, 0.00, -0.00, -1.00, 597.8, 696.0)">d</text><text xml:space="preserve" font-family="Arial-Black" font-weight="bold" font-size="65.0" fill="#FEFFFF" transform="matrix(1.00, 0.00, -0.00, -1.00, 641.2, 696.0)">o</text><text xml:space="preserve" font-family="Arial-Black" font-weight="bold" font-size="65.0" fill="#FEFFFF" transform="matrix(1.00, 0.00, -0.00, -1.00, 684.5, 696.0)">c</text><text xml:space="preserve" font-family="Arial-Black" font-weight="bold" font-size="65.0" fill="#FEFFFF" transform="matrix(1.00, 0.00, -0.00, -1.00, 727.9, 696.0)">s</text><text xml:space="preserve" font-family="Futura-Medium" font-size="49.0" fill="#FEFFFF" transform="matrix(1.00, 0.00, -0.00, -1.00, 24.0, 620.0)">R</text><text xml:space="preserve" font-family="Futura-Medium" font-size="49.0" fill="#FEFFFF" transform="matrix(1.00, 0.00, -0.00, -1.00, 53.5, 620.0)">E</text><text xml:space="preserve" font-family="Futura-Medium" font-size="49.0" fill="#FEFFFF" transform="matrix(1.00, 0.00, -0.00, -1.00, 81.2, 620.0)">A</text><text xml:space="preserve" font-family="Futura-Medium" font-size="49.0" fill="#FEFFFF" transform="matrix(1.00, 0.00, -0.00, -1.00, 117.5, 620.0)">D</text><text xml:space="preserve" font-family="Futura-Medium" font-size="49.0" fill="#FEFFFF" transform="matrix(1.00, 0.00, -0.00, -1.00, 153.1, 620.0)">M</text><text xml:space="preserve" font-family="Futura-Medium" font-size="49.0" fill="#FEFFFF" transform="matrix(1.00, 0.00, -0.00, -1.00, 200.2, 620.0)">E</text><text xml:space="preserve" font-family="Futura-Medium" font-size="49.0" fill="#FEFFFF" transform="matrix(1.00, 0.00, -0.00, -1.00, 227.9, 620.0)">.</text><text xml:space="preserve" font-family="Futura-Medium" font-size="49.0" fill="#FEFFFF" transform="matrix(1.00, 0.00, -0.00, -1.00, 243.1, 620.0)">m</text><text xml:space="preserve" font-family="Futura-Medium" font-size="49.0" fill="#FEFFFF" transform="matrix(1.00, 0.00, -0.00, -1.00, 281.8, 620.0)">d</text><text xml:space="preserve" font-family="Futura-Medium" font-size="49.0" fill="#FEFFFF" transform="matrix(1.00, 0.00, -0.00, -1.00, 311.2, 620.0)"> </text><text xml:space="preserve" font-family="Futura-Medium" font-size="49.0" fill="#FEFFFF" transform="matrix(1.00, 0.00, -0.00, -1.00, 326.3, 620.0)">(</text><text xml:space="preserve" font-family="Futura-Medium" font-size="49.0" fill="#FEFFFF" transform="matrix(1.00, 0.00, -0.00, -1.00, 344.2, 620.0)">M</text><text xml:space="preserve" font-family="Futura-Medium" font-size="49.0" fill="#FEFFFF" transform="matrix(1.00, 0.00, -0.00, -1.00, 391.3, 620.0)">a</text><text xml:space="preserve" font-family="Futura-Medium" font-size="49.0" fill="#FEFFFF" transform="matrix(1.00, 0.00, -0.00, -1.00, 420.7, 620.0)">r</text><text xml:space="preserve" font-family="Futura-Medium" font-size="49.0" fill="#FEFFFF" transform="matrix(1.00, 0.00, -0.00, -1.00, 439.8, 620.0)">k</text><text xml:space="preserve" font-family="Futura-Medium" font-size="49.0" fill="#FEFFFF" transform="matrix(1.00, 0.00, -0.00, -1.00, 464.2, 620.0)">d</text><text xml:space="preserve" font-family="Futura-Medium" font-size="49.0" fill="#FEFFFF" transform="matrix(1.00, 0.00, -0.00, -1.00, 493.5, 620.0)">o</text><text xml:space="preserve" font-family="Futura-Medium" font-size="49.0" fill="#FEFFFF" transform="matrix(1.00, 0.00, -0.00, -1.00, 522.1, 620.0)">w</text><text xml:space="preserve" font-family="Futura-Medium" font-size="49.0" fill="#FEFFFF" transform="matrix(1.00, 0.00, -0.00, -1.00, 560.0, 620.0)">n</text><text xml:space="preserve" font-family="Futura-Medium" font-size="49.0" fill="#FEFFFF" transform="matrix(1.00, 0.00, -0.00, -1.00, 586.9, 620.0)">!</text><text xml:space="preserve" font-family="Futura-Medium" font-size="49.0" fill="#FEFFFF" transform="matrix(1.00, 0.00, -0.00, -1.00, 603.1, 620.0)">)</text><text xml:space="preserve" font-family="Futura-Medium" font-size="49.0" fill="#FEFFFF" transform="matrix(1.00, 0.00, -0.00, -1.00, 621.0, 620.0)"> </text><g><clipPath id="clip-140"><path d="M 23.0 612.1 L 311.2 612.1 L 311.2 617.9 L 23.0 617.9 Z M 23.0 612.1 "></path></clipPath><g clip-path="url(#clip-140)"><path d="M 4.0 59.6 L 291.2 59.6 " fill="none" stroke="#FEFFFF" stroke-width="3.83" stroke-miterlimit="0.00" transform="matrix(1.00, 0.00, 0.00, -1.00, 20.0, 674.6)"></path></g></g><text xml:space="preserve" font-family="Futura-Medium" font-size="49.0" fill="#FEFFFF" transform="matrix(1.00, 0.00, -0.00, -1.00, 24.0, 100.0)">C</text><text xml:space="preserve" font-family="Futura-Medium" font-size="49.0" fill="#FEFFFF" transform="matrix(1.00, 0.00, -0.00, -1.00, 58.1, 100.0)">O</text><text xml:space="preserve" font-family="Futura-Medium" font-size="49.0" fill="#FEFFFF" transform="matrix(1.00, 0.00, -0.00, -1.00, 101.8, 100.0)">N</text><text xml:space="preserve" font-family="Futura-Medium" font-size="49.0" fill="#FEFFFF" transform="matrix(1.00, 0.00, -0.00, -1.00, 143.2, 100.0)">T</text><text xml:space="preserve" font-family="Futura-Medium" font-size="49.0" fill="#FEFFFF" transform="matrix(1.00, 0.00, -0.00, -1.00, 166.9, 100.0)">R</text><text xml:space="preserve" font-family="Futura-Medium" font-size="49.0" fill="#FEFFFF" transform="matrix(1.00, 0.00, -0.00, -1.00, 196.4, 100.0)">I</text><text xml:space="preserve" font-family="Futura-Medium" font-size="49.0" fill="#FEFFFF" transform="matrix(1.00, 0.00, -0.00, -1.00, 210.8, 100.0)">B</text><text xml:space="preserve" font-family="Futura-Medium" font-size="49.0" fill="#FEFFFF" transform="matrix(1.00, 0.00, -0.00, -1.00, 239.8, 100.0)">U</text><text xml:space="preserve" font-family="Futura-Medium" font-size="49.0" fill="#FEFFFF" transform="matrix(1.00, 0.00, -0.00, -1.00, 276.0, 100.0)">T</text><text xml:space="preserve" font-family="Futura-Medium" font-size="49.0" fill="#FEFFFF" transform="matrix(1.00, 0.00, -0.00, -1.00, 299.7, 100.0)">I</text><text xml:space="preserve" font-family="Futura-Medium" font-size="49.0" fill="#FEFFFF" transform="matrix(1.00, 0.00, -0.00, -1.00, 314.1, 100.0)">N</text><text xml:space="preserve" font-family="Futura-Medium" font-size="49.0" fill="#FEFFFF" transform="matrix(1.00, 0.00, -0.00, -1.00, 355.9, 100.0)">G</text><text xml:space="preserve" font-family="Futura-Medium" font-size="49.0" fill="#FEFFFF" transform="matrix(1.00, 0.00, -0.00, -1.00, 397.2, 100.0)">.</text><text xml:space="preserve" font-family="Futura-Medium" font-size="49.0" fill="#FEFFFF" transform="matrix(1.00, 0.00, -0.00, -1.00, 412.3, 100.0)">m</text><text xml:space="preserve" font-family="Futura-Medium" font-size="49.0" fill="#FEFFFF" transform="matrix(1.00, 0.00, -0.00, -1.00, 451.0, 100.0)">d</text><text xml:space="preserve" font-family="Futura-Medium" font-size="49.0" fill="#FEFFFF" transform="matrix(1.00, 0.00, -0.00, -1.00, 480.4, 100.0)"> </text><text xml:space="preserve" font-family="Futura-Medium" font-size="49.0" fill="#FEFFFF" transform="matrix(1.00, 0.00, -0.00, -1.00, 495.5, 100.0)">(</text><text xml:space="preserve" font-family="Futura-Medium" font-size="49.0" fill="#FEFFFF" transform="matrix(1.00, 0.00, -0.00, -1.00, 513.4, 100.0)">M</text><text xml:space="preserve" font-family="Futura-Medium" font-size="49.0" fill="#FEFFFF" transform="matrix(1.00, 0.00, -0.00, -1.00, 560.6, 100.0)">a</text><text xml:space="preserve" font-family="Futura-Medium" font-size="49.0" fill="#FEFFFF" transform="matrix(1.00, 0.00, -0.00, -1.00, 589.9, 100.0)">r</text><text xml:space="preserve" font-family="Futura-Medium" font-size="49.0" fill="#FEFFFF" transform="matrix(1.00, 0.00, -0.00, -1.00, 609.0, 100.0)">k</text><text xml:space="preserve" font-family="Futura-Medium" font-size="49.0" fill="#FEFFFF" transform="matrix(1.00, 0.00, -0.00, -1.00, 633.4, 100.0)">d</text><text xml:space="preserve" font-family="Futura-Medium" font-size="49.0" fill="#FEFFFF" transform="matrix(1.00, 0.00, -0.00, -1.00, 662.8, 100.0)">o</text><text xml:space="preserve" font-family="Futura-Medium" font-size="49.0" fill="#FEFFFF" transform="matrix(1.00, 0.00, -0.00, -1.00, 691.3, 100.0)">w</text><text xml:space="preserve" font-family="Futura-Medium" font-size="49.0" fill="#FEFFFF" transform="matrix(1.00, 0.00, -0.00, -1.00, 729.2, 100.0)">n</text><text xml:space="preserve" font-family="Futura-Medium" font-size="49.0" fill="#FEFFFF" transform="matrix(1.00, 0.00, -0.00, -1.00, 756.1, 100.0)">!</text><text xml:space="preserve" font-family="Futura-Medium" font-size="49.0" fill="#FEFFFF" transform="matrix(1.00, 0.00, -0.00, -1.00, 772.3, 100.0)">)</text><text xml:space="preserve" font-family="Futura-Medium" font-size="49.0" fill="#FEFFFF" transform="matrix(1.00, 0.00, -0.00, -1.00, 790.3, 100.0)"> </text><g><clipPath id="clip-141"><path d="M 23.0 92.1 L 480.4 92.1 L 480.4 97.9 L 23.0 97.9 Z M 23.0 92.1 "></path></clipPath><g clip-path="url(#clip-141)"><path d="M 4.0 579.6 L 460.4 579.6 " fill="none" stroke="#FEFFFF" stroke-width="3.83" stroke-miterlimit="0.00" transform="matrix(1.00, 0.00, 0.00, -1.00, 20.0, 674.6)"></path></g></g></g></svg>