<?xml version="1.0" encoding="UTF-8" standalone="no"?><svg xmlns="http://www.w3.org/2000/svg" xmlns:xlink="http://www.w3.org/1999/xlink" clip-rule="evenodd" stroke-miterlimit="4.00" viewBox="0 0 1024 768"><desc>SVG generated by Keynote</desc><defs></defs><g transform="matrix(1.00, 0.00, -0.00, -1.00, 0.0, 768.0)"><path d="M 0.0 768.0 L 1024.0 768.0 L 1024.0 0.0 L 0.0 0.0 Z M 0.0 768.0 " fill="#000000"></path><image xlink:href="../../13C2BA7D-422A-4506-A4CA-BD94115E03A9/assets/8DF863BF90BD5CDDEF785680757C1683.jpeg" width="700.00" height="468.00" transform="matrix(1.64, 0.00, -0.00, -1.64, -66.0, 768.0)"></image><text xml:space="preserve" font-family="Arial-Black" font-weight="bold" font-size="65.0" fill="#603704" transform="matrix(1.00, 0.00, -0.00, -1.00, 403.0, 691.0)">H</text><text xml:space="preserve" font-family="Arial-Black" font-weight="bold" font-size="65.0" fill="#603704" transform="matrix(1.00, 0.00, -0.00, -1.00, 457.1, 691.0)">o</text><text xml:space="preserve" font-family="Arial-Black" font-weight="bold" font-size="65.0" fill="#603704" transform="matrix(1.00, 0.00, -0.00, -1.00, 499.3, 691.0)">w</text><text xml:space="preserve" font-family="Arial-Black" font-weight="bold" font-size="65.0" fill="#603704" transform="matrix(1.00, 0.00, -0.00, -1.00, 560.7, 691.0)"> </text><text xml:space="preserve" font-family="Arial-Black" font-weight="bold" font-size="65.0" fill="#603704" transform="matrix(1.00, 0.00, -0.00, -1.00, 582.4, 691.0)">d</text><text xml:space="preserve" font-family="Arial-Black" font-weight="bold" font-size="65.0" fill="#603704" transform="matrix(1.00, 0.00, -0.00, -1.00, 625.7, 691.0)">o</text><text xml:space="preserve" font-family="Arial-Black" font-weight="bold" font-size="65.0" fill="#603704" transform="matrix(1.00, 0.00, -0.00, -1.00, 669.1, 691.0)"> </text><text xml:space="preserve" font-family="Arial-Black" font-weight="bold" font-size="65.0" fill="#603704" transform="matrix(1.00, 0.00, -0.00, -1.00, 690.8, 691.0)">I</text><text xml:space="preserve" font-family="Arial-Black" font-weight="bold" font-size="65.0" fill="#603704" transform="matrix(1.00, 0.00, -0.00, -1.00, 716.1, 691.0)"> </text><text xml:space="preserve" font-family="Arial-Black" font-weight="bold" font-size="65.0" fill="#603704" transform="matrix(1.00, 0.00, -0.00, -1.00, 737.8, 691.0)">s</text><text xml:space="preserve" font-family="Arial-Black" font-weight="bold" font-size="65.0" fill="#603704" transform="matrix(1.00, 0.00, -0.00, -1.00, 777.5, 691.0)">t</text><text xml:space="preserve" font-family="Arial-Black" font-weight="bold" font-size="65.0" fill="#603704" transform="matrix(1.00, 0.00, -0.00, -1.00, 806.3, 691.0)">a</text><text xml:space="preserve" font-family="Arial-Black" font-weight="bold" font-size="65.0" fill="#603704" transform="matrix(1.00, 0.00, -0.00, -1.00, 849.7, 691.0)">r</text><text xml:space="preserve" font-family="Arial-Black" font-weight="bold" font-size="65.0" fill="#603704" transform="matrix(1.00, 0.00, -0.00, -1.00, 881.8, 691.0)">t</text><text xml:space="preserve" font-family="Arial-Black" font-weight="bold" font-size="65.0" fill="#603704" transform="matrix(1.00, 0.00, -0.00, -1.00, 910.6, 691.0)">?</text></g></svg>