<?xml version="1.0" encoding="UTF-8" standalone="no"?><svg xmlns="http://www.w3.org/2000/svg" xmlns:xlink="http://www.w3.org/1999/xlink" clip-rule="evenodd" stroke-miterlimit="4.00" viewBox="0 0 1024 768"><desc>SVG generated by Keynote</desc><defs></defs><g transform="matrix(1.00, 0.00, -0.00, -1.00, 0.0, 768.0)"><path d="M 0.0 768.0 L 1024.0 768.0 L 1024.0 0.0 L 0.0 0.0 Z M 0.0 768.0 " fill="#000000"></path><image xlink:href="../../13C2BA7D-422A-4506-A4CA-BD94115E03A9/assets/8DF863BF90BD5CDDEF785680757C1683.jpeg" width="700.00" height="468.00" transform="matrix(1.64, 0.00, -0.00, -1.64, -66.0, 768.0)"></image><text xml:space="preserve" font-family="Arial-Black" font-weight="bold" font-size="65.0" fill="#603704" transform="matrix(1.00, 0.00, -0.00, -1.00, 403.0, 691.0)">H</text><text xml:space="preserve" font-family="Arial-Black" font-weight="bold" font-size="65.0" fill="#603704" transform="matrix(1.00, 0.00, -0.00, -1.00, 457.1, 691.0)">o</text><text xml:space="preserve" font-family="Arial-Black" font-weight="bold" font-size="65.0" fill="#603704" transform="matrix(1.00, 0.00, -0.00, -1.00, 499.3, 691.0)">w</text><text xml:space="preserve" font-family="Arial-Black" font-weight="bold" font-size="65.0" fill="#603704" transform="matrix(1.00, 0.00, -0.00, -1.00, 560.7, 691.0)"> </text><text xml:space="preserve" font-family="Arial-Black" font-weight="bold" font-size="65.0" fill="#603704" transform="matrix(1.00, 0.00, -0.00, -1.00, 582.4, 691.0)">d</text><text xml:space="preserve" font-family="Arial-Black" font-weight="bold" font-size="65.0" fill="#603704" transform="matrix(1.00, 0.00, -0.00, -1.00, 625.7, 691.0)">o</text><text xml:space="preserve" font-family="Arial-Black" font-weight="bold" font-size="65.0" fill="#603704" transform="matrix(1.00, 0.00, -0.00, -1.00, 669.1, 691.0)"> </text><text xml:space="preserve" font-family="Arial-Black" font-weight="bold" font-size="65.0" fill="#603704" transform="matrix(1.00, 0.00, -0.00, -1.00, 690.8, 691.0)">I</text><text xml:space="preserve" font-family="Arial-Black" font-weight="bold" font-size="65.0" fill="#603704" transform="matrix(1.00, 0.00, -0.00, -1.00, 716.1, 691.0)"> </text><text xml:space="preserve" font-family="Arial-Black" font-weight="bold" font-size="65.0" fill="#603704" transform="matrix(1.00, 0.00, -0.00, -1.00, 737.8, 691.0)">s</text><text xml:space="preserve" font-family="Arial-Black" font-weight="bold" font-size="65.0" fill="#603704" transform="matrix(1.00, 0.00, -0.00, -1.00, 777.5, 691.0)">t</text><text xml:space="preserve" font-family="Arial-Black" font-weight="bold" font-size="65.0" fill="#603704" transform="matrix(1.00, 0.00, -0.00, -1.00, 806.3, 691.0)">a</text><text xml:space="preserve" font-family="Arial-Black" font-weight="bold" font-size="65.0" fill="#603704" transform="matrix(1.00, 0.00, -0.00, -1.00, 849.7, 691.0)">r</text><text xml:space="preserve" font-family="Arial-Black" font-weight="bold" font-size="65.0" fill="#603704" transform="matrix(1.00, 0.00, -0.00, -1.00, 881.8, 691.0)">t</text><text xml:space="preserve" font-family="Arial-Black" font-weight="bold" font-size="65.0" fill="#603704" transform="matrix(1.00, 0.00, -0.00, -1.00, 910.6, 691.0)">?</text><text xml:space="preserve" font-family="Futura-Medium" font-size="36.0" fill="#000000" transform="matrix(1.00, 0.00, -0.00, -1.00, 401.1, 631.0)">1</text><text xml:space="preserve" font-family="Futura-Medium" font-size="36.0" fill="#000000" transform="matrix(1.00, 0.00, -0.00, -1.00, 421.2, 631.0)">.</text><text xml:space="preserve" font-family="Futura-Medium" font-size="36.0" fill="#000000" transform="matrix(1.00, 0.00, -0.00, -1.00, 432.0, 631.0)">C</text><text xml:space="preserve" font-family="Futura-Medium" font-size="36.0" fill="#000000" transform="matrix(1.00, 0.00, -0.00, -1.00, 457.2, 631.0)">o</text><text xml:space="preserve" font-family="Futura-Medium" font-size="36.0" fill="#000000" transform="matrix(1.00, 0.00, -0.00, -1.00, 478.9, 631.0)">m</text><text xml:space="preserve" font-family="Futura-Medium" font-size="36.0" fill="#000000" transform="matrix(1.00, 0.00, -0.00, -1.00, 507.3, 631.0)">e</text><text xml:space="preserve" font-family="Futura-Medium" font-size="36.0" fill="#000000" transform="matrix(1.00, 0.00, -0.00, -1.00, 527.3, 631.0)"> </text><text xml:space="preserve" font-family="Futura-Medium" font-size="36.0" fill="#000000" transform="matrix(1.00, 0.00, -0.00, -1.00, 538.4, 631.0)">u</text><text xml:space="preserve" font-family="Futura-Medium" font-size="36.0" fill="#000000" transform="matrix(1.00, 0.00, -0.00, -1.00, 558.0, 631.0)">p</text><text xml:space="preserve" font-family="Futura-Medium" font-size="36.0" fill="#000000" transform="matrix(1.00, 0.00, -0.00, -1.00, 579.5, 631.0)"> </text><text xml:space="preserve" font-family="Futura-Medium" font-size="36.0" fill="#000000" transform="matrix(1.00, 0.00, -0.00, -1.00, 590.6, 631.0)">w</text><text xml:space="preserve" font-family="Futura-Medium" font-size="36.0" fill="#000000" transform="matrix(1.00, 0.00, -0.00, -1.00, 618.5, 631.0)">i</text><text xml:space="preserve" font-family="Futura-Medium" font-size="36.0" fill="#000000" transform="matrix(1.00, 0.00, -0.00, -1.00, 627.5, 631.0)">t</text><text xml:space="preserve" font-family="Futura-Medium" font-size="36.0" fill="#000000" transform="matrix(1.00, 0.00, -0.00, -1.00, 638.0, 631.0)">h</text><text xml:space="preserve" font-family="Futura-Medium" font-size="36.0" fill="#000000" transform="matrix(1.00, 0.00, -0.00, -1.00, 657.8, 631.0)"> </text><text xml:space="preserve" font-family="Futura-Medium" font-size="36.0" fill="#000000" transform="matrix(1.00, 0.00, -0.00, -1.00, 668.9, 631.0)">n</text><text xml:space="preserve" font-family="Futura-Medium" font-size="36.0" fill="#000000" transform="matrix(1.00, 0.00, -0.00, -1.00, 688.6, 631.0)">a</text><text xml:space="preserve" font-family="Futura-Medium" font-size="36.0" fill="#000000" transform="matrix(1.00, 0.00, -0.00, -1.00, 710.2, 631.0)">m</text><text xml:space="preserve" font-family="Futura-Medium" font-size="36.0" fill="#000000" transform="matrix(1.00, 0.00, -0.00, -1.00, 738.7, 631.0)">e</text><text xml:space="preserve" font-family="Futura-Medium" font-size="36.0" fill="#000000" transform="matrix(1.00, 0.00, -0.00, -1.00, 758.6, 631.0)"> </text><text xml:space="preserve" font-family="Futura-Medium" font-size="36.0" fill="#000000" transform="matrix(1.00, 0.00, -0.00, -1.00, 769.7, 631.0)">a</text><text xml:space="preserve" font-family="Futura-Medium" font-size="36.0" fill="#000000" transform="matrix(1.00, 0.00, -0.00, -1.00, 791.3, 631.0)">n</text><text xml:space="preserve" font-family="Futura-Medium" font-size="36.0" fill="#000000" transform="matrix(1.00, 0.00, -0.00, -1.00, 811.0, 631.0)">d</text><text xml:space="preserve" font-family="Futura-Medium" font-size="36.0" fill="#000000" transform="matrix(1.00, 0.00, -0.00, -1.00, 832.6, 631.0)"> </text><text xml:space="preserve" font-family="Futura-Medium" font-size="36.0" fill="#000000" transform="matrix(1.00, 0.00, -0.00, -1.00, 843.7, 631.0)">m</text><text xml:space="preserve" font-family="Futura-Medium" font-size="36.0" fill="#000000" transform="matrix(1.00, 0.00, -0.00, -1.00, 872.2, 631.0)">k</text><text xml:space="preserve" font-family="Futura-Medium" font-size="36.0" fill="#000000" transform="matrix(1.00, 0.00, -0.00, -1.00, 890.1, 631.0)">d</text><text xml:space="preserve" font-family="Futura-Medium" font-size="36.0" fill="#000000" transform="matrix(1.00, 0.00, -0.00, -1.00, 911.7, 631.0)">i</text><text xml:space="preserve" font-family="Futura-Medium" font-size="36.0" fill="#000000" transform="matrix(1.00, 0.00, -0.00, -1.00, 920.6, 631.0)">r</text><text xml:space="preserve" font-family="Futura-Medium" font-size="36.0" fill="#000000" transform="matrix(1.00, 0.00, -0.00, -1.00, 934.1, 631.0)"> </text><text xml:space="preserve" font-family="Futura-Medium" font-size="36.0" fill="#000000" transform="matrix(1.00, 0.00, -0.00, -1.00, 945.2, 631.0)">i</text><text xml:space="preserve" font-family="Futura-Medium" font-size="36.0" fill="#000000" transform="matrix(1.00, 0.00, -0.00, -1.00, 954.2, 631.0)">t</text><text xml:space="preserve" font-family="Futura-Medium" font-size="36.0" fill="#000000" transform="matrix(1.00, 0.00, -0.00, -1.00, 964.0, 631.0)"> </text><text xml:space="preserve" font-family="Futura-Medium" font-size="36.0" fill="#000000" transform="matrix(1.00, 0.00, -0.00, -1.00, 401.1, 574.8)">2</text><text xml:space="preserve" font-family="Futura-Medium" font-size="36.0" fill="#000000" transform="matrix(1.00, 0.00, -0.00, -1.00, 423.4, 574.8)">.</text><text xml:space="preserve" font-family="Futura-Medium" font-size="36.0" fill="#000000" transform="matrix(1.00, 0.00, -0.00, -1.00, 434.0, 575.0)">C</text><text xml:space="preserve" font-family="Futura-Medium" font-size="36.0" fill="#000000" transform="matrix(1.00, 0.00, -0.00, -1.00, 459.2, 575.0)">r</text><text xml:space="preserve" font-family="Futura-Medium" font-size="36.0" fill="#000000" transform="matrix(1.00, 0.00, -0.00, -1.00, 472.4, 575.0)">e</text><text xml:space="preserve" font-family="Futura-Medium" font-size="36.0" fill="#000000" transform="matrix(1.00, 0.00, -0.00, -1.00, 492.4, 575.0)">a</text><text xml:space="preserve" font-family="Futura-Medium" font-size="36.0" fill="#000000" transform="matrix(1.00, 0.00, -0.00, -1.00, 513.9, 575.0)">t</text><text xml:space="preserve" font-family="Futura-Medium" font-size="36.0" fill="#000000" transform="matrix(1.00, 0.00, -0.00, -1.00, 524.1, 575.0)">e</text><text xml:space="preserve" font-family="Futura-Medium" font-size="36.0" fill="#000000" transform="matrix(1.00, 0.00, -0.00, -1.00, 544.0, 575.0)"> </text><text xml:space="preserve" font-family="Futura-Medium" font-size="36.0" fill="#000000" transform="matrix(1.00, 0.00, -0.00, -1.00, 555.1, 575.0)">a</text><text xml:space="preserve" font-family="Futura-Medium" font-size="36.0" fill="#000000" transform="matrix(1.00, 0.00, -0.00, -1.00, 576.7, 575.0)"> </text><text xml:space="preserve" font-family="Futura-Medium" font-size="36.0" fill="#000000" transform="matrix(1.00, 0.00, -0.00, -1.00, 587.8, 575.0)">G</text><text xml:space="preserve" font-family="Futura-Medium" font-size="36.0" fill="#000000" transform="matrix(1.00, 0.00, -0.00, -1.00, 618.1, 575.0)">i</text><text xml:space="preserve" font-family="Futura-Medium" font-size="36.0" fill="#000000" transform="matrix(1.00, 0.00, -0.00, -1.00, 627.1, 575.0)">t</text><text xml:space="preserve" font-family="Futura-Medium" font-size="36.0" fill="#000000" transform="matrix(1.00, 0.00, -0.00, -1.00, 636.9, 575.0)">H</text><text xml:space="preserve" font-family="Futura-Medium" font-size="36.0" fill="#000000" transform="matrix(1.00, 0.00, -0.00, -1.00, 663.4, 575.0)">u</text><text xml:space="preserve" font-family="Futura-Medium" font-size="36.0" fill="#000000" transform="matrix(1.00, 0.00, -0.00, -1.00, 683.0, 575.0)">b</text><text xml:space="preserve" font-family="Futura-Medium" font-size="36.0" fill="#000000" transform="matrix(1.00, 0.00, -0.00, -1.00, 704.5, 575.0)"> </text><text xml:space="preserve" font-family="Futura-Medium" font-size="36.0" fill="#000000" transform="matrix(1.00, 0.00, -0.00, -1.00, 715.6, 575.0)">r</text><text xml:space="preserve" font-family="Futura-Medium" font-size="36.0" fill="#000000" transform="matrix(1.00, 0.00, -0.00, -1.00, 728.9, 575.0)">e</text><text xml:space="preserve" font-family="Futura-Medium" font-size="36.0" fill="#000000" transform="matrix(1.00, 0.00, -0.00, -1.00, 748.8, 575.0)">p</text><text xml:space="preserve" font-family="Futura-Medium" font-size="36.0" fill="#000000" transform="matrix(1.00, 0.00, -0.00, -1.00, 770.4, 575.0)">o</text><text xml:space="preserve" font-family="Futura-Medium" font-size="36.0" fill="#000000" transform="matrix(1.00, 0.00, -0.00, -1.00, 792.0, 575.0)"> </text><text xml:space="preserve" font-family="Futura-Medium" font-size="36.0" fill="#FEFFFF" transform="matrix(1.00, 0.00, -0.00, -1.00, 401.1, 350.1)">3</text><text xml:space="preserve" font-family="Futura-Medium" font-size="36.0" fill="#FEFFFF" transform="matrix(1.00, 0.00, -0.00, -1.00, 423.4, 350.1)">.</text><text xml:space="preserve" font-family="Futura-Medium" font-size="36.0" fill="#FEFFFF" transform="matrix(1.00, 0.00, -0.00, -1.00, 434.0, 350.0)">C</text><text xml:space="preserve" font-family="Futura-Medium" font-size="36.0" fill="#FEFFFF" transform="matrix(1.00, 0.00, -0.00, -1.00, 459.2, 350.0)">r</text><text xml:space="preserve" font-family="Futura-Medium" font-size="36.0" fill="#FEFFFF" transform="matrix(1.00, 0.00, -0.00, -1.00, 472.4, 350.0)">e</text><text xml:space="preserve" font-family="Futura-Medium" font-size="36.0" fill="#FEFFFF" transform="matrix(1.00, 0.00, -0.00, -1.00, 492.4, 350.0)">a</text><text xml:space="preserve" font-family="Futura-Medium" font-size="36.0" fill="#FEFFFF" transform="matrix(1.00, 0.00, -0.00, -1.00, 513.9, 350.0)">t</text><text xml:space="preserve" font-family="Futura-Medium" font-size="36.0" fill="#FEFFFF" transform="matrix(1.00, 0.00, -0.00, -1.00, 524.1, 350.0)">e</text><text xml:space="preserve" font-family="Futura-Medium" font-size="36.0" fill="#FEFFFF" transform="matrix(1.00, 0.00, -0.00, -1.00, 544.1, 350.0)"> </text><text xml:space="preserve" font-family="Futura-Medium" font-size="36.0" fill="#FEFFFF" transform="matrix(1.00, 0.00, -0.00, -1.00, 555.2, 350.0)">a</text><text xml:space="preserve" font-family="Futura-Medium" font-size="36.0" fill="#FEFFFF" transform="matrix(1.00, 0.00, -0.00, -1.00, 576.7, 350.0)"> </text><text xml:space="preserve" font-family="Inconsolata" font-size="36.0" fill="#FEFFFF" transform="matrix(1.00, 0.00, -0.00, -1.00, 587.8, 350.0)">p</text><text xml:space="preserve" font-family="Inconsolata" font-size="36.0" fill="#FEFFFF" transform="matrix(1.00, 0.00, -0.00, -1.00, 605.8, 350.0)">a</text><text xml:space="preserve" font-family="Inconsolata" font-size="36.0" fill="#FEFFFF" transform="matrix(1.00, 0.00, -0.00, -1.00, 623.8, 350.0)">c</text><text xml:space="preserve" font-family="Inconsolata" font-size="36.0" fill="#FEFFFF" transform="matrix(1.00, 0.00, -0.00, -1.00, 641.8, 350.0)">k</text><text xml:space="preserve" font-family="Inconsolata" font-size="36.0" fill="#FEFFFF" transform="matrix(1.00, 0.00, -0.00, -1.00, 659.8, 350.0)">a</text><text xml:space="preserve" font-family="Inconsolata" font-size="36.0" fill="#FEFFFF" transform="matrix(1.00, 0.00, -0.00, -1.00, 677.8, 350.0)">g</text><text xml:space="preserve" font-family="Inconsolata" font-size="36.0" fill="#FEFFFF" transform="matrix(1.00, 0.00, -0.00, -1.00, 695.8, 350.0)">e</text><text xml:space="preserve" font-family="Inconsolata" font-size="36.0" fill="#FEFFFF" transform="matrix(1.00, 0.00, -0.00, -1.00, 713.8, 350.0)">.</text><text xml:space="preserve" font-family="Inconsolata" font-size="36.0" fill="#FEFFFF" transform="matrix(1.00, 0.00, -0.00, -1.00, 731.8, 350.0)">j</text><text xml:space="preserve" font-family="Inconsolata" font-size="36.0" fill="#FEFFFF" transform="matrix(1.00, 0.00, -0.00, -1.00, 749.8, 350.0)">s</text><text xml:space="preserve" font-family="Inconsolata" font-size="36.0" fill="#FEFFFF" transform="matrix(1.00, 0.00, -0.00, -1.00, 767.8, 350.0)">o</text><text xml:space="preserve" font-family="Inconsolata" font-size="36.0" fill="#FEFFFF" transform="matrix(1.00, 0.00, -0.00, -1.00, 785.8, 350.0)">n</text><text xml:space="preserve" font-family="Futura-Medium" font-size="36.0" fill="#FEFFFF" transform="matrix(1.00, 0.00, -0.00, -1.00, 803.8, 350.0)"> </text><text xml:space="preserve" font-family="Futura-Medium" font-size="36.0" fill="#FEFFFF" transform="matrix(1.00, 0.00, -0.00, -1.00, 401.1, 291.7)">4</text><text xml:space="preserve" font-family="Futura-Medium" font-size="36.0" fill="#FEFFFF" transform="matrix(1.00, 0.00, -0.00, -1.00, 423.4, 291.7)">.</text><text xml:space="preserve" font-family="Futura-Medium" font-size="36.0" fill="#FEFFFF" transform="matrix(1.00, 0.00, -0.00, -1.00, 434.0, 292.0)">P</text><text xml:space="preserve" font-family="Futura-Medium" font-size="36.0" fill="#FEFFFF" transform="matrix(1.00, 0.00, -0.00, -1.00, 453.4, 292.0)">i</text><text xml:space="preserve" font-family="Futura-Medium" font-size="36.0" fill="#FEFFFF" transform="matrix(1.00, 0.00, -0.00, -1.00, 462.4, 292.0)">c</text><text xml:space="preserve" font-family="Futura-Medium" font-size="36.0" fill="#FEFFFF" transform="matrix(1.00, 0.00, -0.00, -1.00, 480.5, 292.0)">k</text><text xml:space="preserve" font-family="Futura-Medium" font-size="36.0" fill="#FEFFFF" transform="matrix(1.00, 0.00, -0.00, -1.00, 498.4, 292.0)"> </text><text xml:space="preserve" font-family="Futura-Medium" font-size="36.0" fill="#FEFFFF" transform="matrix(1.00, 0.00, -0.00, -1.00, 509.5, 292.0)">a</text><text xml:space="preserve" font-family="Futura-Medium" font-size="36.0" fill="#FEFFFF" transform="matrix(1.00, 0.00, -0.00, -1.00, 531.1, 292.0)"> </text><text xml:space="preserve" font-family="Futura-Medium" font-size="36.0" fill="#FEFFFF" transform="matrix(1.00, 0.00, -0.00, -1.00, 542.2, 292.0)">l</text><text xml:space="preserve" font-family="Futura-Medium" font-size="36.0" fill="#FEFFFF" transform="matrix(1.00, 0.00, -0.00, -1.00, 551.1, 292.0)">i</text><text xml:space="preserve" font-family="Futura-Medium" font-size="36.0" fill="#FEFFFF" transform="matrix(1.00, 0.00, -0.00, -1.00, 560.1, 292.0)">c</text><text xml:space="preserve" font-family="Futura-Medium" font-size="36.0" fill="#FEFFFF" transform="matrix(1.00, 0.00, -0.00, -1.00, 577.2, 292.0)">e</text><text xml:space="preserve" font-family="Futura-Medium" font-size="36.0" fill="#FEFFFF" transform="matrix(1.00, 0.00, -0.00, -1.00, 597.2, 292.0)">n</text><text xml:space="preserve" font-family="Futura-Medium" font-size="36.0" fill="#FEFFFF" transform="matrix(1.00, 0.00, -0.00, -1.00, 616.9, 292.0)">s</text><text xml:space="preserve" font-family="Futura-Medium" font-size="36.0" fill="#FEFFFF" transform="matrix(1.00, 0.00, -0.00, -1.00, 631.5, 292.0)">e</text><text xml:space="preserve" font-family="Futura-Medium" font-size="36.0" fill="#FEFFFF" transform="matrix(1.00, 0.00, -0.00, -1.00, 651.4, 292.0)"> </text><text xml:space="preserve" font-family="Futura-Medium" font-size="36.0" fill="#FEFFFF" transform="matrix(1.00, 0.00, -0.00, -1.00, 662.5, 292.0)">(</text><text xml:space="preserve" font-family="Futura-Medium" font-size="36.0" fill="#FEFFFF" transform="matrix(1.00, 0.00, -0.00, -1.00, 675.7, 292.0)">s</text><text xml:space="preserve" font-family="Futura-Medium" font-size="36.0" fill="#FEFFFF" transform="matrix(1.00, 0.00, -0.00, -1.00, 690.3, 292.0)">p</text><text xml:space="preserve" font-family="Futura-Medium" font-size="36.0" fill="#FEFFFF" transform="matrix(1.00, 0.00, -0.00, -1.00, 711.9, 292.0)">d</text><text xml:space="preserve" font-family="Futura-Medium" font-size="36.0" fill="#FEFFFF" transform="matrix(1.00, 0.00, -0.00, -1.00, 733.5, 292.0)">x</text><text xml:space="preserve" font-family="Futura-Medium" font-size="36.0" fill="#FEFFFF" transform="matrix(1.00, 0.00, -0.00, -1.00, 753.6, 292.0)">.</text><text xml:space="preserve" font-family="Futura-Medium" font-size="36.0" fill="#FEFFFF" transform="matrix(1.00, 0.00, -0.00, -1.00, 764.7, 292.0)">o</text><text xml:space="preserve" font-family="Futura-Medium" font-size="36.0" fill="#FEFFFF" transform="matrix(1.00, 0.00, -0.00, -1.00, 786.3, 292.0)">r</text><text xml:space="preserve" font-family="Futura-Medium" font-size="36.0" fill="#FEFFFF" transform="matrix(1.00, 0.00, -0.00, -1.00, 799.8, 292.0)">g</text><text xml:space="preserve" font-family="Futura-Medium" font-size="36.0" fill="#FEFFFF" transform="matrix(1.00, 0.00, -0.00, -1.00, 821.3, 292.0)">/</text><text xml:space="preserve" font-family="Futura-Medium" font-size="36.0" fill="#FEFFFF" transform="matrix(1.00, 0.00, -0.00, -1.00, 840.0, 292.0)">l</text><text xml:space="preserve" font-family="Futura-Medium" font-size="36.0" fill="#FEFFFF" transform="matrix(1.00, 0.00, -0.00, -1.00, 848.9, 292.0)">i</text><text xml:space="preserve" font-family="Futura-Medium" font-size="36.0" fill="#FEFFFF" transform="matrix(1.00, 0.00, -0.00, -1.00, 857.9, 292.0)">c</text><text xml:space="preserve" font-family="Futura-Medium" font-size="36.0" fill="#FEFFFF" transform="matrix(1.00, 0.00, -0.00, -1.00, 875.0, 292.0)">e</text><text xml:space="preserve" font-family="Futura-Medium" font-size="36.0" fill="#FEFFFF" transform="matrix(1.00, 0.00, -0.00, -1.00, 894.9, 292.0)">n</text><text xml:space="preserve" font-family="Futura-Medium" font-size="36.0" fill="#FEFFFF" transform="matrix(1.00, 0.00, -0.00, -1.00, 914.7, 292.0)">s</text><text xml:space="preserve" font-family="Futura-Medium" font-size="36.0" fill="#FEFFFF" transform="matrix(1.00, 0.00, -0.00, -1.00, 929.3, 292.0)">e</text><text xml:space="preserve" font-family="Futura-Medium" font-size="36.0" fill="#FEFFFF" transform="matrix(1.00, 0.00, -0.00, -1.00, 949.2, 292.0)">s</text><text xml:space="preserve" font-family="Futura-Medium" font-size="36.0" fill="#FEFFFF" transform="matrix(1.00, 0.00, -0.00, -1.00, 963.9, 292.0)">)</text><text xml:space="preserve" font-family="Futura-Medium" font-size="36.0" fill="#FEFFFF" transform="matrix(1.00, 0.00, -0.00, -1.00, 977.1, 292.0)"> </text><text xml:space="preserve" font-family="Futura-Medium" font-size="36.0" fill="#FEFFFF" transform="matrix(1.00, 0.00, -0.00, -1.00, 401.1, 235.6)">5</text><text xml:space="preserve" font-family="Futura-Medium" font-size="36.0" fill="#FEFFFF" transform="matrix(1.00, 0.00, -0.00, -1.00, 423.4, 235.6)">.</text><text xml:space="preserve" font-family="Futura-Medium" font-size="36.0" fill="#FEFFFF" transform="matrix(1.00, 0.00, -0.00, -1.00, 434.0, 236.0)">W</text><text xml:space="preserve" font-family="Futura-Medium" font-size="36.0" fill="#FEFFFF" transform="matrix(1.00, 0.00, -0.00, -1.00, 470.6, 236.0)">r</text><text xml:space="preserve" font-family="Futura-Medium" font-size="36.0" fill="#FEFFFF" transform="matrix(1.00, 0.00, -0.00, -1.00, 484.6, 236.0)">i</text><text xml:space="preserve" font-family="Futura-Medium" font-size="36.0" fill="#FEFFFF" transform="matrix(1.00, 0.00, -0.00, -1.00, 493.6, 236.0)">t</text><text xml:space="preserve" font-family="Futura-Medium" font-size="36.0" fill="#FEFFFF" transform="matrix(1.00, 0.00, -0.00, -1.00, 503.7, 236.0)">e</text><text xml:space="preserve" font-family="Futura-Medium" font-size="36.0" fill="#FEFFFF" transform="matrix(1.00, 0.00, -0.00, -1.00, 523.7, 236.0)"> </text><text xml:space="preserve" font-family="Futura-Medium" font-size="36.0" fill="#FEFFFF" transform="matrix(1.00, 0.00, -0.00, -1.00, 534.8, 236.0)">c</text><text xml:space="preserve" font-family="Futura-Medium" font-size="36.0" fill="#FEFFFF" transform="matrix(1.00, 0.00, -0.00, -1.00, 551.9, 236.0)">o</text><text xml:space="preserve" font-family="Futura-Medium" font-size="36.0" fill="#FEFFFF" transform="matrix(1.00, 0.00, -0.00, -1.00, 573.5, 236.0)">d</text><text xml:space="preserve" font-family="Futura-Medium" font-size="36.0" fill="#FEFFFF" transform="matrix(1.00, 0.00, -0.00, -1.00, 595.1, 236.0)">e</text><text xml:space="preserve" font-family="Futura-Medium" font-size="36.0" fill="#FEFFFF" transform="matrix(1.00, 0.00, -0.00, -1.00, 615.0, 236.0)">,</text><text xml:space="preserve" font-family="Futura-Medium" font-size="36.0" fill="#FEFFFF" transform="matrix(1.00, 0.00, -0.00, -1.00, 626.1, 236.0)"> </text><text xml:space="preserve" font-family="Futura-Medium" font-size="36.0" fill="#FEFFFF" transform="matrix(1.00, 0.00, -0.00, -1.00, 637.2, 236.0)">t</text><text xml:space="preserve" font-family="Futura-Medium" font-size="36.0" fill="#FEFFFF" transform="matrix(1.00, 0.00, -0.00, -1.00, 647.4, 236.0)">e</text><text xml:space="preserve" font-family="Futura-Medium" font-size="36.0" fill="#FEFFFF" transform="matrix(1.00, 0.00, -0.00, -1.00, 667.3, 236.0)">s</text><text xml:space="preserve" font-family="Futura-Medium" font-size="36.0" fill="#FEFFFF" transform="matrix(1.00, 0.00, -0.00, -1.00, 681.9, 236.0)">t</text><text xml:space="preserve" font-family="Futura-Medium" font-size="36.0" fill="#FEFFFF" transform="matrix(1.00, 0.00, -0.00, -1.00, 691.8, 236.0)">s</text><text xml:space="preserve" font-family="Futura-Medium" font-size="36.0" fill="#FEFFFF" transform="matrix(1.00, 0.00, -0.00, -1.00, 706.4, 236.0)">,</text><text xml:space="preserve" font-family="Futura-Medium" font-size="36.0" fill="#FEFFFF" transform="matrix(1.00, 0.00, -0.00, -1.00, 717.5, 236.0)"> </text><text xml:space="preserve" font-family="Futura-Medium" font-size="36.0" fill="#FEFFFF" transform="matrix(1.00, 0.00, -0.00, -1.00, 728.6, 236.0)">a</text><text xml:space="preserve" font-family="Futura-Medium" font-size="36.0" fill="#FEFFFF" transform="matrix(1.00, 0.00, -0.00, -1.00, 750.1, 236.0)">n</text><text xml:space="preserve" font-family="Futura-Medium" font-size="36.0" fill="#FEFFFF" transform="matrix(1.00, 0.00, -0.00, -1.00, 769.9, 236.0)">d</text><text xml:space="preserve" font-family="Futura-Medium" font-size="36.0" fill="#FEFFFF" transform="matrix(1.00, 0.00, -0.00, -1.00, 791.5, 236.0)"> </text><text xml:space="preserve" font-family="Futura-Medium" font-size="36.0" fill="#FEFFFF" transform="matrix(1.00, 0.00, -0.00, -1.00, 802.6, 236.0)">d</text><text xml:space="preserve" font-family="Futura-Medium" font-size="36.0" fill="#FEFFFF" transform="matrix(1.00, 0.00, -0.00, -1.00, 824.1, 236.0)">o</text><text xml:space="preserve" font-family="Futura-Medium" font-size="36.0" fill="#FEFFFF" transform="matrix(1.00, 0.00, -0.00, -1.00, 845.8, 236.0)">c</text><text xml:space="preserve" font-family="Futura-Medium" font-size="36.0" fill="#FEFFFF" transform="matrix(1.00, 0.00, -0.00, -1.00, 862.9, 236.0)">s</text><image xlink:href="../../2A9E6476-DC76-41D2-AD9C-3893B17A54AB/assets/88187DF64C7A26B83AD9F3E6C48C23A0.png" width="431.00" height="143.00" transform="matrix(1.00, 0.00, -0.00, -1.01, 434.0, 548.0)"></image><text xml:space="preserve" font-family="Arial-Black" font-weight="bold" font-size="36.0" fill="#FEFFFF" transform="matrix(1.00, 0.00, -0.00, -1.00, 47.0, 230.0)">H</text><text xml:space="preserve" font-family="Arial-Black" font-weight="bold" font-size="36.0" fill="#FEFFFF" transform="matrix(1.00, 0.00, -0.00, -1.00, 77.0, 230.0)">a</text><text xml:space="preserve" font-family="Arial-Black" font-weight="bold" font-size="36.0" fill="#FEFFFF" transform="matrix(1.00, 0.00, -0.00, -1.00, 101.0, 230.0)">r</text><text xml:space="preserve" font-family="Arial-Black" font-weight="bold" font-size="36.0" fill="#FEFFFF" transform="matrix(1.00, 0.00, -0.00, -1.00, 117.9, 230.0)">d</text><text xml:space="preserve" font-family="Arial-Black" font-weight="bold" font-size="36.0" fill="#FEFFFF" transform="matrix(1.00, 0.00, -0.00, -1.00, 141.9, 230.0)"> </text><text xml:space="preserve" font-family="Arial-Black" font-weight="bold" font-size="36.0" fill="#FEFFFF" transform="matrix(1.00, 0.00, -0.00, -1.00, 153.9, 230.0)">p</text><text xml:space="preserve" font-family="Arial-Black" font-weight="bold" font-size="36.0" fill="#FEFFFF" transform="matrix(1.00, 0.00, -0.00, -1.00, 177.9, 230.0)">a</text><text xml:space="preserve" font-family="Arial-Black" font-weight="bold" font-size="36.0" fill="#FEFFFF" transform="matrix(1.00, 0.00, -0.00, -1.00, 201.9, 230.0)">r</text><text xml:space="preserve" font-family="Arial-Black" font-weight="bold" font-size="36.0" fill="#FEFFFF" transform="matrix(1.00, 0.00, -0.00, -1.00, 219.7, 230.0)">t</text><text xml:space="preserve" font-family="Arial-Black" font-weight="bold" font-size="36.0" fill="#FEFFFF" transform="matrix(1.00, 0.00, -0.00, -1.00, 235.7, 230.0)">!</text><path d="M 310.5 228.6 L 310.5 194.6 L 374.5 244.6 L 310.5 294.6 L 310.5 260.6 L 274.5 260.6 L 274.5 228.6 Z M 310.5 228.6 " fill="#FEFFFE"></path></g></svg>