<?xml version="1.0" encoding="UTF-8" standalone="no"?><svg xmlns="http://www.w3.org/2000/svg" xmlns:xlink="http://www.w3.org/1999/xlink" clip-rule="evenodd" stroke-miterlimit="4.00" viewBox="0 0 1024 768"><desc>SVG generated by Keynote</desc><defs></defs><g transform="matrix(1.00, 0.00, -0.00, -1.00, 0.0, 768.0)"><path d="M 0.0 768.0 L 1024.0 768.0 L 1024.0 0.0 L 0.0 0.0 Z M 0.0 768.0 " fill="#000000"></path><image xlink:href="../../21F91CBF-6A6B-4380-BF10-DEF601042C3A/assets/A901B4D5BAF1C85417053928592CACE1.jpeg" width="780.00" height="461.00" transform="matrix(1.68, 0.00, -0.00, -1.67, -273.0, 770.0)"></image><text xml:space="preserve" font-family="Arial-Black" font-weight="bold" font-size="65.0" fill="#000000" transform="matrix(1.00, 0.00, -0.00, -1.00, 545.0, 706.0)">G</text><text xml:space="preserve" font-family="Arial-Black" font-weight="bold" font-size="65.0" fill="#000000" transform="matrix(1.00, 0.00, -0.00, -1.00, 599.1, 706.0)">e</text><text xml:space="preserve" font-family="Arial-Black" font-weight="bold" font-size="65.0" fill="#000000" transform="matrix(1.00, 0.00, -0.00, -1.00, 642.5, 706.0)">t</text><text xml:space="preserve" font-family="Arial-Black" font-weight="bold" font-size="65.0" fill="#000000" transform="matrix(1.00, 0.00, -0.00, -1.00, 671.3, 706.0)"> </text><text xml:space="preserve" font-family="Arial-Black" font-weight="bold" font-size="65.0" fill="#000000" transform="matrix(1.00, 0.00, -0.00, -1.00, 693.0, 706.0)">i</text><text xml:space="preserve" font-family="Arial-Black" font-weight="bold" font-size="65.0" fill="#000000" transform="matrix(1.00, 0.00, -0.00, -1.00, 714.7, 706.0)">n</text><text xml:space="preserve" font-family="Arial-Black" font-weight="bold" font-size="65.0" fill="#000000" transform="matrix(1.00, 0.00, -0.00, -1.00, 758.0, 706.0)"> </text><text xml:space="preserve" font-family="Arial-Black" font-weight="bold" font-size="65.0" fill="#000000" transform="matrix(1.00, 0.00, -0.00, -1.00, 779.8, 706.0)">t</text><text xml:space="preserve" font-family="Arial-Black" font-weight="bold" font-size="65.0" fill="#000000" transform="matrix(1.00, 0.00, -0.00, -1.00, 808.6, 706.0)">o</text><text xml:space="preserve" font-family="Arial-Black" font-weight="bold" font-size="65.0" fill="#000000" transform="matrix(1.00, 0.00, -0.00, -1.00, 851.9, 706.0)">u</text><text xml:space="preserve" font-family="Arial-Black" font-weight="bold" font-size="65.0" fill="#000000" transform="matrix(1.00, 0.00, -0.00, -1.00, 895.3, 706.0)">c</text><text xml:space="preserve" font-family="Arial-Black" font-weight="bold" font-size="65.0" fill="#000000" transform="matrix(1.00, 0.00, -0.00, -1.00, 937.5, 706.0)">h</text><text xml:space="preserve" font-family="Futura-Medium" font-size="49.0" fill="#603704" transform="matrix(1.00, 0.00, -0.00, -1.00, 522.2, 624.9)">t</text><text xml:space="preserve" font-family="Futura-Medium" font-size="49.0" fill="#603704" transform="matrix(1.00, 0.00, -0.00, -1.00, 535.6, 624.9)">w</text><text xml:space="preserve" font-family="Futura-Medium" font-size="49.0" fill="#603704" transform="matrix(1.00, 0.00, -0.00, -1.00, 573.5, 624.9)">i</text><text xml:space="preserve" font-family="Futura-Medium" font-size="49.0" fill="#603704" transform="matrix(1.00, 0.00, -0.00, -1.00, 585.7, 624.9)">t</text><text xml:space="preserve" font-family="Futura-Medium" font-size="49.0" fill="#603704" transform="matrix(1.00, 0.00, -0.00, -1.00, 599.1, 624.9)">t</text><text xml:space="preserve" font-family="Futura-Medium" font-size="49.0" fill="#603704" transform="matrix(1.00, 0.00, -0.00, -1.00, 613.0, 624.9)">e</text><text xml:space="preserve" font-family="Futura-Medium" font-size="49.0" fill="#603704" transform="matrix(1.00, 0.00, -0.00, -1.00, 640.1, 624.9)">r</text><text xml:space="preserve" font-family="Futura-Medium" font-size="49.0" fill="#603704" transform="matrix(1.00, 0.00, -0.00, -1.00, 655.8, 624.9)">.</text><text xml:space="preserve" font-family="Futura-Medium" font-size="49.0" fill="#603704" transform="matrix(1.00, 0.00, -0.00, -1.00, 670.9, 624.9)">c</text><text xml:space="preserve" font-family="Futura-Medium" font-size="49.0" fill="#603704" transform="matrix(1.00, 0.00, -0.00, -1.00, 694.2, 624.9)">o</text><text xml:space="preserve" font-family="Futura-Medium" font-size="49.0" fill="#603704" transform="matrix(1.00, 0.00, -0.00, -1.00, 723.7, 624.9)">m</text><text xml:space="preserve" font-family="Futura-Medium" font-size="49.0" fill="#603704" transform="matrix(1.00, 0.00, -0.00, -1.00, 762.5, 624.9)">/</text><text xml:space="preserve" font-family="Futura-Medium" font-size="49.0" fill="#603704" transform="matrix(1.00, 0.00, -0.00, -1.00, 787.9, 624.9)">n</text><text xml:space="preserve" font-family="Futura-Medium" font-size="49.0" fill="#603704" transform="matrix(1.00, 0.00, -0.00, -1.00, 814.7, 624.9)">e</text><text xml:space="preserve" font-family="Futura-Medium" font-size="49.0" fill="#603704" transform="matrix(1.00, 0.00, -0.00, -1.00, 840.9, 624.9)">x</text><text xml:space="preserve" font-family="Futura-Medium" font-size="49.0" fill="#603704" transform="matrix(1.00, 0.00, -0.00, -1.00, 868.3, 624.9)">d</text><text xml:space="preserve" font-family="Futura-Medium" font-size="49.0" fill="#603704" transform="matrix(1.00, 0.00, -0.00, -1.00, 897.6, 624.9)">r</text><text xml:space="preserve" font-family="Futura-Medium" font-size="49.0" fill="#603704" transform="matrix(1.00, 0.00, -0.00, -1.00, 915.6, 624.9)">e</text><text xml:space="preserve" font-family="Futura-Medium" font-size="49.0" fill="#603704" transform="matrix(1.00, 0.00, -0.00, -1.00, 942.0, 624.9)">w</text><text xml:space="preserve" font-family="Futura-Medium" font-size="49.0" fill="#603704" transform="matrix(1.00, 0.00, -0.00, -1.00, 979.9, 624.9)"> </text><g><clipPath id="clip-270"><path d="M 521.2 617.2 L 979.9 617.2 L 979.9 623.0 L 521.2 623.0 Z M 521.2 617.2 "></path></clipPath><g clip-path="url(#clip-270)"><path d="M 38.1 59.6 L 495.8 59.6 " fill="none" stroke="#603704" stroke-width="3.83" stroke-miterlimit="0.00" transform="matrix(1.00, 0.00, 0.00, -1.00, 484.0, 679.7)"></path></g></g><text xml:space="preserve" font-family="Futura-Medium" font-size="49.0" fill="#603704" transform="matrix(1.00, 0.00, -0.00, -1.00, 516.9, 547.2)">g</text><text xml:space="preserve" font-family="Futura-Medium" font-size="49.0" fill="#603704" transform="matrix(1.00, 0.00, -0.00, -1.00, 546.2, 547.2)">i</text><text xml:space="preserve" font-family="Futura-Medium" font-size="49.0" fill="#603704" transform="matrix(1.00, 0.00, -0.00, -1.00, 558.4, 547.2)">t</text><text xml:space="preserve" font-family="Futura-Medium" font-size="49.0" fill="#603704" transform="matrix(1.00, 0.00, -0.00, -1.00, 572.8, 547.2)">h</text><text xml:space="preserve" font-family="Futura-Medium" font-size="49.0" fill="#603704" transform="matrix(1.00, 0.00, -0.00, -1.00, 599.7, 547.2)">u</text><text xml:space="preserve" font-family="Futura-Medium" font-size="49.0" fill="#603704" transform="matrix(1.00, 0.00, -0.00, -1.00, 626.4, 547.2)">b</text><text xml:space="preserve" font-family="Futura-Medium" font-size="49.0" fill="#603704" transform="matrix(1.00, 0.00, -0.00, -1.00, 655.7, 547.2)">.</text><text xml:space="preserve" font-family="Futura-Medium" font-size="49.0" fill="#603704" transform="matrix(1.00, 0.00, -0.00, -1.00, 670.8, 547.2)">c</text><text xml:space="preserve" font-family="Futura-Medium" font-size="49.0" fill="#603704" transform="matrix(1.00, 0.00, -0.00, -1.00, 694.2, 547.2)">o</text><text xml:space="preserve" font-family="Futura-Medium" font-size="49.0" fill="#603704" transform="matrix(1.00, 0.00, -0.00, -1.00, 723.6, 547.2)">m</text><text xml:space="preserve" font-family="Futura-Medium" font-size="49.0" fill="#603704" transform="matrix(1.00, 0.00, -0.00, -1.00, 762.4, 547.2)">/</text><text xml:space="preserve" font-family="Futura-Medium" font-size="49.0" fill="#603704" transform="matrix(1.00, 0.00, -0.00, -1.00, 787.8, 547.2)">n</text><text xml:space="preserve" font-family="Futura-Medium" font-size="49.0" fill="#603704" transform="matrix(1.00, 0.00, -0.00, -1.00, 814.7, 547.2)">e</text><text xml:space="preserve" font-family="Futura-Medium" font-size="49.0" fill="#603704" transform="matrix(1.00, 0.00, -0.00, -1.00, 840.9, 547.2)">x</text><text xml:space="preserve" font-family="Futura-Medium" font-size="49.0" fill="#603704" transform="matrix(1.00, 0.00, -0.00, -1.00, 868.2, 547.2)">d</text><text xml:space="preserve" font-family="Futura-Medium" font-size="49.0" fill="#603704" transform="matrix(1.00, 0.00, -0.00, -1.00, 897.6, 547.2)">r</text><text xml:space="preserve" font-family="Futura-Medium" font-size="49.0" fill="#603704" transform="matrix(1.00, 0.00, -0.00, -1.00, 915.6, 547.2)">e</text><text xml:space="preserve" font-family="Futura-Medium" font-size="49.0" fill="#603704" transform="matrix(1.00, 0.00, -0.00, -1.00, 941.9, 547.2)">w</text><g><clipPath id="clip-271"><path d="M 515.9 539.5 L 979.9 539.5 L 979.9 545.3 L 515.9 545.3 Z M 515.9 539.5 "></path></clipPath><g clip-path="url(#clip-271)"><path d="M 32.8 137.3 L 495.8 137.3 " fill="none" stroke="#603704" stroke-width="3.83" stroke-miterlimit="0.00" transform="matrix(1.00, 0.00, 0.00, -1.00, 484.0, 679.7)"></path></g></g></g></svg>