<?xml version="1.0" encoding="UTF-8" standalone="no"?><svg xmlns="http://www.w3.org/2000/svg" xmlns:xlink="http://www.w3.org/1999/xlink" clip-rule="evenodd" stroke-miterlimit="4.00" viewBox="0 0 1024 768"><desc>SVG generated by Keynote</desc><defs></defs><g transform="matrix(1.00, 0.00, -0.00, -1.00, 0.0, 768.0)"><path d="M 0.0 768.0 L 1024.0 768.0 L 1024.0 0.0 L 0.0 0.0 Z M 0.0 768.0 " fill="#000000"></path><image xlink:href="../../D5FEDDF2-B201-4664-969D-7CB045047AC3/assets/C4201017A772A1E7FC2887391F40F0AC.jpeg" width="745.00" height="493.00" transform="matrix(1.83, 0.00, -0.00, -1.83, -334.0, 780.0)"></image><text xml:space="preserve" font-family="Arial-Black" font-weight="bold" font-size="65.0" fill="#000000" transform="matrix(1.00, 0.00, -0.00, -1.00, 463.0, 697.0)">H</text><text xml:space="preserve" font-family="Arial-Black" font-weight="bold" font-size="65.0" fill="#000000" transform="matrix(1.00, 0.00, -0.00, -1.00, 517.1, 697.0)">o</text><text xml:space="preserve" font-family="Arial-Black" font-weight="bold" font-size="65.0" fill="#000000" transform="matrix(1.00, 0.00, -0.00, -1.00, 559.3, 697.0)">w</text><text xml:space="preserve" font-family="Arial-Black" font-weight="bold" font-size="65.0" fill="#000000" transform="matrix(1.00, 0.00, -0.00, -1.00, 620.7, 697.0)"> </text><text xml:space="preserve" font-family="Arial-Black" font-weight="bold" font-size="65.0" fill="#000000" transform="matrix(1.00, 0.00, -0.00, -1.00, 642.4, 697.0)">t</text><text xml:space="preserve" font-family="Arial-Black" font-weight="bold" font-size="65.0" fill="#000000" transform="matrix(1.00, 0.00, -0.00, -1.00, 671.2, 697.0)">o</text><text xml:space="preserve" font-family="Arial-Black" font-weight="bold" font-size="65.0" fill="#000000" transform="matrix(1.00, 0.00, -0.00, -1.00, 714.6, 697.0)"> </text><text xml:space="preserve" font-family="Arial-Black" font-weight="bold" font-size="65.0" fill="#000000" transform="matrix(1.00, 0.00, -0.00, -1.00, 736.3, 697.0)">a</text><text xml:space="preserve" font-family="Arial-Black" font-weight="bold" font-size="65.0" fill="#000000" transform="matrix(1.00, 0.00, -0.00, -1.00, 779.6, 697.0)">d</text><text xml:space="preserve" font-family="Arial-Black" font-weight="bold" font-size="65.0" fill="#000000" transform="matrix(1.00, 0.00, -0.00, -1.00, 823.6, 697.0)">d</text><text xml:space="preserve" font-family="Arial-Black" font-weight="bold" font-size="65.0" fill="#000000" transform="matrix(1.00, 0.00, -0.00, -1.00, 867.0, 697.0)"> </text><text xml:space="preserve" font-family="Arial-Black" font-weight="bold" font-size="65.0" fill="#000000" transform="matrix(1.00, 0.00, -0.00, -1.00, 888.7, 697.0)">C</text><text xml:space="preserve" font-family="Arial-Black" font-weight="bold" font-size="65.0" fill="#000000" transform="matrix(1.00, 0.00, -0.00, -1.00, 939.2, 697.0)">I</text><text xml:space="preserve" font-family="Arial-Black" font-weight="bold" font-size="65.0" fill="#000000" transform="matrix(1.00, 0.00, -0.00, -1.00, 964.5, 697.0)">?</text><text xml:space="preserve" font-family="Futura-Medium" font-size="49.0" fill="#FEFFFF" transform="matrix(1.00, 0.00, -0.00, -1.00, 565.9, 613.9)">G</text><text xml:space="preserve" font-family="Futura-Medium" font-size="49.0" fill="#FEFFFF" transform="matrix(1.00, 0.00, -0.00, -1.00, 607.2, 613.9)">i</text><text xml:space="preserve" font-family="Futura-Medium" font-size="49.0" fill="#FEFFFF" transform="matrix(1.00, 0.00, -0.00, -1.00, 619.4, 613.9)">t</text><text xml:space="preserve" font-family="Futura-Medium" font-size="49.0" fill="#FEFFFF" transform="matrix(1.00, 0.00, -0.00, -1.00, 632.9, 613.9)">H</text><text xml:space="preserve" font-family="Futura-Medium" font-size="49.0" fill="#FEFFFF" transform="matrix(1.00, 0.00, -0.00, -1.00, 668.8, 613.9)">u</text><text xml:space="preserve" font-family="Futura-Medium" font-size="49.0" fill="#FEFFFF" transform="matrix(1.00, 0.00, -0.00, -1.00, 695.5, 613.9)">b</text><text xml:space="preserve" font-family="Futura-Medium" font-size="49.0" fill="#FEFFFF" transform="matrix(1.00, 0.00, -0.00, -1.00, 724.9, 613.9)"> </text><text xml:space="preserve" font-family="Futura-Medium" font-size="49.0" fill="#FEFFFF" transform="matrix(1.00, 0.00, -0.00, -1.00, 740.0, 613.9)">+</text><text xml:space="preserve" font-family="Futura-Medium" font-size="49.0" fill="#FEFFFF" transform="matrix(1.00, 0.00, -0.00, -1.00, 770.2, 613.9)"> </text><text xml:space="preserve" font-family="Futura-Medium" font-size="49.0" fill="#FEFFFF" transform="matrix(1.00, 0.00, -0.00, -1.00, 785.3, 613.9)">T</text><text xml:space="preserve" font-family="Futura-Medium" font-size="49.0" fill="#FEFFFF" transform="matrix(1.00, 0.00, -0.00, -1.00, 807.3, 613.9)">r</text><text xml:space="preserve" font-family="Futura-Medium" font-size="49.0" fill="#FEFFFF" transform="matrix(1.00, 0.00, -0.00, -1.00, 825.3, 613.9)">a</text><text xml:space="preserve" font-family="Futura-Medium" font-size="49.0" fill="#FEFFFF" transform="matrix(1.00, 0.00, -0.00, -1.00, 855.1, 613.9)">v</text><text xml:space="preserve" font-family="Futura-Medium" font-size="49.0" fill="#FEFFFF" transform="matrix(1.00, 0.00, -0.00, -1.00, 879.7, 613.9)">i</text><text xml:space="preserve" font-family="Futura-Medium" font-size="49.0" fill="#FEFFFF" transform="matrix(1.00, 0.00, -0.00, -1.00, 891.9, 613.9)">s</text><text xml:space="preserve" font-family="Futura-Medium" font-size="49.0" fill="#FEFFFF" transform="matrix(1.00, 0.00, -0.00, -1.00, 911.8, 613.9)"> </text><text xml:space="preserve" font-family="Futura-Medium" font-size="49.0" fill="#FEFFFF" transform="matrix(1.00, 0.00, -0.00, -1.00, 926.9, 613.9)">C</text><text xml:space="preserve" font-family="Futura-Medium" font-size="49.0" fill="#FEFFFF" transform="matrix(1.00, 0.00, -0.00, -1.00, 961.2, 613.9)">I</text><text xml:space="preserve" font-family="Futura-Medium" font-size="49.0" fill="#FEFFFF" transform="matrix(1.00, 0.00, -0.00, -1.00, 975.7, 613.9)"> </text><g><clipPath id="clip-156"><path d="M 564.9 606.2 L 975.7 606.2 L 975.7 612.0 L 564.9 612.0 Z M 564.9 606.2 "></path></clipPath><g clip-path="url(#clip-156)"><path d="M 229.8 59.6 L 639.6 59.6 " fill="none" stroke="#FEFFFF" stroke-width="3.83" stroke-miterlimit="0.00" transform="matrix(1.00, 0.00, 0.00, -1.00, 336.1, 668.7)"></path></g></g><text xml:space="preserve" font-family="Futura-Medium" font-size="49.0" fill="#FEFFFF" transform="matrix(1.00, 0.00, -0.00, -1.00, 359.1, 380.8)">3</text><text xml:space="preserve" font-family="Futura-Medium" font-size="49.0" fill="#FEFFFF" transform="matrix(1.00, 0.00, -0.00, -1.00, 389.4, 380.8)">.</text><text xml:space="preserve" font-family="Futura-Medium" font-size="49.0" fill="#FEFFFF" transform="matrix(1.00, 0.00, -0.00, -1.00, 404.5, 380.8)"> </text><text xml:space="preserve" font-family="Futura-Medium" font-size="49.0" fill="#FEFFFF" transform="matrix(1.00, 0.00, -0.00, -1.00, 419.6, 380.8)"> </text><text xml:space="preserve" font-family="Futura-Medium" font-size="49.0" fill="#FEFFFF" transform="matrix(1.00, 0.00, -0.00, -1.00, 434.7, 380.8)"> </text><text xml:space="preserve" font-family="Futura-Medium" font-size="49.0" fill="#FEFFFF" transform="matrix(1.00, 0.00, -0.00, -1.00, 449.8, 380.8)"> </text><text xml:space="preserve" font-family="Futura-Medium" font-size="49.0" fill="#FEFFFF" transform="matrix(1.00, 0.00, -0.00, -1.00, 464.9, 380.8)">C</text><text xml:space="preserve" font-family="Futura-Medium" font-size="49.0" fill="#FEFFFF" transform="matrix(1.00, 0.00, -0.00, -1.00, 499.2, 380.8)">h</text><text xml:space="preserve" font-family="Futura-Medium" font-size="49.0" fill="#FEFFFF" transform="matrix(1.00, 0.00, -0.00, -1.00, 526.1, 380.8)">e</text><text xml:space="preserve" font-family="Futura-Medium" font-size="49.0" fill="#FEFFFF" transform="matrix(1.00, 0.00, -0.00, -1.00, 553.2, 380.8)">c</text><text xml:space="preserve" font-family="Futura-Medium" font-size="49.0" fill="#FEFFFF" transform="matrix(1.00, 0.00, -0.00, -1.00, 577.8, 380.8)">k</text><text xml:space="preserve" font-family="Futura-Medium" font-size="49.0" fill="#FEFFFF" transform="matrix(1.00, 0.00, -0.00, -1.00, 602.2, 380.8)"> </text><text xml:space="preserve" font-family="Futura-Medium" font-size="49.0" fill="#FEFFFF" transform="matrix(1.00, 0.00, -0.00, -1.00, 617.3, 380.8)">s</text><text xml:space="preserve" font-family="Futura-Medium" font-size="49.0" fill="#FEFFFF" transform="matrix(1.00, 0.00, -0.00, -1.00, 637.2, 380.8)">e</text><text xml:space="preserve" font-family="Futura-Medium" font-size="49.0" fill="#FEFFFF" transform="matrix(1.00, 0.00, -0.00, -1.00, 664.7, 380.8)">t</text><text xml:space="preserve" font-family="Futura-Medium" font-size="49.0" fill="#FEFFFF" transform="matrix(1.00, 0.00, -0.00, -1.00, 678.1, 380.8)">t</text><text xml:space="preserve" font-family="Futura-Medium" font-size="49.0" fill="#FEFFFF" transform="matrix(1.00, 0.00, -0.00, -1.00, 691.6, 380.8)">i</text><text xml:space="preserve" font-family="Futura-Medium" font-size="49.0" fill="#FEFFFF" transform="matrix(1.00, 0.00, -0.00, -1.00, 703.8, 380.8)">n</text><text xml:space="preserve" font-family="Futura-Medium" font-size="49.0" fill="#FEFFFF" transform="matrix(1.00, 0.00, -0.00, -1.00, 730.6, 380.8)">g</text><text xml:space="preserve" font-family="Futura-Medium" font-size="49.0" fill="#FEFFFF" transform="matrix(1.00, 0.00, -0.00, -1.00, 759.9, 380.8)">s</text><text xml:space="preserve" font-family="Futura-Medium" font-size="49.0" fill="#FEFFFF" transform="matrix(1.00, 0.00, -0.00, -1.00, 779.8, 380.8)"> </text><text xml:space="preserve" font-family="Futura-Medium" font-size="49.0" fill="#FEFFFF" transform="matrix(1.00, 0.00, -0.00, -1.00, 794.9, 380.8)">i</text><text xml:space="preserve" font-family="Futura-Medium" font-size="49.0" fill="#FEFFFF" transform="matrix(1.00, 0.00, -0.00, -1.00, 807.1, 380.8)">n</text><text xml:space="preserve" font-family="Futura-Medium" font-size="49.0" fill="#FEFFFF" transform="matrix(1.00, 0.00, -0.00, -1.00, 834.0, 380.8)"> </text><text xml:space="preserve" font-family="Futura-Medium" font-size="49.0" fill="#FEFFFF" transform="matrix(1.00, 0.00, -0.00, -1.00, 849.1, 380.8)">T</text><text xml:space="preserve" font-family="Futura-Medium" font-size="49.0" fill="#FEFFFF" transform="matrix(1.00, 0.00, -0.00, -1.00, 871.1, 380.8)">r</text><text xml:space="preserve" font-family="Futura-Medium" font-size="49.0" fill="#FEFFFF" transform="matrix(1.00, 0.00, -0.00, -1.00, 889.1, 380.8)">a</text><text xml:space="preserve" font-family="Futura-Medium" font-size="49.0" fill="#FEFFFF" transform="matrix(1.00, 0.00, -0.00, -1.00, 918.9, 380.8)">v</text><text xml:space="preserve" font-family="Futura-Medium" font-size="49.0" fill="#FEFFFF" transform="matrix(1.00, 0.00, -0.00, -1.00, 943.5, 380.8)">i</text><text xml:space="preserve" font-family="Futura-Medium" font-size="49.0" fill="#FEFFFF" transform="matrix(1.00, 0.00, -0.00, -1.00, 955.7, 380.8)">s</text><image xlink:href="28B66ECA12828AD7C252E722FBF5EF78.png" width="862.00" height="352.00" transform="matrix(1.00, 0.00, -0.00, -1.00, 162.0, 357.0)"></image></g></svg>