<?xml version="1.0" encoding="UTF-8" standalone="no"?><svg xmlns="http://www.w3.org/2000/svg" xmlns:xlink="http://www.w3.org/1999/xlink" clip-rule="evenodd" stroke-miterlimit="4.00" viewBox="0 0 1024 768"><desc>SVG generated by Keynote</desc><defs></defs><g transform="matrix(1.00, 0.00, -0.00, -1.00, 0.0, 768.0)"><path d="M 0.0 768.0 L 1024.0 768.0 L 1024.0 0.0 L 0.0 0.0 Z M 0.0 768.0 " fill="#000000"></path><image xlink:href="../../D5FEDDF2-B201-4664-969D-7CB045047AC3/assets/C4201017A772A1E7FC2887391F40F0AC.jpeg" width="745.00" height="493.00" transform="matrix(1.83, 0.00, -0.00, -1.83, -334.0, 780.0)"></image><text xml:space="preserve" font-family="Arial-Black" font-weight="bold" font-size="65.0" fill="#000000" transform="matrix(1.00, 0.00, -0.00, -1.00, 463.0, 697.0)">H</text><text xml:space="preserve" font-family="Arial-Black" font-weight="bold" font-size="65.0" fill="#000000" transform="matrix(1.00, 0.00, -0.00, -1.00, 517.1, 697.0)">o</text><text xml:space="preserve" font-family="Arial-Black" font-weight="bold" font-size="65.0" fill="#000000" transform="matrix(1.00, 0.00, -0.00, -1.00, 559.3, 697.0)">w</text><text xml:space="preserve" font-family="Arial-Black" font-weight="bold" font-size="65.0" fill="#000000" transform="matrix(1.00, 0.00, -0.00, -1.00, 620.7, 697.0)"> </text><text xml:space="preserve" font-family="Arial-Black" font-weight="bold" font-size="65.0" fill="#000000" transform="matrix(1.00, 0.00, -0.00, -1.00, 642.4, 697.0)">t</text><text xml:space="preserve" font-family="Arial-Black" font-weight="bold" font-size="65.0" fill="#000000" transform="matrix(1.00, 0.00, -0.00, -1.00, 671.2, 697.0)">o</text><text xml:space="preserve" font-family="Arial-Black" font-weight="bold" font-size="65.0" fill="#000000" transform="matrix(1.00, 0.00, -0.00, -1.00, 714.6, 697.0)"> </text><text xml:space="preserve" font-family="Arial-Black" font-weight="bold" font-size="65.0" fill="#000000" transform="matrix(1.00, 0.00, -0.00, -1.00, 736.3, 697.0)">a</text><text xml:space="preserve" font-family="Arial-Black" font-weight="bold" font-size="65.0" fill="#000000" transform="matrix(1.00, 0.00, -0.00, -1.00, 779.6, 697.0)">d</text><text xml:space="preserve" font-family="Arial-Black" font-weight="bold" font-size="65.0" fill="#000000" transform="matrix(1.00, 0.00, -0.00, -1.00, 823.6, 697.0)">d</text><text xml:space="preserve" font-family="Arial-Black" font-weight="bold" font-size="65.0" fill="#000000" transform="matrix(1.00, 0.00, -0.00, -1.00, 867.0, 697.0)"> </text><text xml:space="preserve" font-family="Arial-Black" font-weight="bold" font-size="65.0" fill="#000000" transform="matrix(1.00, 0.00, -0.00, -1.00, 888.7, 697.0)">C</text><text xml:space="preserve" font-family="Arial-Black" font-weight="bold" font-size="65.0" fill="#000000" transform="matrix(1.00, 0.00, -0.00, -1.00, 939.2, 697.0)">I</text><text xml:space="preserve" font-family="Arial-Black" font-weight="bold" font-size="65.0" fill="#000000" transform="matrix(1.00, 0.00, -0.00, -1.00, 964.5, 697.0)">?</text><text xml:space="preserve" font-family="Futura-Medium" font-size="49.0" fill="#FEFFFF" transform="matrix(1.00, 0.00, -0.00, -1.00, 565.9, 613.9)">G</text><text xml:space="preserve" font-family="Futura-Medium" font-size="49.0" fill="#FEFFFF" transform="matrix(1.00, 0.00, -0.00, -1.00, 607.2, 613.9)">i</text><text xml:space="preserve" font-family="Futura-Medium" font-size="49.0" fill="#FEFFFF" transform="matrix(1.00, 0.00, -0.00, -1.00, 619.4, 613.9)">t</text><text xml:space="preserve" font-family="Futura-Medium" font-size="49.0" fill="#FEFFFF" transform="matrix(1.00, 0.00, -0.00, -1.00, 632.9, 613.9)">H</text><text xml:space="preserve" font-family="Futura-Medium" font-size="49.0" fill="#FEFFFF" transform="matrix(1.00, 0.00, -0.00, -1.00, 668.8, 613.9)">u</text><text xml:space="preserve" font-family="Futura-Medium" font-size="49.0" fill="#FEFFFF" transform="matrix(1.00, 0.00, -0.00, -1.00, 695.5, 613.9)">b</text><text xml:space="preserve" font-family="Futura-Medium" font-size="49.0" fill="#FEFFFF" transform="matrix(1.00, 0.00, -0.00, -1.00, 724.9, 613.9)"> </text><text xml:space="preserve" font-family="Futura-Medium" font-size="49.0" fill="#FEFFFF" transform="matrix(1.00, 0.00, -0.00, -1.00, 740.0, 613.9)">+</text><text xml:space="preserve" font-family="Futura-Medium" font-size="49.0" fill="#FEFFFF" transform="matrix(1.00, 0.00, -0.00, -1.00, 770.2, 613.9)"> </text><text xml:space="preserve" font-family="Futura-Medium" font-size="49.0" fill="#FEFFFF" transform="matrix(1.00, 0.00, -0.00, -1.00, 785.3, 613.9)">T</text><text xml:space="preserve" font-family="Futura-Medium" font-size="49.0" fill="#FEFFFF" transform="matrix(1.00, 0.00, -0.00, -1.00, 807.3, 613.9)">r</text><text xml:space="preserve" font-family="Futura-Medium" font-size="49.0" fill="#FEFFFF" transform="matrix(1.00, 0.00, -0.00, -1.00, 825.3, 613.9)">a</text><text xml:space="preserve" font-family="Futura-Medium" font-size="49.0" fill="#FEFFFF" transform="matrix(1.00, 0.00, -0.00, -1.00, 855.1, 613.9)">v</text><text xml:space="preserve" font-family="Futura-Medium" font-size="49.0" fill="#FEFFFF" transform="matrix(1.00, 0.00, -0.00, -1.00, 879.7, 613.9)">i</text><text xml:space="preserve" font-family="Futura-Medium" font-size="49.0" fill="#FEFFFF" transform="matrix(1.00, 0.00, -0.00, -1.00, 891.9, 613.9)">s</text><text xml:space="preserve" font-family="Futura-Medium" font-size="49.0" fill="#FEFFFF" transform="matrix(1.00, 0.00, -0.00, -1.00, 911.8, 613.9)"> </text><text xml:space="preserve" font-family="Futura-Medium" font-size="49.0" fill="#FEFFFF" transform="matrix(1.00, 0.00, -0.00, -1.00, 926.9, 613.9)">C</text><text xml:space="preserve" font-family="Futura-Medium" font-size="49.0" fill="#FEFFFF" transform="matrix(1.00, 0.00, -0.00, -1.00, 961.2, 613.9)">I</text><text xml:space="preserve" font-family="Futura-Medium" font-size="49.0" fill="#FEFFFF" transform="matrix(1.00, 0.00, -0.00, -1.00, 975.7, 613.9)"> </text><g><clipPath id="clip-151"><path d="M 564.9 606.2 L 975.7 606.2 L 975.7 612.0 L 564.9 612.0 Z M 564.9 606.2 "></path></clipPath><g clip-path="url(#clip-151)"><path d="M 209.8 59.6 L 619.6 59.6 " fill="none" stroke="#FEFFFF" stroke-width="3.83" stroke-miterlimit="0.00" transform="matrix(1.00, 0.00, 0.00, -1.00, 356.1, 668.7)"></path></g></g><text xml:space="preserve" font-family="Futura-Medium" font-size="49.0" fill="#FEFFFF" transform="matrix(1.00, 0.00, -0.00, -1.00, 360.1, 536.2)">1</text><text xml:space="preserve" font-family="Futura-Medium" font-size="49.0" fill="#FEFFFF" transform="matrix(1.00, 0.00, -0.00, -1.00, 387.5, 536.2)">.</text><text xml:space="preserve" font-family="Futura-Medium" font-size="49.0" fill="#FEFFFF" transform="matrix(1.00, 0.00, -0.00, -1.00, 418.7, 536.2)">A</text><text xml:space="preserve" font-family="Futura-Medium" font-size="49.0" fill="#FEFFFF" transform="matrix(1.00, 0.00, -0.00, -1.00, 454.9, 536.2)">d</text><text xml:space="preserve" font-family="Futura-Medium" font-size="49.0" fill="#FEFFFF" transform="matrix(1.00, 0.00, -0.00, -1.00, 484.3, 536.2)">d</text><text xml:space="preserve" font-family="Futura-Medium" font-size="49.0" fill="#FEFFFF" transform="matrix(1.00, 0.00, -0.00, -1.00, 513.7, 536.2)"> </text><text xml:space="preserve" font-family="Inconsolata" font-size="49.0" fill="#FEFFFF" transform="matrix(1.00, 0.00, -0.00, -1.00, 528.8, 536.2)">.</text><text xml:space="preserve" font-family="Inconsolata" font-size="49.0" fill="#FEFFFF" transform="matrix(1.00, 0.00, -0.00, -1.00, 553.3, 536.2)">t</text><text xml:space="preserve" font-family="Inconsolata" font-size="49.0" fill="#FEFFFF" transform="matrix(1.00, 0.00, -0.00, -1.00, 577.8, 536.2)">r</text><text xml:space="preserve" font-family="Inconsolata" font-size="49.0" fill="#FEFFFF" transform="matrix(1.00, 0.00, -0.00, -1.00, 602.3, 536.2)">a</text><text xml:space="preserve" font-family="Inconsolata" font-size="49.0" fill="#FEFFFF" transform="matrix(1.00, 0.00, -0.00, -1.00, 626.8, 536.2)">v</text><text xml:space="preserve" font-family="Inconsolata" font-size="49.0" fill="#FEFFFF" transform="matrix(1.00, 0.00, -0.00, -1.00, 651.3, 536.2)">i</text><text xml:space="preserve" font-family="Inconsolata" font-size="49.0" fill="#FEFFFF" transform="matrix(1.00, 0.00, -0.00, -1.00, 675.8, 536.2)">s</text><text xml:space="preserve" font-family="Inconsolata" font-size="49.0" fill="#FEFFFF" transform="matrix(1.00, 0.00, -0.00, -1.00, 700.3, 536.2)">.</text><text xml:space="preserve" font-family="Inconsolata" font-size="49.0" fill="#FEFFFF" transform="matrix(1.00, 0.00, -0.00, -1.00, 724.8, 536.2)">y</text><text xml:space="preserve" font-family="Inconsolata" font-size="49.0" fill="#FEFFFF" transform="matrix(1.00, 0.00, -0.00, -1.00, 749.3, 536.2)">m</text><text xml:space="preserve" font-family="Inconsolata" font-size="49.0" fill="#FEFFFF" transform="matrix(1.00, 0.00, -0.00, -1.00, 773.8, 536.2)">l</text><text xml:space="preserve" font-family="Futura-Medium" font-size="49.0" fill="#FEFFFF" transform="matrix(1.00, 0.00, -0.00, -1.00, 798.3, 536.2)"> </text><text xml:space="preserve" font-family="Futura-Medium" font-size="49.0" fill="#FEFFFF" transform="matrix(1.00, 0.00, -0.00, -1.00, 813.4, 536.2)">t</text><text xml:space="preserve" font-family="Futura-Medium" font-size="49.0" fill="#FEFFFF" transform="matrix(1.00, 0.00, -0.00, -1.00, 827.2, 536.2)">o</text><text xml:space="preserve" font-family="Futura-Medium" font-size="49.0" fill="#FEFFFF" transform="matrix(1.00, 0.00, -0.00, -1.00, 856.7, 536.2)"> </text><text xml:space="preserve" font-family="Futura-Medium" font-size="49.0" fill="#FEFFFF" transform="matrix(1.00, 0.00, -0.00, -1.00, 871.8, 536.2)">r</text><text xml:space="preserve" font-family="Futura-Medium" font-size="49.0" fill="#FEFFFF" transform="matrix(1.00, 0.00, -0.00, -1.00, 889.8, 536.2)">e</text><text xml:space="preserve" font-family="Futura-Medium" font-size="49.0" fill="#FEFFFF" transform="matrix(1.00, 0.00, -0.00, -1.00, 916.9, 536.2)">p</text><text xml:space="preserve" font-family="Futura-Medium" font-size="49.0" fill="#FEFFFF" transform="matrix(1.00, 0.00, -0.00, -1.00, 946.3, 536.2)">o</text><text xml:space="preserve" font-family="Futura-Medium" font-size="49.0" fill="#FEFFFF" transform="matrix(1.00, 0.00, -0.00, -1.00, 975.8, 536.2)"> </text><text xml:space="preserve" font-family="Futura-Medium" font-size="49.0" fill="#FEFFFF" transform="matrix(1.00, 0.00, -0.00, -1.00, 360.1, 455.5)">2</text><text xml:space="preserve" font-family="Futura-Medium" font-size="49.0" fill="#FEFFFF" transform="matrix(1.00, 0.00, -0.00, -1.00, 390.4, 455.5)">.</text><text xml:space="preserve" font-family="Futura-Medium" font-size="49.0" fill="#FEFFFF" transform="matrix(1.00, 0.00, -0.00, -1.00, 425.0, 455.5)">E</text><text xml:space="preserve" font-family="Futura-Medium" font-size="49.0" fill="#FEFFFF" transform="matrix(1.00, 0.00, -0.00, -1.00, 452.8, 455.5)">n</text><text xml:space="preserve" font-family="Futura-Medium" font-size="49.0" fill="#FEFFFF" transform="matrix(1.00, 0.00, -0.00, -1.00, 479.6, 455.5)">a</text><text xml:space="preserve" font-family="Futura-Medium" font-size="49.0" fill="#FEFFFF" transform="matrix(1.00, 0.00, -0.00, -1.00, 509.0, 455.5)">b</text><text xml:space="preserve" font-family="Futura-Medium" font-size="49.0" fill="#FEFFFF" transform="matrix(1.00, 0.00, -0.00, -1.00, 538.4, 455.5)">l</text><text xml:space="preserve" font-family="Futura-Medium" font-size="49.0" fill="#FEFFFF" transform="matrix(1.00, 0.00, -0.00, -1.00, 550.6, 455.5)">e</text><text xml:space="preserve" font-family="Futura-Medium" font-size="49.0" fill="#FEFFFF" transform="matrix(1.00, 0.00, -0.00, -1.00, 577.7, 455.5)"> </text><text xml:space="preserve" font-family="Futura-Medium" font-size="49.0" fill="#FEFFFF" transform="matrix(1.00, 0.00, -0.00, -1.00, 592.8, 455.5)">s</text><text xml:space="preserve" font-family="Futura-Medium" font-size="49.0" fill="#FEFFFF" transform="matrix(1.00, 0.00, -0.00, -1.00, 612.7, 455.5)">e</text><text xml:space="preserve" font-family="Futura-Medium" font-size="49.0" fill="#FEFFFF" transform="matrix(1.00, 0.00, -0.00, -1.00, 639.8, 455.5)">r</text><text xml:space="preserve" font-family="Futura-Medium" font-size="49.0" fill="#FEFFFF" transform="matrix(1.00, 0.00, -0.00, -1.00, 660.2, 455.5)">v</text><text xml:space="preserve" font-family="Futura-Medium" font-size="49.0" fill="#FEFFFF" transform="matrix(1.00, 0.00, -0.00, -1.00, 684.8, 455.5)">i</text><text xml:space="preserve" font-family="Futura-Medium" font-size="49.0" fill="#FEFFFF" transform="matrix(1.00, 0.00, -0.00, -1.00, 697.0, 455.5)">c</text><text xml:space="preserve" font-family="Futura-Medium" font-size="49.0" fill="#FEFFFF" transform="matrix(1.00, 0.00, -0.00, -1.00, 720.4, 455.5)">e</text><text xml:space="preserve" font-family="Futura-Medium" font-size="49.0" fill="#FEFFFF" transform="matrix(1.00, 0.00, -0.00, -1.00, 747.5, 455.5)"> </text><text xml:space="preserve" font-family="Futura-Medium" font-size="49.0" fill="#FEFFFF" transform="matrix(1.00, 0.00, -0.00, -1.00, 762.6, 455.5)">i</text><text xml:space="preserve" font-family="Futura-Medium" font-size="49.0" fill="#FEFFFF" transform="matrix(1.00, 0.00, -0.00, -1.00, 774.8, 455.5)">n</text><text xml:space="preserve" font-family="Futura-Medium" font-size="49.0" fill="#FEFFFF" transform="matrix(1.00, 0.00, -0.00, -1.00, 801.7, 455.5)"> </text><text xml:space="preserve" font-family="Futura-Medium" font-size="49.0" fill="#FEFFFF" transform="matrix(1.00, 0.00, -0.00, -1.00, 816.8, 455.5)">G</text><text xml:space="preserve" font-family="Futura-Medium" font-size="49.0" fill="#FEFFFF" transform="matrix(1.00, 0.00, -0.00, -1.00, 858.1, 455.5)">i</text><text xml:space="preserve" font-family="Futura-Medium" font-size="49.0" fill="#FEFFFF" transform="matrix(1.00, 0.00, -0.00, -1.00, 870.3, 455.5)">t</text><text xml:space="preserve" font-family="Futura-Medium" font-size="49.0" fill="#FEFFFF" transform="matrix(1.00, 0.00, -0.00, -1.00, 883.7, 455.5)">H</text><text xml:space="preserve" font-family="Futura-Medium" font-size="49.0" fill="#FEFFFF" transform="matrix(1.00, 0.00, -0.00, -1.00, 919.6, 455.5)">u</text><text xml:space="preserve" font-family="Futura-Medium" font-size="49.0" fill="#FEFFFF" transform="matrix(1.00, 0.00, -0.00, -1.00, 946.3, 455.5)">b</text><text xml:space="preserve" font-family="Futura-Medium" font-size="49.0" fill="#FEFFFF" transform="matrix(1.00, 0.00, -0.00, -1.00, 975.7, 455.5)"> </text><text xml:space="preserve" font-family="Futura-Medium" font-size="49.0" fill="#FEFFFF" transform="matrix(1.00, 0.00, -0.00, -1.00, 360.1, 377.8)">3</text><text xml:space="preserve" font-family="Futura-Medium" font-size="49.0" fill="#FEFFFF" transform="matrix(1.00, 0.00, -0.00, -1.00, 390.4, 377.8)">.</text><text xml:space="preserve" font-family="Futura-Medium" font-size="49.0" fill="#FEFFFF" transform="matrix(1.00, 0.00, -0.00, -1.00, 465.0, 377.8)">C</text><text xml:space="preserve" font-family="Futura-Medium" font-size="49.0" fill="#FEFFFF" transform="matrix(1.00, 0.00, -0.00, -1.00, 499.3, 377.8)">h</text><text xml:space="preserve" font-family="Futura-Medium" font-size="49.0" fill="#FEFFFF" transform="matrix(1.00, 0.00, -0.00, -1.00, 526.2, 377.8)">e</text><text xml:space="preserve" font-family="Futura-Medium" font-size="49.0" fill="#FEFFFF" transform="matrix(1.00, 0.00, -0.00, -1.00, 553.3, 377.8)">c</text><text xml:space="preserve" font-family="Futura-Medium" font-size="49.0" fill="#FEFFFF" transform="matrix(1.00, 0.00, -0.00, -1.00, 577.9, 377.8)">k</text><text xml:space="preserve" font-family="Futura-Medium" font-size="49.0" fill="#FEFFFF" transform="matrix(1.00, 0.00, -0.00, -1.00, 602.3, 377.8)"> </text><text xml:space="preserve" font-family="Futura-Medium" font-size="49.0" fill="#FEFFFF" transform="matrix(1.00, 0.00, -0.00, -1.00, 617.4, 377.8)">s</text><text xml:space="preserve" font-family="Futura-Medium" font-size="49.0" fill="#FEFFFF" transform="matrix(1.00, 0.00, -0.00, -1.00, 637.3, 377.8)">e</text><text xml:space="preserve" font-family="Futura-Medium" font-size="49.0" fill="#FEFFFF" transform="matrix(1.00, 0.00, -0.00, -1.00, 664.8, 377.8)">t</text><text xml:space="preserve" font-family="Futura-Medium" font-size="49.0" fill="#FEFFFF" transform="matrix(1.00, 0.00, -0.00, -1.00, 678.2, 377.8)">t</text><text xml:space="preserve" font-family="Futura-Medium" font-size="49.0" fill="#FEFFFF" transform="matrix(1.00, 0.00, -0.00, -1.00, 691.6, 377.8)">i</text><text xml:space="preserve" font-family="Futura-Medium" font-size="49.0" fill="#FEFFFF" transform="matrix(1.00, 0.00, -0.00, -1.00, 703.8, 377.8)">n</text><text xml:space="preserve" font-family="Futura-Medium" font-size="49.0" fill="#FEFFFF" transform="matrix(1.00, 0.00, -0.00, -1.00, 730.7, 377.8)">g</text><text xml:space="preserve" font-family="Futura-Medium" font-size="49.0" fill="#FEFFFF" transform="matrix(1.00, 0.00, -0.00, -1.00, 760.0, 377.8)">s</text><text xml:space="preserve" font-family="Futura-Medium" font-size="49.0" fill="#FEFFFF" transform="matrix(1.00, 0.00, -0.00, -1.00, 779.9, 377.8)"> </text><text xml:space="preserve" font-family="Futura-Medium" font-size="49.0" fill="#FEFFFF" transform="matrix(1.00, 0.00, -0.00, -1.00, 795.0, 377.8)">i</text><text xml:space="preserve" font-family="Futura-Medium" font-size="49.0" fill="#FEFFFF" transform="matrix(1.00, 0.00, -0.00, -1.00, 807.2, 377.8)">n</text><text xml:space="preserve" font-family="Futura-Medium" font-size="49.0" fill="#FEFFFF" transform="matrix(1.00, 0.00, -0.00, -1.00, 834.1, 377.8)"> </text><text xml:space="preserve" font-family="Futura-Medium" font-size="49.0" fill="#FEFFFF" transform="matrix(1.00, 0.00, -0.00, -1.00, 849.2, 377.8)">T</text><text xml:space="preserve" font-family="Futura-Medium" font-size="49.0" fill="#FEFFFF" transform="matrix(1.00, 0.00, -0.00, -1.00, 871.2, 377.8)">r</text><text xml:space="preserve" font-family="Futura-Medium" font-size="49.0" fill="#FEFFFF" transform="matrix(1.00, 0.00, -0.00, -1.00, 889.2, 377.8)">a</text><text xml:space="preserve" font-family="Futura-Medium" font-size="49.0" fill="#FEFFFF" transform="matrix(1.00, 0.00, -0.00, -1.00, 919.0, 377.8)">v</text><text xml:space="preserve" font-family="Futura-Medium" font-size="49.0" fill="#FEFFFF" transform="matrix(1.00, 0.00, -0.00, -1.00, 943.6, 377.8)">i</text><text xml:space="preserve" font-family="Futura-Medium" font-size="49.0" fill="#FEFFFF" transform="matrix(1.00, 0.00, -0.00, -1.00, 955.8, 377.8)">s</text></g></svg>