<?xml version="1.0" encoding="UTF-8" standalone="no"?><svg xmlns="http://www.w3.org/2000/svg" xmlns:xlink="http://www.w3.org/1999/xlink" clip-rule="evenodd" stroke-miterlimit="4.00" viewBox="0 0 1024 768"><desc>SVG generated by Keynote</desc><defs></defs><g transform="matrix(1.00, 0.00, -0.00, -1.00, 0.0, 768.0)"><path d="M 0.0 768.0 L 1024.0 768.0 L 1024.0 0.0 L 0.0 0.0 Z M 0.0 768.0 " fill="#000000"></path><image xlink:href="../../2D059FCE-833E-4915-A6A2-20D0611DA72C/assets/D51964576EA483EDC13AF33D7571ABC9.jpeg" width="640.00" height="360.00" transform="matrix(2.25, 0.00, -0.00, -2.25, -93.0, 709.0)"></image><text xml:space="preserve" font-family="Arial-Black" font-weight="bold" font-size="65.0" fill="#FEFFFF" transform="matrix(1.00, 0.00, -0.00, -1.00, 94.0, 687.0)">L</text><text xml:space="preserve" font-family="Arial-Black" font-weight="bold" font-size="65.0" fill="#FEFFFF" transform="matrix(1.00, 0.00, -0.00, -1.00, 137.4, 687.0)">e</text><text xml:space="preserve" font-family="Arial-Black" font-weight="bold" font-size="65.0" fill="#FEFFFF" transform="matrix(1.00, 0.00, -0.00, -1.00, 180.7, 687.0)">t</text><text xml:space="preserve" font-family="Arial-Black" font-weight="bold" font-size="65.0" fill="#FEFFFF" transform="matrix(1.00, 0.00, -0.00, -1.00, 209.5, 687.0)">’</text><text xml:space="preserve" font-family="Arial-Black" font-weight="bold" font-size="65.0" fill="#FEFFFF" transform="matrix(1.00, 0.00, -0.00, -1.00, 225.9, 687.0)">s</text><text xml:space="preserve" font-family="Arial-Black" font-weight="bold" font-size="65.0" fill="#FEFFFF" transform="matrix(1.00, 0.00, -0.00, -1.00, 265.6, 687.0)"> </text><text xml:space="preserve" font-family="Arial-Black" font-weight="bold" font-size="65.0" fill="#FEFFFF" transform="matrix(1.00, 0.00, -0.00, -1.00, 287.3, 687.0)">t</text><text xml:space="preserve" font-family="Arial-Black" font-weight="bold" font-size="65.0" fill="#FEFFFF" transform="matrix(1.00, 0.00, -0.00, -1.00, 316.2, 687.0)">a</text><text xml:space="preserve" font-family="Arial-Black" font-weight="bold" font-size="65.0" fill="#FEFFFF" transform="matrix(1.00, 0.00, -0.00, -1.00, 359.5, 687.0)">l</text><text xml:space="preserve" font-family="Arial-Black" font-weight="bold" font-size="65.0" fill="#FEFFFF" transform="matrix(1.00, 0.00, -0.00, -1.00, 381.2, 687.0)">k</text><text xml:space="preserve" font-family="Arial-Black" font-weight="bold" font-size="65.0" fill="#FEFFFF" transform="matrix(1.00, 0.00, -0.00, -1.00, 424.5, 687.0)"> </text><text xml:space="preserve" font-family="Arial-Black" font-weight="bold" font-size="65.0" fill="#FEFFFF" transform="matrix(1.00, 0.00, -0.00, -1.00, 446.2, 687.0)">a</text><text xml:space="preserve" font-family="Arial-Black" font-weight="bold" font-size="65.0" fill="#FEFFFF" transform="matrix(1.00, 0.00, -0.00, -1.00, 490.2, 687.0)">b</text><text xml:space="preserve" font-family="Arial-Black" font-weight="bold" font-size="65.0" fill="#FEFFFF" transform="matrix(1.00, 0.00, -0.00, -1.00, 533.6, 687.0)">o</text><text xml:space="preserve" font-family="Arial-Black" font-weight="bold" font-size="65.0" fill="#FEFFFF" transform="matrix(1.00, 0.00, -0.00, -1.00, 576.9, 687.0)">u</text><text xml:space="preserve" font-family="Arial-Black" font-weight="bold" font-size="65.0" fill="#FEFFFF" transform="matrix(1.00, 0.00, -0.00, -1.00, 620.3, 687.0)">t</text><text xml:space="preserve" font-family="Arial-Black" font-weight="bold" font-size="65.0" fill="#FEFFFF" transform="matrix(1.00, 0.00, -0.00, -1.00, 649.1, 687.0)"> </text><text xml:space="preserve" font-family="Arial-Black" font-weight="bold" font-size="65.0" fill="#FEFFFF" transform="matrix(1.00, 0.00, -0.00, -1.00, 670.8, 687.0)">s</text><text xml:space="preserve" font-family="Arial-Black" font-weight="bold" font-size="65.0" fill="#FEFFFF" transform="matrix(1.00, 0.00, -0.00, -1.00, 710.5, 687.0)">e</text><text xml:space="preserve" font-family="Arial-Black" font-weight="bold" font-size="65.0" fill="#FEFFFF" transform="matrix(1.00, 0.00, -0.00, -1.00, 753.9, 687.0)">m</text><text xml:space="preserve" font-family="Arial-Black" font-weight="bold" font-size="65.0" fill="#FEFFFF" transform="matrix(1.00, 0.00, -0.00, -1.00, 818.9, 687.0)">v</text><text xml:space="preserve" font-family="Arial-Black" font-weight="bold" font-size="65.0" fill="#FEFFFF" transform="matrix(1.00, 0.00, -0.00, -1.00, 856.9, 687.0)">e</text><text xml:space="preserve" font-family="Arial-Black" font-weight="bold" font-size="65.0" fill="#FEFFFF" transform="matrix(1.00, 0.00, -0.00, -1.00, 900.2, 687.0)">r</text><text xml:space="preserve" font-family="Futura-Medium" font-size="49.0" fill="#FEFFFF" transform="matrix(1.00, 0.00, -0.00, -1.00, 80.0, 597.0)">S</text><text xml:space="preserve" font-family="Futura-Medium" font-size="49.0" fill="#FEFFFF" transform="matrix(1.00, 0.00, -0.00, -1.00, 108.6, 597.0)">e</text><text xml:space="preserve" font-family="Futura-Medium" font-size="49.0" fill="#FEFFFF" transform="matrix(1.00, 0.00, -0.00, -1.00, 135.7, 597.0)">m</text><text xml:space="preserve" font-family="Futura-Medium" font-size="49.0" fill="#FEFFFF" transform="matrix(1.00, 0.00, -0.00, -1.00, 174.4, 597.0)">a</text><text xml:space="preserve" font-family="Futura-Medium" font-size="49.0" fill="#FEFFFF" transform="matrix(1.00, 0.00, -0.00, -1.00, 203.8, 597.0)">n</text><text xml:space="preserve" font-family="Futura-Medium" font-size="49.0" fill="#FEFFFF" transform="matrix(1.00, 0.00, -0.00, -1.00, 230.7, 597.0)">t</text><text xml:space="preserve" font-family="Futura-Medium" font-size="49.0" fill="#FEFFFF" transform="matrix(1.00, 0.00, -0.00, -1.00, 244.1, 597.0)">i</text><text xml:space="preserve" font-family="Futura-Medium" font-size="49.0" fill="#FEFFFF" transform="matrix(1.00, 0.00, -0.00, -1.00, 256.3, 597.0)">c</text><text xml:space="preserve" font-family="Futura-Medium" font-size="49.0" fill="#FEFFFF" transform="matrix(1.00, 0.00, -0.00, -1.00, 279.6, 597.0)"> </text><text xml:space="preserve" font-family="Futura-Medium" font-size="49.0" fill="#FEFFFF" transform="matrix(1.00, 0.00, -0.00, -1.00, 294.7, 597.0)">V</text><text xml:space="preserve" font-family="Futura-Medium" font-size="49.0" fill="#FEFFFF" transform="matrix(1.00, 0.00, -0.00, -1.00, 325.1, 597.0)">e</text><text xml:space="preserve" font-family="Futura-Medium" font-size="49.0" fill="#FEFFFF" transform="matrix(1.00, 0.00, -0.00, -1.00, 352.2, 597.0)">r</text><text xml:space="preserve" font-family="Futura-Medium" font-size="49.0" fill="#FEFFFF" transform="matrix(1.00, 0.00, -0.00, -1.00, 370.5, 597.0)">s</text><text xml:space="preserve" font-family="Futura-Medium" font-size="49.0" fill="#FEFFFF" transform="matrix(1.00, 0.00, -0.00, -1.00, 390.4, 597.0)">i</text><text xml:space="preserve" font-family="Futura-Medium" font-size="49.0" fill="#FEFFFF" transform="matrix(1.00, 0.00, -0.00, -1.00, 402.6, 597.0)">o</text><text xml:space="preserve" font-family="Futura-Medium" font-size="49.0" fill="#FEFFFF" transform="matrix(1.00, 0.00, -0.00, -1.00, 432.1, 597.0)">n</text><text xml:space="preserve" font-family="Futura-Medium" font-size="49.0" fill="#FEFFFF" transform="matrix(1.00, 0.00, -0.00, -1.00, 459.0, 597.0)">i</text><text xml:space="preserve" font-family="Futura-Medium" font-size="49.0" fill="#FEFFFF" transform="matrix(1.00, 0.00, -0.00, -1.00, 471.2, 597.0)">n</text><text xml:space="preserve" font-family="Futura-Medium" font-size="49.0" fill="#FEFFFF" transform="matrix(1.00, 0.00, -0.00, -1.00, 498.0, 597.0)">g</text><text xml:space="preserve" font-family="Futura-Medium" font-size="49.0" fill="#FEFFFF" transform="matrix(1.00, 0.00, -0.00, -1.00, 527.4, 597.0)"> </text><text xml:space="preserve" font-family="Futura-Medium" font-size="49.0" fill="#FEFFFF" transform="matrix(1.00, 0.00, -0.00, -1.00, 542.5, 597.0)">=</text><text xml:space="preserve" font-family="Futura-Medium" font-size="64.0" fill="#FEFFFF" transform="matrix(1.00, 0.00, -0.00, -1.00, 249.0, 423.0)">m</text><text xml:space="preserve" font-family="Futura-Medium" font-size="64.0" fill="#FEFFFF" transform="matrix(1.00, 0.00, -0.00, -1.00, 299.6, 423.0)">a</text><text xml:space="preserve" font-family="Futura-Medium" font-size="64.0" fill="#FEFFFF" transform="matrix(1.00, 0.00, -0.00, -1.00, 338.8, 423.0)">j</text><text xml:space="preserve" font-family="Futura-Medium" font-size="64.0" fill="#FEFFFF" transform="matrix(1.00, 0.00, -0.00, -1.00, 354.7, 423.0)">o</text><text xml:space="preserve" font-family="Futura-Medium" font-size="64.0" fill="#FEFFFF" transform="matrix(1.00, 0.00, -0.00, -1.00, 393.2, 423.0)">r</text><text xml:space="preserve" font-family="Futura-Medium" font-size="64.0" fill="#FEFFFF" transform="matrix(1.00, 0.00, -0.00, -1.00, 413.7, 423.0)">.</text><text xml:space="preserve" font-family="Futura-Medium" font-size="64.0" fill="#FEFFFF" transform="matrix(1.00, 0.00, -0.00, -1.00, 433.4, 423.0)">m</text><text xml:space="preserve" font-family="Futura-Medium" font-size="64.0" fill="#FEFFFF" transform="matrix(1.00, 0.00, -0.00, -1.00, 484.0, 423.0)">i</text><text xml:space="preserve" font-family="Futura-Medium" font-size="64.0" fill="#FEFFFF" transform="matrix(1.00, 0.00, -0.00, -1.00, 500.0, 423.0)">n</text><text xml:space="preserve" font-family="Futura-Medium" font-size="64.0" fill="#FEFFFF" transform="matrix(1.00, 0.00, -0.00, -1.00, 535.1, 423.0)">o</text><text xml:space="preserve" font-family="Futura-Medium" font-size="64.0" fill="#FEFFFF" transform="matrix(1.00, 0.00, -0.00, -1.00, 573.6, 423.0)">r</text><text xml:space="preserve" font-family="Futura-Medium" font-size="64.0" fill="#FEFFFF" transform="matrix(1.00, 0.00, -0.00, -1.00, 594.1, 423.0)">.</text><text xml:space="preserve" font-family="Futura-Medium" font-size="64.0" fill="#FEFFFF" transform="matrix(1.00, 0.00, -0.00, -1.00, 613.8, 423.0)">p</text><text xml:space="preserve" font-family="Futura-Medium" font-size="64.0" fill="#FEFFFF" transform="matrix(1.00, 0.00, -0.00, -1.00, 652.2, 423.0)">a</text><text xml:space="preserve" font-family="Futura-Medium" font-size="64.0" fill="#FEFFFF" transform="matrix(1.00, 0.00, -0.00, -1.00, 690.5, 423.0)">t</text><text xml:space="preserve" font-family="Futura-Medium" font-size="64.0" fill="#FEFFFF" transform="matrix(1.00, 0.00, -0.00, -1.00, 708.1, 423.0)">c</text><text xml:space="preserve" font-family="Futura-Medium" font-size="64.0" fill="#FEFFFF" transform="matrix(1.00, 0.00, -0.00, -1.00, 740.2, 423.0)">h</text><text xml:space="preserve" font-family="Futura-Medium" font-size="64.0" fill="#FEFFFF" transform="matrix(1.00, 0.00, -0.00, -1.00, 775.3, 423.0)"> </text><g><clipPath id="clip-257"><path d="M 247.8 435.8 L 775.2 435.8 L 775.2 441.6 L 247.8 441.6 Z M 247.8 435.8 "></path></clipPath><g clip-path="url(#clip-257)"><path d="M 82.6 55.0 L 609.0 55.0 " fill="none" stroke="#FEFFFF" stroke-width="3.74" stroke-miterlimit="0.00" transform="matrix(1.00, 0.00, 0.00, -1.00, 166.2, 493.7)"></path></g></g><text xml:space="preserve" font-family="Futura-Medium" font-size="64.0" fill="#D35854" transform="matrix(1.00, 0.00, -0.00, -1.00, 171.0, 322.0)">b</text><text xml:space="preserve" font-family="Futura-Medium" font-size="64.0" fill="#D35854" transform="matrix(1.00, 0.00, -0.00, -1.00, 209.3, 322.0)">r</text><text xml:space="preserve" font-family="Futura-Medium" font-size="64.0" fill="#D35854" transform="matrix(1.00, 0.00, -0.00, -1.00, 232.9, 322.0)">e</text><text xml:space="preserve" font-family="Futura-Medium" font-size="64.0" fill="#D35854" transform="matrix(1.00, 0.00, -0.00, -1.00, 268.3, 322.0)">a</text><text xml:space="preserve" font-family="Futura-Medium" font-size="64.0" fill="#D35854" transform="matrix(1.00, 0.00, -0.00, -1.00, 306.6, 322.0)">k</text><text xml:space="preserve" font-family="Futura-Medium" font-size="64.0" fill="#D35854" transform="matrix(1.00, 0.00, -0.00, -1.00, 338.5, 322.0)">i</text><text xml:space="preserve" font-family="Futura-Medium" font-size="64.0" fill="#D35854" transform="matrix(1.00, 0.00, -0.00, -1.00, 354.4, 322.0)">n</text><text xml:space="preserve" font-family="Futura-Medium" font-size="64.0" fill="#D35854" transform="matrix(1.00, 0.00, -0.00, -1.00, 389.5, 322.0)">g</text><text xml:space="preserve" font-family="Futura-Medium" font-size="64.0" fill="#FEFFFF" transform="matrix(1.00, 0.00, -0.00, -1.00, 427.9, 322.0)">.</text><text xml:space="preserve" font-family="Futura-Medium" font-size="64.0" fill="#1497FC" transform="matrix(1.00, 0.00, -0.00, -1.00, 447.6, 322.0)">f</text><text xml:space="preserve" font-family="Futura-Medium" font-size="64.0" fill="#1497FC" transform="matrix(1.00, 0.00, -0.00, -1.00, 467.6, 322.0)">e</text><text xml:space="preserve" font-family="Futura-Medium" font-size="64.0" fill="#1497FC" transform="matrix(1.00, 0.00, -0.00, -1.00, 503.0, 322.0)">a</text><text xml:space="preserve" font-family="Futura-Medium" font-size="64.0" fill="#1497FC" transform="matrix(1.00, 0.00, -0.00, -1.00, 541.4, 322.0)">t</text><text xml:space="preserve" font-family="Futura-Medium" font-size="64.0" fill="#1497FC" transform="matrix(1.00, 0.00, -0.00, -1.00, 558.9, 322.0)">u</text><text xml:space="preserve" font-family="Futura-Medium" font-size="64.0" fill="#1497FC" transform="matrix(1.00, 0.00, -0.00, -1.00, 593.7, 322.0)">r</text><text xml:space="preserve" font-family="Futura-Medium" font-size="64.0" fill="#1497FC" transform="matrix(1.00, 0.00, -0.00, -1.00, 617.2, 322.0)">e</text><text xml:space="preserve" font-family="Futura-Medium" font-size="64.0" fill="#FEFFFF" transform="matrix(1.00, 0.00, -0.00, -1.00, 652.7, 322.0)">.</text><text xml:space="preserve" font-family="Futura-Medium" font-size="64.0" fill="#7ADA45" transform="matrix(1.00, 0.00, -0.00, -1.00, 672.4, 322.0)">b</text><text xml:space="preserve" font-family="Futura-Medium" font-size="64.0" fill="#7ADA45" transform="matrix(1.00, 0.00, -0.00, -1.00, 710.8, 322.0)">u</text><text xml:space="preserve" font-family="Futura-Medium" font-size="64.0" fill="#7ADA45" transform="matrix(1.00, 0.00, -0.00, -1.00, 745.6, 322.0)">g</text><text xml:space="preserve" font-family="Futura-Medium" font-size="64.0" fill="#7ADA45" transform="matrix(1.00, 0.00, -0.00, -1.00, 783.9, 322.0)">ﬁ</text><text xml:space="preserve" font-family="Futura-Medium" font-size="64.0" fill="#7ADA45" transform="matrix(1.00, 0.00, -0.00, -1.00, 817.8, 322.0)">x</text><text xml:space="preserve" font-family="Futura-Medium" font-size="37.0" fill="#FEFFFF" transform="matrix(1.00, 0.00, -0.00, -1.00, 623.2, 620.5)">t</text><text xml:space="preserve" font-family="Futura-Medium" font-size="37.0" fill="#FEFFFF" transform="matrix(1.00, 0.00, -0.00, -1.00, 634.0, 620.5)">h</text><text xml:space="preserve" font-family="Futura-Medium" font-size="37.0" fill="#FEFFFF" transform="matrix(1.00, 0.00, -0.00, -1.00, 654.3, 620.5)">e</text><text xml:space="preserve" font-family="Futura-Medium" font-size="37.0" fill="#FEFFFF" transform="matrix(1.00, 0.00, -0.00, -1.00, 674.8, 620.5)"> </text><text xml:space="preserve" font-family="Futura-Medium" font-size="37.0" fill="#FEFFFF" transform="matrix(1.00, 0.00, -0.00, -1.00, 686.2, 620.5)">g</text><text xml:space="preserve" font-family="Futura-Medium" font-size="37.0" fill="#FEFFFF" transform="matrix(1.00, 0.00, -0.00, -1.00, 708.4, 620.5)">l</text><text xml:space="preserve" font-family="Futura-Medium" font-size="37.0" fill="#FEFFFF" transform="matrix(1.00, 0.00, -0.00, -1.00, 717.6, 620.5)">u</text><text xml:space="preserve" font-family="Futura-Medium" font-size="37.0" fill="#FEFFFF" transform="matrix(1.00, 0.00, -0.00, -1.00, 737.7, 620.5)">e</text><text xml:space="preserve" font-family="Futura-Medium" font-size="37.0" fill="#FEFFFF" transform="matrix(1.00, 0.00, -0.00, -1.00, 758.2, 620.5)"> </text><text xml:space="preserve" font-family="Futura-Medium" font-size="37.0" fill="#FEFFFF" transform="matrix(1.00, 0.00, -0.00, -1.00, 769.6, 620.5)">t</text><text xml:space="preserve" font-family="Futura-Medium" font-size="37.0" fill="#FEFFFF" transform="matrix(1.00, 0.00, -0.00, -1.00, 780.5, 620.5)">h</text><text xml:space="preserve" font-family="Futura-Medium" font-size="37.0" fill="#FEFFFF" transform="matrix(1.00, 0.00, -0.00, -1.00, 800.8, 620.5)">a</text><text xml:space="preserve" font-family="Futura-Medium" font-size="37.0" fill="#FEFFFF" transform="matrix(1.00, 0.00, -0.00, -1.00, 823.0, 620.5)">t</text><text xml:space="preserve" font-family="Futura-Medium" font-size="37.0" fill="#FEFFFF" transform="matrix(1.00, 0.00, -0.00, -1.00, 833.1, 620.5)"> </text><text xml:space="preserve" font-family="Futura-Medium" font-size="37.0" fill="#FEFFFF" transform="matrix(1.00, 0.00, -0.00, -1.00, 844.5, 620.5)">h</text><text xml:space="preserve" font-family="Futura-Medium" font-size="37.0" fill="#FEFFFF" transform="matrix(1.00, 0.00, -0.00, -1.00, 864.8, 620.5)">o</text><text xml:space="preserve" font-family="Futura-Medium" font-size="37.0" fill="#FEFFFF" transform="matrix(1.00, 0.00, -0.00, -1.00, 887.0, 620.5)">l</text><text xml:space="preserve" font-family="Futura-Medium" font-size="37.0" fill="#FEFFFF" transform="matrix(1.00, 0.00, -0.00, -1.00, 896.3, 620.5)">d</text><text xml:space="preserve" font-family="Futura-Medium" font-size="37.0" fill="#FEFFFF" transform="matrix(1.00, 0.00, -0.00, -1.00, 918.4, 620.5)">s</text><text xml:space="preserve" font-family="Futura-Medium" font-size="37.0" fill="#FEFFFF" transform="matrix(1.00, 0.00, -0.00, -1.00, 933.4, 620.5)"> </text><text xml:space="preserve" font-family="Futura-Medium" font-size="37.0" fill="#FEFFFF" transform="matrix(1.00, 0.00, -0.00, -1.00, 709.6, 561.9)">i</text><text xml:space="preserve" font-family="Futura-Medium" font-size="37.0" fill="#FEFFFF" transform="matrix(1.00, 0.00, -0.00, -1.00, 718.9, 561.9)">t</text><text xml:space="preserve" font-family="Futura-Medium" font-size="37.0" fill="#FEFFFF" transform="matrix(1.00, 0.00, -0.00, -1.00, 729.0, 561.9)"> </text><text xml:space="preserve" font-family="Futura-Medium" font-size="37.0" fill="#FEFFFF" transform="matrix(1.00, 0.00, -0.00, -1.00, 740.4, 561.9)">a</text><text xml:space="preserve" font-family="Futura-Medium" font-size="37.0" fill="#FEFFFF" transform="matrix(1.00, 0.00, -0.00, -1.00, 762.6, 561.9)">l</text><text xml:space="preserve" font-family="Futura-Medium" font-size="37.0" fill="#FEFFFF" transform="matrix(1.00, 0.00, -0.00, -1.00, 771.8, 561.9)">l</text><text xml:space="preserve" font-family="Futura-Medium" font-size="37.0" fill="#FEFFFF" transform="matrix(1.00, 0.00, -0.00, -1.00, 781.0, 561.9)"> </text><text xml:space="preserve" font-family="Futura-Medium" font-size="37.0" fill="#FEFFFF" transform="matrix(1.00, 0.00, -0.00, -1.00, 792.4, 561.9)">t</text><text xml:space="preserve" font-family="Futura-Medium" font-size="37.0" fill="#FEFFFF" transform="matrix(1.00, 0.00, -0.00, -1.00, 802.8, 561.9)">o</text><text xml:space="preserve" font-family="Futura-Medium" font-size="37.0" fill="#FEFFFF" transform="matrix(1.00, 0.00, -0.00, -1.00, 825.0, 561.9)">g</text><text xml:space="preserve" font-family="Futura-Medium" font-size="37.0" fill="#FEFFFF" transform="matrix(1.00, 0.00, -0.00, -1.00, 847.2, 561.9)">e</text><text xml:space="preserve" font-family="Futura-Medium" font-size="37.0" fill="#FEFFFF" transform="matrix(1.00, 0.00, -0.00, -1.00, 868.0, 561.9)">t</text><text xml:space="preserve" font-family="Futura-Medium" font-size="37.0" fill="#FEFFFF" transform="matrix(1.00, 0.00, -0.00, -1.00, 878.8, 561.9)">h</text><text xml:space="preserve" font-family="Futura-Medium" font-size="37.0" fill="#FEFFFF" transform="matrix(1.00, 0.00, -0.00, -1.00, 899.1, 561.9)">e</text><text xml:space="preserve" font-family="Futura-Medium" font-size="37.0" fill="#FEFFFF" transform="matrix(1.00, 0.00, -0.00, -1.00, 919.6, 561.9)">r</text></g></svg>