<?xml version="1.0" encoding="UTF-8" standalone="no"?><svg xmlns="http://www.w3.org/2000/svg" xmlns:xlink="http://www.w3.org/1999/xlink" clip-rule="evenodd" stroke-miterlimit="4.00" viewBox="0 0 1024 768"><desc>SVG generated by Keynote</desc><defs></defs><g transform="matrix(1.00, 0.00, -0.00, -1.00, 0.0, 768.0)"><path d="M 0.0 768.0 L 1024.0 768.0 L 1024.0 0.0 L 0.0 0.0 Z M 0.0 768.0 " fill="#000000"></path><image xlink:href="../../2D059FCE-833E-4915-A6A2-20D0611DA72C/assets/D51964576EA483EDC13AF33D7571ABC9.jpeg" width="640.00" height="360.00" transform="matrix(2.25, 0.00, -0.00, -2.25, -93.0, 709.0)"></image><text xml:space="preserve" font-family="Arial-Black" font-weight="bold" font-size="65.0" fill="#FEFFFF" transform="matrix(1.00, 0.00, -0.00, -1.00, 94.0, 687.0)">L</text><text xml:space="preserve" font-family="Arial-Black" font-weight="bold" font-size="65.0" fill="#FEFFFF" transform="matrix(1.00, 0.00, -0.00, -1.00, 137.4, 687.0)">e</text><text xml:space="preserve" font-family="Arial-Black" font-weight="bold" font-size="65.0" fill="#FEFFFF" transform="matrix(1.00, 0.00, -0.00, -1.00, 180.7, 687.0)">t</text><text xml:space="preserve" font-family="Arial-Black" font-weight="bold" font-size="65.0" fill="#FEFFFF" transform="matrix(1.00, 0.00, -0.00, -1.00, 209.5, 687.0)">’</text><text xml:space="preserve" font-family="Arial-Black" font-weight="bold" font-size="65.0" fill="#FEFFFF" transform="matrix(1.00, 0.00, -0.00, -1.00, 225.9, 687.0)">s</text><text xml:space="preserve" font-family="Arial-Black" font-weight="bold" font-size="65.0" fill="#FEFFFF" transform="matrix(1.00, 0.00, -0.00, -1.00, 265.6, 687.0)"> </text><text xml:space="preserve" font-family="Arial-Black" font-weight="bold" font-size="65.0" fill="#FEFFFF" transform="matrix(1.00, 0.00, -0.00, -1.00, 287.3, 687.0)">t</text><text xml:space="preserve" font-family="Arial-Black" font-weight="bold" font-size="65.0" fill="#FEFFFF" transform="matrix(1.00, 0.00, -0.00, -1.00, 316.2, 687.0)">a</text><text xml:space="preserve" font-family="Arial-Black" font-weight="bold" font-size="65.0" fill="#FEFFFF" transform="matrix(1.00, 0.00, -0.00, -1.00, 359.5, 687.0)">l</text><text xml:space="preserve" font-family="Arial-Black" font-weight="bold" font-size="65.0" fill="#FEFFFF" transform="matrix(1.00, 0.00, -0.00, -1.00, 381.2, 687.0)">k</text><text xml:space="preserve" font-family="Arial-Black" font-weight="bold" font-size="65.0" fill="#FEFFFF" transform="matrix(1.00, 0.00, -0.00, -1.00, 424.5, 687.0)"> </text><text xml:space="preserve" font-family="Arial-Black" font-weight="bold" font-size="65.0" fill="#FEFFFF" transform="matrix(1.00, 0.00, -0.00, -1.00, 446.2, 687.0)">a</text><text xml:space="preserve" font-family="Arial-Black" font-weight="bold" font-size="65.0" fill="#FEFFFF" transform="matrix(1.00, 0.00, -0.00, -1.00, 490.2, 687.0)">b</text><text xml:space="preserve" font-family="Arial-Black" font-weight="bold" font-size="65.0" fill="#FEFFFF" transform="matrix(1.00, 0.00, -0.00, -1.00, 533.6, 687.0)">o</text><text xml:space="preserve" font-family="Arial-Black" font-weight="bold" font-size="65.0" fill="#FEFFFF" transform="matrix(1.00, 0.00, -0.00, -1.00, 576.9, 687.0)">u</text><text xml:space="preserve" font-family="Arial-Black" font-weight="bold" font-size="65.0" fill="#FEFFFF" transform="matrix(1.00, 0.00, -0.00, -1.00, 620.3, 687.0)">t</text><text xml:space="preserve" font-family="Arial-Black" font-weight="bold" font-size="65.0" fill="#FEFFFF" transform="matrix(1.00, 0.00, -0.00, -1.00, 649.1, 687.0)"> </text><text xml:space="preserve" font-family="Arial-Black" font-weight="bold" font-size="65.0" fill="#FEFFFF" transform="matrix(1.00, 0.00, -0.00, -1.00, 670.8, 687.0)">s</text><text xml:space="preserve" font-family="Arial-Black" font-weight="bold" font-size="65.0" fill="#FEFFFF" transform="matrix(1.00, 0.00, -0.00, -1.00, 710.5, 687.0)">e</text><text xml:space="preserve" font-family="Arial-Black" font-weight="bold" font-size="65.0" fill="#FEFFFF" transform="matrix(1.00, 0.00, -0.00, -1.00, 753.9, 687.0)">m</text><text xml:space="preserve" font-family="Arial-Black" font-weight="bold" font-size="65.0" fill="#FEFFFF" transform="matrix(1.00, 0.00, -0.00, -1.00, 818.9, 687.0)">v</text><text xml:space="preserve" font-family="Arial-Black" font-weight="bold" font-size="65.0" fill="#FEFFFF" transform="matrix(1.00, 0.00, -0.00, -1.00, 856.9, 687.0)">e</text><text xml:space="preserve" font-family="Arial-Black" font-weight="bold" font-size="65.0" fill="#FEFFFF" transform="matrix(1.00, 0.00, -0.00, -1.00, 900.2, 687.0)">r</text><text xml:space="preserve" font-family="Futura-Medium" font-size="49.0" fill="#FEFFFF" transform="matrix(1.00, 0.00, -0.00, -1.00, 80.0, 597.0)">S</text><text xml:space="preserve" font-family="Futura-Medium" font-size="49.0" fill="#FEFFFF" transform="matrix(1.00, 0.00, -0.00, -1.00, 108.6, 597.0)">e</text><text xml:space="preserve" font-family="Futura-Medium" font-size="49.0" fill="#FEFFFF" transform="matrix(1.00, 0.00, -0.00, -1.00, 135.7, 597.0)">m</text><text xml:space="preserve" font-family="Futura-Medium" font-size="49.0" fill="#FEFFFF" transform="matrix(1.00, 0.00, -0.00, -1.00, 174.4, 597.0)">a</text><text xml:space="preserve" font-family="Futura-Medium" font-size="49.0" fill="#FEFFFF" transform="matrix(1.00, 0.00, -0.00, -1.00, 203.8, 597.0)">n</text><text xml:space="preserve" font-family="Futura-Medium" font-size="49.0" fill="#FEFFFF" transform="matrix(1.00, 0.00, -0.00, -1.00, 230.7, 597.0)">t</text><text xml:space="preserve" font-family="Futura-Medium" font-size="49.0" fill="#FEFFFF" transform="matrix(1.00, 0.00, -0.00, -1.00, 244.1, 597.0)">i</text><text xml:space="preserve" font-family="Futura-Medium" font-size="49.0" fill="#FEFFFF" transform="matrix(1.00, 0.00, -0.00, -1.00, 256.3, 597.0)">c</text><text xml:space="preserve" font-family="Futura-Medium" font-size="49.0" fill="#FEFFFF" transform="matrix(1.00, 0.00, -0.00, -1.00, 279.6, 597.0)"> </text><text xml:space="preserve" font-family="Futura-Medium" font-size="49.0" fill="#FEFFFF" transform="matrix(1.00, 0.00, -0.00, -1.00, 294.7, 597.0)">V</text><text xml:space="preserve" font-family="Futura-Medium" font-size="49.0" fill="#FEFFFF" transform="matrix(1.00, 0.00, -0.00, -1.00, 325.1, 597.0)">e</text><text xml:space="preserve" font-family="Futura-Medium" font-size="49.0" fill="#FEFFFF" transform="matrix(1.00, 0.00, -0.00, -1.00, 352.2, 597.0)">r</text><text xml:space="preserve" font-family="Futura-Medium" font-size="49.0" fill="#FEFFFF" transform="matrix(1.00, 0.00, -0.00, -1.00, 370.5, 597.0)">s</text><text xml:space="preserve" font-family="Futura-Medium" font-size="49.0" fill="#FEFFFF" transform="matrix(1.00, 0.00, -0.00, -1.00, 390.4, 597.0)">i</text><text xml:space="preserve" font-family="Futura-Medium" font-size="49.0" fill="#FEFFFF" transform="matrix(1.00, 0.00, -0.00, -1.00, 402.6, 597.0)">o</text><text xml:space="preserve" font-family="Futura-Medium" font-size="49.0" fill="#FEFFFF" transform="matrix(1.00, 0.00, -0.00, -1.00, 432.1, 597.0)">n</text><text xml:space="preserve" font-family="Futura-Medium" font-size="49.0" fill="#FEFFFF" transform="matrix(1.00, 0.00, -0.00, -1.00, 459.0, 597.0)">i</text><text xml:space="preserve" font-family="Futura-Medium" font-size="49.0" fill="#FEFFFF" transform="matrix(1.00, 0.00, -0.00, -1.00, 471.2, 597.0)">n</text><text xml:space="preserve" font-family="Futura-Medium" font-size="49.0" fill="#FEFFFF" transform="matrix(1.00, 0.00, -0.00, -1.00, 498.0, 597.0)">g</text><text xml:space="preserve" font-family="Futura-Medium" font-size="49.0" fill="#FEFFFF" transform="matrix(1.00, 0.00, -0.00, -1.00, 527.4, 597.0)"> </text><text xml:space="preserve" font-family="Futura-Medium" font-size="49.0" fill="#FEFFFF" transform="matrix(1.00, 0.00, -0.00, -1.00, 542.5, 597.0)">=</text><text xml:space="preserve" font-family="Futura-Medium" font-size="64.0" fill="#FEFFFF" transform="matrix(1.00, 0.00, -0.00, -1.00, 249.0, 423.0)">m</text><text xml:space="preserve" font-family="Futura-Medium" font-size="64.0" fill="#FEFFFF" transform="matrix(1.00, 0.00, -0.00, -1.00, 299.6, 423.0)">a</text><text xml:space="preserve" font-family="Futura-Medium" font-size="64.0" fill="#FEFFFF" transform="matrix(1.00, 0.00, -0.00, -1.00, 338.8, 423.0)">j</text><text xml:space="preserve" font-family="Futura-Medium" font-size="64.0" fill="#FEFFFF" transform="matrix(1.00, 0.00, -0.00, -1.00, 354.7, 423.0)">o</text><text xml:space="preserve" font-family="Futura-Medium" font-size="64.0" fill="#FEFFFF" transform="matrix(1.00, 0.00, -0.00, -1.00, 393.2, 423.0)">r</text><text xml:space="preserve" font-family="Futura-Medium" font-size="64.0" fill="#FEFFFF" transform="matrix(1.00, 0.00, -0.00, -1.00, 413.7, 423.0)">.</text><text xml:space="preserve" font-family="Futura-Medium" font-size="64.0" fill="#FEFFFF" transform="matrix(1.00, 0.00, -0.00, -1.00, 433.4, 423.0)">m</text><text xml:space="preserve" font-family="Futura-Medium" font-size="64.0" fill="#FEFFFF" transform="matrix(1.00, 0.00, -0.00, -1.00, 484.0, 423.0)">i</text><text xml:space="preserve" font-family="Futura-Medium" font-size="64.0" fill="#FEFFFF" transform="matrix(1.00, 0.00, -0.00, -1.00, 500.0, 423.0)">n</text><text xml:space="preserve" font-family="Futura-Medium" font-size="64.0" fill="#FEFFFF" transform="matrix(1.00, 0.00, -0.00, -1.00, 535.1, 423.0)">o</text><text xml:space="preserve" font-family="Futura-Medium" font-size="64.0" fill="#FEFFFF" transform="matrix(1.00, 0.00, -0.00, -1.00, 573.6, 423.0)">r</text><text xml:space="preserve" font-family="Futura-Medium" font-size="64.0" fill="#FEFFFF" transform="matrix(1.00, 0.00, -0.00, -1.00, 594.1, 423.0)">.</text><text xml:space="preserve" font-family="Futura-Medium" font-size="64.0" fill="#FEFFFF" transform="matrix(1.00, 0.00, -0.00, -1.00, 613.8, 423.0)">p</text><text xml:space="preserve" font-family="Futura-Medium" font-size="64.0" fill="#FEFFFF" transform="matrix(1.00, 0.00, -0.00, -1.00, 652.2, 423.0)">a</text><text xml:space="preserve" font-family="Futura-Medium" font-size="64.0" fill="#FEFFFF" transform="matrix(1.00, 0.00, -0.00, -1.00, 690.5, 423.0)">t</text><text xml:space="preserve" font-family="Futura-Medium" font-size="64.0" fill="#FEFFFF" transform="matrix(1.00, 0.00, -0.00, -1.00, 708.1, 423.0)">c</text><text xml:space="preserve" font-family="Futura-Medium" font-size="64.0" fill="#FEFFFF" transform="matrix(1.00, 0.00, -0.00, -1.00, 740.2, 423.0)">h</text><text xml:space="preserve" font-family="Futura-Medium" font-size="64.0" fill="#FEFFFF" transform="matrix(1.00, 0.00, -0.00, -1.00, 775.3, 423.0)"> </text><g><clipPath id="clip-258"><path d="M 247.8 435.8 L 775.2 435.8 L 775.2 441.6 L 247.8 441.6 Z M 247.8 435.8 "></path></clipPath><g clip-path="url(#clip-258)"><path d="M 82.6 55.0 L 609.0 55.0 " fill="none" stroke="#FEFFFF" stroke-width="3.74" stroke-miterlimit="0.00" transform="matrix(1.00, 0.00, 0.00, -1.00, 166.2, 493.7)"></path></g></g><text xml:space="preserve" font-family="Futura-Medium" font-size="64.0" fill="#D35854" transform="matrix(1.00, 0.00, -0.00, -1.00, 171.0, 322.0)">b</text><text xml:space="preserve" font-family="Futura-Medium" font-size="64.0" fill="#D35854" transform="matrix(1.00, 0.00, -0.00, -1.00, 209.3, 322.0)">r</text><text xml:space="preserve" font-family="Futura-Medium" font-size="64.0" fill="#D35854" transform="matrix(1.00, 0.00, -0.00, -1.00, 232.9, 322.0)">e</text><text xml:space="preserve" font-family="Futura-Medium" font-size="64.0" fill="#D35854" transform="matrix(1.00, 0.00, -0.00, -1.00, 268.3, 322.0)">a</text><text xml:space="preserve" font-family="Futura-Medium" font-size="64.0" fill="#D35854" transform="matrix(1.00, 0.00, -0.00, -1.00, 306.6, 322.0)">k</text><text xml:space="preserve" font-family="Futura-Medium" font-size="64.0" fill="#D35854" transform="matrix(1.00, 0.00, -0.00, -1.00, 338.5, 322.0)">i</text><text xml:space="preserve" font-family="Futura-Medium" font-size="64.0" fill="#D35854" transform="matrix(1.00, 0.00, -0.00, -1.00, 354.4, 322.0)">n</text><text xml:space="preserve" font-family="Futura-Medium" font-size="64.0" fill="#D35854" transform="matrix(1.00, 0.00, -0.00, -1.00, 389.5, 322.0)">g</text><text xml:space="preserve" font-family="Futura-Medium" font-size="64.0" fill="#FEFFFF" transform="matrix(1.00, 0.00, -0.00, -1.00, 427.9, 322.0)">.</text><text xml:space="preserve" font-family="Futura-Medium" font-size="64.0" fill="#1497FC" transform="matrix(1.00, 0.00, -0.00, -1.00, 447.6, 322.0)">f</text><text xml:space="preserve" font-family="Futura-Medium" font-size="64.0" fill="#1497FC" transform="matrix(1.00, 0.00, -0.00, -1.00, 467.6, 322.0)">e</text><text xml:space="preserve" font-family="Futura-Medium" font-size="64.0" fill="#1497FC" transform="matrix(1.00, 0.00, -0.00, -1.00, 503.0, 322.0)">a</text><text xml:space="preserve" font-family="Futura-Medium" font-size="64.0" fill="#1497FC" transform="matrix(1.00, 0.00, -0.00, -1.00, 541.4, 322.0)">t</text><text xml:space="preserve" font-family="Futura-Medium" font-size="64.0" fill="#1497FC" transform="matrix(1.00, 0.00, -0.00, -1.00, 558.9, 322.0)">u</text><text xml:space="preserve" font-family="Futura-Medium" font-size="64.0" fill="#1497FC" transform="matrix(1.00, 0.00, -0.00, -1.00, 593.7, 322.0)">r</text><text xml:space="preserve" font-family="Futura-Medium" font-size="64.0" fill="#1497FC" transform="matrix(1.00, 0.00, -0.00, -1.00, 617.2, 322.0)">e</text><text xml:space="preserve" font-family="Futura-Medium" font-size="64.0" fill="#FEFFFF" transform="matrix(1.00, 0.00, -0.00, -1.00, 652.7, 322.0)">.</text><text xml:space="preserve" font-family="Futura-Medium" font-size="64.0" fill="#7ADA45" transform="matrix(1.00, 0.00, -0.00, -1.00, 672.4, 322.0)">b</text><text xml:space="preserve" font-family="Futura-Medium" font-size="64.0" fill="#7ADA45" transform="matrix(1.00, 0.00, -0.00, -1.00, 710.8, 322.0)">u</text><text xml:space="preserve" font-family="Futura-Medium" font-size="64.0" fill="#7ADA45" transform="matrix(1.00, 0.00, -0.00, -1.00, 745.6, 322.0)">g</text><text xml:space="preserve" font-family="Futura-Medium" font-size="64.0" fill="#7ADA45" transform="matrix(1.00, 0.00, -0.00, -1.00, 783.9, 322.0)">ﬁ</text><text xml:space="preserve" font-family="Futura-Medium" font-size="64.0" fill="#7ADA45" transform="matrix(1.00, 0.00, -0.00, -1.00, 817.8, 322.0)">x</text><text xml:space="preserve" font-family="Futura-Medium" font-size="37.0" fill="#FEFFFF" transform="matrix(1.00, 0.00, -0.00, -1.00, 623.2, 620.5)">t</text><text xml:space="preserve" font-family="Futura-Medium" font-size="37.0" fill="#FEFFFF" transform="matrix(1.00, 0.00, -0.00, -1.00, 634.0, 620.5)">h</text><text xml:space="preserve" font-family="Futura-Medium" font-size="37.0" fill="#FEFFFF" transform="matrix(1.00, 0.00, -0.00, -1.00, 654.3, 620.5)">e</text><text xml:space="preserve" font-family="Futura-Medium" font-size="37.0" fill="#FEFFFF" transform="matrix(1.00, 0.00, -0.00, -1.00, 674.8, 620.5)"> </text><text xml:space="preserve" font-family="Futura-Medium" font-size="37.0" fill="#FEFFFF" transform="matrix(1.00, 0.00, -0.00, -1.00, 686.2, 620.5)">g</text><text xml:space="preserve" font-family="Futura-Medium" font-size="37.0" fill="#FEFFFF" transform="matrix(1.00, 0.00, -0.00, -1.00, 708.4, 620.5)">l</text><text xml:space="preserve" font-family="Futura-Medium" font-size="37.0" fill="#FEFFFF" transform="matrix(1.00, 0.00, -0.00, -1.00, 717.6, 620.5)">u</text><text xml:space="preserve" font-family="Futura-Medium" font-size="37.0" fill="#FEFFFF" transform="matrix(1.00, 0.00, -0.00, -1.00, 737.7, 620.5)">e</text><text xml:space="preserve" font-family="Futura-Medium" font-size="37.0" fill="#FEFFFF" transform="matrix(1.00, 0.00, -0.00, -1.00, 758.2, 620.5)"> </text><text xml:space="preserve" font-family="Futura-Medium" font-size="37.0" fill="#FEFFFF" transform="matrix(1.00, 0.00, -0.00, -1.00, 769.6, 620.5)">t</text><text xml:space="preserve" font-family="Futura-Medium" font-size="37.0" fill="#FEFFFF" transform="matrix(1.00, 0.00, -0.00, -1.00, 780.5, 620.5)">h</text><text xml:space="preserve" font-family="Futura-Medium" font-size="37.0" fill="#FEFFFF" transform="matrix(1.00, 0.00, -0.00, -1.00, 800.8, 620.5)">a</text><text xml:space="preserve" font-family="Futura-Medium" font-size="37.0" fill="#FEFFFF" transform="matrix(1.00, 0.00, -0.00, -1.00, 823.0, 620.5)">t</text><text xml:space="preserve" font-family="Futura-Medium" font-size="37.0" fill="#FEFFFF" transform="matrix(1.00, 0.00, -0.00, -1.00, 833.1, 620.5)"> </text><text xml:space="preserve" font-family="Futura-Medium" font-size="37.0" fill="#FEFFFF" transform="matrix(1.00, 0.00, -0.00, -1.00, 844.5, 620.5)">h</text><text xml:space="preserve" font-family="Futura-Medium" font-size="37.0" fill="#FEFFFF" transform="matrix(1.00, 0.00, -0.00, -1.00, 864.8, 620.5)">o</text><text xml:space="preserve" font-family="Futura-Medium" font-size="37.0" fill="#FEFFFF" transform="matrix(1.00, 0.00, -0.00, -1.00, 887.0, 620.5)">l</text><text xml:space="preserve" font-family="Futura-Medium" font-size="37.0" fill="#FEFFFF" transform="matrix(1.00, 0.00, -0.00, -1.00, 896.3, 620.5)">d</text><text xml:space="preserve" font-family="Futura-Medium" font-size="37.0" fill="#FEFFFF" transform="matrix(1.00, 0.00, -0.00, -1.00, 918.4, 620.5)">s</text><text xml:space="preserve" font-family="Futura-Medium" font-size="37.0" fill="#FEFFFF" transform="matrix(1.00, 0.00, -0.00, -1.00, 933.4, 620.5)"> </text><text xml:space="preserve" font-family="Futura-Medium" font-size="37.0" fill="#FEFFFF" transform="matrix(1.00, 0.00, -0.00, -1.00, 709.6, 561.9)">i</text><text xml:space="preserve" font-family="Futura-Medium" font-size="37.0" fill="#FEFFFF" transform="matrix(1.00, 0.00, -0.00, -1.00, 718.9, 561.9)">t</text><text xml:space="preserve" font-family="Futura-Medium" font-size="37.0" fill="#FEFFFF" transform="matrix(1.00, 0.00, -0.00, -1.00, 729.0, 561.9)"> </text><text xml:space="preserve" font-family="Futura-Medium" font-size="37.0" fill="#FEFFFF" transform="matrix(1.00, 0.00, -0.00, -1.00, 740.4, 561.9)">a</text><text xml:space="preserve" font-family="Futura-Medium" font-size="37.0" fill="#FEFFFF" transform="matrix(1.00, 0.00, -0.00, -1.00, 762.6, 561.9)">l</text><text xml:space="preserve" font-family="Futura-Medium" font-size="37.0" fill="#FEFFFF" transform="matrix(1.00, 0.00, -0.00, -1.00, 771.8, 561.9)">l</text><text xml:space="preserve" font-family="Futura-Medium" font-size="37.0" fill="#FEFFFF" transform="matrix(1.00, 0.00, -0.00, -1.00, 781.0, 561.9)"> </text><text xml:space="preserve" font-family="Futura-Medium" font-size="37.0" fill="#FEFFFF" transform="matrix(1.00, 0.00, -0.00, -1.00, 792.4, 561.9)">t</text><text xml:space="preserve" font-family="Futura-Medium" font-size="37.0" fill="#FEFFFF" transform="matrix(1.00, 0.00, -0.00, -1.00, 802.8, 561.9)">o</text><text xml:space="preserve" font-family="Futura-Medium" font-size="37.0" fill="#FEFFFF" transform="matrix(1.00, 0.00, -0.00, -1.00, 825.0, 561.9)">g</text><text xml:space="preserve" font-family="Futura-Medium" font-size="37.0" fill="#FEFFFF" transform="matrix(1.00, 0.00, -0.00, -1.00, 847.2, 561.9)">e</text><text xml:space="preserve" font-family="Futura-Medium" font-size="37.0" fill="#FEFFFF" transform="matrix(1.00, 0.00, -0.00, -1.00, 868.0, 561.9)">t</text><text xml:space="preserve" font-family="Futura-Medium" font-size="37.0" fill="#FEFFFF" transform="matrix(1.00, 0.00, -0.00, -1.00, 878.8, 561.9)">h</text><text xml:space="preserve" font-family="Futura-Medium" font-size="37.0" fill="#FEFFFF" transform="matrix(1.00, 0.00, -0.00, -1.00, 899.1, 561.9)">e</text><text xml:space="preserve" font-family="Futura-Medium" font-size="37.0" fill="#FEFFFF" transform="matrix(1.00, 0.00, -0.00, -1.00, 919.6, 561.9)">r</text><path d="M 33.5 249.4 L 355.6 249.4 L 355.6 17.8 L 33.5 17.8 Z M 33.5 249.4 " fill="#FEFFFE"></path><g><clipPath id="clip-259"><path d="M 25.5 -0.9 L 670.4 -0.9 L 670.4 257.4 L 25.5 257.4 Z M 25.5 -0.9 "></path></clipPath><g clip-path="url(#clip-259)"><text xml:space="preserve" font-family="Futura-Medium" font-size="37.0" fill="#D35854" transform="matrix(1.00, 0.00, -0.00, -1.00, 37.0, 207.0)">A</text><text xml:space="preserve" font-family="Futura-Medium" font-size="37.0" fill="#D35854" transform="matrix(1.00, 0.00, -0.00, -1.00, 64.4, 207.0)">P</text><text xml:space="preserve" font-family="Futura-Medium" font-size="37.0" fill="#D35854" transform="matrix(1.00, 0.00, -0.00, -1.00, 84.4, 207.0)">I</text><text xml:space="preserve" font-family="Futura-Medium" font-size="37.0" fill="#D35854" transform="matrix(1.00, 0.00, -0.00, -1.00, 95.3, 207.0)"> </text><text xml:space="preserve" font-family="Futura-Medium" font-size="37.0" fill="#D35854" transform="matrix(1.00, 0.00, -0.00, -1.00, 106.7, 207.0)">o</text><text xml:space="preserve" font-family="Futura-Medium" font-size="37.0" fill="#D35854" transform="matrix(1.00, 0.00, -0.00, -1.00, 128.9, 207.0)">r</text><text xml:space="preserve" font-family="Futura-Medium" font-size="37.0" fill="#D35854" transform="matrix(1.00, 0.00, -0.00, -1.00, 142.8, 207.0)"> </text><text xml:space="preserve" font-family="Futura-Medium" font-size="37.0" fill="#D35854" transform="matrix(1.00, 0.00, -0.00, -1.00, 154.2, 207.0)">f</text><text xml:space="preserve" font-family="Futura-Medium" font-size="37.0" fill="#D35854" transform="matrix(1.00, 0.00, -0.00, -1.00, 165.2, 207.0)">u</text><text xml:space="preserve" font-family="Futura-Medium" font-size="37.0" fill="#D35854" transform="matrix(1.00, 0.00, -0.00, -1.00, 185.3, 207.0)">n</text><text xml:space="preserve" font-family="Futura-Medium" font-size="37.0" fill="#D35854" transform="matrix(1.00, 0.00, -0.00, -1.00, 205.6, 207.0)">c</text><text xml:space="preserve" font-family="Futura-Medium" font-size="37.0" fill="#D35854" transform="matrix(1.00, 0.00, -0.00, -1.00, 223.2, 207.0)">t</text><text xml:space="preserve" font-family="Futura-Medium" font-size="37.0" fill="#D35854" transform="matrix(1.00, 0.00, -0.00, -1.00, 233.4, 207.0)">i</text><text xml:space="preserve" font-family="Futura-Medium" font-size="37.0" fill="#D35854" transform="matrix(1.00, 0.00, -0.00, -1.00, 242.6, 207.0)">o</text><text xml:space="preserve" font-family="Futura-Medium" font-size="37.0" fill="#D35854" transform="matrix(1.00, 0.00, -0.00, -1.00, 264.8, 207.0)">n</text><text xml:space="preserve" font-family="Futura-Medium" font-size="37.0" fill="#D35854" transform="matrix(1.00, 0.00, -0.00, -1.00, 285.1, 207.0)">a</text><text xml:space="preserve" font-family="Futura-Medium" font-size="37.0" fill="#D35854" transform="matrix(1.00, 0.00, -0.00, -1.00, 307.3, 207.0)">l</text><text xml:space="preserve" font-family="Futura-Medium" font-size="37.0" fill="#D35854" transform="matrix(1.00, 0.00, -0.00, -1.00, 316.5, 207.0)"> </text><text xml:space="preserve" font-family="Futura-Medium" font-size="37.0" fill="#D35854" transform="matrix(1.00, 0.00, -0.00, -1.00, 37.0, 149.0)">c</text><text xml:space="preserve" font-family="Futura-Medium" font-size="37.0" fill="#D35854" transform="matrix(1.00, 0.00, -0.00, -1.00, 55.6, 149.0)">h</text><text xml:space="preserve" font-family="Futura-Medium" font-size="37.0" fill="#D35854" transform="matrix(1.00, 0.00, -0.00, -1.00, 75.9, 149.0)">a</text><text xml:space="preserve" font-family="Futura-Medium" font-size="37.0" fill="#D35854" transform="matrix(1.00, 0.00, -0.00, -1.00, 98.0, 149.0)">n</text><text xml:space="preserve" font-family="Futura-Medium" font-size="37.0" fill="#D35854" transform="matrix(1.00, 0.00, -0.00, -1.00, 118.3, 149.0)">g</text><text xml:space="preserve" font-family="Futura-Medium" font-size="37.0" fill="#D35854" transform="matrix(1.00, 0.00, -0.00, -1.00, 140.5, 149.0)">e</text><text xml:space="preserve" font-family="Futura-Medium" font-size="37.0" fill="#D35854" transform="matrix(1.00, 0.00, -0.00, -1.00, 161.0, 149.0)"> </text><text xml:space="preserve" font-family="Futura-Medium" font-size="37.0" fill="#D35854" transform="matrix(1.00, 0.00, -0.00, -1.00, 172.4, 149.0)">t</text><text xml:space="preserve" font-family="Futura-Medium" font-size="37.0" fill="#D35854" transform="matrix(1.00, 0.00, -0.00, -1.00, 183.2, 149.0)">h</text><text xml:space="preserve" font-family="Futura-Medium" font-size="37.0" fill="#D35854" transform="matrix(1.00, 0.00, -0.00, -1.00, 203.5, 149.0)">a</text><text xml:space="preserve" font-family="Futura-Medium" font-size="37.0" fill="#D35854" transform="matrix(1.00, 0.00, -0.00, -1.00, 225.7, 149.0)">t</text><text xml:space="preserve" font-family="Futura-Medium" font-size="37.0" fill="#D35854" transform="matrix(1.00, 0.00, -0.00, -1.00, 235.8, 149.0)"> </text><text xml:space="preserve" font-family="Futura-Medium" font-size="37.0" fill="#D35854" transform="matrix(1.00, 0.00, -0.00, -1.00, 247.2, 149.0)">c</text><text xml:space="preserve" font-family="Futura-Medium" font-size="37.0" fill="#D35854" transform="matrix(1.00, 0.00, -0.00, -1.00, 264.9, 149.0)">o</text><text xml:space="preserve" font-family="Futura-Medium" font-size="37.0" fill="#D35854" transform="matrix(1.00, 0.00, -0.00, -1.00, 287.1, 149.0)">u</text><text xml:space="preserve" font-family="Futura-Medium" font-size="37.0" fill="#D35854" transform="matrix(1.00, 0.00, -0.00, -1.00, 307.3, 149.0)">l</text><text xml:space="preserve" font-family="Futura-Medium" font-size="37.0" fill="#D35854" transform="matrix(1.00, 0.00, -0.00, -1.00, 316.5, 149.0)">d</text><text xml:space="preserve" font-family="Futura-Medium" font-size="37.0" fill="#D35854" transform="matrix(1.00, 0.00, -0.00, -1.00, 338.6, 149.0)"> </text><text xml:space="preserve" font-family="Futura-Medium" font-size="37.0" fill="#D35854" transform="matrix(1.00, 0.00, -0.00, -1.00, 37.0, 90.0)">b</text><text xml:space="preserve" font-family="Futura-Medium" font-size="37.0" fill="#D35854" transform="matrix(1.00, 0.00, -0.00, -1.00, 59.2, 90.0)">r</text><text xml:space="preserve" font-family="Futura-Medium" font-size="37.0" fill="#D35854" transform="matrix(1.00, 0.00, -0.00, -1.00, 72.8, 90.0)">e</text><text xml:space="preserve" font-family="Futura-Medium" font-size="37.0" fill="#D35854" transform="matrix(1.00, 0.00, -0.00, -1.00, 93.2, 90.0)">a</text><text xml:space="preserve" font-family="Futura-Medium" font-size="37.0" fill="#D35854" transform="matrix(1.00, 0.00, -0.00, -1.00, 115.4, 90.0)">k</text><text xml:space="preserve" font-family="Futura-Medium" font-size="37.0" fill="#D35854" transform="matrix(1.00, 0.00, -0.00, -1.00, 133.8, 90.0)"> </text><text xml:space="preserve" font-family="Futura-Medium" font-size="37.0" fill="#D35854" transform="matrix(1.00, 0.00, -0.00, -1.00, 145.2, 90.0)">s</text><text xml:space="preserve" font-family="Futura-Medium" font-size="37.0" fill="#D35854" transform="matrix(1.00, 0.00, -0.00, -1.00, 160.2, 90.0)">o</text><text xml:space="preserve" font-family="Futura-Medium" font-size="37.0" fill="#D35854" transform="matrix(1.00, 0.00, -0.00, -1.00, 182.5, 90.0)">m</text><text xml:space="preserve" font-family="Futura-Medium" font-size="37.0" fill="#D35854" transform="matrix(1.00, 0.00, -0.00, -1.00, 211.8, 90.0)">e</text><text xml:space="preserve" font-family="Futura-Medium" font-size="37.0" fill="#D35854" transform="matrix(1.00, 0.00, -0.00, -1.00, 232.2, 90.0)">o</text><text xml:space="preserve" font-family="Futura-Medium" font-size="37.0" fill="#D35854" transform="matrix(1.00, 0.00, -0.00, -1.00, 254.5, 90.0)">n</text><text xml:space="preserve" font-family="Futura-Medium" font-size="37.0" fill="#D35854" transform="matrix(1.00, 0.00, -0.00, -1.00, 274.8, 90.0)">e</text><text xml:space="preserve" font-family="Futura-Medium" font-size="37.0" fill="#D35854" transform="matrix(1.00, 0.00, -0.00, -1.00, 295.2, 90.0)"> </text><text xml:space="preserve" font-family="Futura-Medium" font-size="37.0" fill="#D35854" transform="matrix(1.00, 0.00, -0.00, -1.00, 37.0, 31.0)">e</text><text xml:space="preserve" font-family="Futura-Medium" font-size="37.0" fill="#D35854" transform="matrix(1.00, 0.00, -0.00, -1.00, 57.5, 31.0)">l</text><text xml:space="preserve" font-family="Futura-Medium" font-size="37.0" fill="#D35854" transform="matrix(1.00, 0.00, -0.00, -1.00, 66.7, 31.0)">s</text><text xml:space="preserve" font-family="Futura-Medium" font-size="37.0" fill="#D35854" transform="matrix(1.00, 0.00, -0.00, -1.00, 81.7, 31.0)">e</text><text xml:space="preserve" font-family="Futura-Medium" font-size="37.0" fill="#D35854" transform="matrix(1.00, 0.00, -0.00, -1.00, 102.2, 31.0)">’</text><text xml:space="preserve" font-family="Futura-Medium" font-size="37.0" fill="#D35854" transform="matrix(1.00, 0.00, -0.00, -1.00, 114.3, 31.0)">s</text><text xml:space="preserve" font-family="Futura-Medium" font-size="37.0" fill="#D35854" transform="matrix(1.00, 0.00, -0.00, -1.00, 129.3, 31.0)"> </text><text xml:space="preserve" font-family="Futura-Medium" font-size="37.0" fill="#D35854" transform="matrix(1.00, 0.00, -0.00, -1.00, 140.7, 31.0)">c</text><text xml:space="preserve" font-family="Futura-Medium" font-size="37.0" fill="#D35854" transform="matrix(1.00, 0.00, -0.00, -1.00, 158.3, 31.0)">o</text><text xml:space="preserve" font-family="Futura-Medium" font-size="37.0" fill="#D35854" transform="matrix(1.00, 0.00, -0.00, -1.00, 180.6, 31.0)">d</text><text xml:space="preserve" font-family="Futura-Medium" font-size="37.0" fill="#D35854" transform="matrix(1.00, 0.00, -0.00, -1.00, 202.7, 31.0)">e</text></g></g><path d="M 404.3 249.4 L 692.5 249.4 L 692.5 17.8 L 404.3 17.8 Z M 404.3 249.4 " fill="#FEFFFE"></path><g><clipPath id="clip-260"><path d="M 396.3 -0.9 L 913.9 -0.9 L 913.9 257.4 L 396.3 257.4 Z M 396.3 -0.9 "></path></clipPath><g clip-path="url(#clip-260)"><text xml:space="preserve" font-family="Futura-Medium" font-size="37.0" fill="#1497FC" transform="matrix(1.00, 0.00, -0.00, -1.00, 444.0, 207.0)">A</text><text xml:space="preserve" font-family="Futura-Medium" font-size="37.0" fill="#1497FC" transform="matrix(1.00, 0.00, -0.00, -1.00, 471.4, 207.0)">n</text><text xml:space="preserve" font-family="Futura-Medium" font-size="37.0" fill="#1497FC" transform="matrix(1.00, 0.00, -0.00, -1.00, 491.7, 207.0)"> </text><text xml:space="preserve" font-family="Futura-Medium" font-size="37.0" fill="#1497FC" transform="matrix(1.00, 0.00, -0.00, -1.00, 503.1, 207.0)">a</text><text xml:space="preserve" font-family="Futura-Medium" font-size="37.0" fill="#1497FC" transform="matrix(1.00, 0.00, -0.00, -1.00, 525.3, 207.0)">d</text><text xml:space="preserve" font-family="Futura-Medium" font-size="37.0" fill="#1497FC" transform="matrix(1.00, 0.00, -0.00, -1.00, 547.4, 207.0)">d</text><text xml:space="preserve" font-family="Futura-Medium" font-size="37.0" fill="#1497FC" transform="matrix(1.00, 0.00, -0.00, -1.00, 569.6, 207.0)">i</text><text xml:space="preserve" font-family="Futura-Medium" font-size="37.0" fill="#1497FC" transform="matrix(1.00, 0.00, -0.00, -1.00, 578.8, 207.0)">t</text><text xml:space="preserve" font-family="Futura-Medium" font-size="37.0" fill="#1497FC" transform="matrix(1.00, 0.00, -0.00, -1.00, 589.0, 207.0)">i</text><text xml:space="preserve" font-family="Futura-Medium" font-size="37.0" fill="#1497FC" transform="matrix(1.00, 0.00, -0.00, -1.00, 598.2, 207.0)">o</text><text xml:space="preserve" font-family="Futura-Medium" font-size="37.0" fill="#1497FC" transform="matrix(1.00, 0.00, -0.00, -1.00, 620.4, 207.0)">n</text><text xml:space="preserve" font-family="Futura-Medium" font-size="37.0" fill="#1497FC" transform="matrix(1.00, 0.00, -0.00, -1.00, 640.7, 207.0)">,</text><text xml:space="preserve" font-family="Futura-Medium" font-size="37.0" fill="#1497FC" transform="matrix(1.00, 0.00, -0.00, -1.00, 652.1, 207.0)"> </text><text xml:space="preserve" font-family="Futura-Medium" font-size="37.0" fill="#1497FC" transform="matrix(1.00, 0.00, -0.00, -1.00, 468.0, 149.0)">p</text><text xml:space="preserve" font-family="Futura-Medium" font-size="37.0" fill="#1497FC" transform="matrix(1.00, 0.00, -0.00, -1.00, 490.2, 149.0)">r</text><text xml:space="preserve" font-family="Futura-Medium" font-size="37.0" fill="#1497FC" transform="matrix(1.00, 0.00, -0.00, -1.00, 503.8, 149.0)">e</text><text xml:space="preserve" font-family="Futura-Medium" font-size="37.0" fill="#1497FC" transform="matrix(1.00, 0.00, -0.00, -1.00, 524.3, 149.0)">s</text><text xml:space="preserve" font-family="Futura-Medium" font-size="37.0" fill="#1497FC" transform="matrix(1.00, 0.00, -0.00, -1.00, 539.3, 149.0)">e</text><text xml:space="preserve" font-family="Futura-Medium" font-size="37.0" fill="#1497FC" transform="matrix(1.00, 0.00, -0.00, -1.00, 559.8, 149.0)">r</text><text xml:space="preserve" font-family="Futura-Medium" font-size="37.0" fill="#1497FC" transform="matrix(1.00, 0.00, -0.00, -1.00, 575.2, 149.0)">v</text><text xml:space="preserve" font-family="Futura-Medium" font-size="37.0" fill="#1497FC" transform="matrix(1.00, 0.00, -0.00, -1.00, 593.2, 149.0)">e</text><text xml:space="preserve" font-family="Futura-Medium" font-size="37.0" fill="#1497FC" transform="matrix(1.00, 0.00, -0.00, -1.00, 613.6, 149.0)">s</text><text xml:space="preserve" font-family="Futura-Medium" font-size="37.0" fill="#1497FC" transform="matrix(1.00, 0.00, -0.00, -1.00, 628.6, 149.0)"> </text><text xml:space="preserve" font-family="Futura-Medium" font-size="37.0" fill="#1497FC" transform="matrix(1.00, 0.00, -0.00, -1.00, 485.0, 90.0)">e</text><text xml:space="preserve" font-family="Futura-Medium" font-size="37.0" fill="#1497FC" transform="matrix(1.00, 0.00, -0.00, -1.00, 504.8, 90.0)">x</text><text xml:space="preserve" font-family="Futura-Medium" font-size="37.0" fill="#1497FC" transform="matrix(1.00, 0.00, -0.00, -1.00, 525.4, 90.0)">i</text><text xml:space="preserve" font-family="Futura-Medium" font-size="37.0" fill="#1497FC" transform="matrix(1.00, 0.00, -0.00, -1.00, 534.6, 90.0)">s</text><text xml:space="preserve" font-family="Futura-Medium" font-size="37.0" fill="#1497FC" transform="matrix(1.00, 0.00, -0.00, -1.00, 549.6, 90.0)">t</text><text xml:space="preserve" font-family="Futura-Medium" font-size="37.0" fill="#1497FC" transform="matrix(1.00, 0.00, -0.00, -1.00, 559.8, 90.0)">i</text><text xml:space="preserve" font-family="Futura-Medium" font-size="37.0" fill="#1497FC" transform="matrix(1.00, 0.00, -0.00, -1.00, 569.0, 90.0)">n</text><text xml:space="preserve" font-family="Futura-Medium" font-size="37.0" fill="#1497FC" transform="matrix(1.00, 0.00, -0.00, -1.00, 589.3, 90.0)">g</text><text xml:space="preserve" font-family="Futura-Medium" font-size="37.0" fill="#1497FC" transform="matrix(1.00, 0.00, -0.00, -1.00, 611.4, 90.0)"> </text><text xml:space="preserve" font-family="Futura-Medium" font-size="37.0" fill="#1497FC" transform="matrix(1.00, 0.00, -0.00, -1.00, 409.0, 31.0)">A</text><text xml:space="preserve" font-family="Futura-Medium" font-size="37.0" fill="#1497FC" transform="matrix(1.00, 0.00, -0.00, -1.00, 436.4, 31.0)">P</text><text xml:space="preserve" font-family="Futura-Medium" font-size="37.0" fill="#1497FC" transform="matrix(1.00, 0.00, -0.00, -1.00, 456.4, 31.0)">I</text><text xml:space="preserve" font-family="Futura-Medium" font-size="37.0" fill="#1497FC" transform="matrix(1.00, 0.00, -0.00, -1.00, 467.3, 31.0)">/</text><text xml:space="preserve" font-family="Futura-Medium" font-size="37.0" fill="#1497FC" transform="matrix(1.00, 0.00, -0.00, -1.00, 486.5, 31.0)">f</text><text xml:space="preserve" font-family="Futura-Medium" font-size="37.0" fill="#1497FC" transform="matrix(1.00, 0.00, -0.00, -1.00, 497.4, 31.0)">u</text><text xml:space="preserve" font-family="Futura-Medium" font-size="37.0" fill="#1497FC" transform="matrix(1.00, 0.00, -0.00, -1.00, 517.6, 31.0)">n</text><text xml:space="preserve" font-family="Futura-Medium" font-size="37.0" fill="#1497FC" transform="matrix(1.00, 0.00, -0.00, -1.00, 537.9, 31.0)">c</text><text xml:space="preserve" font-family="Futura-Medium" font-size="37.0" fill="#1497FC" transform="matrix(1.00, 0.00, -0.00, -1.00, 555.5, 31.0)">t</text><text xml:space="preserve" font-family="Futura-Medium" font-size="37.0" fill="#1497FC" transform="matrix(1.00, 0.00, -0.00, -1.00, 565.6, 31.0)">i</text><text xml:space="preserve" font-family="Futura-Medium" font-size="37.0" fill="#1497FC" transform="matrix(1.00, 0.00, -0.00, -1.00, 574.9, 31.0)">o</text><text xml:space="preserve" font-family="Futura-Medium" font-size="37.0" fill="#1497FC" transform="matrix(1.00, 0.00, -0.00, -1.00, 597.1, 31.0)">n</text><text xml:space="preserve" font-family="Futura-Medium" font-size="37.0" fill="#1497FC" transform="matrix(1.00, 0.00, -0.00, -1.00, 617.4, 31.0)">a</text><text xml:space="preserve" font-family="Futura-Medium" font-size="37.0" fill="#1497FC" transform="matrix(1.00, 0.00, -0.00, -1.00, 639.6, 31.0)">l</text><text xml:space="preserve" font-family="Futura-Medium" font-size="37.0" fill="#1497FC" transform="matrix(1.00, 0.00, -0.00, -1.00, 648.8, 31.0)">i</text><text xml:space="preserve" font-family="Futura-Medium" font-size="37.0" fill="#1497FC" transform="matrix(1.00, 0.00, -0.00, -1.00, 658.0, 31.0)">t</text><text xml:space="preserve" font-family="Futura-Medium" font-size="37.0" fill="#1497FC" transform="matrix(1.00, 0.00, -0.00, -1.00, 668.1, 31.0)">y</text></g></g><path d="M 760.1 249.4 L 987.4 249.4 L 987.4 17.8 L 760.1 17.8 Z M 760.1 249.4 " fill="#FEFFFE"></path><g><clipPath id="clip-261"><path d="M 752.1 -0.9 L 1207.4 -0.9 L 1207.4 257.4 L 752.1 257.4 Z M 752.1 -0.9 "></path></clipPath><g clip-path="url(#clip-261)"><text xml:space="preserve" font-family="Futura-Medium" font-size="37.0" fill="#7ADA45" transform="matrix(1.00, 0.00, -0.00, -1.00, 776.5, 207.1)">A</text><text xml:space="preserve" font-family="Futura-Medium" font-size="37.0" fill="#7ADA45" transform="matrix(1.00, 0.00, -0.00, -1.00, 803.9, 207.1)"> </text><text xml:space="preserve" font-family="Futura-Medium" font-size="37.0" fill="#7ADA45" transform="matrix(1.00, 0.00, -0.00, -1.00, 815.4, 207.1)">c</text><text xml:space="preserve" font-family="Futura-Medium" font-size="37.0" fill="#7ADA45" transform="matrix(1.00, 0.00, -0.00, -1.00, 833.9, 207.1)">h</text><text xml:space="preserve" font-family="Futura-Medium" font-size="37.0" fill="#7ADA45" transform="matrix(1.00, 0.00, -0.00, -1.00, 854.2, 207.1)">a</text><text xml:space="preserve" font-family="Futura-Medium" font-size="37.0" fill="#7ADA45" transform="matrix(1.00, 0.00, -0.00, -1.00, 876.4, 207.1)">n</text><text xml:space="preserve" font-family="Futura-Medium" font-size="37.0" fill="#7ADA45" transform="matrix(1.00, 0.00, -0.00, -1.00, 896.7, 207.1)">g</text><text xml:space="preserve" font-family="Futura-Medium" font-size="37.0" fill="#7ADA45" transform="matrix(1.00, 0.00, -0.00, -1.00, 918.9, 207.1)">e</text><text xml:space="preserve" font-family="Futura-Medium" font-size="37.0" fill="#7ADA45" transform="matrix(1.00, 0.00, -0.00, -1.00, 939.4, 207.1)"> </text><text xml:space="preserve" font-family="Futura-Medium" font-size="37.0" fill="#7ADA45" transform="matrix(1.00, 0.00, -0.00, -1.00, 950.8, 207.1)">t</text><text xml:space="preserve" font-family="Futura-Medium" font-size="37.0" fill="#7ADA45" transform="matrix(1.00, 0.00, -0.00, -1.00, 961.2, 207.1)">o</text><text xml:space="preserve" font-family="Futura-Medium" font-size="37.0" fill="#7ADA45" transform="matrix(1.00, 0.00, -0.00, -1.00, 983.4, 207.1)"> </text><text xml:space="preserve" font-family="Futura-Medium" font-size="37.0" fill="#7ADA45" transform="matrix(1.00, 0.00, -0.00, -1.00, 797.4, 148.6)">u</text><text xml:space="preserve" font-family="Futura-Medium" font-size="37.0" fill="#7ADA45" transform="matrix(1.00, 0.00, -0.00, -1.00, 817.5, 148.6)">n</text><text xml:space="preserve" font-family="Futura-Medium" font-size="37.0" fill="#7ADA45" transform="matrix(1.00, 0.00, -0.00, -1.00, 837.8, 148.6)">i</text><text xml:space="preserve" font-family="Futura-Medium" font-size="37.0" fill="#7ADA45" transform="matrix(1.00, 0.00, -0.00, -1.00, 847.1, 148.6)">n</text><text xml:space="preserve" font-family="Futura-Medium" font-size="37.0" fill="#7ADA45" transform="matrix(1.00, 0.00, -0.00, -1.00, 867.4, 148.6)">t</text><text xml:space="preserve" font-family="Futura-Medium" font-size="37.0" fill="#7ADA45" transform="matrix(1.00, 0.00, -0.00, -1.00, 877.8, 148.6)">e</text><text xml:space="preserve" font-family="Futura-Medium" font-size="37.0" fill="#7ADA45" transform="matrix(1.00, 0.00, -0.00, -1.00, 898.3, 148.6)">n</text><text xml:space="preserve" font-family="Futura-Medium" font-size="37.0" fill="#7ADA45" transform="matrix(1.00, 0.00, -0.00, -1.00, 918.6, 148.6)">d</text><text xml:space="preserve" font-family="Futura-Medium" font-size="37.0" fill="#7ADA45" transform="matrix(1.00, 0.00, -0.00, -1.00, 940.8, 148.6)">e</text><text xml:space="preserve" font-family="Futura-Medium" font-size="37.0" fill="#7ADA45" transform="matrix(1.00, 0.00, -0.00, -1.00, 961.2, 148.6)">d</text><text xml:space="preserve" font-family="Futura-Medium" font-size="37.0" fill="#7ADA45" transform="matrix(1.00, 0.00, -0.00, -1.00, 983.4, 148.6)"> </text><text xml:space="preserve" font-family="Futura-Medium" font-size="37.0" fill="#7ADA45" transform="matrix(1.00, 0.00, -0.00, -1.00, 781.6, 90.0)">f</text><text xml:space="preserve" font-family="Futura-Medium" font-size="37.0" fill="#7ADA45" transform="matrix(1.00, 0.00, -0.00, -1.00, 792.6, 90.0)">u</text><text xml:space="preserve" font-family="Futura-Medium" font-size="37.0" fill="#7ADA45" transform="matrix(1.00, 0.00, -0.00, -1.00, 812.7, 90.0)">n</text><text xml:space="preserve" font-family="Futura-Medium" font-size="37.0" fill="#7ADA45" transform="matrix(1.00, 0.00, -0.00, -1.00, 833.0, 90.0)">c</text><text xml:space="preserve" font-family="Futura-Medium" font-size="37.0" fill="#7ADA45" transform="matrix(1.00, 0.00, -0.00, -1.00, 850.7, 90.0)">t</text><text xml:space="preserve" font-family="Futura-Medium" font-size="37.0" fill="#7ADA45" transform="matrix(1.00, 0.00, -0.00, -1.00, 860.8, 90.0)">i</text><text xml:space="preserve" font-family="Futura-Medium" font-size="37.0" fill="#7ADA45" transform="matrix(1.00, 0.00, -0.00, -1.00, 870.0, 90.0)">o</text><text xml:space="preserve" font-family="Futura-Medium" font-size="37.0" fill="#7ADA45" transform="matrix(1.00, 0.00, -0.00, -1.00, 892.3, 90.0)">n</text><text xml:space="preserve" font-family="Futura-Medium" font-size="37.0" fill="#7ADA45" transform="matrix(1.00, 0.00, -0.00, -1.00, 912.6, 90.0)">a</text><text xml:space="preserve" font-family="Futura-Medium" font-size="37.0" fill="#7ADA45" transform="matrix(1.00, 0.00, -0.00, -1.00, 934.7, 90.0)">l</text><text xml:space="preserve" font-family="Futura-Medium" font-size="37.0" fill="#7ADA45" transform="matrix(1.00, 0.00, -0.00, -1.00, 943.9, 90.0)">i</text><text xml:space="preserve" font-family="Futura-Medium" font-size="37.0" fill="#7ADA45" transform="matrix(1.00, 0.00, -0.00, -1.00, 953.2, 90.0)">t</text><text xml:space="preserve" font-family="Futura-Medium" font-size="37.0" fill="#7ADA45" transform="matrix(1.00, 0.00, -0.00, -1.00, 963.3, 90.0)">y</text><text xml:space="preserve" font-family="Futura-Medium" font-size="37.0" fill="#7ADA45" transform="matrix(1.00, 0.00, -0.00, -1.00, 983.4, 90.0)"> </text></g></g><path d="M 228.3 293.1 L 214.2 307.2 L 208.4 259.9 L 255.7 265.7 L 241.6 279.8 L 256.5 294.8 L 243.2 308.0 Z M 228.3 293.1 " fill="#D35854"></path><path d="M 539.0 292.2 L 519.1 292.2 L 548.4 254.6 L 577.7 292.2 L 557.8 292.2 L 557.8 313.3 L 539.0 313.3 Z M 539.0 292.2 " fill="#1497FC"></path><path d="M 801.1 279.8 L 787.0 265.7 L 834.3 259.9 L 828.4 307.2 L 814.3 293.1 L 799.4 308.0 L 786.1 294.8 Z M 801.1 279.8 " fill="#7ADA45"></path></g></svg>