<?xml version="1.0" encoding="UTF-8" standalone="no"?><svg xmlns="http://www.w3.org/2000/svg" xmlns:xlink="http://www.w3.org/1999/xlink" clip-rule="evenodd" stroke-miterlimit="4.00" viewBox="0 0 1024 768"><desc>SVG generated by Keynote</desc><defs></defs><g transform="matrix(1.00, 0.00, -0.00, -1.00, 0.0, 768.0)"><path d="M 0.0 768.0 L 1024.0 768.0 L 1024.0 0.0 L 0.0 0.0 Z M 0.0 768.0 " fill="#000000"></path><image xlink:href="../../D5FEDDF2-B201-4664-969D-7CB045047AC3/assets/C4201017A772A1E7FC2887391F40F0AC.jpeg" width="745.00" height="493.00" transform="matrix(1.83, 0.00, -0.00, -1.83, -334.0, 780.0)"></image><text xml:space="preserve" font-family="Arial-Black" font-weight="bold" font-size="65.0" fill="#000000" transform="matrix(1.00, 0.00, -0.00, -1.00, 463.0, 697.0)">H</text><text xml:space="preserve" font-family="Arial-Black" font-weight="bold" font-size="65.0" fill="#000000" transform="matrix(1.00, 0.00, -0.00, -1.00, 517.1, 697.0)">o</text><text xml:space="preserve" font-family="Arial-Black" font-weight="bold" font-size="65.0" fill="#000000" transform="matrix(1.00, 0.00, -0.00, -1.00, 559.3, 697.0)">w</text><text xml:space="preserve" font-family="Arial-Black" font-weight="bold" font-size="65.0" fill="#000000" transform="matrix(1.00, 0.00, -0.00, -1.00, 620.7, 697.0)"> </text><text xml:space="preserve" font-family="Arial-Black" font-weight="bold" font-size="65.0" fill="#000000" transform="matrix(1.00, 0.00, -0.00, -1.00, 642.4, 697.0)">t</text><text xml:space="preserve" font-family="Arial-Black" font-weight="bold" font-size="65.0" fill="#000000" transform="matrix(1.00, 0.00, -0.00, -1.00, 671.2, 697.0)">o</text><text xml:space="preserve" font-family="Arial-Black" font-weight="bold" font-size="65.0" fill="#000000" transform="matrix(1.00, 0.00, -0.00, -1.00, 714.6, 697.0)"> </text><text xml:space="preserve" font-family="Arial-Black" font-weight="bold" font-size="65.0" fill="#000000" transform="matrix(1.00, 0.00, -0.00, -1.00, 736.3, 697.0)">a</text><text xml:space="preserve" font-family="Arial-Black" font-weight="bold" font-size="65.0" fill="#000000" transform="matrix(1.00, 0.00, -0.00, -1.00, 779.6, 697.0)">d</text><text xml:space="preserve" font-family="Arial-Black" font-weight="bold" font-size="65.0" fill="#000000" transform="matrix(1.00, 0.00, -0.00, -1.00, 823.6, 697.0)">d</text><text xml:space="preserve" font-family="Arial-Black" font-weight="bold" font-size="65.0" fill="#000000" transform="matrix(1.00, 0.00, -0.00, -1.00, 867.0, 697.0)"> </text><text xml:space="preserve" font-family="Arial-Black" font-weight="bold" font-size="65.0" fill="#000000" transform="matrix(1.00, 0.00, -0.00, -1.00, 888.7, 697.0)">C</text><text xml:space="preserve" font-family="Arial-Black" font-weight="bold" font-size="65.0" fill="#000000" transform="matrix(1.00, 0.00, -0.00, -1.00, 939.2, 697.0)">I</text><text xml:space="preserve" font-family="Arial-Black" font-weight="bold" font-size="65.0" fill="#000000" transform="matrix(1.00, 0.00, -0.00, -1.00, 964.5, 697.0)">?</text></g></svg>