<?xml version="1.0" encoding="UTF-8" standalone="no"?><svg xmlns="http://www.w3.org/2000/svg" xmlns:xlink="http://www.w3.org/1999/xlink" clip-rule="evenodd" stroke-miterlimit="4.00" viewBox="0 0 1024 768"><desc>SVG generated by Keynote</desc><defs></defs><g transform="matrix(1.00, 0.00, -0.00, -1.00, 0.0, 768.0)"><path d="M 0.0 768.0 L 1024.0 768.0 L 1024.0 0.0 L 0.0 0.0 Z M 0.0 768.0 " fill="#000000"></path><image xlink:href="../../ACA96662-F166-4760-8AE8-9EBA25DC9C03/assets/B973A9B3FD369B78700C7CEF3E57C32A.jpeg" width="800.00" height="341.00" transform="matrix(2.15, 0.00, -0.00, -2.15, -170.0, 729.0)"></image><text xml:space="preserve" font-family="Arial-Black" font-weight="bold" font-size="65.0" fill="#DCDDE0" transform="matrix(1.00, 0.00, -0.00, -1.00, 21.0, 696.0)">L</text><text xml:space="preserve" font-family="Arial-Black" font-weight="bold" font-size="65.0" fill="#DCDDE0" transform="matrix(1.00, 0.00, -0.00, -1.00, 64.4, 696.0)">e</text><text xml:space="preserve" font-family="Arial-Black" font-weight="bold" font-size="65.0" fill="#DCDDE0" transform="matrix(1.00, 0.00, -0.00, -1.00, 107.7, 696.0)">t</text><text xml:space="preserve" font-family="Arial-Black" font-weight="bold" font-size="65.0" fill="#DCDDE0" transform="matrix(1.00, 0.00, -0.00, -1.00, 136.5, 696.0)">’</text><text xml:space="preserve" font-family="Arial-Black" font-weight="bold" font-size="65.0" fill="#DCDDE0" transform="matrix(1.00, 0.00, -0.00, -1.00, 152.9, 696.0)">s</text><text xml:space="preserve" font-family="Arial-Black" font-weight="bold" font-size="65.0" fill="#DCDDE0" transform="matrix(1.00, 0.00, -0.00, -1.00, 192.6, 696.0)"> </text><text xml:space="preserve" font-family="Arial-Black" font-weight="bold" font-size="65.0" fill="#DCDDE0" transform="matrix(1.00, 0.00, -0.00, -1.00, 214.3, 696.0)">t</text><text xml:space="preserve" font-family="Arial-Black" font-weight="bold" font-size="65.0" fill="#DCDDE0" transform="matrix(1.00, 0.00, -0.00, -1.00, 243.2, 696.0)">a</text><text xml:space="preserve" font-family="Arial-Black" font-weight="bold" font-size="65.0" fill="#DCDDE0" transform="matrix(1.00, 0.00, -0.00, -1.00, 286.5, 696.0)">l</text><text xml:space="preserve" font-family="Arial-Black" font-weight="bold" font-size="65.0" fill="#DCDDE0" transform="matrix(1.00, 0.00, -0.00, -1.00, 308.2, 696.0)">k</text><text xml:space="preserve" font-family="Arial-Black" font-weight="bold" font-size="65.0" fill="#DCDDE0" transform="matrix(1.00, 0.00, -0.00, -1.00, 351.5, 696.0)"> </text><text xml:space="preserve" font-family="Arial-Black" font-weight="bold" font-size="65.0" fill="#DCDDE0" transform="matrix(1.00, 0.00, -0.00, -1.00, 373.2, 696.0)">a</text><text xml:space="preserve" font-family="Arial-Black" font-weight="bold" font-size="65.0" fill="#DCDDE0" transform="matrix(1.00, 0.00, -0.00, -1.00, 417.2, 696.0)">b</text><text xml:space="preserve" font-family="Arial-Black" font-weight="bold" font-size="65.0" fill="#DCDDE0" transform="matrix(1.00, 0.00, -0.00, -1.00, 460.6, 696.0)">o</text><text xml:space="preserve" font-family="Arial-Black" font-weight="bold" font-size="65.0" fill="#DCDDE0" transform="matrix(1.00, 0.00, -0.00, -1.00, 503.9, 696.0)">u</text><text xml:space="preserve" font-family="Arial-Black" font-weight="bold" font-size="65.0" fill="#DCDDE0" transform="matrix(1.00, 0.00, -0.00, -1.00, 547.3, 696.0)">t</text><text xml:space="preserve" font-family="Arial-Black" font-weight="bold" font-size="65.0" fill="#DCDDE0" transform="matrix(1.00, 0.00, -0.00, -1.00, 576.1, 696.0)"> </text><text xml:space="preserve" font-family="Arial-Black" font-weight="bold" font-size="65.0" fill="#DCDDE0" transform="matrix(1.00, 0.00, -0.00, -1.00, 597.8, 696.0)">t</text><text xml:space="preserve" font-family="Arial-Black" font-weight="bold" font-size="65.0" fill="#DCDDE0" transform="matrix(1.00, 0.00, -0.00, -1.00, 626.7, 696.0)">e</text><text xml:space="preserve" font-family="Arial-Black" font-weight="bold" font-size="65.0" fill="#DCDDE0" transform="matrix(1.00, 0.00, -0.00, -1.00, 670.0, 696.0)">s</text><text xml:space="preserve" font-family="Arial-Black" font-weight="bold" font-size="65.0" fill="#DCDDE0" transform="matrix(1.00, 0.00, -0.00, -1.00, 709.7, 696.0)">t</text><text xml:space="preserve" font-family="Arial-Black" font-weight="bold" font-size="65.0" fill="#DCDDE0" transform="matrix(1.00, 0.00, -0.00, -1.00, 738.5, 696.0)">s</text><image xlink:href="../../A0E82BAE-D492-42B0-8B24-11E44336DE5C/assets/AAFD513F773EAB66BA65AAEF1FE99E27.png" width="736.00" height="363.00" transform="matrix(1.00, 0.00, -0.00, -1.00, 378.0, 363.0)"></image><image xlink:href="../../A0E82BAE-D492-42B0-8B24-11E44336DE5C/assets/96A84C6BF5C05C8AC754AEE28CA5955A.png" width="372.00" height="275.00" transform="matrix(1.00, 0.00, -0.00, -1.00, 1.0, 277.0)"></image></g></svg>