<?xml version="1.0" encoding="UTF-8" standalone="no"?><svg xmlns="http://www.w3.org/2000/svg" xmlns:xlink="http://www.w3.org/1999/xlink" clip-rule="evenodd" stroke-miterlimit="4.00" viewBox="0 0 1024 768"><desc>SVG generated by Keynote</desc><defs></defs><g transform="matrix(1.00, 0.00, -0.00, -1.00, 0.0, 768.0)"><path d="M 0.0 768.0 L 1024.0 768.0 L 1024.0 0.0 L 0.0 0.0 Z M 0.0 768.0 " fill="#000000"></path><g><clipPath id="clip-166"><path d="M -134.0 771.0 L 1703.0 771.0 L 1703.0 -3.0 L -134.0 -3.0 Z M -133.7 771.3 "></path></clipPath><g clip-path="url(#clip-166)"><image xlink:href="../../42B962AB-3E13-45C3-98CD-852D8DC4419C/assets/C7936235D7C6D7AD25778C0633A5EE86.jpeg" width="1366.00" height="576.00" transform="matrix(1.34, 0.00, -0.00, -1.34, -134.0, 771.0)"></image></g></g><text xml:space="preserve" font-family="Arial-Black" font-weight="bold" font-size="49.0" fill="#FEFFFF" transform="matrix(1.00, 0.00, -0.00, -1.00, 251.0, 713.0)">L</text><text xml:space="preserve" font-family="Arial-Black" font-weight="bold" font-size="49.0" fill="#FEFFFF" transform="matrix(1.00, 0.00, -0.00, -1.00, 283.7, 713.0)">e</text><text xml:space="preserve" font-family="Arial-Black" font-weight="bold" font-size="49.0" fill="#FEFFFF" transform="matrix(1.00, 0.00, -0.00, -1.00, 316.4, 713.0)">t</text><text xml:space="preserve" font-family="Arial-Black" font-weight="bold" font-size="49.0" fill="#FEFFFF" transform="matrix(1.00, 0.00, -0.00, -1.00, 338.1, 713.0)">’</text><text xml:space="preserve" font-family="Arial-Black" font-weight="bold" font-size="49.0" fill="#FEFFFF" transform="matrix(1.00, 0.00, -0.00, -1.00, 350.4, 713.0)">s</text><text xml:space="preserve" font-family="Arial-Black" font-weight="bold" font-size="49.0" fill="#FEFFFF" transform="matrix(1.00, 0.00, -0.00, -1.00, 380.4, 713.0)"> </text><text xml:space="preserve" font-family="Arial-Black" font-weight="bold" font-size="49.0" fill="#FEFFFF" transform="matrix(1.00, 0.00, -0.00, -1.00, 396.7, 713.0)">t</text><text xml:space="preserve" font-family="Arial-Black" font-weight="bold" font-size="49.0" fill="#FEFFFF" transform="matrix(1.00, 0.00, -0.00, -1.00, 418.5, 713.0)">a</text><text xml:space="preserve" font-family="Arial-Black" font-weight="bold" font-size="49.0" fill="#FEFFFF" transform="matrix(1.00, 0.00, -0.00, -1.00, 451.2, 713.0)">l</text><text xml:space="preserve" font-family="Arial-Black" font-weight="bold" font-size="49.0" fill="#FEFFFF" transform="matrix(1.00, 0.00, -0.00, -1.00, 467.5, 713.0)">k</text><text xml:space="preserve" font-family="Arial-Black" font-weight="bold" font-size="49.0" fill="#FEFFFF" transform="matrix(1.00, 0.00, -0.00, -1.00, 500.2, 713.0)"> </text><text xml:space="preserve" font-family="Arial-Black" font-weight="bold" font-size="49.0" fill="#FEFFFF" transform="matrix(1.00, 0.00, -0.00, -1.00, 516.5, 713.0)">a</text><text xml:space="preserve" font-family="Arial-Black" font-weight="bold" font-size="49.0" fill="#FEFFFF" transform="matrix(1.00, 0.00, -0.00, -1.00, 549.7, 713.0)">b</text><text xml:space="preserve" font-family="Arial-Black" font-weight="bold" font-size="49.0" fill="#FEFFFF" transform="matrix(1.00, 0.00, -0.00, -1.00, 582.4, 713.0)">o</text><text xml:space="preserve" font-family="Arial-Black" font-weight="bold" font-size="49.0" fill="#FEFFFF" transform="matrix(1.00, 0.00, -0.00, -1.00, 615.0, 713.0)">u</text><text xml:space="preserve" font-family="Arial-Black" font-weight="bold" font-size="49.0" fill="#FEFFFF" transform="matrix(1.00, 0.00, -0.00, -1.00, 647.7, 713.0)">t</text><text xml:space="preserve" font-family="Arial-Black" font-weight="bold" font-size="49.0" fill="#FEFFFF" transform="matrix(1.00, 0.00, -0.00, -1.00, 669.5, 713.0)"> </text><text xml:space="preserve" font-family="Arial-Black" font-weight="bold" font-size="49.0" fill="#FEFFFF" transform="matrix(1.00, 0.00, -0.00, -1.00, 685.8, 713.0)">t</text><text xml:space="preserve" font-family="Arial-Black" font-weight="bold" font-size="49.0" fill="#FEFFFF" transform="matrix(1.00, 0.00, -0.00, -1.00, 707.6, 713.0)">h</text><text xml:space="preserve" font-family="Arial-Black" font-weight="bold" font-size="49.0" fill="#FEFFFF" transform="matrix(1.00, 0.00, -0.00, -1.00, 740.3, 713.0)">e</text><text xml:space="preserve" font-family="Arial-Black" font-weight="bold" font-size="49.0" fill="#FEFFFF" transform="matrix(1.00, 0.00, -0.00, -1.00, 772.9, 713.0)"> </text><text xml:space="preserve" font-family="Arial-Black" font-weight="bold" font-size="49.0" fill="#FEFFFF" transform="matrix(1.00, 0.00, -0.00, -1.00, 207.0, 644.0)">O</text><text xml:space="preserve" font-family="Arial-Black" font-weight="bold" font-size="49.0" fill="#FEFFFF" transform="matrix(1.00, 0.00, -0.00, -1.00, 247.8, 644.0)">p</text><text xml:space="preserve" font-family="Arial-Black" font-weight="bold" font-size="49.0" fill="#FEFFFF" transform="matrix(1.00, 0.00, -0.00, -1.00, 280.5, 644.0)">e</text><text xml:space="preserve" font-family="Arial-Black" font-weight="bold" font-size="49.0" fill="#FEFFFF" transform="matrix(1.00, 0.00, -0.00, -1.00, 313.2, 644.0)">n</text><text xml:space="preserve" font-family="Arial-Black" font-weight="bold" font-size="49.0" fill="#FEFFFF" transform="matrix(1.00, 0.00, -0.00, -1.00, 345.9, 644.0)"> </text><text xml:space="preserve" font-family="Arial-Black" font-weight="bold" font-size="49.0" fill="#FEFFFF" transform="matrix(1.00, 0.00, -0.00, -1.00, 362.2, 644.0)">S</text><text xml:space="preserve" font-family="Arial-Black" font-weight="bold" font-size="49.0" fill="#FEFFFF" transform="matrix(1.00, 0.00, -0.00, -1.00, 397.6, 644.0)">o</text><text xml:space="preserve" font-family="Arial-Black" font-weight="bold" font-size="49.0" fill="#FEFFFF" transform="matrix(1.00, 0.00, -0.00, -1.00, 430.3, 644.0)">u</text><text xml:space="preserve" font-family="Arial-Black" font-weight="bold" font-size="49.0" fill="#FEFFFF" transform="matrix(1.00, 0.00, -0.00, -1.00, 463.0, 644.0)">r</text><text xml:space="preserve" font-family="Arial-Black" font-weight="bold" font-size="49.0" fill="#FEFFFF" transform="matrix(1.00, 0.00, -0.00, -1.00, 485.6, 644.0)">c</text><text xml:space="preserve" font-family="Arial-Black" font-weight="bold" font-size="49.0" fill="#FEFFFF" transform="matrix(1.00, 0.00, -0.00, -1.00, 518.3, 644.0)">e</text><text xml:space="preserve" font-family="Arial-Black" font-weight="bold" font-size="49.0" fill="#FEFFFF" transform="matrix(1.00, 0.00, -0.00, -1.00, 550.9, 644.0)"> </text><text xml:space="preserve" font-family="Arial-Black" font-weight="bold" font-size="49.0" fill="#FEFFFF" transform="matrix(1.00, 0.00, -0.00, -1.00, 567.3, 644.0)">W</text><text xml:space="preserve" font-family="Arial-Black" font-weight="bold" font-size="49.0" fill="#FEFFFF" transform="matrix(1.00, 0.00, -0.00, -1.00, 615.0, 644.0)">o</text><text xml:space="preserve" font-family="Arial-Black" font-weight="bold" font-size="49.0" fill="#FEFFFF" transform="matrix(1.00, 0.00, -0.00, -1.00, 647.7, 644.0)">r</text><text xml:space="preserve" font-family="Arial-Black" font-weight="bold" font-size="49.0" fill="#FEFFFF" transform="matrix(1.00, 0.00, -0.00, -1.00, 671.1, 644.0)">k</text><text xml:space="preserve" font-family="Arial-Black" font-weight="bold" font-size="49.0" fill="#FEFFFF" transform="matrix(1.00, 0.00, -0.00, -1.00, 703.8, 644.0)">f</text><text xml:space="preserve" font-family="Arial-Black" font-weight="bold" font-size="49.0" fill="#FEFFFF" transform="matrix(1.00, 0.00, -0.00, -1.00, 722.8, 644.0)">l</text><text xml:space="preserve" font-family="Arial-Black" font-weight="bold" font-size="49.0" fill="#FEFFFF" transform="matrix(1.00, 0.00, -0.00, -1.00, 739.2, 644.0)">o</text><text xml:space="preserve" font-family="Arial-Black" font-weight="bold" font-size="49.0" fill="#FEFFFF" transform="matrix(1.00, 0.00, -0.00, -1.00, 771.0, 644.0)">w</text><path d="M 0.0 0.0 L 291.3 0.0 L 291.3 132.1 L 0.0 132.1 Z M 0.0 0.0 " fill="none" stroke="#E7A432" stroke-width="5.00" transform="matrix(1.00, 0.00, 0.00, -1.00, 21.8, 624.6)"></path><g><clipPath id="clip-167"><path d="M 18.5 488.4 L 589.5 488.4 L 589.5 627.9 L 18.5 627.9 Z M 18.5 488.4 "></path></clipPath><g clip-path="url(#clip-167)"><text xml:space="preserve" font-family="Futura-Medium" font-size="30.0" fill="#FEFFFF" transform="matrix(1.00, 0.00, -0.00, -1.00, 57.0, 587.0)">I</text><text xml:space="preserve" font-family="Futura-Medium" font-size="30.0" fill="#FEFFFF" transform="matrix(1.00, 0.00, -0.00, -1.00, 65.8, 587.0)">d</text><text xml:space="preserve" font-family="Futura-Medium" font-size="30.0" fill="#FEFFFF" transform="matrix(1.00, 0.00, -0.00, -1.00, 83.8, 587.0)">e</text><text xml:space="preserve" font-family="Futura-Medium" font-size="30.0" fill="#FEFFFF" transform="matrix(1.00, 0.00, -0.00, -1.00, 100.4, 587.0)">a</text><text xml:space="preserve" font-family="Futura-Medium" font-size="30.0" fill="#FEFFFF" transform="matrix(1.00, 0.00, -0.00, -1.00, 118.4, 587.0)"> </text><text xml:space="preserve" font-family="Futura-Medium" font-size="30.0" fill="#FEFFFF" transform="matrix(1.00, 0.00, -0.00, -1.00, 127.6, 587.0)">o</text><text xml:space="preserve" font-family="Futura-Medium" font-size="30.0" fill="#FEFFFF" transform="matrix(1.00, 0.00, -0.00, -1.00, 145.7, 587.0)">r</text><text xml:space="preserve" font-family="Futura-Medium" font-size="30.0" fill="#FEFFFF" transform="matrix(1.00, 0.00, -0.00, -1.00, 156.9, 587.0)"> </text><text xml:space="preserve" font-family="Futura-Medium" font-size="30.0" fill="#FEFFFF" transform="matrix(1.00, 0.00, -0.00, -1.00, 166.1, 587.0)">P</text><text xml:space="preserve" font-family="Futura-Medium" font-size="30.0" fill="#FEFFFF" transform="matrix(1.00, 0.00, -0.00, -1.00, 182.3, 587.0)">r</text><text xml:space="preserve" font-family="Futura-Medium" font-size="30.0" fill="#FEFFFF" transform="matrix(1.00, 0.00, -0.00, -1.00, 193.3, 587.0)">o</text><text xml:space="preserve" font-family="Futura-Medium" font-size="30.0" fill="#FEFFFF" transform="matrix(1.00, 0.00, -0.00, -1.00, 211.3, 587.0)">b</text><text xml:space="preserve" font-family="Futura-Medium" font-size="30.0" fill="#FEFFFF" transform="matrix(1.00, 0.00, -0.00, -1.00, 229.3, 587.0)">l</text><text xml:space="preserve" font-family="Futura-Medium" font-size="30.0" fill="#FEFFFF" transform="matrix(1.00, 0.00, -0.00, -1.00, 236.8, 587.0)">e</text><text xml:space="preserve" font-family="Futura-Medium" font-size="30.0" fill="#FEFFFF" transform="matrix(1.00, 0.00, -0.00, -1.00, 253.4, 587.0)">m</text><text xml:space="preserve" font-family="Futura-Medium" font-size="30.0" fill="#FEFFFF" transform="matrix(1.00, 0.00, -0.00, -1.00, 277.1, 587.0)"> </text><path d="M 33.1 38.2 L 253.2 38.2 " fill="none" stroke="#FEFFFF" stroke-width="2.34" stroke-miterlimit="0.00" transform="matrix(1.00, 0.00, 0.00, -1.00, 24.3, 622.1)"></path><text xml:space="preserve" font-family="Futura-Medium" font-size="30.0" fill="#FEFFFF" transform="matrix(1.00, 0.00, -0.00, -1.00, 28.0, 547.0)">I</text><text xml:space="preserve" font-family="Futura-Medium" font-size="30.0" fill="#FEFFFF" transform="matrix(1.00, 0.00, -0.00, -1.00, 36.8, 547.0)">s</text><text xml:space="preserve" font-family="Futura-Medium" font-size="30.0" fill="#FEFFFF" transform="matrix(1.00, 0.00, -0.00, -1.00, 49.0, 547.0)">s</text><text xml:space="preserve" font-family="Futura-Medium" font-size="30.0" fill="#FEFFFF" transform="matrix(1.00, 0.00, -0.00, -1.00, 61.2, 547.0)">u</text><text xml:space="preserve" font-family="Futura-Medium" font-size="30.0" fill="#FEFFFF" transform="matrix(1.00, 0.00, -0.00, -1.00, 77.5, 547.0)">e</text><text xml:space="preserve" font-family="Futura-Medium" font-size="30.0" fill="#FEFFFF" transform="matrix(1.00, 0.00, -0.00, -1.00, 94.1, 547.0)"> </text><text xml:space="preserve" font-family="Futura-Medium" font-size="30.0" fill="#FEFFFF" transform="matrix(1.00, 0.00, -0.00, -1.00, 103.4, 547.0)">i</text><text xml:space="preserve" font-family="Futura-Medium" font-size="30.0" fill="#FEFFFF" transform="matrix(1.00, 0.00, -0.00, -1.00, 110.8, 547.0)">n</text><text xml:space="preserve" font-family="Futura-Medium" font-size="30.0" fill="#FEFFFF" transform="matrix(1.00, 0.00, -0.00, -1.00, 127.3, 547.0)"> </text><text xml:space="preserve" font-family="Futura-Medium" font-size="30.0" fill="#FEFFFF" transform="matrix(1.00, 0.00, -0.00, -1.00, 136.5, 547.0)">G</text><text xml:space="preserve" font-family="Futura-Medium" font-size="30.0" fill="#FEFFFF" transform="matrix(1.00, 0.00, -0.00, -1.00, 161.8, 547.0)">H</text><text xml:space="preserve" font-family="Futura-Medium" font-size="30.0" fill="#FEFFFF" transform="matrix(1.00, 0.00, -0.00, -1.00, 183.8, 547.0)"> </text><text xml:space="preserve" font-family="Futura-Medium" font-size="30.0" fill="#FEFFFF" transform="matrix(1.00, 0.00, -0.00, -1.00, 193.1, 547.0)">c</text><text xml:space="preserve" font-family="Futura-Medium" font-size="30.0" fill="#FEFFFF" transform="matrix(1.00, 0.00, -0.00, -1.00, 207.4, 547.0)">r</text><text xml:space="preserve" font-family="Futura-Medium" font-size="30.0" fill="#FEFFFF" transform="matrix(1.00, 0.00, -0.00, -1.00, 218.4, 547.0)">e</text><text xml:space="preserve" font-family="Futura-Medium" font-size="30.0" fill="#FEFFFF" transform="matrix(1.00, 0.00, -0.00, -1.00, 235.0, 547.0)">a</text><text xml:space="preserve" font-family="Futura-Medium" font-size="30.0" fill="#FEFFFF" transform="matrix(1.00, 0.00, -0.00, -1.00, 253.0, 547.0)">t</text><text xml:space="preserve" font-family="Futura-Medium" font-size="30.0" fill="#FEFFFF" transform="matrix(1.00, 0.00, -0.00, -1.00, 261.4, 547.0)">e</text><text xml:space="preserve" font-family="Futura-Medium" font-size="30.0" fill="#FEFFFF" transform="matrix(1.00, 0.00, -0.00, -1.00, 278.0, 547.0)">d</text><text xml:space="preserve" font-family="Futura-Medium" font-size="30.0" fill="#FEFFFF" transform="matrix(1.00, 0.00, -0.00, -1.00, 296.0, 547.0)"> </text><text xml:space="preserve" font-family="Futura-Medium" font-size="30.0" fill="#FEFFFF" transform="matrix(1.00, 0.00, -0.00, -1.00, 28.0, 507.0)">D</text><text xml:space="preserve" font-family="Futura-Medium" font-size="30.0" fill="#FEFFFF" transform="matrix(1.00, 0.00, -0.00, -1.00, 49.8, 507.0)">i</text><text xml:space="preserve" font-family="Futura-Medium" font-size="30.0" fill="#FEFFFF" transform="matrix(1.00, 0.00, -0.00, -1.00, 57.3, 507.0)">s</text><text xml:space="preserve" font-family="Futura-Medium" font-size="30.0" fill="#FEFFFF" transform="matrix(1.00, 0.00, -0.00, -1.00, 69.4, 507.0)">c</text><text xml:space="preserve" font-family="Futura-Medium" font-size="30.0" fill="#FEFFFF" transform="matrix(1.00, 0.00, -0.00, -1.00, 83.7, 507.0)">u</text><text xml:space="preserve" font-family="Futura-Medium" font-size="30.0" fill="#FEFFFF" transform="matrix(1.00, 0.00, -0.00, -1.00, 100.1, 507.0)">s</text><text xml:space="preserve" font-family="Futura-Medium" font-size="30.0" fill="#FEFFFF" transform="matrix(1.00, 0.00, -0.00, -1.00, 112.2, 507.0)">s</text><text xml:space="preserve" font-family="Futura-Medium" font-size="30.0" fill="#FEFFFF" transform="matrix(1.00, 0.00, -0.00, -1.00, 124.4, 507.0)">i</text><text xml:space="preserve" font-family="Futura-Medium" font-size="30.0" fill="#FEFFFF" transform="matrix(1.00, 0.00, -0.00, -1.00, 131.9, 507.0)">o</text><text xml:space="preserve" font-family="Futura-Medium" font-size="30.0" fill="#FEFFFF" transform="matrix(1.00, 0.00, -0.00, -1.00, 149.9, 507.0)">n</text></g></g></g></svg>