<?xml version="1.0" encoding="UTF-8" standalone="no"?><svg xmlns="http://www.w3.org/2000/svg" xmlns:xlink="http://www.w3.org/1999/xlink" clip-rule="evenodd" stroke-miterlimit="4.00" viewBox="0 0 1024 768"><desc>SVG generated by Keynote</desc><defs></defs><g transform="matrix(1.00, 0.00, -0.00, -1.00, 0.0, 768.0)"><path d="M 0.0 768.0 L 1024.0 768.0 L 1024.0 0.0 L 0.0 0.0 Z M 0.0 768.0 " fill="#000000"></path><image xlink:href="../../1256FE65-D94E-4C0E-A121-45AC2A2CA185/assets/5E9C0F96410A448DAA6EDB8ECCE05295.jpeg" width="441.00" height="720.00" transform="matrix(1.00, 0.00, -0.00, -1.00, -14.0, 765.0)"></image><text xml:space="preserve" font-family="Arial-Black" font-weight="bold" font-size="57.0" fill="#00F900" transform="matrix(1.00, 0.00, -0.00, -1.00, 417.0, 663.0)"> </text><text xml:space="preserve" font-family="Arial-Black" font-weight="bold" font-size="57.0" fill="#00F900" transform="matrix(1.00, 0.00, -0.00, -1.00, 436.0, 663.0)"> </text><text xml:space="preserve" font-family="Arial-Black" font-weight="bold" font-size="57.0" fill="#00F900" transform="matrix(1.00, 0.00, -0.00, -1.00, 455.1, 663.0)"> </text><text xml:space="preserve" font-family="Arial-Black" font-weight="bold" font-size="57.0" fill="#00F900" transform="matrix(1.00, 0.00, -0.00, -1.00, 474.1, 663.0)"> </text><text xml:space="preserve" font-family="Arial-Black" font-weight="bold" font-size="57.0" fill="#00F900" transform="matrix(1.00, 0.00, -0.00, -1.00, 493.2, 663.0)"> </text><text xml:space="preserve" font-family="Arial-Black" font-weight="bold" font-size="57.0" fill="#00F900" transform="matrix(1.00, 0.00, -0.00, -1.00, 512.2, 663.0)"> </text><text xml:space="preserve" font-family="Arial-Black" font-weight="bold" font-size="57.0" fill="#00F900" transform="matrix(1.00, 0.00, -0.00, -1.00, 531.2, 663.0)"> </text><text xml:space="preserve" font-family="Arial-Black" font-weight="bold" font-size="57.0" fill="#00F900" transform="matrix(1.00, 0.00, -0.00, -1.00, 550.3, 663.0)"> </text><text xml:space="preserve" font-family="Arial-Black" font-weight="bold" font-size="57.0" fill="#00F900" transform="matrix(1.00, 0.00, -0.00, -1.00, 569.3, 663.0)"> </text><text xml:space="preserve" font-family="Arial-Black" font-weight="bold" font-size="57.0" fill="#00F900" transform="matrix(1.00, 0.00, -0.00, -1.00, 588.3, 663.0)"> </text><text xml:space="preserve" font-family="Arial-Black" font-weight="bold" font-size="57.0" fill="#00F900" transform="matrix(1.00, 0.00, -0.00, -1.00, 607.4, 663.0)"> </text><text xml:space="preserve" font-family="Arial-Black" font-weight="bold" font-size="57.0" fill="#00F900" transform="matrix(1.00, 0.00, -0.00, -1.00, 626.4, 663.0)"> </text><text xml:space="preserve" font-family="Arial-Black" font-weight="bold" font-size="57.0" fill="#FEFFFF" transform="matrix(1.00, 0.00, -0.00, -1.00, 645.1, 663.0)">P</text><text xml:space="preserve" font-family="Arial-Black" font-weight="bold" font-size="57.0" fill="#FEFFFF" transform="matrix(1.00, 0.00, -0.00, -1.00, 686.3, 663.0)">h</text><text xml:space="preserve" font-family="Arial-Black" font-weight="bold" font-size="57.0" fill="#FEFFFF" transform="matrix(1.00, 0.00, -0.00, -1.00, 724.3, 663.0)">i</text><text xml:space="preserve" font-family="Arial-Black" font-weight="bold" font-size="57.0" fill="#FEFFFF" transform="matrix(1.00, 0.00, -0.00, -1.00, 743.3, 663.0)">l</text><text xml:space="preserve" font-family="Arial-Black" font-weight="bold" font-size="57.0" fill="#FEFFFF" transform="matrix(1.00, 0.00, -0.00, -1.00, 762.3, 663.0)">o</text><text xml:space="preserve" font-family="Arial-Black" font-weight="bold" font-size="57.0" fill="#FEFFFF" transform="matrix(1.00, 0.00, -0.00, -1.00, 800.3, 663.0)">s</text><text xml:space="preserve" font-family="Arial-Black" font-weight="bold" font-size="57.0" fill="#FEFFFF" transform="matrix(1.00, 0.00, -0.00, -1.00, 835.1, 663.0)">o</text><text xml:space="preserve" font-family="Arial-Black" font-weight="bold" font-size="57.0" fill="#FEFFFF" transform="matrix(1.00, 0.00, -0.00, -1.00, 873.1, 663.0)">p</text><text xml:space="preserve" font-family="Arial-Black" font-weight="bold" font-size="57.0" fill="#FEFFFF" transform="matrix(1.00, 0.00, -0.00, -1.00, 911.1, 663.0)">h</text><text xml:space="preserve" font-family="Arial-Black" font-weight="bold" font-size="57.0" fill="#FEFFFF" transform="matrix(1.00, 0.00, -0.00, -1.00, 949.1, 663.0)">y</text><text xml:space="preserve" font-family="Arial-Black" font-weight="bold" font-size="57.0" fill="#FEFFFF" transform="matrix(1.00, 0.00, -0.00, -1.00, 984.0, 663.0)"> </text><text xml:space="preserve" font-family="Arial-Black" font-weight="bold" font-size="57.0" fill="#FEFFFF" transform="matrix(1.00, 0.00, -0.00, -1.00, 682.0, 582.0)">=</text><text xml:space="preserve" font-family="Arial-Black" font-weight="bold" font-size="57.0" fill="#FEFFFF" transform="matrix(1.00, 0.00, -0.00, -1.00, 719.6, 582.0)"> </text><text xml:space="preserve" font-family="Arial-Black" font-weight="bold" font-size="57.0" fill="#FEFB00" transform="matrix(1.00, 0.00, -0.00, -1.00, 417.0, 501.0)"> </text><text xml:space="preserve" font-family="Arial-Black" font-weight="bold" font-size="57.0" fill="#FEFB00" transform="matrix(1.00, 0.00, -0.00, -1.00, 436.0, 501.0)"> </text><text xml:space="preserve" font-family="Arial-Black" font-weight="bold" font-size="57.0" fill="#FEFB00" transform="matrix(1.00, 0.00, -0.00, -1.00, 455.1, 501.0)"> </text><text xml:space="preserve" font-family="Arial-Black" font-weight="bold" font-size="57.0" fill="#FEFB00" transform="matrix(1.00, 0.00, -0.00, -1.00, 474.1, 501.0)"> </text><text xml:space="preserve" font-family="Arial-Black" font-weight="bold" font-size="57.0" fill="#FEFB00" transform="matrix(1.00, 0.00, -0.00, -1.00, 493.2, 501.0)"> </text><text xml:space="preserve" font-family="Arial-Black" font-weight="bold" font-size="57.0" fill="#FEFB00" transform="matrix(1.00, 0.00, -0.00, -1.00, 512.2, 501.0)"> </text><text xml:space="preserve" font-family="Arial-Black" font-weight="bold" font-size="57.0" fill="#FEFB00" transform="matrix(1.00, 0.00, -0.00, -1.00, 531.2, 501.0)"> </text><text xml:space="preserve" font-family="Arial-Black" font-weight="bold" font-size="57.0" fill="#FEFB00" transform="matrix(1.00, 0.00, -0.00, -1.00, 550.3, 501.0)"> </text><text xml:space="preserve" font-family="Arial-Black" font-weight="bold" font-size="57.0" fill="#FEFB00" transform="matrix(1.00, 0.00, -0.00, -1.00, 569.3, 501.0)"> </text><text xml:space="preserve" font-family="Arial-Black" font-weight="bold" font-size="57.0" fill="#FEFB00" transform="matrix(1.00, 0.00, -0.00, -1.00, 588.3, 501.0)"> </text><text xml:space="preserve" font-family="Arial-Black" font-weight="bold" font-size="57.0" fill="#FEFB00" transform="matrix(1.00, 0.00, -0.00, -1.00, 607.4, 501.0)"> </text><text xml:space="preserve" font-family="Arial-Black" font-weight="bold" font-size="57.0" fill="#FEFB00" transform="matrix(1.00, 0.00, -0.00, -1.00, 626.4, 501.0)"> </text><text xml:space="preserve" font-family="Arial-Black" font-weight="bold" font-size="57.0" fill="#FEFFFF" transform="matrix(1.00, 0.00, -0.00, -1.00, 645.1, 501.0)">P</text><text xml:space="preserve" font-family="Arial-Black" font-weight="bold" font-size="57.0" fill="#FEFFFF" transform="matrix(1.00, 0.00, -0.00, -1.00, 686.3, 501.0)">h</text><text xml:space="preserve" font-family="Arial-Black" font-weight="bold" font-size="57.0" fill="#FEFFFF" transform="matrix(1.00, 0.00, -0.00, -1.00, 724.3, 501.0)">i</text><text xml:space="preserve" font-family="Arial-Black" font-weight="bold" font-size="57.0" fill="#FEFFFF" transform="matrix(1.00, 0.00, -0.00, -1.00, 743.3, 501.0)">l</text><text xml:space="preserve" font-family="Arial-Black" font-weight="bold" font-size="57.0" fill="#FEFFFF" transform="matrix(1.00, 0.00, -0.00, -1.00, 762.3, 501.0)">o</text><text xml:space="preserve" font-family="Arial-Black" font-weight="bold" font-size="57.0" fill="#FEFFFF" transform="matrix(1.00, 0.00, -0.00, -1.00, 800.3, 501.0)">s</text><text xml:space="preserve" font-family="Arial-Black" font-weight="bold" font-size="57.0" fill="#FEFFFF" transform="matrix(1.00, 0.00, -0.00, -1.00, 835.1, 501.0)">o</text><text xml:space="preserve" font-family="Arial-Black" font-weight="bold" font-size="57.0" fill="#FEFFFF" transform="matrix(1.00, 0.00, -0.00, -1.00, 873.1, 501.0)">p</text><text xml:space="preserve" font-family="Arial-Black" font-weight="bold" font-size="57.0" fill="#FEFFFF" transform="matrix(1.00, 0.00, -0.00, -1.00, 911.1, 501.0)">h</text><text xml:space="preserve" font-family="Arial-Black" font-weight="bold" font-size="57.0" fill="#FEFFFF" transform="matrix(1.00, 0.00, -0.00, -1.00, 949.1, 501.0)">y</text><text xml:space="preserve" font-family="Futura-Medium" font-size="39.0" fill="#00F900" transform="matrix(1.00, 0.00, -0.00, -1.00, 450.9, 395.9)">•</text><text xml:space="preserve" font-family="Futura-Medium" font-size="39.0" fill="#00F900" transform="matrix(1.00, 0.00, -0.00, -1.00, 480.0, 396.0)">M</text><text xml:space="preserve" font-family="Futura-Medium" font-size="39.0" fill="#00F900" transform="matrix(1.00, 0.00, -0.00, -1.00, 517.5, 396.0)">a</text><text xml:space="preserve" font-family="Futura-Medium" font-size="39.0" fill="#00F900" transform="matrix(1.00, 0.00, -0.00, -1.00, 540.9, 396.0)">n</text><text xml:space="preserve" font-family="Futura-Medium" font-size="39.0" fill="#00F900" transform="matrix(1.00, 0.00, -0.00, -1.00, 561.6, 396.0)">y</text><text xml:space="preserve" font-family="Futura-Medium" font-size="39.0" fill="#00F900" transform="matrix(1.00, 0.00, -0.00, -1.00, 582.9, 396.0)"> </text><text xml:space="preserve" font-family="Futura-Medium" font-size="39.0" fill="#00F900" transform="matrix(1.00, 0.00, -0.00, -1.00, 594.9, 396.0)">s</text><text xml:space="preserve" font-family="Futura-Medium" font-size="39.0" fill="#00F900" transform="matrix(1.00, 0.00, -0.00, -1.00, 610.7, 396.0)">m</text><text xml:space="preserve" font-family="Futura-Medium" font-size="39.0" fill="#00F900" transform="matrix(1.00, 0.00, -0.00, -1.00, 641.5, 396.0)">a</text><text xml:space="preserve" font-family="Futura-Medium" font-size="39.0" fill="#00F900" transform="matrix(1.00, 0.00, -0.00, -1.00, 664.9, 396.0)">l</text><text xml:space="preserve" font-family="Futura-Medium" font-size="39.0" fill="#00F900" transform="matrix(1.00, 0.00, -0.00, -1.00, 674.6, 396.0)">l</text><text xml:space="preserve" font-family="Futura-Medium" font-size="39.0" fill="#00F900" transform="matrix(1.00, 0.00, -0.00, -1.00, 684.3, 396.0)"> </text><text xml:space="preserve" font-family="Futura-Medium" font-size="39.0" fill="#00F900" transform="matrix(1.00, 0.00, -0.00, -1.00, 696.4, 396.0)">m</text><text xml:space="preserve" font-family="Futura-Medium" font-size="39.0" fill="#00F900" transform="matrix(1.00, 0.00, -0.00, -1.00, 727.2, 396.0)">o</text><text xml:space="preserve" font-family="Futura-Medium" font-size="39.0" fill="#00F900" transform="matrix(1.00, 0.00, -0.00, -1.00, 750.7, 396.0)">d</text><text xml:space="preserve" font-family="Futura-Medium" font-size="39.0" fill="#00F900" transform="matrix(1.00, 0.00, -0.00, -1.00, 774.0, 396.0)">u</text><text xml:space="preserve" font-family="Futura-Medium" font-size="39.0" fill="#00F900" transform="matrix(1.00, 0.00, -0.00, -1.00, 795.3, 396.0)">l</text><text xml:space="preserve" font-family="Futura-Medium" font-size="39.0" fill="#00F900" transform="matrix(1.00, 0.00, -0.00, -1.00, 805.0, 396.0)">e</text><text xml:space="preserve" font-family="Futura-Medium" font-size="39.0" fill="#00F900" transform="matrix(1.00, 0.00, -0.00, -1.00, 826.6, 396.0)">s</text><text xml:space="preserve" font-family="Futura-Medium" font-size="39.0" fill="#00F900" transform="matrix(1.00, 0.00, -0.00, -1.00, 842.4, 396.0)"> </text><text xml:space="preserve" font-family="Futura-Medium" font-size="39.0" fill="#00F900" transform="matrix(1.00, 0.00, -0.00, -1.00, 450.9, 291.9)">•</text><text xml:space="preserve" font-family="Futura-Medium" font-size="39.0" fill="#00F900" transform="matrix(1.00, 0.00, -0.00, -1.00, 480.0, 292.0)">E</text><text xml:space="preserve" font-family="Futura-Medium" font-size="39.0" fill="#00F900" transform="matrix(1.00, 0.00, -0.00, -1.00, 502.1, 292.0)">a</text><text xml:space="preserve" font-family="Futura-Medium" font-size="39.0" fill="#00F900" transform="matrix(1.00, 0.00, -0.00, -1.00, 525.4, 292.0)">c</text><text xml:space="preserve" font-family="Futura-Medium" font-size="39.0" fill="#00F900" transform="matrix(1.00, 0.00, -0.00, -1.00, 545.0, 292.0)">h</text><text xml:space="preserve" font-family="Futura-Medium" font-size="39.0" fill="#00F900" transform="matrix(1.00, 0.00, -0.00, -1.00, 566.4, 292.0)"> </text><text xml:space="preserve" font-family="Futura-Medium" font-size="39.0" fill="#00F900" transform="matrix(1.00, 0.00, -0.00, -1.00, 578.4, 292.0)">m</text><text xml:space="preserve" font-family="Futura-Medium" font-size="39.0" fill="#00F900" transform="matrix(1.00, 0.00, -0.00, -1.00, 609.3, 292.0)">o</text><text xml:space="preserve" font-family="Futura-Medium" font-size="39.0" fill="#00F900" transform="matrix(1.00, 0.00, -0.00, -1.00, 632.7, 292.0)">d</text><text xml:space="preserve" font-family="Futura-Medium" font-size="39.0" fill="#00F900" transform="matrix(1.00, 0.00, -0.00, -1.00, 656.1, 292.0)">u</text><text xml:space="preserve" font-family="Futura-Medium" font-size="39.0" fill="#00F900" transform="matrix(1.00, 0.00, -0.00, -1.00, 677.3, 292.0)">l</text><text xml:space="preserve" font-family="Futura-Medium" font-size="39.0" fill="#00F900" transform="matrix(1.00, 0.00, -0.00, -1.00, 687.1, 292.0)">e</text><text xml:space="preserve" font-family="Futura-Medium" font-size="39.0" fill="#00F900" transform="matrix(1.00, 0.00, -0.00, -1.00, 708.6, 292.0)"> </text><text xml:space="preserve" font-family="Futura-Medium" font-size="39.0" fill="#00F900" transform="matrix(1.00, 0.00, -0.00, -1.00, 720.7, 292.0)">d</text><text xml:space="preserve" font-family="Futura-Medium" font-size="39.0" fill="#00F900" transform="matrix(1.00, 0.00, -0.00, -1.00, 744.0, 292.0)">o</text><text xml:space="preserve" font-family="Futura-Medium" font-size="39.0" fill="#00F900" transform="matrix(1.00, 0.00, -0.00, -1.00, 767.5, 292.0)">e</text><text xml:space="preserve" font-family="Futura-Medium" font-size="39.0" fill="#00F900" transform="matrix(1.00, 0.00, -0.00, -1.00, 789.1, 292.0)">s</text><text xml:space="preserve" font-family="Futura-Medium" font-size="39.0" fill="#00F900" transform="matrix(1.00, 0.00, -0.00, -1.00, 804.9, 292.0)"> </text><text xml:space="preserve" font-family="Futura-Medium" font-size="39.0" fill="#00F900" transform="matrix(1.00, 0.00, -0.00, -1.00, 816.9, 292.0)">o</text><text xml:space="preserve" font-family="Futura-Medium" font-size="39.0" fill="#00F900" transform="matrix(1.00, 0.00, -0.00, -1.00, 840.3, 292.0)">n</text><text xml:space="preserve" font-family="Futura-Medium" font-size="39.0" fill="#00F900" transform="matrix(1.00, 0.00, -0.00, -1.00, 861.7, 292.0)">e</text><text xml:space="preserve" font-family="Futura-Medium" font-size="39.0" fill="#00F900" transform="matrix(1.00, 0.00, -0.00, -1.00, 883.3, 292.0)"> </text><text xml:space="preserve" font-family="Futura-Medium" font-size="39.0" fill="#00F900" transform="matrix(1.00, 0.00, -0.00, -1.00, 895.3, 292.0)">t</text><text xml:space="preserve" font-family="Futura-Medium" font-size="39.0" fill="#00F900" transform="matrix(1.00, 0.00, -0.00, -1.00, 906.8, 292.0)">h</text><text xml:space="preserve" font-family="Futura-Medium" font-size="39.0" fill="#00F900" transform="matrix(1.00, 0.00, -0.00, -1.00, 928.2, 292.0)">i</text><text xml:space="preserve" font-family="Futura-Medium" font-size="39.0" fill="#00F900" transform="matrix(1.00, 0.00, -0.00, -1.00, 937.9, 292.0)">n</text><text xml:space="preserve" font-family="Futura-Medium" font-size="39.0" fill="#00F900" transform="matrix(1.00, 0.00, -0.00, -1.00, 959.3, 292.0)">g</text><text xml:space="preserve" font-family="LucidaGrande" font-size="39.0" fill="#00F900" transform="matrix(1.00, 0.00, -0.00, -1.00, 982.7, 292.0)"> </text><text xml:space="preserve" font-family="Futura-Medium" font-size="39.0" fill="#00F900" transform="matrix(1.00, 0.00, -0.00, -1.00, 469.0, 240.0)">a</text><text xml:space="preserve" font-family="Futura-Medium" font-size="39.0" fill="#00F900" transform="matrix(1.00, 0.00, -0.00, -1.00, 492.4, 240.0)">n</text><text xml:space="preserve" font-family="Futura-Medium" font-size="39.0" fill="#00F900" transform="matrix(1.00, 0.00, -0.00, -1.00, 513.8, 240.0)">d</text><text xml:space="preserve" font-family="Futura-Medium" font-size="39.0" fill="#00F900" transform="matrix(1.00, 0.00, -0.00, -1.00, 537.1, 240.0)"> </text><text xml:space="preserve" font-family="Futura-Medium" font-size="39.0" fill="#00F900" transform="matrix(1.00, 0.00, -0.00, -1.00, 549.2, 240.0)">d</text><text xml:space="preserve" font-family="Futura-Medium" font-size="39.0" fill="#00F900" transform="matrix(1.00, 0.00, -0.00, -1.00, 572.5, 240.0)">o</text><text xml:space="preserve" font-family="Futura-Medium" font-size="39.0" fill="#00F900" transform="matrix(1.00, 0.00, -0.00, -1.00, 596.0, 240.0)">e</text><text xml:space="preserve" font-family="Futura-Medium" font-size="39.0" fill="#00F900" transform="matrix(1.00, 0.00, -0.00, -1.00, 617.6, 240.0)">s</text><text xml:space="preserve" font-family="Futura-Medium" font-size="39.0" fill="#00F900" transform="matrix(1.00, 0.00, -0.00, -1.00, 633.4, 240.0)"> </text><text xml:space="preserve" font-family="Futura-Medium" font-size="39.0" fill="#00F900" transform="matrix(1.00, 0.00, -0.00, -1.00, 645.4, 240.0)">i</text><text xml:space="preserve" font-family="Futura-Medium" font-size="39.0" fill="#00F900" transform="matrix(1.00, 0.00, -0.00, -1.00, 655.1, 240.0)">t</text><text xml:space="preserve" font-family="Futura-Medium" font-size="39.0" fill="#00F900" transform="matrix(1.00, 0.00, -0.00, -1.00, 665.8, 240.0)"> </text><text xml:space="preserve" font-family="Futura-Medium" font-size="39.0" fill="#00F900" transform="matrix(1.00, 0.00, -0.00, -1.00, 677.8, 240.0)">w</text><text xml:space="preserve" font-family="Futura-Medium" font-size="39.0" fill="#00F900" transform="matrix(1.00, 0.00, -0.00, -1.00, 707.4, 240.0)">e</text><text xml:space="preserve" font-family="Futura-Medium" font-size="39.0" fill="#00F900" transform="matrix(1.00, 0.00, -0.00, -1.00, 729.0, 240.0)">l</text><text xml:space="preserve" font-family="Futura-Medium" font-size="39.0" fill="#00F900" transform="matrix(1.00, 0.00, -0.00, -1.00, 738.7, 240.0)">l</text><text xml:space="preserve" font-family="Futura-Medium" font-size="39.0" fill="#00F900" transform="matrix(1.00, 0.00, -0.00, -1.00, 748.4, 240.0)"> </text><text xml:space="preserve" font-family="Futura-Medium" font-size="39.0" fill="#00F900" transform="matrix(1.00, 0.00, -0.00, -1.00, 450.9, 135.9)">•</text><text xml:space="preserve" font-family="Futura-Medium" font-size="39.0" fill="#00F900" transform="matrix(1.00, 0.00, -0.00, -1.00, 480.0, 136.0)">T</text><text xml:space="preserve" font-family="Futura-Medium" font-size="39.0" fill="#00F900" transform="matrix(1.00, 0.00, -0.00, -1.00, 498.8, 136.0)">h</text><text xml:space="preserve" font-family="Futura-Medium" font-size="39.0" fill="#00F900" transform="matrix(1.00, 0.00, -0.00, -1.00, 520.2, 136.0)">i</text><text xml:space="preserve" font-family="Futura-Medium" font-size="39.0" fill="#00F900" transform="matrix(1.00, 0.00, -0.00, -1.00, 529.9, 136.0)">n</text><text xml:space="preserve" font-family="Futura-Medium" font-size="39.0" fill="#00F900" transform="matrix(1.00, 0.00, -0.00, -1.00, 551.3, 136.0)">k</text><text xml:space="preserve" font-family="Futura-Medium" font-size="39.0" fill="#00F900" transform="matrix(1.00, 0.00, -0.00, -1.00, 570.8, 136.0)"> </text><text xml:space="preserve" font-family="Futura-Medium" font-size="39.0" fill="#00F900" transform="matrix(1.00, 0.00, -0.00, -1.00, 582.8, 136.0)">L</text><text xml:space="preserve" font-family="Futura-Medium" font-size="39.0" fill="#00F900" transform="matrix(1.00, 0.00, -0.00, -1.00, 600.1, 136.0)">e</text><text xml:space="preserve" font-family="Futura-Medium" font-size="39.0" fill="#00F900" transform="matrix(1.00, 0.00, -0.00, -1.00, 621.7, 136.0)">g</text><text xml:space="preserve" font-family="Futura-Medium" font-size="39.0" fill="#00F900" transform="matrix(1.00, 0.00, -0.00, -1.00, 645.0, 136.0)">o</text><text xml:space="preserve" font-family="Futura-Medium" font-size="39.0" fill="#00F900" transform="matrix(1.00, 0.00, -0.00, -1.00, 668.4, 136.0)"> </text><text xml:space="preserve" font-family="Futura-Medium" font-size="39.0" fill="#00F900" transform="matrix(1.00, 0.00, -0.00, -1.00, 680.5, 136.0)">b</text><text xml:space="preserve" font-family="Futura-Medium" font-size="39.0" fill="#00F900" transform="matrix(1.00, 0.00, -0.00, -1.00, 703.8, 136.0)">r</text><text xml:space="preserve" font-family="Futura-Medium" font-size="39.0" fill="#00F900" transform="matrix(1.00, 0.00, -0.00, -1.00, 719.0, 136.0)">i</text><text xml:space="preserve" font-family="Futura-Medium" font-size="39.0" fill="#00F900" transform="matrix(1.00, 0.00, -0.00, -1.00, 728.7, 136.0)">c</text><text xml:space="preserve" font-family="Futura-Medium" font-size="39.0" fill="#00F900" transform="matrix(1.00, 0.00, -0.00, -1.00, 748.3, 136.0)">k</text><text xml:space="preserve" font-family="Futura-Medium" font-size="39.0" fill="#00F900" transform="matrix(1.00, 0.00, -0.00, -1.00, 767.7, 136.0)">s</text><g><clipPath id="clip-4"><path d="M 397.0 732.0 L 627.0 732.0 L 627.0 645.0 L 397.0 645.0 Z M 397.4 732.2 "></path></clipPath><g clip-path="url(#clip-4)"><image xlink:href="../../1256FE65-D94E-4C0E-A121-45AC2A2CA185/assets/57094AFB9F1E6CF02519AE0744F04E4C.png" width="230.00" height="87.00" transform="matrix(1.00, 0.00, -0.00, -1.00, 397.0, 732.0)"></image></g></g><image xlink:href="../../9348B726-CA11-41CE-A3ED-1CC3F7A5CC96/assets/207C703C07F210A5685FDA9D361AB0E8.png" width="254.00" height="87.00" transform="matrix(1.00, 0.00, -0.00, -1.00, 382.0, 560.0)"></image></g></svg>