<?xml version="1.0" encoding="UTF-8" standalone="no"?><svg xmlns="http://www.w3.org/2000/svg" xmlns:xlink="http://www.w3.org/1999/xlink" clip-rule="evenodd" stroke-miterlimit="4.00" viewBox="0 0 1024 768"><desc>SVG generated by Keynote</desc><defs></defs><g transform="matrix(1.00, 0.00, -0.00, -1.00, 0.0, 768.0)"><path d="M 0.0 768.0 L 1024.0 768.0 L 1024.0 0.0 L 0.0 0.0 Z M 0.0 768.0 " fill="#000000"></path><image xlink:href="../../17723EFF-55C9-4024-A6CF-5FCC1C17D41F/assets/63B508F1D80E79BE3B0B7AB8DD9F83C5.jpeg" width="701.00" height="394.00" transform="matrix(1.97, 0.00, -0.00, -1.97, -1.0, 772.0)"></image><text xml:space="preserve" font-family="Arial-Black" font-weight="bold" font-size="65.0" fill="#603704" transform="matrix(1.00, 0.00, -0.00, -1.00, 21.0, 703.0)">H</text><text xml:space="preserve" font-family="Arial-Black" font-weight="bold" font-size="65.0" fill="#603704" transform="matrix(1.00, 0.00, -0.00, -1.00, 75.1, 703.0)">o</text><text xml:space="preserve" font-family="Arial-Black" font-weight="bold" font-size="65.0" fill="#603704" transform="matrix(1.00, 0.00, -0.00, -1.00, 117.3, 703.0)">w</text><text xml:space="preserve" font-family="Arial-Black" font-weight="bold" font-size="65.0" fill="#603704" transform="matrix(1.00, 0.00, -0.00, -1.00, 178.7, 703.0)"> </text><text xml:space="preserve" font-family="Arial-Black" font-weight="bold" font-size="65.0" fill="#603704" transform="matrix(1.00, 0.00, -0.00, -1.00, 200.4, 703.0)">t</text><text xml:space="preserve" font-family="Arial-Black" font-weight="bold" font-size="65.0" fill="#603704" transform="matrix(1.00, 0.00, -0.00, -1.00, 229.2, 703.0)">o</text><text xml:space="preserve" font-family="Arial-Black" font-weight="bold" font-size="65.0" fill="#603704" transform="matrix(1.00, 0.00, -0.00, -1.00, 272.6, 703.0)"> </text><text xml:space="preserve" font-family="Arial-Black" font-weight="bold" font-size="65.0" fill="#603704" transform="matrix(1.00, 0.00, -0.00, -1.00, 294.3, 703.0)">c</text><text xml:space="preserve" font-family="Arial-Black" font-weight="bold" font-size="65.0" fill="#603704" transform="matrix(1.00, 0.00, -0.00, -1.00, 337.6, 703.0)">r</text><text xml:space="preserve" font-family="Arial-Black" font-weight="bold" font-size="65.0" fill="#603704" transform="matrix(1.00, 0.00, -0.00, -1.00, 367.5, 703.0)">e</text><text xml:space="preserve" font-family="Arial-Black" font-weight="bold" font-size="65.0" fill="#603704" transform="matrix(1.00, 0.00, -0.00, -1.00, 410.9, 703.0)">a</text><text xml:space="preserve" font-family="Arial-Black" font-weight="bold" font-size="65.0" fill="#603704" transform="matrix(1.00, 0.00, -0.00, -1.00, 453.1, 703.0)">t</text><text xml:space="preserve" font-family="Arial-Black" font-weight="bold" font-size="65.0" fill="#603704" transform="matrix(1.00, 0.00, -0.00, -1.00, 482.0, 703.0)">e</text><text xml:space="preserve" font-family="Arial-Black" font-weight="bold" font-size="65.0" fill="#603704" transform="matrix(1.00, 0.00, -0.00, -1.00, 525.3, 703.0)"> </text><text xml:space="preserve" font-family="Arial-Black" font-weight="bold" font-size="65.0" fill="#603704" transform="matrix(1.00, 0.00, -0.00, -1.00, 547.0, 703.0)">a</text><text xml:space="preserve" font-family="Arial-Black" font-weight="bold" font-size="65.0" fill="#603704" transform="matrix(1.00, 0.00, -0.00, -1.00, 590.4, 703.0)"> </text><text xml:space="preserve" font-family="Inconsolata" font-size="65.0" fill="#603704" transform="matrix(1.00, 0.00, -0.00, -1.00, 21.0, 611.0)">p</text><text xml:space="preserve" font-family="Inconsolata" font-size="65.0" fill="#603704" transform="matrix(1.00, 0.00, -0.00, -1.00, 53.5, 611.0)">a</text><text xml:space="preserve" font-family="Inconsolata" font-size="65.0" fill="#603704" transform="matrix(1.00, 0.00, -0.00, -1.00, 86.0, 611.0)">c</text><text xml:space="preserve" font-family="Inconsolata" font-size="65.0" fill="#603704" transform="matrix(1.00, 0.00, -0.00, -1.00, 118.5, 611.0)">k</text><text xml:space="preserve" font-family="Inconsolata" font-size="65.0" fill="#603704" transform="matrix(1.00, 0.00, -0.00, -1.00, 151.0, 611.0)">a</text><text xml:space="preserve" font-family="Inconsolata" font-size="65.0" fill="#603704" transform="matrix(1.00, 0.00, -0.00, -1.00, 183.5, 611.0)">g</text><text xml:space="preserve" font-family="Inconsolata" font-size="65.0" fill="#603704" transform="matrix(1.00, 0.00, -0.00, -1.00, 216.0, 611.0)">e</text><text xml:space="preserve" font-family="Inconsolata" font-size="65.0" fill="#603704" transform="matrix(1.00, 0.00, -0.00, -1.00, 248.5, 611.0)">.</text><text xml:space="preserve" font-family="Inconsolata" font-size="65.0" fill="#603704" transform="matrix(1.00, 0.00, -0.00, -1.00, 281.0, 611.0)">j</text><text xml:space="preserve" font-family="Inconsolata" font-size="65.0" fill="#603704" transform="matrix(1.00, 0.00, -0.00, -1.00, 313.5, 611.0)">s</text><text xml:space="preserve" font-family="Inconsolata" font-size="65.0" fill="#603704" transform="matrix(1.00, 0.00, -0.00, -1.00, 346.0, 611.0)">o</text><text xml:space="preserve" font-family="Inconsolata" font-size="65.0" fill="#603704" transform="matrix(1.00, 0.00, -0.00, -1.00, 378.5, 611.0)">n</text><text xml:space="preserve" font-family="Arial-Black" font-weight="bold" font-size="65.0" fill="#603704" transform="matrix(1.00, 0.00, -0.00, -1.00, 411.0, 611.0)"> </text><text xml:space="preserve" font-family="Arial-Black" font-weight="bold" font-size="65.0" fill="#603704" transform="matrix(1.00, 0.00, -0.00, -1.00, 432.7, 611.0)">f</text><text xml:space="preserve" font-family="Arial-Black" font-weight="bold" font-size="65.0" fill="#603704" transform="matrix(1.00, 0.00, -0.00, -1.00, 458.0, 611.0)">i</text><text xml:space="preserve" font-family="Arial-Black" font-weight="bold" font-size="65.0" fill="#603704" transform="matrix(1.00, 0.00, -0.00, -1.00, 479.7, 611.0)">l</text><text xml:space="preserve" font-family="Arial-Black" font-weight="bold" font-size="65.0" fill="#603704" transform="matrix(1.00, 0.00, -0.00, -1.00, 501.3, 611.0)">e</text><text xml:space="preserve" font-family="Arial-Black" font-weight="bold" font-size="65.0" fill="#603704" transform="matrix(1.00, 0.00, -0.00, -1.00, 544.7, 611.0)">?</text><text xml:space="preserve" font-family="Arial-Black" font-weight="bold" font-size="59.0" fill="#FEFFFF" transform="matrix(1.00, 0.00, -0.00, -1.00, 13.0, 285.0)">d</text><text xml:space="preserve" font-family="Arial-Black" font-weight="bold" font-size="59.0" fill="#FEFFFF" transform="matrix(1.00, 0.00, -0.00, -1.00, 52.4, 285.0)">e</text><text xml:space="preserve" font-family="Arial-Black" font-weight="bold" font-size="59.0" fill="#FEFFFF" transform="matrix(1.00, 0.00, -0.00, -1.00, 90.2, 285.0)">v</text><text xml:space="preserve" font-family="Arial-Black" font-weight="bold" font-size="59.0" fill="#FEFFFF" transform="matrix(1.00, 0.00, -0.00, -1.00, 126.2, 285.0)">D</text><text xml:space="preserve" font-family="Arial-Black" font-weight="bold" font-size="59.0" fill="#FEFFFF" transform="matrix(1.00, 0.00, -0.00, -1.00, 172.1, 285.0)">e</text><text xml:space="preserve" font-family="Arial-Black" font-weight="bold" font-size="59.0" fill="#FEFFFF" transform="matrix(1.00, 0.00, -0.00, -1.00, 211.4, 285.0)">p</text><text xml:space="preserve" font-family="Arial-Black" font-weight="bold" font-size="59.0" fill="#FEFFFF" transform="matrix(1.00, 0.00, -0.00, -1.00, 250.8, 285.0)">e</text><text xml:space="preserve" font-family="Arial-Black" font-weight="bold" font-size="59.0" fill="#FEFFFF" transform="matrix(1.00, 0.00, -0.00, -1.00, 290.1, 285.0)">n</text><text xml:space="preserve" font-family="Arial-Black" font-weight="bold" font-size="59.0" fill="#FEFFFF" transform="matrix(1.00, 0.00, -0.00, -1.00, 329.5, 285.0)">d</text><text xml:space="preserve" font-family="Arial-Black" font-weight="bold" font-size="59.0" fill="#FEFFFF" transform="matrix(1.00, 0.00, -0.00, -1.00, 368.8, 285.0)">e</text><text xml:space="preserve" font-family="Arial-Black" font-weight="bold" font-size="59.0" fill="#FEFFFF" transform="matrix(1.00, 0.00, -0.00, -1.00, 408.2, 285.0)">n</text><text xml:space="preserve" font-family="Arial-Black" font-weight="bold" font-size="59.0" fill="#FEFFFF" transform="matrix(1.00, 0.00, -0.00, -1.00, 447.6, 285.0)">c</text><text xml:space="preserve" font-family="Arial-Black" font-weight="bold" font-size="59.0" fill="#FEFFFF" transform="matrix(1.00, 0.00, -0.00, -1.00, 486.9, 285.0)">i</text><text xml:space="preserve" font-family="Arial-Black" font-weight="bold" font-size="59.0" fill="#FEFFFF" transform="matrix(1.00, 0.00, -0.00, -1.00, 506.6, 285.0)">e</text><text xml:space="preserve" font-family="Arial-Black" font-weight="bold" font-size="59.0" fill="#FEFFFF" transform="matrix(1.00, 0.00, -0.00, -1.00, 545.9, 285.0)">s</text><g><clipPath id="clip-60"><path d="M 11.8 274.5 L 581.8 274.5 L 581.8 280.1 L 11.8 280.1 Z M 11.8 274.5 "></path></clipPath><g clip-path="url(#clip-60)"><path d="M 4.0 76.1 L 573.0 76.1 " fill="none" stroke="#FEFFFF" stroke-width="3.54" stroke-miterlimit="0.00" transform="matrix(1.00, 0.00, 0.00, -1.00, 8.8, 353.4)"></path></g></g><image xlink:href="../../AF43EB69-2153-4F8B-8CD3-45E196B889CC/assets/4757069F835DB596E78708338CFBBC71.png" width="290.00" height="540.00" transform="matrix(1.42, 0.00, -0.00, -1.42, 606.0, 768.0)"></image><text xml:space="preserve" font-family="Arial-Black" font-weight="bold" font-size="59.0" fill="#000000" transform="matrix(1.00, 0.00, -0.00, -1.00, 13.0, 535.0)">d</text><text xml:space="preserve" font-family="Arial-Black" font-weight="bold" font-size="59.0" fill="#000000" transform="matrix(1.00, 0.00, -0.00, -1.00, 52.4, 535.0)">e</text><text xml:space="preserve" font-family="Arial-Black" font-weight="bold" font-size="59.0" fill="#000000" transform="matrix(1.00, 0.00, -0.00, -1.00, 91.7, 535.0)">p</text><text xml:space="preserve" font-family="Arial-Black" font-weight="bold" font-size="59.0" fill="#000000" transform="matrix(1.00, 0.00, -0.00, -1.00, 131.1, 535.0)">e</text><text xml:space="preserve" font-family="Arial-Black" font-weight="bold" font-size="59.0" fill="#000000" transform="matrix(1.00, 0.00, -0.00, -1.00, 170.4, 535.0)">n</text><text xml:space="preserve" font-family="Arial-Black" font-weight="bold" font-size="59.0" fill="#000000" transform="matrix(1.00, 0.00, -0.00, -1.00, 209.8, 535.0)">d</text><text xml:space="preserve" font-family="Arial-Black" font-weight="bold" font-size="59.0" fill="#000000" transform="matrix(1.00, 0.00, -0.00, -1.00, 249.1, 535.0)">e</text><text xml:space="preserve" font-family="Arial-Black" font-weight="bold" font-size="59.0" fill="#000000" transform="matrix(1.00, 0.00, -0.00, -1.00, 288.5, 535.0)">n</text><text xml:space="preserve" font-family="Arial-Black" font-weight="bold" font-size="59.0" fill="#000000" transform="matrix(1.00, 0.00, -0.00, -1.00, 327.8, 535.0)">c</text><text xml:space="preserve" font-family="Arial-Black" font-weight="bold" font-size="59.0" fill="#000000" transform="matrix(1.00, 0.00, -0.00, -1.00, 367.2, 535.0)">i</text><text xml:space="preserve" font-family="Arial-Black" font-weight="bold" font-size="59.0" fill="#000000" transform="matrix(1.00, 0.00, -0.00, -1.00, 386.8, 535.0)">e</text><text xml:space="preserve" font-family="Arial-Black" font-weight="bold" font-size="59.0" fill="#000000" transform="matrix(1.00, 0.00, -0.00, -1.00, 426.2, 535.0)">s</text><g><clipPath id="clip-61"><path d="M 11.8 525.3 L 462.0 525.3 L 462.0 530.9 L 11.8 530.9 Z M 11.8 525.3 "></path></clipPath><g clip-path="url(#clip-61)"><path d="M 4.0 76.1 L 453.2 76.1 " fill="none" stroke="#000000" stroke-width="3.54" stroke-miterlimit="0.00" transform="matrix(1.00, 0.00, 0.00, -1.00, 8.8, 604.2)"></path></g></g><path d="M 15.0 514.1 L 596.6 514.1 L 596.6 362.5 L 15.0 362.5 Z M 15.0 514.1 " fill="#000000"></path><g><clipPath id="clip-62"><path d="M 8.0 345.6 L 1170.8 345.6 L 1170.8 518.7 L 8.0 518.7 Z M 8.0 345.6 "></path></clipPath><g clip-path="url(#clip-62)"><text xml:space="preserve" font-family="Inconsolata" font-size="34.0" fill="#FEFFFF" transform="matrix(1.00, 0.00, -0.00, -1.00, 37.0, 482.0)">n</text><text xml:space="preserve" font-family="Inconsolata" font-size="34.0" fill="#FEFFFF" transform="matrix(1.00, 0.00, -0.00, -1.00, 54.0, 482.0)">p</text><text xml:space="preserve" font-family="Inconsolata" font-size="34.0" fill="#FEFFFF" transform="matrix(1.00, 0.00, -0.00, -1.00, 71.0, 482.0)">m</text><text xml:space="preserve" font-family="Inconsolata" font-size="34.0" fill="#FEFFFF" transform="matrix(1.00, 0.00, -0.00, -1.00, 88.0, 482.0)"> </text><text xml:space="preserve" font-family="Inconsolata" font-size="34.0" fill="#FEFFFF" transform="matrix(1.00, 0.00, -0.00, -1.00, 105.0, 482.0)">i</text><text xml:space="preserve" font-family="Inconsolata" font-size="34.0" fill="#FEFFFF" transform="matrix(1.00, 0.00, -0.00, -1.00, 122.0, 482.0)">n</text><text xml:space="preserve" font-family="Inconsolata" font-size="34.0" fill="#FEFFFF" transform="matrix(1.00, 0.00, -0.00, -1.00, 139.0, 482.0)">s</text><text xml:space="preserve" font-family="Inconsolata" font-size="34.0" fill="#FEFFFF" transform="matrix(1.00, 0.00, -0.00, -1.00, 156.0, 482.0)">t</text><text xml:space="preserve" font-family="Inconsolata" font-size="34.0" fill="#FEFFFF" transform="matrix(1.00, 0.00, -0.00, -1.00, 173.0, 482.0)">a</text><text xml:space="preserve" font-family="Inconsolata" font-size="34.0" fill="#FEFFFF" transform="matrix(1.00, 0.00, -0.00, -1.00, 190.0, 482.0)">l</text><text xml:space="preserve" font-family="Inconsolata" font-size="34.0" fill="#FEFFFF" transform="matrix(1.00, 0.00, -0.00, -1.00, 207.0, 482.0)">l</text><text xml:space="preserve" font-family="Inconsolata" font-size="34.0" fill="#FEFFFF" transform="matrix(1.00, 0.00, -0.00, -1.00, 224.0, 482.0)"> </text><text xml:space="preserve" font-family="Inconsolata" font-size="34.0" fill="#FEFFFF" transform="matrix(1.00, 0.00, -0.00, -1.00, 241.0, 482.0)">-</text><text xml:space="preserve" font-family="Inconsolata" font-size="34.0" fill="#FEFFFF" transform="matrix(1.00, 0.00, -0.00, -1.00, 258.0, 482.0)">-</text><text xml:space="preserve" font-family="Inconsolata" font-size="34.0" fill="#FEFFFF" transform="matrix(1.00, 0.00, -0.00, -1.00, 275.0, 482.0)">s</text><text xml:space="preserve" font-family="Inconsolata" font-size="34.0" fill="#FEFFFF" transform="matrix(1.00, 0.00, -0.00, -1.00, 292.0, 482.0)">a</text><text xml:space="preserve" font-family="Inconsolata" font-size="34.0" fill="#FEFFFF" transform="matrix(1.00, 0.00, -0.00, -1.00, 309.0, 482.0)">v</text><text xml:space="preserve" font-family="Inconsolata" font-size="34.0" fill="#FEFFFF" transform="matrix(1.00, 0.00, -0.00, -1.00, 326.0, 482.0)">e</text><text xml:space="preserve" font-family="Inconsolata" font-size="34.0" fill="#FEFFFF" transform="matrix(1.00, 0.00, -0.00, -1.00, 343.0, 482.0)"> </text><text xml:space="preserve" font-family="Inconsolata" font-size="34.0" fill="#FEFFFF" transform="matrix(1.00, 0.00, -0.00, -1.00, 360.0, 482.0)">c</text><text xml:space="preserve" font-family="Inconsolata" font-size="34.0" fill="#FEFFFF" transform="matrix(1.00, 0.00, -0.00, -1.00, 377.0, 482.0)">l</text><text xml:space="preserve" font-family="Inconsolata" font-size="34.0" fill="#FEFFFF" transform="matrix(1.00, 0.00, -0.00, -1.00, 394.0, 482.0)">i</text><text xml:space="preserve" font-family="Inconsolata" font-size="34.0" fill="#FEFFFF" transform="matrix(1.00, 0.00, -0.00, -1.00, 411.0, 482.0)">u</text><text xml:space="preserve" font-family="Inconsolata" font-size="34.0" fill="#FEFFFF" transform="matrix(1.00, 0.00, -0.00, -1.00, 428.0, 482.0)">i</text><text xml:space="preserve" font-family="Inconsolata" font-size="34.0" fill="#FEFFFF" transform="matrix(1.00, 0.00, -0.00, -1.00, 445.0, 482.0)"> </text><text xml:space="preserve" font-family="Futura-Medium" font-size="34.0" fill="#FEFFFF" transform="matrix(1.00, 0.00, -0.00, -1.00, 37.0, 431.2)">•</text><text xml:space="preserve" font-family="Futura-Medium" font-size="34.0" fill="#FEFFFF" transform="matrix(1.00, 0.00, -0.00, -1.00, 63.0, 431.0)">t</text><text xml:space="preserve" font-family="Futura-Medium" font-size="34.0" fill="#FEFFFF" transform="matrix(1.00, 0.00, -0.00, -1.00, 73.0, 431.0)">h</text><text xml:space="preserve" font-family="Futura-Medium" font-size="34.0" fill="#FEFFFF" transform="matrix(1.00, 0.00, -0.00, -1.00, 91.6, 431.0)">i</text><text xml:space="preserve" font-family="Futura-Medium" font-size="34.0" fill="#FEFFFF" transform="matrix(1.00, 0.00, -0.00, -1.00, 100.1, 431.0)">n</text><text xml:space="preserve" font-family="Futura-Medium" font-size="34.0" fill="#FEFFFF" transform="matrix(1.00, 0.00, -0.00, -1.00, 118.8, 431.0)">g</text><text xml:space="preserve" font-family="Futura-Medium" font-size="34.0" fill="#FEFFFF" transform="matrix(1.00, 0.00, -0.00, -1.00, 139.1, 431.0)">s</text><text xml:space="preserve" font-family="Futura-Medium" font-size="34.0" fill="#FEFFFF" transform="matrix(1.00, 0.00, -0.00, -1.00, 152.9, 431.0)"> </text><text xml:space="preserve" font-family="Futura-Medium" font-size="34.0" fill="#FEFFFF" transform="matrix(1.00, 0.00, -0.00, -1.00, 163.4, 431.0)">y</text><text xml:space="preserve" font-family="Futura-Medium" font-size="34.0" fill="#FEFFFF" transform="matrix(1.00, 0.00, -0.00, -1.00, 181.2, 431.0)">o</text><text xml:space="preserve" font-family="Futura-Medium" font-size="34.0" fill="#FEFFFF" transform="matrix(1.00, 0.00, -0.00, -1.00, 201.7, 431.0)">u</text><text xml:space="preserve" font-family="Futura-Medium" font-size="34.0" fill="#FEFFFF" transform="matrix(1.00, 0.00, -0.00, -1.00, 220.2, 431.0)">r</text><text xml:space="preserve" font-family="Futura-Medium" font-size="34.0" fill="#FEFFFF" transform="matrix(1.00, 0.00, -0.00, -1.00, 232.9, 431.0)"> </text><text xml:space="preserve" font-family="Futura-Medium" font-size="34.0" fill="#FEFFFF" transform="matrix(1.00, 0.00, -0.00, -1.00, 243.4, 431.0)">m</text><text xml:space="preserve" font-family="Futura-Medium" font-size="34.0" fill="#FEFFFF" transform="matrix(1.00, 0.00, -0.00, -1.00, 270.3, 431.0)">a</text><text xml:space="preserve" font-family="Futura-Medium" font-size="34.0" fill="#FEFFFF" transform="matrix(1.00, 0.00, -0.00, -1.00, 290.6, 431.0)">i</text><text xml:space="preserve" font-family="Futura-Medium" font-size="34.0" fill="#FEFFFF" transform="matrix(1.00, 0.00, -0.00, -1.00, 299.1, 431.0)">n</text><text xml:space="preserve" font-family="Futura-Medium" font-size="34.0" fill="#FEFFFF" transform="matrix(1.00, 0.00, -0.00, -1.00, 317.8, 431.0)"> </text><text xml:space="preserve" font-family="Futura-Medium" font-size="34.0" fill="#FEFFFF" transform="matrix(1.00, 0.00, -0.00, -1.00, 328.2, 431.0)">c</text><text xml:space="preserve" font-family="Futura-Medium" font-size="34.0" fill="#FEFFFF" transform="matrix(1.00, 0.00, -0.00, -1.00, 344.4, 431.0)">o</text><text xml:space="preserve" font-family="Futura-Medium" font-size="34.0" fill="#FEFFFF" transform="matrix(1.00, 0.00, -0.00, -1.00, 364.9, 431.0)">d</text><text xml:space="preserve" font-family="Futura-Medium" font-size="34.0" fill="#FEFFFF" transform="matrix(1.00, 0.00, -0.00, -1.00, 385.2, 431.0)">e</text><text xml:space="preserve" font-family="Futura-Medium" font-size="34.0" fill="#FEFFFF" transform="matrix(1.00, 0.00, -0.00, -1.00, 404.1, 431.0)"> </text><text xml:space="preserve" font-family="Inconsolata" font-size="34.0" fill="#FEFFFF" transform="matrix(1.00, 0.00, -0.00, -1.00, 414.6, 431.0)">r</text><text xml:space="preserve" font-family="Inconsolata" font-size="34.0" fill="#FEFFFF" transform="matrix(1.00, 0.00, -0.00, -1.00, 431.6, 431.0)">e</text><text xml:space="preserve" font-family="Inconsolata" font-size="34.0" fill="#FEFFFF" transform="matrix(1.00, 0.00, -0.00, -1.00, 448.6, 431.0)">q</text><text xml:space="preserve" font-family="Inconsolata" font-size="34.0" fill="#FEFFFF" transform="matrix(1.00, 0.00, -0.00, -1.00, 465.6, 431.0)">u</text><text xml:space="preserve" font-family="Inconsolata" font-size="34.0" fill="#FEFFFF" transform="matrix(1.00, 0.00, -0.00, -1.00, 482.6, 431.0)">i</text><text xml:space="preserve" font-family="Inconsolata" font-size="34.0" fill="#FEFFFF" transform="matrix(1.00, 0.00, -0.00, -1.00, 499.6, 431.0)">r</text><text xml:space="preserve" font-family="Inconsolata" font-size="34.0" fill="#FEFFFF" transform="matrix(1.00, 0.00, -0.00, -1.00, 516.6, 431.0)">e</text><text xml:space="preserve" font-family="Inconsolata" font-size="34.0" fill="#FEFFFF" transform="matrix(1.00, 0.00, -0.00, -1.00, 533.6, 431.0)">(</text><text xml:space="preserve" font-family="Inconsolata" font-size="34.0" fill="#FEFFFF" transform="matrix(1.00, 0.00, -0.00, -1.00, 550.6, 431.0)">)</text><text xml:space="preserve" font-family="Futura-Medium" font-size="34.0" fill="#FEFFFF" transform="matrix(1.00, 0.00, -0.00, -1.00, 567.6, 431.0)">s</text><text xml:space="preserve" font-family="Futura-Medium" font-size="34.0" fill="#FEFFFF" transform="matrix(1.00, 0.00, -0.00, -1.00, 581.4, 431.0)"> </text><text xml:space="preserve" font-family="Futura-Medium" font-size="34.0" fill="#FEFFFF" transform="matrix(1.00, 0.00, -0.00, -1.00, 37.0, 375.3)">•</text><text xml:space="preserve" font-family="Futura-Medium" font-size="34.0" fill="#FEFFFF" transform="matrix(1.00, 0.00, -0.00, -1.00, 63.0, 375.0)">n</text><text xml:space="preserve" font-family="Futura-Medium" font-size="34.0" fill="#FEFFFF" transform="matrix(1.00, 0.00, -0.00, -1.00, 81.7, 375.0)">e</text><text xml:space="preserve" font-family="Futura-Medium" font-size="34.0" fill="#FEFFFF" transform="matrix(1.00, 0.00, -0.00, -1.00, 100.5, 375.0)">e</text><text xml:space="preserve" font-family="Futura-Medium" font-size="34.0" fill="#FEFFFF" transform="matrix(1.00, 0.00, -0.00, -1.00, 119.3, 375.0)">d</text><text xml:space="preserve" font-family="Futura-Medium" font-size="34.0" fill="#FEFFFF" transform="matrix(1.00, 0.00, -0.00, -1.00, 139.7, 375.0)">e</text><text xml:space="preserve" font-family="Futura-Medium" font-size="34.0" fill="#FEFFFF" transform="matrix(1.00, 0.00, -0.00, -1.00, 158.5, 375.0)">d</text><text xml:space="preserve" font-family="Futura-Medium" font-size="34.0" fill="#FEFFFF" transform="matrix(1.00, 0.00, -0.00, -1.00, 178.8, 375.0)"> </text><text xml:space="preserve" font-family="Futura-Medium" font-size="34.0" fill="#FEFFFF" transform="matrix(1.00, 0.00, -0.00, -1.00, 189.3, 375.0)">t</text><text xml:space="preserve" font-family="Futura-Medium" font-size="34.0" fill="#FEFFFF" transform="matrix(1.00, 0.00, -0.00, -1.00, 198.9, 375.0)">o</text><text xml:space="preserve" font-family="Futura-Medium" font-size="34.0" fill="#FEFFFF" transform="matrix(1.00, 0.00, -0.00, -1.00, 219.3, 375.0)"> </text><text xml:space="preserve" font-family="Futura-Medium" font-size="34.0" fill="#FEFFFF" transform="matrix(1.00, 0.00, -0.00, -1.00, 229.8, 375.0)">r</text><text xml:space="preserve" font-family="Futura-Medium" font-size="34.0" fill="#FEFFFF" transform="matrix(1.00, 0.00, -0.00, -1.00, 243.0, 375.0)">u</text><text xml:space="preserve" font-family="Futura-Medium" font-size="34.0" fill="#FEFFFF" transform="matrix(1.00, 0.00, -0.00, -1.00, 261.5, 375.0)">n</text><text xml:space="preserve" font-family="Futura-Medium" font-size="34.0" fill="#FEFFFF" transform="matrix(1.00, 0.00, -0.00, -1.00, 280.2, 375.0)"> </text><text xml:space="preserve" font-family="Futura-Medium" font-size="34.0" fill="#FEFFFF" transform="matrix(1.00, 0.00, -0.00, -1.00, 290.7, 375.0)">y</text><text xml:space="preserve" font-family="Futura-Medium" font-size="34.0" fill="#FEFFFF" transform="matrix(1.00, 0.00, -0.00, -1.00, 308.5, 375.0)">o</text><text xml:space="preserve" font-family="Futura-Medium" font-size="34.0" fill="#FEFFFF" transform="matrix(1.00, 0.00, -0.00, -1.00, 329.0, 375.0)">u</text><text xml:space="preserve" font-family="Futura-Medium" font-size="34.0" fill="#FEFFFF" transform="matrix(1.00, 0.00, -0.00, -1.00, 347.5, 375.0)">r</text><text xml:space="preserve" font-family="Futura-Medium" font-size="34.0" fill="#FEFFFF" transform="matrix(1.00, 0.00, -0.00, -1.00, 360.2, 375.0)"> </text><text xml:space="preserve" font-family="Futura-Medium" font-size="34.0" fill="#FEFFFF" transform="matrix(1.00, 0.00, -0.00, -1.00, 370.7, 375.0)">m</text><text xml:space="preserve" font-family="Futura-Medium" font-size="34.0" fill="#FEFFFF" transform="matrix(1.00, 0.00, -0.00, -1.00, 397.6, 375.0)">o</text><text xml:space="preserve" font-family="Futura-Medium" font-size="34.0" fill="#FEFFFF" transform="matrix(1.00, 0.00, -0.00, -1.00, 418.0, 375.0)">d</text><text xml:space="preserve" font-family="Futura-Medium" font-size="34.0" fill="#FEFFFF" transform="matrix(1.00, 0.00, -0.00, -1.00, 438.4, 375.0)">u</text><text xml:space="preserve" font-family="Futura-Medium" font-size="34.0" fill="#FEFFFF" transform="matrix(1.00, 0.00, -0.00, -1.00, 456.9, 375.0)">l</text><text xml:space="preserve" font-family="Futura-Medium" font-size="34.0" fill="#FEFFFF" transform="matrix(1.00, 0.00, -0.00, -1.00, 465.4, 375.0)">e</text></g></g><path d="M 21.6 251.6 L 580.2 251.6 L 580.2 46.2 L 21.6 46.2 Z M 21.6 251.6 " fill="#FEFFFE"></path><g><clipPath id="clip-63"><path d="M 14.6 29.4 L 1131.6 29.4 L 1131.6 256.2 L 14.6 256.2 Z M 14.6 29.4 "></path></clipPath><g clip-path="url(#clip-63)"><text xml:space="preserve" font-family="Inconsolata" font-size="34.0" fill="#000000" transform="matrix(1.00, 0.00, -0.00, -1.00, 44.0, 220.0)">n</text><text xml:space="preserve" font-family="Inconsolata" font-size="34.0" fill="#000000" transform="matrix(1.00, 0.00, -0.00, -1.00, 61.0, 220.0)">p</text><text xml:space="preserve" font-family="Inconsolata" font-size="34.0" fill="#000000" transform="matrix(1.00, 0.00, -0.00, -1.00, 78.0, 220.0)">m</text><text xml:space="preserve" font-family="Inconsolata" font-size="34.0" fill="#000000" transform="matrix(1.00, 0.00, -0.00, -1.00, 95.0, 220.0)"> </text><text xml:space="preserve" font-family="Inconsolata" font-size="34.0" fill="#000000" transform="matrix(1.00, 0.00, -0.00, -1.00, 112.0, 220.0)">i</text><text xml:space="preserve" font-family="Inconsolata" font-size="34.0" fill="#000000" transform="matrix(1.00, 0.00, -0.00, -1.00, 129.0, 220.0)">n</text><text xml:space="preserve" font-family="Inconsolata" font-size="34.0" fill="#000000" transform="matrix(1.00, 0.00, -0.00, -1.00, 146.0, 220.0)">s</text><text xml:space="preserve" font-family="Inconsolata" font-size="34.0" fill="#000000" transform="matrix(1.00, 0.00, -0.00, -1.00, 163.0, 220.0)">t</text><text xml:space="preserve" font-family="Inconsolata" font-size="34.0" fill="#000000" transform="matrix(1.00, 0.00, -0.00, -1.00, 180.0, 220.0)">a</text><text xml:space="preserve" font-family="Inconsolata" font-size="34.0" fill="#000000" transform="matrix(1.00, 0.00, -0.00, -1.00, 197.0, 220.0)">l</text><text xml:space="preserve" font-family="Inconsolata" font-size="34.0" fill="#000000" transform="matrix(1.00, 0.00, -0.00, -1.00, 214.0, 220.0)">l</text><text xml:space="preserve" font-family="Inconsolata" font-size="34.0" fill="#000000" transform="matrix(1.00, 0.00, -0.00, -1.00, 231.0, 220.0)"> </text><text xml:space="preserve" font-family="Inconsolata" font-size="34.0" fill="#000000" transform="matrix(1.00, 0.00, -0.00, -1.00, 248.0, 220.0)">-</text><text xml:space="preserve" font-family="Inconsolata" font-size="34.0" fill="#000000" transform="matrix(1.00, 0.00, -0.00, -1.00, 265.0, 220.0)">-</text><text xml:space="preserve" font-family="Inconsolata" font-size="34.0" fill="#000000" transform="matrix(1.00, 0.00, -0.00, -1.00, 282.0, 220.0)">s</text><text xml:space="preserve" font-family="Inconsolata" font-size="34.0" fill="#000000" transform="matrix(1.00, 0.00, -0.00, -1.00, 299.0, 220.0)">a</text><text xml:space="preserve" font-family="Inconsolata" font-size="34.0" fill="#000000" transform="matrix(1.00, 0.00, -0.00, -1.00, 316.0, 220.0)">v</text><text xml:space="preserve" font-family="Inconsolata" font-size="34.0" fill="#000000" transform="matrix(1.00, 0.00, -0.00, -1.00, 333.0, 220.0)">e</text><text xml:space="preserve" font-family="Inconsolata" font-size="34.0" fill="#000000" transform="matrix(1.00, 0.00, -0.00, -1.00, 350.0, 220.0)">-</text><text xml:space="preserve" font-family="Inconsolata" font-size="34.0" fill="#000000" transform="matrix(1.00, 0.00, -0.00, -1.00, 367.0, 220.0)">d</text><text xml:space="preserve" font-family="Inconsolata" font-size="34.0" fill="#000000" transform="matrix(1.00, 0.00, -0.00, -1.00, 384.0, 220.0)">e</text><text xml:space="preserve" font-family="Inconsolata" font-size="34.0" fill="#000000" transform="matrix(1.00, 0.00, -0.00, -1.00, 401.0, 220.0)">v</text><text xml:space="preserve" font-family="Inconsolata" font-size="34.0" fill="#000000" transform="matrix(1.00, 0.00, -0.00, -1.00, 418.0, 220.0)"> </text><text xml:space="preserve" font-family="Inconsolata" font-size="34.0" fill="#000000" transform="matrix(1.00, 0.00, -0.00, -1.00, 435.0, 220.0)">m</text><text xml:space="preserve" font-family="Inconsolata" font-size="34.0" fill="#000000" transform="matrix(1.00, 0.00, -0.00, -1.00, 452.0, 220.0)">o</text><text xml:space="preserve" font-family="Inconsolata" font-size="34.0" fill="#000000" transform="matrix(1.00, 0.00, -0.00, -1.00, 469.0, 220.0)">c</text><text xml:space="preserve" font-family="Inconsolata" font-size="34.0" fill="#000000" transform="matrix(1.00, 0.00, -0.00, -1.00, 486.0, 220.0)">h</text><text xml:space="preserve" font-family="Inconsolata" font-size="34.0" fill="#000000" transform="matrix(1.00, 0.00, -0.00, -1.00, 503.0, 220.0)">a</text><text xml:space="preserve" font-family="Inconsolata" font-size="34.0" fill="#000000" transform="matrix(1.00, 0.00, -0.00, -1.00, 520.0, 220.0)"> </text><text xml:space="preserve" font-family="Futura-Medium" font-size="34.0" fill="#000000" transform="matrix(1.00, 0.00, -0.00, -1.00, 43.6, 168.7)">•</text><text xml:space="preserve" font-family="Futura-Medium" font-size="34.0" fill="#000000" transform="matrix(1.00, 0.00, -0.00, -1.00, 69.0, 169.0)">t</text><text xml:space="preserve" font-family="Futura-Medium" font-size="34.0" fill="#000000" transform="matrix(1.00, 0.00, -0.00, -1.00, 79.0, 169.0)">h</text><text xml:space="preserve" font-family="Futura-Medium" font-size="34.0" fill="#000000" transform="matrix(1.00, 0.00, -0.00, -1.00, 97.6, 169.0)">i</text><text xml:space="preserve" font-family="Futura-Medium" font-size="34.0" fill="#000000" transform="matrix(1.00, 0.00, -0.00, -1.00, 106.1, 169.0)">n</text><text xml:space="preserve" font-family="Futura-Medium" font-size="34.0" fill="#000000" transform="matrix(1.00, 0.00, -0.00, -1.00, 124.8, 169.0)">g</text><text xml:space="preserve" font-family="Futura-Medium" font-size="34.0" fill="#000000" transform="matrix(1.00, 0.00, -0.00, -1.00, 145.1, 169.0)">s</text><text xml:space="preserve" font-family="Futura-Medium" font-size="34.0" fill="#000000" transform="matrix(1.00, 0.00, -0.00, -1.00, 158.9, 169.0)"> </text><text xml:space="preserve" font-family="Futura-Medium" font-size="34.0" fill="#000000" transform="matrix(1.00, 0.00, -0.00, -1.00, 169.4, 169.0)">y</text><text xml:space="preserve" font-family="Futura-Medium" font-size="34.0" fill="#000000" transform="matrix(1.00, 0.00, -0.00, -1.00, 187.2, 169.0)">o</text><text xml:space="preserve" font-family="Futura-Medium" font-size="34.0" fill="#000000" transform="matrix(1.00, 0.00, -0.00, -1.00, 207.7, 169.0)">u</text><text xml:space="preserve" font-family="Futura-Medium" font-size="34.0" fill="#000000" transform="matrix(1.00, 0.00, -0.00, -1.00, 226.2, 169.0)">r</text><text xml:space="preserve" font-family="Futura-Medium" font-size="34.0" fill="#000000" transform="matrix(1.00, 0.00, -0.00, -1.00, 238.9, 169.0)"> </text><text xml:space="preserve" font-family="Futura-Medium" font-size="34.0" fill="#000000" transform="matrix(1.00, 0.00, -0.00, -1.00, 249.4, 169.0)">t</text><text xml:space="preserve" font-family="Futura-Medium" font-size="34.0" fill="#000000" transform="matrix(1.00, 0.00, -0.00, -1.00, 259.0, 169.0)">e</text><text xml:space="preserve" font-family="Futura-Medium" font-size="34.0" fill="#000000" transform="matrix(1.00, 0.00, -0.00, -1.00, 277.8, 169.0)">s</text><text xml:space="preserve" font-family="Futura-Medium" font-size="34.0" fill="#000000" transform="matrix(1.00, 0.00, -0.00, -1.00, 291.6, 169.0)">t</text><text xml:space="preserve" font-family="Futura-Medium" font-size="34.0" fill="#000000" transform="matrix(1.00, 0.00, -0.00, -1.00, 300.9, 169.0)"> </text><text xml:space="preserve" font-family="Futura-Medium" font-size="34.0" fill="#000000" transform="matrix(1.00, 0.00, -0.00, -1.00, 311.4, 169.0)">c</text><text xml:space="preserve" font-family="Futura-Medium" font-size="34.0" fill="#000000" transform="matrix(1.00, 0.00, -0.00, -1.00, 327.6, 169.0)">o</text><text xml:space="preserve" font-family="Futura-Medium" font-size="34.0" fill="#000000" transform="matrix(1.00, 0.00, -0.00, -1.00, 348.0, 169.0)">d</text><text xml:space="preserve" font-family="Futura-Medium" font-size="34.0" fill="#000000" transform="matrix(1.00, 0.00, -0.00, -1.00, 368.4, 169.0)">e</text><text xml:space="preserve" font-family="Futura-Medium" font-size="34.0" fill="#000000" transform="matrix(1.00, 0.00, -0.00, -1.00, 387.2, 169.0)"> </text><text xml:space="preserve" font-family="Inconsolata" font-size="34.0" fill="#000000" transform="matrix(1.00, 0.00, -0.00, -1.00, 397.7, 169.0)">r</text><text xml:space="preserve" font-family="Inconsolata" font-size="34.0" fill="#000000" transform="matrix(1.00, 0.00, -0.00, -1.00, 414.7, 169.0)">e</text><text xml:space="preserve" font-family="Inconsolata" font-size="34.0" fill="#000000" transform="matrix(1.00, 0.00, -0.00, -1.00, 431.7, 169.0)">q</text><text xml:space="preserve" font-family="Inconsolata" font-size="34.0" fill="#000000" transform="matrix(1.00, 0.00, -0.00, -1.00, 448.7, 169.0)">u</text><text xml:space="preserve" font-family="Inconsolata" font-size="34.0" fill="#000000" transform="matrix(1.00, 0.00, -0.00, -1.00, 465.7, 169.0)">i</text><text xml:space="preserve" font-family="Inconsolata" font-size="34.0" fill="#000000" transform="matrix(1.00, 0.00, -0.00, -1.00, 482.7, 169.0)">r</text><text xml:space="preserve" font-family="Inconsolata" font-size="34.0" fill="#000000" transform="matrix(1.00, 0.00, -0.00, -1.00, 499.7, 169.0)">e</text><text xml:space="preserve" font-family="Inconsolata" font-size="34.0" fill="#000000" transform="matrix(1.00, 0.00, -0.00, -1.00, 516.7, 169.0)">(</text><text xml:space="preserve" font-family="Inconsolata" font-size="34.0" fill="#000000" transform="matrix(1.00, 0.00, -0.00, -1.00, 533.7, 169.0)">)</text><text xml:space="preserve" font-family="Futura-Medium" font-size="34.0" fill="#000000" transform="matrix(1.00, 0.00, -0.00, -1.00, 550.7, 169.0)">s</text><text xml:space="preserve" font-family="Futura-Medium" font-size="34.0" fill="#000000" transform="matrix(1.00, 0.00, -0.00, -1.00, 564.5, 169.0)"> </text><text xml:space="preserve" font-family="Futura-Medium" font-size="34.0" fill="#000000" transform="matrix(1.00, 0.00, -0.00, -1.00, 43.6, 112.9)">•</text><text xml:space="preserve" font-family="Futura-Medium" font-size="34.0" fill="#000000" transform="matrix(1.00, 0.00, -0.00, -1.00, 69.0, 113.0)">n</text><text xml:space="preserve" font-family="Futura-Medium" font-size="34.0" fill="#000000" transform="matrix(1.00, 0.00, -0.00, -1.00, 87.7, 113.0)">e</text><text xml:space="preserve" font-family="Futura-Medium" font-size="34.0" fill="#000000" transform="matrix(1.00, 0.00, -0.00, -1.00, 106.5, 113.0)">e</text><text xml:space="preserve" font-family="Futura-Medium" font-size="34.0" fill="#000000" transform="matrix(1.00, 0.00, -0.00, -1.00, 125.3, 113.0)">d</text><text xml:space="preserve" font-family="Futura-Medium" font-size="34.0" fill="#000000" transform="matrix(1.00, 0.00, -0.00, -1.00, 145.7, 113.0)">e</text><text xml:space="preserve" font-family="Futura-Medium" font-size="34.0" fill="#000000" transform="matrix(1.00, 0.00, -0.00, -1.00, 164.5, 113.0)">d</text><text xml:space="preserve" font-family="Futura-Medium" font-size="34.0" fill="#000000" transform="matrix(1.00, 0.00, -0.00, -1.00, 184.8, 113.0)"> </text><text xml:space="preserve" font-family="Futura-Medium" font-size="34.0" fill="#000000" transform="matrix(1.00, 0.00, -0.00, -1.00, 195.3, 113.0)">t</text><text xml:space="preserve" font-family="Futura-Medium" font-size="34.0" fill="#000000" transform="matrix(1.00, 0.00, -0.00, -1.00, 204.9, 113.0)">o</text><text xml:space="preserve" font-family="Futura-Medium" font-size="34.0" fill="#000000" transform="matrix(1.00, 0.00, -0.00, -1.00, 225.3, 113.0)"> </text><text xml:space="preserve" font-family="Futura-Medium" font-size="34.0" fill="#000000" transform="matrix(1.00, 0.00, -0.00, -1.00, 235.8, 113.0)">d</text><text xml:space="preserve" font-family="Futura-Medium" font-size="34.0" fill="#000000" transform="matrix(1.00, 0.00, -0.00, -1.00, 256.2, 113.0)">e</text><text xml:space="preserve" font-family="Futura-Medium" font-size="34.0" fill="#000000" transform="matrix(1.00, 0.00, -0.00, -1.00, 274.4, 113.0)">v</text><text xml:space="preserve" font-family="Futura-Medium" font-size="34.0" fill="#000000" transform="matrix(1.00, 0.00, -0.00, -1.00, 290.9, 113.0)">e</text><text xml:space="preserve" font-family="Futura-Medium" font-size="34.0" fill="#000000" transform="matrix(1.00, 0.00, -0.00, -1.00, 309.7, 113.0)">l</text><text xml:space="preserve" font-family="Futura-Medium" font-size="34.0" fill="#000000" transform="matrix(1.00, 0.00, -0.00, -1.00, 318.2, 113.0)">o</text><text xml:space="preserve" font-family="Futura-Medium" font-size="34.0" fill="#000000" transform="matrix(1.00, 0.00, -0.00, -1.00, 338.6, 113.0)">p</text><text xml:space="preserve" font-family="Futura-Medium" font-size="34.0" fill="#000000" transform="matrix(1.00, 0.00, -0.00, -1.00, 359.0, 113.0)"> </text><text xml:space="preserve" font-family="Futura-Medium" font-size="34.0" fill="#000000" transform="matrix(1.00, 0.00, -0.00, -1.00, 369.5, 113.0)">o</text><text xml:space="preserve" font-family="Futura-Medium" font-size="34.0" fill="#000000" transform="matrix(1.00, 0.00, -0.00, -1.00, 389.9, 113.0)">r</text><text xml:space="preserve" font-family="Futura-Medium" font-size="34.0" fill="#000000" transform="matrix(1.00, 0.00, -0.00, -1.00, 402.6, 113.0)"> </text><text xml:space="preserve" font-family="Futura-Medium" font-size="34.0" fill="#000000" transform="matrix(1.00, 0.00, -0.00, -1.00, 413.1, 113.0)">t</text><text xml:space="preserve" font-family="Futura-Medium" font-size="34.0" fill="#000000" transform="matrix(1.00, 0.00, -0.00, -1.00, 422.7, 113.0)">e</text><text xml:space="preserve" font-family="Futura-Medium" font-size="34.0" fill="#000000" transform="matrix(1.00, 0.00, -0.00, -1.00, 441.6, 113.0)">s</text><text xml:space="preserve" font-family="Futura-Medium" font-size="34.0" fill="#000000" transform="matrix(1.00, 0.00, -0.00, -1.00, 455.3, 113.0)">t</text><text xml:space="preserve" font-family="LucidaGrande" font-size="34.0" fill="#000000" transform="matrix(1.00, 0.00, -0.00, -1.00, 464.6, 113.0)"> </text><text xml:space="preserve" font-family="Futura-Medium" font-size="34.0" fill="#000000" transform="matrix(1.00, 0.00, -0.00, -1.00, 62.0, 59.0)">y</text><text xml:space="preserve" font-family="Futura-Medium" font-size="34.0" fill="#000000" transform="matrix(1.00, 0.00, -0.00, -1.00, 79.8, 59.0)">o</text><text xml:space="preserve" font-family="Futura-Medium" font-size="34.0" fill="#000000" transform="matrix(1.00, 0.00, -0.00, -1.00, 100.3, 59.0)">u</text><text xml:space="preserve" font-family="Futura-Medium" font-size="34.0" fill="#000000" transform="matrix(1.00, 0.00, -0.00, -1.00, 118.8, 59.0)">r</text><text xml:space="preserve" font-family="Futura-Medium" font-size="34.0" fill="#000000" transform="matrix(1.00, 0.00, -0.00, -1.00, 131.5, 59.0)"> </text><text xml:space="preserve" font-family="Futura-Medium" font-size="34.0" fill="#000000" transform="matrix(1.00, 0.00, -0.00, -1.00, 142.0, 59.0)">m</text><text xml:space="preserve" font-family="Futura-Medium" font-size="34.0" fill="#000000" transform="matrix(1.00, 0.00, -0.00, -1.00, 168.9, 59.0)">o</text><text xml:space="preserve" font-family="Futura-Medium" font-size="34.0" fill="#000000" transform="matrix(1.00, 0.00, -0.00, -1.00, 189.3, 59.0)">d</text><text xml:space="preserve" font-family="Futura-Medium" font-size="34.0" fill="#000000" transform="matrix(1.00, 0.00, -0.00, -1.00, 209.7, 59.0)">u</text><text xml:space="preserve" font-family="Futura-Medium" font-size="34.0" fill="#000000" transform="matrix(1.00, 0.00, -0.00, -1.00, 228.2, 59.0)">l</text><text xml:space="preserve" font-family="Futura-Medium" font-size="34.0" fill="#000000" transform="matrix(1.00, 0.00, -0.00, -1.00, 236.7, 59.0)">e</text></g></g><g><clipPath id="clip-64"><path d="M 590.2 510.4 L 614.2 486.4 L 624.1 567.0 L 543.5 557.1 L 567.6 533.0 L 542.1 507.6 L 564.7 485.0 Z M 590.2 510.4 "></path></clipPath><g clip-path="url(#clip-64)"><image xlink:href="../../EEC5AA22-8F9D-4739-AE53-FCB12F90C961/assets/AFF4D1F361AD28AA82012E14045EB299.jpeg" width="128.00" height="128.00" transform="matrix(0.71, 0.71, 0.71, -0.71, 518.1, 531.6)"></image><path d="M 518.1 531.6 L 588.8 602.3 L 659.5 531.6 L 588.8 460.9 Z M 518.1 531.6 " fill="#04599E" fill-opacity="0.85"></path></g></g><g><clipPath id="clip-65"><path d="M 590.2 233.4 L 614.2 209.3 L 624.1 289.9 L 543.5 280.0 L 567.6 256.0 L 542.1 230.6 L 564.7 207.9 Z M 590.2 233.4 "></path></clipPath><g clip-path="url(#clip-65)"><image xlink:href="../../EEC5AA22-8F9D-4739-AE53-FCB12F90C961/assets/AFF4D1F361AD28AA82012E14045EB299.jpeg" width="128.00" height="128.00" transform="matrix(0.71, 0.71, 0.71, -0.71, 518.1, 254.6)"></image><path d="M 518.1 254.6 L 588.8 325.3 L 659.5 254.6 L 588.8 183.9 Z M 518.1 254.6 " fill="#04599E" fill-opacity="0.85"></path></g></g></g></svg>