<?xml version="1.0" encoding="UTF-8" standalone="no"?><svg xmlns="http://www.w3.org/2000/svg" xmlns:xlink="http://www.w3.org/1999/xlink" clip-rule="evenodd" stroke-miterlimit="4.00" viewBox="0 0 1024 768"><desc>SVG generated by Keynote</desc><defs></defs><g transform="matrix(1.00, 0.00, -0.00, -1.00, 0.0, 768.0)"><path d="M 0.0 768.0 L 1024.0 768.0 L 1024.0 0.0 L 0.0 0.0 Z M 0.0 768.0 " fill="#000000"></path><image xlink:href="../../ACA96662-F166-4760-8AE8-9EBA25DC9C03/assets/B973A9B3FD369B78700C7CEF3E57C32A.jpeg" width="800.00" height="341.00" transform="matrix(2.15, 0.00, -0.00, -2.15, -170.0, 729.0)"></image><text xml:space="preserve" font-family="Arial-Black" font-weight="bold" font-size="65.0" fill="#DCDDE0" transform="matrix(1.00, 0.00, -0.00, -1.00, 21.0, 696.0)">L</text><text xml:space="preserve" font-family="Arial-Black" font-weight="bold" font-size="65.0" fill="#DCDDE0" transform="matrix(1.00, 0.00, -0.00, -1.00, 64.4, 696.0)">e</text><text xml:space="preserve" font-family="Arial-Black" font-weight="bold" font-size="65.0" fill="#DCDDE0" transform="matrix(1.00, 0.00, -0.00, -1.00, 107.7, 696.0)">t</text><text xml:space="preserve" font-family="Arial-Black" font-weight="bold" font-size="65.0" fill="#DCDDE0" transform="matrix(1.00, 0.00, -0.00, -1.00, 136.5, 696.0)">’</text><text xml:space="preserve" font-family="Arial-Black" font-weight="bold" font-size="65.0" fill="#DCDDE0" transform="matrix(1.00, 0.00, -0.00, -1.00, 152.9, 696.0)">s</text><text xml:space="preserve" font-family="Arial-Black" font-weight="bold" font-size="65.0" fill="#DCDDE0" transform="matrix(1.00, 0.00, -0.00, -1.00, 192.6, 696.0)"> </text><text xml:space="preserve" font-family="Arial-Black" font-weight="bold" font-size="65.0" fill="#DCDDE0" transform="matrix(1.00, 0.00, -0.00, -1.00, 214.3, 696.0)">t</text><text xml:space="preserve" font-family="Arial-Black" font-weight="bold" font-size="65.0" fill="#DCDDE0" transform="matrix(1.00, 0.00, -0.00, -1.00, 243.2, 696.0)">a</text><text xml:space="preserve" font-family="Arial-Black" font-weight="bold" font-size="65.0" fill="#DCDDE0" transform="matrix(1.00, 0.00, -0.00, -1.00, 286.5, 696.0)">l</text><text xml:space="preserve" font-family="Arial-Black" font-weight="bold" font-size="65.0" fill="#DCDDE0" transform="matrix(1.00, 0.00, -0.00, -1.00, 308.2, 696.0)">k</text><text xml:space="preserve" font-family="Arial-Black" font-weight="bold" font-size="65.0" fill="#DCDDE0" transform="matrix(1.00, 0.00, -0.00, -1.00, 351.5, 696.0)"> </text><text xml:space="preserve" font-family="Arial-Black" font-weight="bold" font-size="65.0" fill="#DCDDE0" transform="matrix(1.00, 0.00, -0.00, -1.00, 373.2, 696.0)">a</text><text xml:space="preserve" font-family="Arial-Black" font-weight="bold" font-size="65.0" fill="#DCDDE0" transform="matrix(1.00, 0.00, -0.00, -1.00, 417.2, 696.0)">b</text><text xml:space="preserve" font-family="Arial-Black" font-weight="bold" font-size="65.0" fill="#DCDDE0" transform="matrix(1.00, 0.00, -0.00, -1.00, 460.6, 696.0)">o</text><text xml:space="preserve" font-family="Arial-Black" font-weight="bold" font-size="65.0" fill="#DCDDE0" transform="matrix(1.00, 0.00, -0.00, -1.00, 503.9, 696.0)">u</text><text xml:space="preserve" font-family="Arial-Black" font-weight="bold" font-size="65.0" fill="#DCDDE0" transform="matrix(1.00, 0.00, -0.00, -1.00, 547.3, 696.0)">t</text><text xml:space="preserve" font-family="Arial-Black" font-weight="bold" font-size="65.0" fill="#DCDDE0" transform="matrix(1.00, 0.00, -0.00, -1.00, 576.1, 696.0)"> </text><text xml:space="preserve" font-family="Arial-Black" font-weight="bold" font-size="65.0" fill="#DCDDE0" transform="matrix(1.00, 0.00, -0.00, -1.00, 597.8, 696.0)">t</text><text xml:space="preserve" font-family="Arial-Black" font-weight="bold" font-size="65.0" fill="#DCDDE0" transform="matrix(1.00, 0.00, -0.00, -1.00, 626.7, 696.0)">e</text><text xml:space="preserve" font-family="Arial-Black" font-weight="bold" font-size="65.0" fill="#DCDDE0" transform="matrix(1.00, 0.00, -0.00, -1.00, 670.0, 696.0)">s</text><text xml:space="preserve" font-family="Arial-Black" font-weight="bold" font-size="65.0" fill="#DCDDE0" transform="matrix(1.00, 0.00, -0.00, -1.00, 709.7, 696.0)">t</text><text xml:space="preserve" font-family="Arial-Black" font-weight="bold" font-size="65.0" fill="#DCDDE0" transform="matrix(1.00, 0.00, -0.00, -1.00, 738.5, 696.0)">s</text><text xml:space="preserve" font-family="Futura-Medium" font-size="63.0" fill="#DCDDE0" transform="matrix(1.00, 0.00, -0.00, -1.00, 30.0, 594.0)">F</text><text xml:space="preserve" font-family="Futura-Medium" font-size="63.0" fill="#DCDDE0" transform="matrix(1.00, 0.00, -0.00, -1.00, 61.4, 594.0)">r</text><text xml:space="preserve" font-family="Futura-Medium" font-size="63.0" fill="#DCDDE0" transform="matrix(1.00, 0.00, -0.00, -1.00, 84.6, 594.0)">a</text><text xml:space="preserve" font-family="Futura-Medium" font-size="63.0" fill="#DCDDE0" transform="matrix(1.00, 0.00, -0.00, -1.00, 122.3, 594.0)">m</text><text xml:space="preserve" font-family="Futura-Medium" font-size="63.0" fill="#DCDDE0" transform="matrix(1.00, 0.00, -0.00, -1.00, 172.1, 594.0)">e</text><text xml:space="preserve" font-family="Futura-Medium" font-size="63.0" fill="#DCDDE0" transform="matrix(1.00, 0.00, -0.00, -1.00, 206.1, 594.0)">w</text><text xml:space="preserve" font-family="Futura-Medium" font-size="63.0" fill="#DCDDE0" transform="matrix(1.00, 0.00, -0.00, -1.00, 253.7, 594.0)">o</text><text xml:space="preserve" font-family="Futura-Medium" font-size="63.0" fill="#DCDDE0" transform="matrix(1.00, 0.00, -0.00, -1.00, 291.5, 594.0)">r</text><text xml:space="preserve" font-family="Futura-Medium" font-size="63.0" fill="#DCDDE0" transform="matrix(1.00, 0.00, -0.00, -1.00, 316.1, 594.0)">k</text><text xml:space="preserve" font-family="Futura-Medium" font-size="63.0" fill="#DCDDE0" transform="matrix(1.00, 0.00, -0.00, -1.00, 347.4, 594.0)">s</text><text xml:space="preserve" font-family="Futura-Medium" font-size="63.0" fill="#DCDDE0" transform="matrix(1.00, 0.00, -0.00, -1.00, 373.0, 594.0)"> </text><text xml:space="preserve" font-family="Futura-Medium" font-size="63.0" fill="#DCDDE0" transform="matrix(1.00, 0.00, -0.00, -1.00, 30.1, 510.9)">•</text><text xml:space="preserve" font-family="Futura-Medium" font-size="63.0" fill="#DCDDE0" transform="matrix(1.00, 0.00, -0.00, -1.00, 78.0, 511.0)">r</text><text xml:space="preserve" font-family="Futura-Medium" font-size="63.0" fill="#DCDDE0" transform="matrix(1.00, 0.00, -0.00, -1.00, 102.5, 511.0)">u</text><text xml:space="preserve" font-family="Futura-Medium" font-size="63.0" fill="#DCDDE0" transform="matrix(1.00, 0.00, -0.00, -1.00, 136.8, 511.0)">n</text><text xml:space="preserve" font-family="Futura-Medium" font-size="63.0" fill="#DCDDE0" transform="matrix(1.00, 0.00, -0.00, -1.00, 171.4, 511.0)">n</text><text xml:space="preserve" font-family="Futura-Medium" font-size="63.0" fill="#DCDDE0" transform="matrix(1.00, 0.00, -0.00, -1.00, 206.0, 511.0)">e</text><text xml:space="preserve" font-family="Futura-Medium" font-size="63.0" fill="#DCDDE0" transform="matrix(1.00, 0.00, -0.00, -1.00, 240.8, 511.0)">r</text><text xml:space="preserve" font-family="Futura-Medium" font-size="63.0" fill="#DCDDE0" transform="matrix(1.00, 0.00, -0.00, -1.00, 264.4, 511.0)"> </text><text xml:space="preserve" font-family="Futura-Medium" font-size="63.0" fill="#DCDDE0" transform="matrix(1.00, 0.00, -0.00, -1.00, 30.1, 427.9)">•</text><text xml:space="preserve" font-family="Futura-Medium" font-size="63.0" fill="#DCDDE0" transform="matrix(1.00, 0.00, -0.00, -1.00, 78.0, 428.0)">A</text><text xml:space="preserve" font-family="Futura-Medium" font-size="63.0" fill="#DCDDE0" transform="matrix(1.00, 0.00, -0.00, -1.00, 124.6, 428.0)">P</text><text xml:space="preserve" font-family="Futura-Medium" font-size="63.0" fill="#DCDDE0" transform="matrix(1.00, 0.00, -0.00, -1.00, 158.7, 428.0)">I</text><text xml:space="preserve" font-family="Futura-Medium" font-size="63.0" fill="#DCDDE0" transform="matrix(1.00, 0.00, -0.00, -1.00, 177.2, 428.0)"> </text><text xml:space="preserve" font-family="Futura-Medium" font-size="63.0" fill="#DCDDE0" transform="matrix(1.00, 0.00, -0.00, -1.00, 30.1, 344.9)">•</text><text xml:space="preserve" font-family="Futura-Medium" font-size="63.0" fill="#DCDDE0" transform="matrix(1.00, 0.00, -0.00, -1.00, 78.0, 345.0)">a</text><text xml:space="preserve" font-family="Futura-Medium" font-size="63.0" fill="#DCDDE0" transform="matrix(1.00, 0.00, -0.00, -1.00, 115.8, 345.0)">s</text><text xml:space="preserve" font-family="Futura-Medium" font-size="63.0" fill="#DCDDE0" transform="matrix(1.00, 0.00, -0.00, -1.00, 141.3, 345.0)">s</text><text xml:space="preserve" font-family="Futura-Medium" font-size="63.0" fill="#DCDDE0" transform="matrix(1.00, 0.00, -0.00, -1.00, 166.9, 345.0)">e</text><text xml:space="preserve" font-family="Futura-Medium" font-size="63.0" fill="#DCDDE0" transform="matrix(1.00, 0.00, -0.00, -1.00, 201.7, 345.0)">r</text><text xml:space="preserve" font-family="Futura-Medium" font-size="63.0" fill="#DCDDE0" transform="matrix(1.00, 0.00, -0.00, -1.00, 227.6, 345.0)">t</text><text xml:space="preserve" font-family="Futura-Medium" font-size="63.0" fill="#DCDDE0" transform="matrix(1.00, 0.00, -0.00, -1.00, 244.8, 345.0)">i</text><text xml:space="preserve" font-family="Futura-Medium" font-size="63.0" fill="#DCDDE0" transform="matrix(1.00, 0.00, -0.00, -1.00, 260.5, 345.0)">o</text><text xml:space="preserve" font-family="Futura-Medium" font-size="63.0" fill="#DCDDE0" transform="matrix(1.00, 0.00, -0.00, -1.00, 298.4, 345.0)">n</text><text xml:space="preserve" font-family="Futura-Medium" font-size="63.0" fill="#DCDDE0" transform="matrix(1.00, 0.00, -0.00, -1.00, 332.9, 345.0)">s</text><text xml:space="preserve" font-family="Futura-Medium" font-size="63.0" fill="#DCDDE0" transform="matrix(1.00, 0.00, -0.00, -1.00, 358.5, 345.0)"> </text><text xml:space="preserve" font-family="Futura-Medium" font-size="63.0" fill="#DCDDE0" transform="matrix(1.00, 0.00, -0.00, -1.00, 30.1, 261.9)">•</text><text xml:space="preserve" font-family="Futura-Medium" font-size="63.0" fill="#DCDDE0" transform="matrix(1.00, 0.00, -0.00, -1.00, 78.0, 262.0)">m</text><text xml:space="preserve" font-family="Futura-Medium" font-size="63.0" fill="#DCDDE0" transform="matrix(1.00, 0.00, -0.00, -1.00, 127.8, 262.0)">o</text><text xml:space="preserve" font-family="Futura-Medium" font-size="63.0" fill="#DCDDE0" transform="matrix(1.00, 0.00, -0.00, -1.00, 165.7, 262.0)">c</text><text xml:space="preserve" font-family="Futura-Medium" font-size="63.0" fill="#DCDDE0" transform="matrix(1.00, 0.00, -0.00, -1.00, 197.3, 262.0)">k</text><text xml:space="preserve" font-family="Futura-Medium" font-size="63.0" fill="#DCDDE0" transform="matrix(1.00, 0.00, -0.00, -1.00, 228.7, 262.0)">s</text></g></svg>