<?xml version="1.0" encoding="UTF-8" standalone="no"?><svg xmlns="http://www.w3.org/2000/svg" xmlns:xlink="http://www.w3.org/1999/xlink" clip-rule="evenodd" stroke-miterlimit="4.00" viewBox="0 0 1024 768"><desc>SVG generated by Keynote</desc><defs></defs><g transform="matrix(1.00, 0.00, -0.00, -1.00, 0.0, 768.0)"><path d="M 0.0 768.0 L 1024.0 768.0 L 1024.0 0.0 L 0.0 0.0 Z M 0.0 768.0 " fill="#000000"></path><image xlink:href="../../17723EFF-55C9-4024-A6CF-5FCC1C17D41F/assets/63B508F1D80E79BE3B0B7AB8DD9F83C5.jpeg" width="701.00" height="394.00" transform="matrix(1.97, 0.00, -0.00, -1.97, -1.0, 772.0)"></image><text xml:space="preserve" font-family="Arial-Black" font-weight="bold" font-size="65.0" fill="#603704" transform="matrix(1.00, 0.00, -0.00, -1.00, 21.0, 703.0)">H</text><text xml:space="preserve" font-family="Arial-Black" font-weight="bold" font-size="65.0" fill="#603704" transform="matrix(1.00, 0.00, -0.00, -1.00, 75.1, 703.0)">o</text><text xml:space="preserve" font-family="Arial-Black" font-weight="bold" font-size="65.0" fill="#603704" transform="matrix(1.00, 0.00, -0.00, -1.00, 117.3, 703.0)">w</text><text xml:space="preserve" font-family="Arial-Black" font-weight="bold" font-size="65.0" fill="#603704" transform="matrix(1.00, 0.00, -0.00, -1.00, 178.7, 703.0)"> </text><text xml:space="preserve" font-family="Arial-Black" font-weight="bold" font-size="65.0" fill="#603704" transform="matrix(1.00, 0.00, -0.00, -1.00, 200.4, 703.0)">t</text><text xml:space="preserve" font-family="Arial-Black" font-weight="bold" font-size="65.0" fill="#603704" transform="matrix(1.00, 0.00, -0.00, -1.00, 229.2, 703.0)">o</text><text xml:space="preserve" font-family="Arial-Black" font-weight="bold" font-size="65.0" fill="#603704" transform="matrix(1.00, 0.00, -0.00, -1.00, 272.6, 703.0)"> </text><text xml:space="preserve" font-family="Arial-Black" font-weight="bold" font-size="65.0" fill="#603704" transform="matrix(1.00, 0.00, -0.00, -1.00, 294.3, 703.0)">c</text><text xml:space="preserve" font-family="Arial-Black" font-weight="bold" font-size="65.0" fill="#603704" transform="matrix(1.00, 0.00, -0.00, -1.00, 337.6, 703.0)">r</text><text xml:space="preserve" font-family="Arial-Black" font-weight="bold" font-size="65.0" fill="#603704" transform="matrix(1.00, 0.00, -0.00, -1.00, 367.5, 703.0)">e</text><text xml:space="preserve" font-family="Arial-Black" font-weight="bold" font-size="65.0" fill="#603704" transform="matrix(1.00, 0.00, -0.00, -1.00, 410.9, 703.0)">a</text><text xml:space="preserve" font-family="Arial-Black" font-weight="bold" font-size="65.0" fill="#603704" transform="matrix(1.00, 0.00, -0.00, -1.00, 453.1, 703.0)">t</text><text xml:space="preserve" font-family="Arial-Black" font-weight="bold" font-size="65.0" fill="#603704" transform="matrix(1.00, 0.00, -0.00, -1.00, 482.0, 703.0)">e</text><text xml:space="preserve" font-family="Arial-Black" font-weight="bold" font-size="65.0" fill="#603704" transform="matrix(1.00, 0.00, -0.00, -1.00, 525.3, 703.0)"> </text><text xml:space="preserve" font-family="Arial-Black" font-weight="bold" font-size="65.0" fill="#603704" transform="matrix(1.00, 0.00, -0.00, -1.00, 547.0, 703.0)">a</text><text xml:space="preserve" font-family="Arial-Black" font-weight="bold" font-size="65.0" fill="#603704" transform="matrix(1.00, 0.00, -0.00, -1.00, 590.4, 703.0)"> </text><text xml:space="preserve" font-family="Inconsolata" font-size="65.0" fill="#603704" transform="matrix(1.00, 0.00, -0.00, -1.00, 21.0, 611.0)">p</text><text xml:space="preserve" font-family="Inconsolata" font-size="65.0" fill="#603704" transform="matrix(1.00, 0.00, -0.00, -1.00, 53.5, 611.0)">a</text><text xml:space="preserve" font-family="Inconsolata" font-size="65.0" fill="#603704" transform="matrix(1.00, 0.00, -0.00, -1.00, 86.0, 611.0)">c</text><text xml:space="preserve" font-family="Inconsolata" font-size="65.0" fill="#603704" transform="matrix(1.00, 0.00, -0.00, -1.00, 118.5, 611.0)">k</text><text xml:space="preserve" font-family="Inconsolata" font-size="65.0" fill="#603704" transform="matrix(1.00, 0.00, -0.00, -1.00, 151.0, 611.0)">a</text><text xml:space="preserve" font-family="Inconsolata" font-size="65.0" fill="#603704" transform="matrix(1.00, 0.00, -0.00, -1.00, 183.5, 611.0)">g</text><text xml:space="preserve" font-family="Inconsolata" font-size="65.0" fill="#603704" transform="matrix(1.00, 0.00, -0.00, -1.00, 216.0, 611.0)">e</text><text xml:space="preserve" font-family="Inconsolata" font-size="65.0" fill="#603704" transform="matrix(1.00, 0.00, -0.00, -1.00, 248.5, 611.0)">.</text><text xml:space="preserve" font-family="Inconsolata" font-size="65.0" fill="#603704" transform="matrix(1.00, 0.00, -0.00, -1.00, 281.0, 611.0)">j</text><text xml:space="preserve" font-family="Inconsolata" font-size="65.0" fill="#603704" transform="matrix(1.00, 0.00, -0.00, -1.00, 313.5, 611.0)">s</text><text xml:space="preserve" font-family="Inconsolata" font-size="65.0" fill="#603704" transform="matrix(1.00, 0.00, -0.00, -1.00, 346.0, 611.0)">o</text><text xml:space="preserve" font-family="Inconsolata" font-size="65.0" fill="#603704" transform="matrix(1.00, 0.00, -0.00, -1.00, 378.5, 611.0)">n</text><text xml:space="preserve" font-family="Arial-Black" font-weight="bold" font-size="65.0" fill="#603704" transform="matrix(1.00, 0.00, -0.00, -1.00, 411.0, 611.0)"> </text><text xml:space="preserve" font-family="Arial-Black" font-weight="bold" font-size="65.0" fill="#603704" transform="matrix(1.00, 0.00, -0.00, -1.00, 432.7, 611.0)">f</text><text xml:space="preserve" font-family="Arial-Black" font-weight="bold" font-size="65.0" fill="#603704" transform="matrix(1.00, 0.00, -0.00, -1.00, 458.0, 611.0)">i</text><text xml:space="preserve" font-family="Arial-Black" font-weight="bold" font-size="65.0" fill="#603704" transform="matrix(1.00, 0.00, -0.00, -1.00, 479.7, 611.0)">l</text><text xml:space="preserve" font-family="Arial-Black" font-weight="bold" font-size="65.0" fill="#603704" transform="matrix(1.00, 0.00, -0.00, -1.00, 501.3, 611.0)">e</text><text xml:space="preserve" font-family="Arial-Black" font-weight="bold" font-size="65.0" fill="#603704" transform="matrix(1.00, 0.00, -0.00, -1.00, 544.7, 611.0)">?</text><text xml:space="preserve" font-family="Arial-Black" font-weight="bold" font-size="59.0" fill="#FEFFFF" transform="matrix(1.00, 0.00, -0.00, -1.00, 13.0, 285.0)">d</text><text xml:space="preserve" font-family="Arial-Black" font-weight="bold" font-size="59.0" fill="#FEFFFF" transform="matrix(1.00, 0.00, -0.00, -1.00, 52.4, 285.0)">e</text><text xml:space="preserve" font-family="Arial-Black" font-weight="bold" font-size="59.0" fill="#FEFFFF" transform="matrix(1.00, 0.00, -0.00, -1.00, 90.2, 285.0)">v</text><text xml:space="preserve" font-family="Arial-Black" font-weight="bold" font-size="59.0" fill="#FEFFFF" transform="matrix(1.00, 0.00, -0.00, -1.00, 126.2, 285.0)">D</text><text xml:space="preserve" font-family="Arial-Black" font-weight="bold" font-size="59.0" fill="#FEFFFF" transform="matrix(1.00, 0.00, -0.00, -1.00, 172.1, 285.0)">e</text><text xml:space="preserve" font-family="Arial-Black" font-weight="bold" font-size="59.0" fill="#FEFFFF" transform="matrix(1.00, 0.00, -0.00, -1.00, 211.4, 285.0)">p</text><text xml:space="preserve" font-family="Arial-Black" font-weight="bold" font-size="59.0" fill="#FEFFFF" transform="matrix(1.00, 0.00, -0.00, -1.00, 250.8, 285.0)">e</text><text xml:space="preserve" font-family="Arial-Black" font-weight="bold" font-size="59.0" fill="#FEFFFF" transform="matrix(1.00, 0.00, -0.00, -1.00, 290.1, 285.0)">n</text><text xml:space="preserve" font-family="Arial-Black" font-weight="bold" font-size="59.0" fill="#FEFFFF" transform="matrix(1.00, 0.00, -0.00, -1.00, 329.5, 285.0)">d</text><text xml:space="preserve" font-family="Arial-Black" font-weight="bold" font-size="59.0" fill="#FEFFFF" transform="matrix(1.00, 0.00, -0.00, -1.00, 368.8, 285.0)">e</text><text xml:space="preserve" font-family="Arial-Black" font-weight="bold" font-size="59.0" fill="#FEFFFF" transform="matrix(1.00, 0.00, -0.00, -1.00, 408.2, 285.0)">n</text><text xml:space="preserve" font-family="Arial-Black" font-weight="bold" font-size="59.0" fill="#FEFFFF" transform="matrix(1.00, 0.00, -0.00, -1.00, 447.6, 285.0)">c</text><text xml:space="preserve" font-family="Arial-Black" font-weight="bold" font-size="59.0" fill="#FEFFFF" transform="matrix(1.00, 0.00, -0.00, -1.00, 486.9, 285.0)">i</text><text xml:space="preserve" font-family="Arial-Black" font-weight="bold" font-size="59.0" fill="#FEFFFF" transform="matrix(1.00, 0.00, -0.00, -1.00, 506.6, 285.0)">e</text><text xml:space="preserve" font-family="Arial-Black" font-weight="bold" font-size="59.0" fill="#FEFFFF" transform="matrix(1.00, 0.00, -0.00, -1.00, 545.9, 285.0)">s</text><g><clipPath id="clip-42"><path d="M 11.8 274.5 L 581.8 274.5 L 581.8 280.1 L 11.8 280.1 Z M 11.8 274.5 "></path></clipPath><g clip-path="url(#clip-42)"><path d="M 4.0 76.1 L 573.0 76.1 " fill="none" stroke="#FEFFFF" stroke-width="3.54" stroke-miterlimit="0.00" transform="matrix(1.00, 0.00, 0.00, -1.00, 8.8, 353.4)"></path></g></g><image xlink:href="4757069F835DB596E78708338CFBBC71.png" width="290.00" height="540.00" transform="matrix(1.42, 0.00, -0.00, -1.42, 606.0, 768.0)"></image><text xml:space="preserve" font-family="Arial-Black" font-weight="bold" font-size="59.0" fill="#000000" transform="matrix(1.00, 0.00, -0.00, -1.00, 13.0, 535.0)">d</text><text xml:space="preserve" font-family="Arial-Black" font-weight="bold" font-size="59.0" fill="#000000" transform="matrix(1.00, 0.00, -0.00, -1.00, 52.4, 535.0)">e</text><text xml:space="preserve" font-family="Arial-Black" font-weight="bold" font-size="59.0" fill="#000000" transform="matrix(1.00, 0.00, -0.00, -1.00, 91.7, 535.0)">p</text><text xml:space="preserve" font-family="Arial-Black" font-weight="bold" font-size="59.0" fill="#000000" transform="matrix(1.00, 0.00, -0.00, -1.00, 131.1, 535.0)">e</text><text xml:space="preserve" font-family="Arial-Black" font-weight="bold" font-size="59.0" fill="#000000" transform="matrix(1.00, 0.00, -0.00, -1.00, 170.4, 535.0)">n</text><text xml:space="preserve" font-family="Arial-Black" font-weight="bold" font-size="59.0" fill="#000000" transform="matrix(1.00, 0.00, -0.00, -1.00, 209.8, 535.0)">d</text><text xml:space="preserve" font-family="Arial-Black" font-weight="bold" font-size="59.0" fill="#000000" transform="matrix(1.00, 0.00, -0.00, -1.00, 249.1, 535.0)">e</text><text xml:space="preserve" font-family="Arial-Black" font-weight="bold" font-size="59.0" fill="#000000" transform="matrix(1.00, 0.00, -0.00, -1.00, 288.5, 535.0)">n</text><text xml:space="preserve" font-family="Arial-Black" font-weight="bold" font-size="59.0" fill="#000000" transform="matrix(1.00, 0.00, -0.00, -1.00, 327.8, 535.0)">c</text><text xml:space="preserve" font-family="Arial-Black" font-weight="bold" font-size="59.0" fill="#000000" transform="matrix(1.00, 0.00, -0.00, -1.00, 367.2, 535.0)">i</text><text xml:space="preserve" font-family="Arial-Black" font-weight="bold" font-size="59.0" fill="#000000" transform="matrix(1.00, 0.00, -0.00, -1.00, 386.8, 535.0)">e</text><text xml:space="preserve" font-family="Arial-Black" font-weight="bold" font-size="59.0" fill="#000000" transform="matrix(1.00, 0.00, -0.00, -1.00, 426.2, 535.0)">s</text><g><clipPath id="clip-43"><path d="M 11.8 525.3 L 462.0 525.3 L 462.0 530.9 L 11.8 530.9 Z M 11.8 525.3 "></path></clipPath><g clip-path="url(#clip-43)"><path d="M 4.0 76.1 L 453.2 76.1 " fill="none" stroke="#000000" stroke-width="3.54" stroke-miterlimit="0.00" transform="matrix(1.00, 0.00, 0.00, -1.00, 8.8, 604.2)"></path></g></g></g></svg>